<svg xmlns="http://www.w3.org/2000/svg" viewBox="0 0 75.38 38.56"><defs><style>.cls-1{fill:#606060;}</style></defs><title>3renderslogodark</title><g id="Layer_2" data-name="Layer 2"><g id="Ñëîé_3" data-name="Ñëîé 3"><path class="cls-1" d="M16,23.21a5.64,5.64,0,0,1-.69,0l-.69-.11A5.92,5.92,0,0,1,14,22.9a3.13,3.13,0,0,1-.43-.16L14,21.26c.21.08.48.18.8.28a4.2,4.2,0,0,0,1.21.15,2,2,0,0,0,1.21-.31A1.16,1.16,0,0,0,17.42,20a1.09,1.09,0,0,0-.38-.36,1.6,1.6,0,0,0-.57-.19,4,4,0,0,0-.7-.06h-.7V17.94h.79a2.78,2.78,0,0,0,.51,0,1.55,1.55,0,0,0,.44-.17.75.75,0,0,0,.3-.31,1,1,0,0,0,.12-.5.71.71,0,0,0-.1-.39.81.81,0,0,0-.24-.28,1.25,1.25,0,0,0-.35-.16,1.37,1.37,0,0,0-.4-.05,3,3,0,0,0-1,.15,4.24,4.24,0,0,0-.8.39l-.63-1.31A4.54,4.54,0,0,1,14.2,15a3.76,3.76,0,0,1,.57-.24,3.46,3.46,0,0,1,.67-.18,3.52,3.52,0,0,1,.75-.08,4,4,0,0,1,1.26.18,2.27,2.27,0,0,1,.88.49,1.89,1.89,0,0,1,.52.74,2.56,2.56,0,0,1,.17.93,1.84,1.84,0,0,1-.28.95,1.78,1.78,0,0,1-.74.7,2.2,2.2,0,0,1,1,.79,2.25,2.25,0,0,1,.35,1.26,2.81,2.81,0,0,1-.19,1.06,2.24,2.24,0,0,1-.6.84,2.78,2.78,0,0,1-1,.55A4.71,4.71,0,0,1,16,23.21Z"/><path class="cls-1" d="M28.35,18.87A4.9,4.9,0,0,1,28,20.75a3.53,3.53,0,0,1-1,1.33,4,4,0,0,1-1.5.8,7.26,7.26,0,0,1-2,.26c-.34,0-.73,0-1.18,0a9.53,9.53,0,0,1-1.32-.18v-8.1a11.34,11.34,0,0,1,1.35-.16c.47,0,.87,0,1.21,0a7.23,7.23,0,0,1,1.93.24,3.94,3.94,0,0,1,1.5.76,3.42,3.42,0,0,1,1,1.32A5.06,5.06,0,0,1,28.35,18.87Zm-5.41,2.64.31,0h.41a2.72,2.72,0,0,0,2.08-.71,2.71,2.71,0,0,0,.68-1.95,2.72,2.72,0,0,0-.65-2,2.72,2.72,0,0,0-2.05-.67h-.4l-.38,0Z"/><path class="cls-1" d="M32.35,14.62a5.12,5.12,0,0,1,2.87.67,2.31,2.31,0,0,1,1,2.07,2.34,2.34,0,0,1-.4,1.42,2.68,2.68,0,0,1-1.16.86,7.71,7.71,0,0,1,.53.71c.19.27.37.55.55.84s.35.6.52.91.32.63.47.93h-2.1l-.46-.83q-.24-.42-.48-.81c-.17-.27-.33-.52-.49-.75a7.11,7.11,0,0,0-.48-.64h-.92v3H29.91V14.84a10.23,10.23,0,0,1,1.27-.17C31.62,14.64,32,14.62,32.35,14.62Zm.11,1.6h-.37l-.3,0v2.26h.52a3.16,3.16,0,0,0,1.52-.27,1,1,0,0,0,.45-.9.93.93,0,0,0-.46-.87A2.89,2.89,0,0,0,32.46,16.22Z"/><path class="cls-1" d="M37.2,19.92a3.9,3.9,0,0,1,.25-1.47,3.28,3.28,0,0,1,.68-1.05,2.71,2.71,0,0,1,1-.63,2.9,2.9,0,0,1,1.12-.22,2.8,2.8,0,0,1,2.12.82,3.4,3.4,0,0,1,.78,2.42c0,.11,0,.22,0,.34s0,.24,0,.33H39a1.19,1.19,0,0,0,.52.88,2,2,0,0,0,1.22.32,5.23,5.23,0,0,0,1-.09,3.6,3.6,0,0,0,.77-.22l.24,1.45a2.14,2.14,0,0,1-.38.15,3.77,3.77,0,0,1-.53.12,5.8,5.8,0,0,1-.64.09,4.92,4.92,0,0,1-.67,0A3.92,3.92,0,0,1,39.05,23a2.87,2.87,0,0,1-1-.69,2.8,2.8,0,0,1-.62-1A4.17,4.17,0,0,1,37.2,19.92Zm4.2-.68a2.14,2.14,0,0,0-.08-.44,1,1,0,0,0-.21-.39,1,1,0,0,0-.34-.27,1.07,1.07,0,0,0-.53-.11,1.13,1.13,0,0,0-.51.1,1.1,1.1,0,0,0-.36.27,1.07,1.07,0,0,0-.22.39,2.5,2.5,0,0,0-.12.45Z"/><path class="cls-1" d="M44.5,16.94a10.67,10.67,0,0,1,1.18-.25,9.25,9.25,0,0,1,1.51-.11,3.69,3.69,0,0,1,1.34.21,2,2,0,0,1,.85.59,2.34,2.34,0,0,1,.44.91A4.79,4.79,0,0,1,50,19.47V23H48.17V19.68a2.43,2.43,0,0,0-.23-1.22.93.93,0,0,0-.85-.36l-.41,0-.39,0V23H44.5Z"/><path class="cls-1" d="M57.14,22.83l-.55.14-.65.11-.7.08-.68,0A4,4,0,0,1,53.17,23a2.7,2.7,0,0,1-1.67-1.69,3.84,3.84,0,0,1-.23-1.36,4.9,4.9,0,0,1,.19-1.38A2.92,2.92,0,0,1,52,17.48a2.3,2.3,0,0,1,.88-.66,2.84,2.84,0,0,1,1.19-.23,2.76,2.76,0,0,1,.67.07,4.56,4.56,0,0,1,.59.2V14l1.79-.29Zm-4-3a2.18,2.18,0,0,0,.37,1.33,1.28,1.28,0,0,0,1.1.5H55l.33,0V18.35a1.74,1.74,0,0,0-.43-.18,2.13,2.13,0,0,0-.55-.07C53.52,18.1,53.1,18.68,53.1,19.83Z"/><path class="cls-1" d="M58.52,19.92a3.9,3.9,0,0,1,.26-1.47,3.12,3.12,0,0,1,.68-1.05,2.76,2.76,0,0,1,1-.63,2.94,2.94,0,0,1,1.12-.22,2.82,2.82,0,0,1,2.13.82,3.4,3.4,0,0,1,.78,2.42c0,.11,0,.22,0,.34s0,.24,0,.33h-4a1.21,1.21,0,0,0,.51.88,2.06,2.06,0,0,0,1.23.32,5.12,5.12,0,0,0,1-.09,3.54,3.54,0,0,0,.78-.22l.24,1.45a2.68,2.68,0,0,1-.39.15,3.77,3.77,0,0,1-.53.12,6,6,0,0,1-.63.09,5.12,5.12,0,0,1-.67,0A4,4,0,0,1,60.37,23a3,3,0,0,1-1-.69,2.65,2.65,0,0,1-.61-1A4.17,4.17,0,0,1,58.52,19.92Zm4.2-.68a1.63,1.63,0,0,0-.08-.44,1,1,0,0,0-.2-.39,1.06,1.06,0,0,0-.35-.27,1,1,0,0,0-.52-.11,1.09,1.09,0,0,0-.88.37,1.24,1.24,0,0,0-.22.39,2.46,2.46,0,0,0-.11.45Z"/><path class="cls-1" d="M69.63,18.3l-.56-.12a3.14,3.14,0,0,0-.7-.07l-.4,0a1.77,1.77,0,0,0-.35.07V23H65.83v-6A9.31,9.31,0,0,1,67,16.74a6.55,6.55,0,0,1,1.46-.15,2.3,2.3,0,0,1,.35,0l.41,0,.41.08a1.37,1.37,0,0,1,.34.1Z"/><path class="cls-1" d="M72.7,21.75a1.69,1.69,0,0,0,.7-.1.36.36,0,0,0,.2-.37.45.45,0,0,0-.26-.38,4.52,4.52,0,0,0-.8-.36c-.28-.11-.54-.22-.77-.33a2.21,2.21,0,0,1-.58-.4,1.66,1.66,0,0,1-.37-.56,2,2,0,0,1-.13-.78,1.68,1.68,0,0,1,.66-1.4,2.83,2.83,0,0,1,1.81-.52,6.43,6.43,0,0,1,1.1.1,4.8,4.8,0,0,1,.84.23l-.31,1.39a5.53,5.53,0,0,0-.68-.19,3.37,3.37,0,0,0-.82-.09c-.56,0-.84.16-.84.47a.38.38,0,0,0,0,.19.35.35,0,0,0,.14.16,1.33,1.33,0,0,0,.3.17,4.73,4.73,0,0,0,.47.2,7.82,7.82,0,0,1,1,.43,2.16,2.16,0,0,1,.61.46,1.34,1.34,0,0,1,.31.54,2.43,2.43,0,0,1,.09.7,1.59,1.59,0,0,1-.7,1.41,3.5,3.5,0,0,1-2,.48,6,6,0,0,1-1.39-.14,6.53,6.53,0,0,1-.78-.24l.3-1.46a6,6,0,0,0,.94.29A5.09,5.09,0,0,0,72.7,21.75Z"/><path class="cls-1" d="M3.3,31.8a.28.28,0,0,0,.15-.08l4.63,4a.39.39,0,0,0,0,.33.4.4,0,0,0,.73.07L17,38.09a.41.41,0,0,0,0,.19.4.4,0,0,0,.51.26.39.39,0,0,0,.26-.45l8.47-3v0a.41.41,0,0,0,.51.27.41.41,0,0,0,.26-.51.36.36,0,0,0-.17-.21l3.79-4.29a.36.36,0,0,0,.33.05.4.4,0,1,0-.24-.76.39.39,0,0,0-.26.5.39.39,0,0,0,.06.11L27.22,33l-.07-.07,2.65-5.13a.45.45,0,0,0,.34,0,.5.5,0,1,0-.3-1,.49.49,0,0,0-.33.63.59.59,0,0,0,0,.08L26.47,30l-.73-1.6a.39.39,0,0,0,.16-.45.39.39,0,0,0-.5-.26.4.4,0,0,0-.26.5.05.05,0,0,0,0,0l-2,2.09-4.9-2.17a.7.7,0,0,0,0-.38.73.73,0,0,0-.91-.47.72.72,0,0,0-.46.9L13.6,29.34l.31-1.67h0L7.29,26l-.53-1.8a.71.71,0,0,0-.47-1.34L5,19.61l1.47-.75a.28.28,0,0,0,.25.05.27.27,0,0,0,.18-.34.28.28,0,0,0-.34-.18.26.26,0,0,0-.14.11L3.46,15.84l0-.09a.5.5,0,0,0,.22-.52L10.77,14s0,0,0,.07a.51.51,0,1,0,.54-.66L11,8.25a.39.39,0,0,0,.15,0,.69.69,0,0,0,.19-.1L15.76,7l.41.23a.52.52,0,0,0,0,.37.51.51,0,1,0,1-.31.6.6,0,0,0-.06-.11l3.67-1.51h0a.4.4,0,1,0,.77-.25A.42.42,0,0,0,21,5.2a.42.42,0,0,0-.28.35l-7.4-.12v0a.4.4,0,0,0-.5-.26.38.38,0,0,0-.27.42l-4.83,2A.4.4,0,0,0,7,7.84.38.38,0,0,0,7.05,8L3.58,11.16a.4.4,0,0,0-.73.3.41.41,0,0,0,.34.28L.62,17.24a.37.37,0,0,0-.18,0,.41.41,0,0,0-.26.51A.44.44,0,0,0,.47,18l0,6.13a.44.44,0,0,0-.16,0,.4.4,0,0,0,.24.77l0,0L3,31.08a.4.4,0,0,0,.32.72ZM17.09,6.64,15.77,7,13.3,5.64s0,0,0,0l3.78,1S17.09,6.62,17.09,6.64ZM6.38,11.21l-.5,0,.41-.63a.35.35,0,0,0,.22.12ZM3.17,14.83a.55.55,0,0,0-.18,0l-.07,0,.26-.27Zm-.71,5.94a.24.24,0,0,0-.11-.06l.28-4.91.15-.12a.48.48,0,0,0,.3.15ZM24.6,31.44l.08.06-.38.39-1.21.32ZM8.35,35.58,7.85,34l3,1.25v.07l-2.06.57a.13.13,0,0,0,0-.06A.39.39,0,0,0,8.35,35.58Zm18.43-4.22-.56.46-.33.26-.39-.42,1.26-.33Zm-.27,2,0,0-3.87,1.44,3.22-2.63.71.78A.43.43,0,0,0,26.51,33.34Zm-11,2.23-.21.08a.24.24,0,0,0-.06-.09Zm-.2.16.37-.15,1.69.08-2,.13A.13.13,0,0,0,15.32,35.73Zm.53-.22,3.27-1.33a.51.51,0,0,0,.57.21.68.68,0,0,0,.17-.09l.83.88a.41.41,0,0,0-.11.28l-2.53.16Zm9.57-3.83.41.45-3.39,2.76-1.1.41-.05-.09L24.34,32Zm-4.06,3.69.91-.33-.38.31-.53,0Zm0,.16h0a.17.17,0,0,0,0-.07l.41,0-.17.14A.31.31,0,0,0,21.38,35.53Zm-.79,0v0a.33.33,0,0,0,.06.1l-.07.06-1.87-.09Zm.11.21Zm4.44-4.15a.57.57,0,0,0,.13-.08l.09.11-.92.24.29-.32A.53.53,0,0,0,25.14,31.59ZM21,32.84l1.48-.38-1.61.82,0-.12A.4.4,0,0,0,21,32.84Zm1.82-.47L24.21,32l-3,3.15-.41-1.79Zm-1.61,2.74a.39.39,0,0,0-.32,0,.3.3,0,0,0-.11.06l-.83-.9a.53.53,0,0,0,.12-.47l.74-.38Zm-1.79-1.69a.52.52,0,0,0-.32.33l-.77-.23,1-.26Zm-.34.41a.46.46,0,0,0,0,.23s0,0,0,0L15.68,35.5l-.5,0a.39.39,0,0,0-.36-.08l-.27-.93,3.61-.91Zm-4.52.57L14,32.76a.49.49,0,0,0,.32-.35L18,33.52ZM14,32.77l.49,1.65L12.3,35l-.85-.27,1.17-2.19.76-.16a.22.22,0,0,0,0,.08A.5.5,0,0,0,14,32.77Zm-2.71,2.29.16-.3.75.24-.78.2A.25.25,0,0,0,11.25,35.06Zm.13-.39L8.07,33.61a.3.3,0,0,0,0-.16l4.41-.92ZM3.74,27.74l.48.19L4,28.39l-.29-.58A.18.18,0,0,0,3.74,27.74Zm.17,1.82a.36.36,0,0,0,0-.27.39.39,0,0,0-.21-.24L4,28.56l.6,1.21-.2-.06Zm2.45,3.57h0l-.13-.26.69.32-.22.07A.27.27,0,0,0,6.36,33.13Zm-.2-.35-.63-1.27,1.66,1.61L7,33.17Zm1.09.4.1.09a.11.11,0,0,0,0,0l-.23-.1Zm.09,0,.1,0-.06.08ZM7.8,33h0v0Zm-.53.08L5.43,31.31l-.71-1.42L8.21,31a.61.61,0,0,0,0,.27.55.55,0,0,0,.29.31l-.62,1.37Zm1.3-1.53a.53.53,0,0,0,.28,0,.51.51,0,0,0,.33-.34l2.53.55L8,32.89ZM4.25,27.86l-.49-.19a.24.24,0,0,0,0-.12L4.68,27Zm-.67,0,0,0,.31.63L3.65,29a.37.37,0,0,0-.21,0l.12-1.15Zm.3,1.75.74.23.65,1.3L3.79,29.73A.43.43,0,0,0,3.88,29.63ZM6.7,33.34,7,33.25l.31.15a.3.3,0,0,0,0,.13.4.4,0,0,0,.37.28l0,.08-1-.43A.24.24,0,0,0,6.7,33.34Zm1.08.46h.06A.38.38,0,0,0,8,33.67l3.32,1.07-.16.3h-.12a.26.26,0,0,0-.17.15L7.82,33.93Zm3.62,1.47.89-.22,1.08.34-2-.09Zm1-.26,2-.52.28.94,0,0-1.06-.05Zm2.2.52a.35.35,0,0,0-.08.16l-.63-.2Zm.69.33,2.73-.17,2.43.12-2.81,2.11a.42.42,0,0,0-.45-.15l-.11.06-1.9-1.76A.39.39,0,0,0,15.32,35.86Zm5.28,0h.22a.38.38,0,0,0,.28,0h.1v0L18,37.78Zm1.12-.1a.41.41,0,0,0,0-.09l.25-.2,3.6-.34-3.8.64Zm4.75-1.06a.41.41,0,0,0-.27.29L22,35.33l.46-.37,4.09-1.52.1.1-.14,1.1Zm-5.79-1.43.05,0,0,.11L20,33.7a.5.5,0,0,0-.54-.29l-.06-.17.82-.21A.39.39,0,0,0,20.68,33.22Zm-1.37,0-1.15.29-3.79-1.14a.55.55,0,0,0,0-.22.61.61,0,0,0-.18-.24l.2-.22,4.74.94Zm-5.94-.92-.7.15.2-.38.52.11A.5.5,0,0,0,13.37,32.27Zm-.79.17-4.46.94s0-.06,0-.09a.42.42,0,0,0-.21-.24l0-.07,3.93-1.16.94.2ZM12,31.77l.8-.23a.52.52,0,0,0,.15.18l-.12.24Zm.77-.3-.92.27L9.2,31.16a.55.55,0,0,0,0-.18l1.49-.53,2.11.82A.44.44,0,0,0,12.78,31.47ZM9.17,30.9a.51.51,0,0,0-.53-.31l-.31-1.06,2.24.88Zm-.61-.3h0a.51.51,0,0,0-.31.3L4.68,29.8,4,28.48,4.29,28l4,1.55ZM5.78,23.73a.71.71,0,0,0,.38.43l-.33.65L4.2,23l1.56.38A.73.73,0,0,0,5.78,23.73Zm0,1.15-1,2-1,.58a.24.24,0,0,0-.18-.13L3,24.46l-.32-1.68a.35.35,0,0,0,0-.14L4.07,23ZM2.63,15.7l0-.33a.49.49,0,0,0,0,.12,1.27,1.27,0,0,0,.07.12ZM2.5,22.21a.61.61,0,0,0-.14-.07l.05-.4Zm-.09-1v0Zm-.13-.49H2.21L.76,18A.4.4,0,0,0,1,17.51a.41.41,0,0,0-.12-.17l1.72-1.47Zm-.14,0A.27.27,0,0,0,2,21a.24.24,0,0,0,.13.15L2,21.52.71,18.05Zm.06.5a.24.24,0,0,0,.12,0l.05.28-.08.62a.41.41,0,0,0-.11,0L2,21.62Zm-.09.91h0a.5.5,0,0,0-.33.64.52.52,0,0,0,.11.19L.71,24.29h0L2,21.71ZM.79,24.43a.43.43,0,0,0,0-.07L1.9,23a.48.48,0,0,0,.45.1L3,27.05.71,24.8A.4.4,0,0,0,.79,24.43Zm1.62-1.36a.49.49,0,0,0,.22-.18l.31,1.68.52,2.79h0l-.05,0-.25-.25Zm.89,4.37a.27.27,0,0,0-.06.26.26.26,0,0,0,.25.19l-.1.92-.26-1.55Zm.37,2.35.05,0,1.65,1.59.68,1.37-2.5-1.16a.42.42,0,0,0,0-.27A.4.4,0,0,0,3.26,31l.19-1.24A.33.33,0,0,0,3.67,29.79Zm2.44,3,.17.35,0,0L3.77,31.75Zm.51.76,0-.06L7.76,34l.52,1.62a.2.2,0,0,0-.08,0ZM8.82,36l2.07-.58a.26.26,0,0,0,.45.07l.93.42L8.82,36Zm2.56-.57,0-.05,2.24.11.89.29s0,0,0,.06l-2.1.06Zm3.17.48h0a.4.4,0,0,0,.5.26l.1-.05,1.91,1.76,0,.06-4.42-2Zm6.69,0a.25.25,0,0,0,.3.11.27.27,0,0,0,.19-.26l4.38-.74-8.36,3Zm5.5-2.36.07,0-.16.66Zm0-.74-.12.07-.23-.26-.47-.51.89-.73.1,0Zm0-1.58-1.29.34-.11-.13a.52.52,0,0,0,.14-.52l0-.05,1-.79.4.86A.27.27,0,0,0,26.73,31.26Zm-2.23,0a.67.67,0,0,0,.06.12l-1.81.92-1.8.47v-.05s0,0,0,0l2.22-2.29,1.34.59A.62.62,0,0,0,24.5,31.26ZM20.18,33h0l-.8.2-.18-.55,1,.19A.39.39,0,0,0,20.18,33Zm-1.09-.44-4.65-.92,2.71-3a.74.74,0,0,0,.6.08l.1-.05.27.84Zm-5-.68a.51.51,0,0,0-.4-.05.52.52,0,0,0-.31.29l-.5-.11.12-.22a.39.39,0,0,0,.26,0,.4.4,0,0,0,.26-.26l.75.14ZM13.05,31a.54.54,0,0,0-.16.1l-1.17-1,1.79-.63L13.22,31A.33.33,0,0,0,13.05,31Zm-.2.16,0,.05-2-.79.85-.3Zm-2.17-.78L8.3,29.44l-.85-2.91,4.12,3.53Zm-2.47-1L4.32,27.89,4.8,27,6.45,26a.3.3,0,0,0,.3.09A.27.27,0,0,0,6.87,26l.48.41ZM6.91,26a0,0,0,0,1,0,0l.31.08.08.29Zm-.51,0,0,0-1.56.88.81-1.58.18-.33.64.71A.28.28,0,0,0,6.4,25.94ZM2.71,22.56s0-.07,0-.1a.54.54,0,0,0-.11-.18l-.15-.78,0-.31L4,22.87Zm.44-6.73h.16l.08.07,1.5,3.69L2.53,20.78Zm.1-1v-.3l1.11-1.15-1,1.5Zm0-.41.14-2.74a.39.39,0,0,0,.22-.28l2.11-.1L4.59,13.07Zm2.56-3.12.48,0-1.45,1.5Zm1.5-3.19h.13a.43.43,0,0,0,.26-.25l1.79.54L6.8,10Zm3.16-.2a.49.49,0,0,0,.24.27l-.61.15L10,8.28,10.29,8ZM10,8.26H9.9L10,8.19Zm-.26.12h0Zm0,.07s0,.05,0,.08L7.14,10.6,7,10.46a.43.43,0,0,0,0-.25A.46.46,0,0,0,6.84,10l2.77-1.6ZM6.59,10.73h.12a.46.46,0,0,0,.22-.19l.15.11-.61.5Zm4.52,2.66a.4.4,0,0,0-.18.1L7.2,10.64l2.47-2a.27.27,0,0,0,.34.17.27.27,0,0,0,.18-.34l0,0,.69-.17h0l.34,5.12A.59.59,0,0,0,11.11,13.39Zm0-6.12L12,6.35l-.86.94Zm-.61.49L10.25,8l-.65.37L7.74,7.79v0l2.73-.06ZM6.73,10l-.08,0,.42-1.16Zm-.53.49a.26.26,0,0,0,0,.09l-.46.7-2.16.09h0l2.56-1A.37.37,0,0,0,6.2,10.45Zm-3,4.06-.37.38a.18.18,0,0,0-.1,0l.61-3Zm-.61.85,0,.41L.87,17.22l1.64-1.89ZM.63,18l1.29,3.59L.63,24.23a.67.67,0,0,0-.12-.06L.54,18ZM3,27.18l.32,1.88-.07.05L.66,24.86Zm.34,2.59,0,.24,0-.24Zm.12,1.9,2.69,1.62a.37.37,0,0,0,0,.18.27.27,0,0,0,.34.17h0l1.58,2.06,0,0Zm5.3,4.42v0L12.42,36,17,38h0Zm21.73-5.72h0l-3.8,4.29-.09,0,.24-1a.34.34,0,0,0,.14,0,.4.4,0,0,0,.26-.51s0,0,0,0Zm-.94-2.75a.57.57,0,0,0,.14.13l-2.64,5.12a.34.34,0,0,0-.26,0L27,31.46h.06a.27.27,0,1,0-.16-.52h0l-.4-.87Zm-4.4.66a.4.4,0,0,0,.45.17l0,0L26.41,30l-1,.8a.5.5,0,0,0-.57-.22.51.51,0,0,0-.31.3l-1.32-.58Zm-2.12,2.09-2.18,2.25a.39.39,0,0,0-.45-.16.41.41,0,0,0-.26.27l-1-.19-1-3.23-.24-.73a.78.78,0,0,0,.3-.37Zm-6.19-2.11a.83.83,0,0,0,.21.28l-2.74,3-.78-.15a.37.37,0,0,0,0-.18.4.4,0,0,0-.26-.25l.3-1.58Zm-3-.53-.31,1.64L11.65,30,7.42,26.4,7.31,26ZM7.2,25.93l-.27-.07a.22.22,0,0,0,0-.08.26.26,0,0,0-.34-.18l0,0-.67-.75.35-.68a.69.69,0,0,0,.45,0h0Zm-1-3.09a.7.7,0,0,0-.44.46l-.48-.12L4.11,22.9,2.49,21.1h0a.25.25,0,0,0,0-.21h0l2.4-1.23Zm.16-4.27a.22.22,0,0,0,0,.16.16.16,0,0,0,0,.07L5,19.54,3.52,16ZM3.62,15.16a.54.54,0,0,0-.17-.22l1.2-1.83,1.78-1.83.71-.59,3.42,2.61.33.25a.51.51,0,0,0-.13.33ZM11.38,8a.47.47,0,0,0,.07-.43.48.48,0,0,0-.21-.27L12.62,5.8a.44.44,0,0,0,.42.12.45.45,0,0,0,.24-.21L15.66,7Zm9.33-2.4h0L17,7.16a.47.47,0,0,0-.79,0L15.87,7l1.24-.3a.26.26,0,0,0,.32.14.26.26,0,0,0,.18-.34.26.26,0,0,0-.34-.17.24.24,0,0,0-.16.15l-3.8-1v0Zm-8.17,0s0,0,0,.07L11,7.25a.37.37,0,0,0-.18,0,.5.5,0,0,0-.33.35l-2.76.06v0l4.8-2ZM7.23,8.1,6.57,9.94H6.46a.4.4,0,0,0-.27.31l-2.57,1v0L7.11,8A.23.23,0,0,0,7.23,8.1Zm-4,3.63h0l-.63,3.11H2.58a.27.27,0,0,0-.18.34.24.24,0,0,0,.06.09l-1.74,2h0ZM.66,25l2.58,4.17a.39.39,0,0,0-.08.36.45.45,0,0,0,.14.19L3.16,31H3.05Z"/><path class="cls-1" d="M28.58,25.38a.55.55,0,0,0,0,.77.53.53,0,0,0,.77,0,.54.54,0,0,0-.77-.77Z"/><circle class="cls-1" cx="17.17" cy="3.31" r="0.54"/><path class="cls-1" d="M32.54,24.15a.38.38,0,0,0,0,.54.37.37,0,0,0,.53,0,.38.38,0,0,0,0-.54A.39.39,0,0,0,32.54,24.15Z"/><circle class="cls-1" cx="23.75" cy="0.38" r="0.38"/><path class="cls-1" d="M26.22,2.8a.21.21,0,1,0,.3,0A.22.22,0,0,0,26.22,2.8Z"/></g></g></svg>