<svg xmlns="http://www.w3.org/2000/svg" xmlns:xlink="http://www.w3.org/1999/xlink" viewBox="0 0 13.35 16"><defs><style>.cls-1{fill:none;}.cls-2{opacity:0.79;}.cls-3{clip-path:url(#clip-path);}.cls-4{fill:#606161;}</style><clipPath id="clip-path" transform="translate(-1.31)"><rect class="cls-1" width="16" height="16"/></clipPath></defs><title>accountdetails</title><g id="Layer_2" data-name="Layer 2"><g id="Layer_1-2" data-name="Layer 1"><g class="cls-2"><g class="cls-3"><path class="cls-4" d="M7.89,7.71a3.73,3.73,0,0,0,2.72-1.13,3.74,3.74,0,0,0,1.13-2.73,3.72,3.72,0,0,0-1.13-2.72A3.73,3.73,0,0,0,7.89,0,3.74,3.74,0,0,0,5.16,1.13,3.72,3.72,0,0,0,4,3.85,3.74,3.74,0,0,0,5.16,6.58,3.74,3.74,0,0,0,7.89,7.71Z" transform="translate(-1.31)"/><path class="cls-4" d="M14.63,12.3c0-.31-.07-.65-.13-1a8.77,8.77,0,0,0-.25-1,4.23,4.23,0,0,0-.42-.95,3.3,3.3,0,0,0-.63-.82,2.77,2.77,0,0,0-.9-.57,3.11,3.11,0,0,0-1.16-.21,1.21,1.21,0,0,0-.62.26l-.66.42A3.71,3.71,0,0,1,9,8.79,3.35,3.35,0,0,1,8,9a3.41,3.41,0,0,1-1-.16,3.71,3.71,0,0,1-.84-.38L5.46,8a1.26,1.26,0,0,0-.63-.26,3.09,3.09,0,0,0-1.15.21,2.71,2.71,0,0,0-.91.57,3.3,3.3,0,0,0-.63.82,5.38,5.38,0,0,0-.42.95,8.77,8.77,0,0,0-.25,1c-.06.36-.1.7-.13,1s0,.63,0,.95a2.68,2.68,0,0,0,.79,2,2.85,2.85,0,0,0,2,.74h7.71a2.85,2.85,0,0,0,2-.74,2.64,2.64,0,0,0,.79-2C14.66,12.93,14.65,12.61,14.63,12.3Z" transform="translate(-1.31)"/></g></g></g></g></svg>