<svg xmlns="http://www.w3.org/2000/svg" viewBox="0 0 18 18"><defs><style>.cls-1{fill:#fff;}</style></defs><title>addannotation</title><g id="Layer_2" data-name="Layer 2"><g id="Layer_1-2" data-name="Layer 1"><path class="cls-1" d="M10.69,0H2.06A2.06,2.06,0,0,0,0,2.06V13.69a2.06,2.06,0,0,0,2.06,2.06H7a6.64,6.64,0,0,1-.62-2.81,6.44,6.44,0,0,1,.47-2.45H3A.75.75,0,0,1,3,9H6.75a.76.76,0,0,1,.66.4A6.73,6.73,0,0,1,9.27,7.5H3A.75.75,0,0,1,3,6H9.75a.76.76,0,0,1,.75.75.31.31,0,0,1,0,.1,6.34,6.34,0,0,1,2.26-.47V2.06A2.06,2.06,0,0,0,10.69,0ZM6,4.5H3A.75.75,0,0,1,3,3H6A.75.75,0,0,1,6,4.5Z"/><path class="cls-1" d="M12.94,7.88A5.06,5.06,0,1,0,18,12.94,5.07,5.07,0,0,0,12.94,7.88ZM15,13.69H13.69V15a.75.75,0,0,1-1.5,0V13.69H10.88a.75.75,0,0,1,0-1.5h1.31V10.88a.75.75,0,0,1,1.5,0v1.31H15a.75.75,0,0,1,0,1.5Z"/></g></g></svg>