<svg xmlns="http://www.w3.org/2000/svg" xmlns:xlink="http://www.w3.org/1999/xlink" viewBox="0 0 18 18.01"><defs><style>.cls-1{fill:none;}.cls-2{clip-path:url(#clip-path);}.cls-3{fill:#fff;}</style><clipPath id="clip-path"><rect class="cls-1" y="0.01" width="18" height="18"/></clipPath></defs><title>adddrawing</title><g id="Layer_2" data-name="Layer 2"><g id="Layer_1-2" data-name="Layer 1"><g class="cls-2"><path class="cls-3" d="M15.73,6.22l-.56.56a6.38,6.38,0,0,0-2.23-.39A6.57,6.57,0,0,0,6.38,13a6.38,6.38,0,0,0,.39,2.23l-.92.92-2-2L1.92,12.16,2,12.1l9.4-9.39.41-.41,1.9,1.89,2,2Z"/><path class="cls-3" d="M1.61,12.91,0,17.26a.56.56,0,0,0,.14.59A.51.51,0,0,0,.56,18a.68.68,0,0,0,.2,0L5.1,16.41Z"/><path class="cls-3" d="M17.16.81a2.91,2.91,0,0,0-2-.81,2.82,2.82,0,0,0-2,.83l-.92.94h0l1.9,1.89,2,2h0l.93-.95A2.73,2.73,0,0,0,18,2.79v0A2.72,2.72,0,0,0,17.16.81Z"/><path class="cls-3" d="M12.94,7.89A5.06,5.06,0,1,0,18,13,5.07,5.07,0,0,0,12.94,7.89ZM15,13.7H13.69V15a.75.75,0,0,1-1.5,0V13.7H10.88a.75.75,0,1,1,0-1.5h1.31V10.89a.75.75,0,0,1,1.5,0V12.2H15a.75.75,0,0,1,0,1.5Z"/></g></g></g></svg>