<?xml version="1.0" encoding="UTF-8" standalone="no"?>
<svg
   xmlns:dc="http://purl.org/dc/elements/1.1/"
   xmlns:cc="http://creativecommons.org/ns#"
   xmlns:rdf="http://www.w3.org/1999/02/22-rdf-syntax-ns#"
   xmlns:svg="http://www.w3.org/2000/svg"
   xmlns="http://www.w3.org/2000/svg"
   xmlns:sodipodi="http://sodipodi.sourceforge.net/DTD/sodipodi-0.dtd"
   xmlns:inkscape="http://www.inkscape.org/namespaces/inkscape"
   version="1.1"
   id="svg2"
   xml:space="preserve"
   width="1066.6667"
   height="1066.6667"
   viewBox="0 0 1066.6667 1066.6667"
   sodipodi:docname="274.eps"><metadata
     id="metadata8"><rdf:RDF><cc:Work
         rdf:about=""><dc:format>image/svg+xml</dc:format><dc:type
           rdf:resource="http://purl.org/dc/dcmitype/StillImage" /></cc:Work></rdf:RDF></metadata><defs
     id="defs6" /><sodipodi:namedview
     pagecolor="#ffffff"
     bordercolor="#666666"
     borderopacity="1"
     objecttolerance="10"
     gridtolerance="10"
     guidetolerance="10"
     inkscape:pageopacity="0"
     inkscape:pageshadow="2"
     inkscape:window-width="640"
     inkscape:window-height="480"
     id="namedview4" /><g
     id="g10"
     inkscape:groupmode="layer"
     inkscape:label="ink_ext_XXXXXX"
     transform="matrix(1.3333333,0,0,-1.3333333,0,1066.6667)"><g
       id="g12"
       transform="scale(0.1)"><path
         d="m 6703.82,2089.05 -0.4,-0.3 c -151,-94.8 -358.4,-167.7 -638,-205.2 -119.6,-16.1 -512,-34.6 -759.8,-244.9 -151.3,-128.4 -341.3,-348.6 -885.2,-437.3 -1054.8,-171.8 -2453.2,435.3 -2689,1322.4 -58.4,219.6 -81.6,381.1 -86.7,509.8 -5.4,136 9.5,235.2 24.6,327.1 6.9,42.2 13.9,82.9 19,124.9 15.8,129.9 13.7,272.4 -63.6,511.9 -21.9,67.9 -39.1,132 -51.8,192.9 -51.1,241.9 -33.4,431.9 29.9,596.7 40.9,106.6 100.9,202.5 173.8,295.1 7.3,9.3 14.7,18.5 22,27.5 454.3,557.9 914,535.9 1476.8,242.5 345.9,-180.2 610.5,-239.4 977.3,-98.2 373.8,143.8 789.8,191 1113.7,78.9 73.5,-25.5 142.3,-59.1 204.8,-101.9 168.8,-115 291.4,-295.5 337,-555.8 184,-1051.2 805.4,-853.5 1079.7,-1578.5 1.9,-5.1 3.8,-10.2 5.7,-15.4 22.8,-62.5 41.5,-129.7 53.2,-199.3 46.6,-274.5 -13.5,-585.8 -343,-792.9"
         style="fill:#4a80ca;fill-opacity:1;fill-rule:nonzero;stroke:none"
         id="path14" /><path
         d="m 7242.76,3978.9 c 0,-163.31 -132.39,-295.7 -295.7,-295.7 -163.31,0 -295.7,132.39 -295.7,295.7 0,163.31 132.39,295.7 295.7,295.7 163.31,0 295.7,-132.39 295.7,-295.7"
         style="fill:#4a80ca;fill-opacity:1;fill-rule:nonzero;stroke:none"
         id="path16" /><path
         d="m 3253.67,1001.82 c 0,-117.332 -95.12,-212.449 -212.45,-212.449 -117.33,0 -212.45,95.117 -212.45,212.449 0,117.33 95.12,212.45 212.45,212.45 117.33,0 212.45,-95.12 212.45,-212.45"
         style="fill:#85cbf0;fill-opacity:1;fill-rule:nonzero;stroke:none"
         id="path18" /><path
         d="m 1429.59,4020.26 c 0,-57.29 -46.45,-103.74 -103.74,-103.74 -57.3,0 -103.74,46.45 -103.74,103.74 0,57.29 46.44,103.74 103.74,103.74 57.29,0 103.74,-46.45 103.74,-103.74"
         style="fill:#85cbf0;fill-opacity:1;fill-rule:nonzero;stroke:none"
         id="path20" /><path
         d="m 7064.51,4776.73 c 0,-64.87 -52.59,-117.45 -117.45,-117.45 -64.87,0 -117.45,52.58 -117.45,117.45 0,64.86 52.58,117.44 117.45,117.44 64.86,0 117.45,-52.58 117.45,-117.44"
         style="fill:#85cbf0;fill-opacity:1;fill-rule:nonzero;stroke:none"
         id="path22" /><path
         d="m 6416.44,1383.76 c 0,-91.1 -73.86,-164.95 -164.96,-164.95 -91.1,0 -164.96,73.85 -164.96,164.95 0,91.11 73.86,164.96 164.96,164.96 91.1,0 164.96,-73.85 164.96,-164.96"
         style="fill:#4a80ca;fill-opacity:1;fill-rule:nonzero;stroke:none"
         id="path24" /><path
         d="m 4728.68,5869.15 c 0,-103.24 -83.69,-186.93 -186.92,-186.93 -103.24,0 -186.93,83.69 -186.93,186.93 0,103.23 83.69,186.92 186.93,186.92 103.23,0 186.92,-83.69 186.92,-186.92"
         style="fill:#85cbf0;fill-opacity:1;fill-rule:nonzero;stroke:none"
         id="path26" /><path
         d="m 1786.62,3732.19 c -19.11,1.4 -35.75,-3.83 -51.91,-8.53 -7.07,-2.05 -10.74,-12.57 -7.78,-19.31 16.32,-37.12 40.62,-78.01 40.62,-78.01 4.47,-8.44 10.38,-6.32 13.08,2.84 0,0 13.41,55.99 16.13,83.14 0.78,7.73 -2.4,19.3 -10.14,19.87"
         style="fill:#ffffff;fill-opacity:1;fill-rule:nonzero;stroke:none"
         id="path28" /><path
         d="m 1954.05,3704.14 c -22.1,17.51 -46.69,24.9 -70.25,32.54 -10.3,3.34 -23.47,-6.43 -25.43,-17.08 -10.82,-58.7 -15.05,-128.57 -15.05,-128.57 -1.53,-13.97 7.42,-16.29 18.28,-7.36 0,0 62.62,57.09 88.38,87.89 7.34,8.77 13.04,25.49 4.07,32.58"
         style="fill:#ffffff;fill-opacity:1;fill-rule:nonzero;stroke:none"
         id="path30" /><path
         d="m 1543.14,4460.62 c -8.16,5.45 -16.48,10.78 -24.92,15.93 l -0.8,0.4 c 11.72,73.27 30.68,141.22 52.37,205.13 -16.98,-68.64 -26.31,-141.94 -26.65,-221.46 m 805.26,1058.61 c 82.3,26.1 165.91,38.34 251.36,38.34 28.49,0 57.15,-1.36 86.06,-4.02 0.15,-0.88 0.3,-1.75 0.45,-2.63 -31.2,3.08 -62.13,4.66 -92.83,4.66 -83.26,0 -164.78,-11.62 -245.04,-36.35"
         style="fill:#c6cbca;fill-opacity:1;fill-rule:nonzero;stroke:none"
         id="path32" /><path
         d="m 2191.08,3786.7 c -184.81,0 -267.88,155.42 -324.16,323.25 l -0.8,0.4 c -24.7,34.28 -139.4,227.67 -322.98,350.27 0.34,79.52 9.67,152.82 26.65,221.46 13.26,39.11 27.55,76.7 41.83,113.07 40.8,104.2 100,198.2 171.5,289 185.52,235.68 371.75,373.7 565.28,435.08 80.26,24.73 161.78,36.35 245.04,36.35 30.7,0 61.63,-1.58 92.83,-4.66 36.14,-214.99 -13.09,-450.02 -93.95,-632.87 -92.1,-208.1 -103.2,-360.5 -110.4,-457.4 -7.3,-96.9 5.3,-144.6 8.4,-162.3 l -0.3,-0.7 c 59.5,-202.3 85.4,-413.3 -174.4,-490.9 -46.03,-13.75 -87.36,-20.05 -124.54,-20.05"
         style="fill:#3569bc;fill-opacity:1;fill-rule:nonzero;stroke:none"
         id="path34" /><path
         d="m 1848.7,3132.3 c -3.7,-28.8 -30.7,-43.2 -59.5,-36.4 -37.2,9 -98.2,80.6 -126.4,105.3 -13,11.4 -25.4,24.3 -37.3,37.9 -1.8,2.1 -3.6,4.2 -5.4,6.3 -13.1,15.2 -25.7,30.9 -38.2,46.3 -2.1,2.5 -4.2,5.1 -6.3,7.6 -6.1,7.4 -12.2,14.6 -18.3,21.5 -25.1,28.5 -66.2,69.1 -73.9,92.7 -15.9,48.7 19.6,60.8 33.1,58.9 30.3,-4.3 52.7,-20.5 74.9,-39 1.9,-1.6 3.7,-3.2 5.6,-4.8 25.5,-21.4 45.3,-39 64.2,-58.5 15.5,-16.1 30.4,-33.6 47.1,-55.7 20.4,-26.9 50.6,-86.1 76.4,-107.5 17.4,-14.4 67,-50.8 64,-74.6"
         style="fill:#f68270;fill-opacity:1;fill-rule:nonzero;stroke:none"
         id="path36" /><path
         d="m 1654.4,3375.7 c -1.2,-53.9 -21.4,-122.7 -34.3,-130.3 -13.1,15.2 -25.7,30.9 -38.2,46.3 -2.1,2.5 -4.2,5.1 -6.3,7.6 10.8,33.8 17.2,79.8 14.5,135 25.5,-21.5 45.4,-39.1 64.3,-58.6"
         style="fill:#f2585b;fill-opacity:1;fill-rule:nonzero;stroke:none"
         id="path38" /><path
         d="m 2600.48,1688.5 c 53.1,-199.2 240.37,-292.89 379.27,-147.59 17.9,18.8 69.43,93.99 84.03,118.99 45.3,77.7 179.1,339.7 307.8,644.3 88.5,209.5 174.6,439.1 227.8,642.8 34.1,130.5 88.59,409.53 -109.61,483.13 -210,78 -360.49,-180.33 -394.59,-307.23 -219.1,-815.9 -546.9,-1238.8 -494.7,-1434.4"
         style="fill:#363250;fill-opacity:1;fill-rule:nonzero;stroke:none"
         id="path40" /><path
         d="m 3023.29,1670.11 c 0.51,-21.68 29.07,-29.66 40.05,-10.96 l 0.44,0.75 c 45.3,77.7 179.1,339.7 307.8,644.3 -54.7,339.6 -183.97,754.87 -183.97,754.87 -298.3,-238.64 1.07,-885.57 -48.93,-965.57 -50,-80 -133.6,4.5 -135,-156.7 -0.93,-103.53 17.95,-195.02 19.61,-266.69"
         style="fill:#2a2842;fill-opacity:1;fill-rule:nonzero;stroke:none"
         id="path42" /><path
         d="m 4992.42,2876.45 c -18.3,-128.4 -105.8,-256.9 -126.5,-425.6 -22.9,-187.3 -48.7,-388.7 -80.7,-580.2 -33.9,-203.7 -82.2,-453.2 -133.9,-605.7 0,0 -11.1,-8.9 -32.7,-21.8 l -0.1,-0.1 c -4.7,-1.3 -9.4,-2.5 -14.2,-3.7 -55.1,-14.1 -114.1,-26.3 -177.5,-35.9 -171.8,-26.3 -348.7,-36.2 -527.4,-28.9 -59.1,2.4 -118.5,6.7 -177.9,12.9 -35.6,3.7 -71.3,8.1 -106.9,13.3 -135.1,20.4 -251.3,46.7 -343.2,71.2 -7.5,2 -14.8,4 -22,6 -121.6,33.5 -205.91,74.07 -205.91,74.07 219.3,606.5 117.81,1225.53 96.41,1637.63 -5.7,110 35.8,360.3 202.1,443.8 259,130 370.3,174.2 693.6,212.4 232.5,27.4 587.6,-177 720.6,-266.5 44.2,-29.7 125.5,-104 151.3,-137.1 63.7,-81.3 108.8,-197.7 84.9,-365.8"
         style="fill:#363250;fill-opacity:1;fill-rule:nonzero;stroke:none"
         id="path44" /><path
         d="m 3264.88,4667.17 c 0.76,-256.88 258.16,-354.64 258.16,-354.64 l -0.09,440.92 -258.07,-86.28"
         style="fill:#29273a;fill-opacity:1;fill-rule:nonzero;stroke:none"
         id="path46" /><path
         d="m 3834.74,3779.29 c 0,0 17.93,-66.85 21.35,-83.97 3.22,-16.1 4.05,-36.58 4.42,-51.99 2.2,-61.53 -14.96,-112.98 -41.44,-164.71 -48.31,-94.36 145.16,-156.6 321.25,-115.19 176.08,41.41 179.35,155.02 169.73,212.67 -4.46,26.77 -47.62,256.95 34.08,435.53 10.03,21.91 -96.8,-5.48 -115.45,0 -72.73,21.43 -285.88,-132.32 -375.77,-178.11 -27,-13.69 -23.75,-39.7 -18.17,-54.23"
         style="fill:#f2585b;fill-opacity:1;fill-rule:nonzero;stroke:none"
         id="path48" /><path
         d="m 3756.44,3795.29 c 5.27,-9.57 10.04,-19.19 14.23,-28.55 l 0.09,-0.11 c 1.93,-0.8 3.77,-1.48 5.6,-2.27 5.72,-2.18 11.34,-4.25 17.07,-6.23 7.19,-2.42 14.4,-4.75 21.63,-6.78 4.1,-1.21 8.2,-2.43 12.32,-3.44 1.28,-0.33 2.45,-0.65 3.72,-0.97 3.14,-0.82 6.17,-1.63 9.32,-2.34 7.04,-17.99 12.23,-35.49 15.65,-52.62 3.21,-16.1 5.07,-31.76 5.44,-47.17 11.01,-4.42 22.72,-7.9 35.02,-10.53 110.32,-23.48 216.5,36.46 258.39,131.87 0.62,1.25 1.16,2.6 1.7,3.95 8.18,19.59 13.69,40.54 15.99,62.53 2.09,19.89 4.53,42.35 7.41,68.2 -56.35,-28.95 -177.24,-85.21 -292.55,-99.63 -27.06,-3.33 -50.57,-5.3 -71.16,-6.16 -23.83,-1.13 -43.6,-0.87 -59.87,0.25"
         style="fill:#ed3049;fill-opacity:1;fill-rule:nonzero;stroke:none"
         id="path50" /><path
         d="m 4458.98,4452 c -0.13,-1.45 -0.28,-2.8 -0.51,-4.27 -10.56,-95.99 -31.77,-187.91 -55.86,-264.3 -2.15,-6.82 -4.54,-13.49 -6.87,-19.94 -53.18,-146.29 -114.36,-277.82 -256.21,-355.95 -28,-15.44 -57.55,-28.11 -88.05,-37.91 -23.01,-7.46 -46.54,-13.28 -70.3,-17.31 -5.91,-1.03 -11.76,-1.85 -17.62,-2.66 -3.47,-0.46 -6.85,-0.9 -10.24,-1.25 -3.38,-0.44 -6.87,-0.8 -10.29,-1.05 -1.98,-0.27 -3.89,-0.43 -5.91,-0.51 -1.9,-0.17 -3.8,-0.33 -5.71,-0.49 -3.32,-0.22 -6.65,-0.35 -9.97,-0.58 -30.07,-1.37 -60.15,-0.1 -89.86,4.1 l -1.79,0.27 c -3.13,0.42 -6.27,0.83 -9.52,1.33 -1.45,0.13 -3.02,0.34 -4.5,0.67 -26.24,4.65 -52.19,11.5 -77.39,20.84 -4.28,1.62 -8.56,3.25 -12.77,4.99 -31.7,12.97 -58.88,28.95 -82.38,47.47 l -1.34,1.17 c -51.8,41.41 -85.35,95.47 -108.02,155.99 -45.2,120.86 -47.45,267.85 -66.23,393.26 -8.8,58.79 -22.62,115.61 -33.14,171.73 l -0.19,0.98 c -14.95,80.32 -22.94,158.82 -0.02,238.64 l 0.12,0.43 c 6.89,24.13 16.79,48.52 30.14,72.96 66.93,122.76 194.14,215.19 331.12,237.31 158.53,25.53 340.84,27.81 478.92,-66.54 176.35,-120.42 208.08,-359.83 184.39,-579.38"
         style="fill:#f68270;fill-opacity:1;fill-rule:nonzero;stroke:none"
         id="path52" /><path
         d="m 3798.42,4431.08 c -1.01,7.2 -11.66,7.58 -13.23,0.46 -7.05,-31.96 -25.5,-71.95 -48.02,-112.3 -34.61,-62.01 -4.17,-101.14 63.47,-105.44 48.06,-3.05 39.42,29.92 9.62,26.86 -41.42,-4.27 -77.25,26.32 -44.68,78.45 27.51,44.04 36.95,82.59 32.84,111.97"
         style="fill:#f2585b;fill-opacity:1;fill-rule:nonzero;stroke:none"
         id="path54" /><path
         d="m 3722.24,4066.43 c 1.6,-8.75 4.04,-16.84 10.33,-23.68 l 2.51,-2.48 c 11.46,-10.94 26.03,-23.09 47.66,-28.12 40.58,-9.35 96.85,-4.01 138.84,9.62 3.26,1.03 6.39,2.24 9.52,3.45 24.99,9.87 41.75,24.47 52.66,41.43 8.82,13.49 13.92,28.32 16.58,43.18 1.22,6.95 1.92,13.91 2.24,20.79 l -0.04,0.7 c 1.02,26.45 -4.07,51.21 -8.28,66.72 -2.16,7.95 -11.17,11.87 -18.29,7.72 -1.79,-1.04 -3.65,-2.08 -5.59,-3.11 -63.81,-33.17 -195.63,-47.69 -272.5,-39.68 -7.88,0.73 -14.72,3.06 -17.84,-0.56 -7.87,-9.27 26.9,-12.07 42.2,-95.98"
         style="fill:#29273a;fill-opacity:1;fill-rule:nonzero;stroke:none"
         id="path56" /><path
         d="m 3709.92,2425.2 c 121.86,11.56 184.61,76.83 236.25,135 539.54,607.79 358.95,1067.37 358.75,1064.67 -336.04,-216.55 -452.95,-156.98 -493.37,35.89 -106.63,-106.81 -172.64,-76.81 -219.52,-576.46 -15.48,-165 60.39,-664.55 117.89,-659.1"
         style="fill:#d5e3e3;fill-opacity:1;fill-rule:nonzero;stroke:none"
         id="path58" /><path
         d="m 2748.68,2186.33 c 227.29,-54.14 277.8,-147.31 212.14,-193.89 -65.66,-46.58 -212.14,193.89 -212.14,193.89"
         style="fill:#2a2842;fill-opacity:1;fill-rule:nonzero;stroke:none"
         id="path60" /><path
         d="M 4816.18,3199.3 C 4651.95,3155.78 4282.19,2961.8 4641.51,2186.33 L 4816.18,3199.3"
         style="fill:#2a2842;fill-opacity:1;fill-rule:nonzero;stroke:none"
         id="path62" /><path
         d="m 5348.32,1669.35 c -12.4,-9.1 -24.5,-18.6 -36.2,-28.6 -102,-86.6 -239.5,-220.2 -473.1,-321.7 -10.7,153.4 -29.5,404.6 -53.8,541.6 -54,303.8 -129.3,594.8 -174.4,797.1 -23.5,104.8 -38.8,185.8 -38.8,232.4 0,128.8 12.9,293.3 132.9,358.6 32.2,17.5 111.6,20.9 142.5,14.1 31.2,-6.7 60.6,-13.4 84.3,-42.2 217.8,-265.1 359.5,-984.2 416.6,-1551.3"
         style="fill:#363250;fill-opacity:1;fill-rule:nonzero;stroke:none"
         id="path64" /><path
         d="m 4517.25,1219.44 c 2.08,0.42 4.1,0.87 6.17,1.3 11.66,2.4 23.13,4.9 34.47,7.46 2.49,0.56 4.98,1.12 7.44,1.69 30.65,7.08 60.21,14.71 88.59,22.86 76,158.6 97.6,405.6 131.3,607.9 -54,303.8 -129.3,594.8 -174.4,797.1 -52.5,-143.9 -46.2,-253.4 5.4,-383.4 33.57,-84.56 58.27,-257.33 56.98,-429.59 -213.53,-235.35 -523.93,-39.56 -517.88,-277.91 4.98,-192.94 115.92,-268.19 172.82,-294.19 -4.22,-1.45 -8.42,-2.92 -12.7,-4.33 -76.6,11.69 -247.02,32.79 -493.42,35.12 -290.2,2.87 -184.39,-65.91 8.01,-113.46 -43.23,-1.13 -85.87,-0.79 -127.21,1.06 6.2,-1.2 12.4,-2.4 18.7,-3.6 59.36,-6.19 118.67,-10.47 177.79,-12.88 l 0.11,-0.02 0.85,-0.02 c 19.21,-0.78 38.38,-1.28 57.54,-1.67 5.86,-0.11 11.72,-0.21 17.58,-0.29 17.26,-0.23 34.5,-0.34 51.72,-0.25 3.34,0.02 6.67,0.02 10.01,0.05 17.85,0.15 35.67,0.52 53.47,1.01 6.04,0.17 12.07,0.36 18.11,0.57 17.26,0.59 34.49,1.31 51.69,2.22 3.07,0.17 6.14,0.32 9.21,0.49 17.89,1.01 35.73,2.25 53.55,3.6 5.62,0.43 11.24,0.88 16.86,1.34 18.16,1.49 36.29,3.11 54.36,4.97 1.52,0.15 3.04,0.3 4.56,0.46 18.61,1.94 37.16,4.13 55.68,6.45 5.01,0.63 10.01,1.27 15.02,1.93 19.11,2.5 38.19,5.14 57.19,8.04 13.62,2.07 26.96,4.31 40.19,6.6 4.26,0.74 8.5,1.49 12.72,2.25 12.67,2.3 25.22,4.66 37.52,7.14"
         style="fill:#2a2842;fill-opacity:1;fill-rule:nonzero;stroke:none"
         id="path66" /><path
         d="m 4041.18,3379.3 c -66.57,-111.66 -103.36,-125 -103.36,-125 0,0 -76.42,2.78 -86.64,15.84 -21.88,70.51 -32.56,136.23 0.77,184.56 33.34,48.34 110.48,26.21 110.48,26.21 0,0 104.8,-57.9 78.75,-101.61"
         style="fill:#ed3049;fill-opacity:1;fill-rule:nonzero;stroke:none"
         id="path68" /><path
         d="m 3952.41,3274.3 c -24.31,-209.23 -27.06,-584.16 16.27,-712.5 0,0 -162.77,-175.23 -256.1,-150 -93.33,25.23 -115.57,225 -115.57,225 0,0 164.32,541.11 263.5,667.5 32.83,41.84 89.05,-7.11 91.9,-30"
         style="fill:#ed3049;fill-opacity:1;fill-rule:nonzero;stroke:none"
         id="path70" /><path
         d="m 3722.95,3322.41 c 20.73,-20.61 113.17,115.44 151.56,139.39 37.14,23.16 85.78,34.82 119.17,-13.75 52.86,-71.43 68.18,-179.6 121.25,-184.88 35.99,-3.66 100.96,24.17 139.01,64.18 61.32,64.41 82.24,240.11 82.24,294.36 -1.62,25.96 -32.95,68.52 -39.94,73.77 -55.75,-104.88 -212.56,-189.51 -341.31,-186.18 -52.25,7.48 -100.83,45.84 -93.26,125.01 1.59,17.91 -2.54,49.74 -6.04,61.09 -15.42,3.63 -61.09,-53.92 -69.84,-67.13 -46.28,-69.8 -144.83,-224.38 -62.84,-305.86"
         style="fill:#ffffff;fill-opacity:1;fill-rule:nonzero;stroke:none"
         id="path72" /><path
         d="m 3422.8,3262.64 c -40.7,-451.01 154.18,-740.76 268.76,-860.76 14.45,-15.14 44.69,-4.34 36.29,34.27 -7.83,35.95 -174.41,387.32 -72.89,864.77 13.89,65.33 60.06,310.66 205.55,369 0,10.01 -3,19.6 -5.79,28.37 -3.37,6.48 -297.71,-76.11 -391.04,-324.82 -12.09,-32.23 30.8,-28.63 45,-29.17 7.32,-0.27 -82.5,-44.16 -85.88,-81.66"
         style="fill:#2a2842;fill-opacity:1;fill-rule:nonzero;stroke:none"
         id="path74" /><path
         d="m 3622.01,2196.8 c 0,-33.14 26.86,-60 60,-60 33.14,0 60,26.86 60,60 0,33.14 -26.86,60 -60,60 -33.14,0 -60,-26.86 -60,-60"
         style="fill:#2a2842;fill-opacity:1;fill-rule:nonzero;stroke:none"
         id="path76" /><path
         d="m 3562,1786.8 c 0,-33.14 26.87,-60 60.01,-60 33.13,0 60,26.86 60,60 0,33.14 -26.87,60 -60,60 -33.14,0 -60.01,-26.86 -60.01,-60"
         style="fill:#2a2842;fill-opacity:1;fill-rule:nonzero;stroke:none"
         id="path78" /><path
         d="m 3612.01,2216.8 c 0,-33.14 26.86,-60 60,-60 33.14,0 60,26.86 60,60 0,33.14 -26.86,60 -60,60 -33.14,0 -60,-26.86 -60,-60"
         style="fill:#ffffff;fill-opacity:1;fill-rule:nonzero;stroke:none"
         id="path80" /><path
         d="m 3552,1806.8 c 0,-33.14 26.87,-60 60.01,-60 33.13,0 60,26.86 60,60 0,33.14 -26.87,60 -60,60 -33.14,0 -60.01,-26.86 -60.01,-60"
         style="fill:#ffffff;fill-opacity:1;fill-rule:nonzero;stroke:none"
         id="path82" /><path
         d="m 4453.76,4574.6 c 2.24,-41.52 4.2,-82.68 4.7,-123.62 0.01,-1.12 0,-2.14 0.01,-3.25 0.99,-98.37 -6.87,-195.17 -41.45,-290.66 -47.65,-131.49 -112.57,-258.44 -237.1,-331.83 -40.62,-23.96 -84.01,-43.05 -128.96,-56.63 -22.91,-6.92 -46.19,-12.39 -69.78,-16.29 -5.91,-1.03 -11.76,-1.85 -17.62,-2.66 -3.47,-0.46 -6.85,-0.9 -10.24,-1.25 -3.38,-0.44 -6.87,-0.8 -10.29,-1.05 -1.98,-0.27 -3.89,-0.43 -5.91,-0.51 -1.9,-0.17 -3.8,-0.33 -5.71,-0.49 -3.32,-0.22 -6.65,-0.35 -9.97,-0.58 -30.07,-1.37 -60.15,-0.1 -89.86,4.1 l -1.79,0.27 c -3.13,0.42 -6.27,0.83 -9.52,1.33 -1.45,0.13 -3.02,0.34 -4.5,0.67 -26.24,4.65 -52.19,11.5 -77.39,20.84 -4.28,1.62 -8.56,3.25 -12.77,4.99 -29.96,12.26 -55.89,27.21 -78.48,44.45 -4.25,3.24 -6.92,8.34 -6.71,13.68 0.59,15.37 15,29.31 32.89,23.19 63.36,-21.48 131.01,-32.37 197.96,-27.92 127.77,8.55 271.27,61.03 346.01,164.31 47.58,65.8 83.61,130.32 114.34,304.49 8.97,50.58 11.01,104.83 -6.06,252.15 -0.22,1.69 -119.51,55.85 -135.72,244.97 -0.61,6.91 -7.75,11.24 -14.01,8.31 -107.33,-50.45 -317.76,-51.08 -430.9,-29.65 -5.19,1.05 -10.27,-2.17 -11.51,-7.39 -10.13,-42.87 -50.66,-217.62 -283.56,-220.51 l -16.07,-0.5 c -14.97,80.43 -22.99,159.12 0.1,239.08 l 0.4,0.58 c 1.39,2.31 3.08,4.66 4.69,6.91 53.66,72.87 156.34,123.76 234.87,164.02 71.21,36.53 145.11,66.95 216.49,103.1 71.46,36.26 182.17,20.07 258.25,4.48 75.58,-15.59 145.17,-51.56 194.65,-110.11 88.87,-105.38 103.36,-248.81 110.52,-381.02"
         style="fill:#f2585b;fill-opacity:1;fill-rule:nonzero;stroke:none"
         id="path84" /><path
         d="m 4121.96,4673.47 c -68.26,6.41 -149.02,-3.25 -194.12,-16.08 -12.68,-3.61 -25.17,5.93 -24.82,18.71 0.54,19.81 11.92,45.7 62.96,56.82 56.71,12.36 113.25,11.21 145.69,-3.99 19.13,-8.97 27.48,-20.79 30.75,-31.41 3.94,-12.79 -6.72,-25.34 -20.46,-24.05"
         style="fill:#f2585b;fill-opacity:1;fill-rule:nonzero;stroke:none"
         id="path86" /><path
         d="m 4118.21,4693.12 c -68.26,6.4 -149.02,-3.25 -194.13,-16.09 -12.68,-3.61 -25.16,5.94 -24.81,18.71 0.54,19.81 11.91,45.71 62.95,56.82 56.71,12.36 113.25,11.22 145.69,-3.99 19.14,-8.96 27.48,-20.79 30.75,-31.41 3.94,-12.78 -6.72,-25.33 -20.45,-24.04"
         style="fill:#29273a;fill-opacity:1;fill-rule:nonzero;stroke:none"
         id="path88" /><path
         d="m 3128.49,4763.04 c 16.04,-46.11 42.99,-88 74.74,-118.78 27.13,-26.38 62.15,-48.19 100.1,-48.06 3.36,0.03 6.81,0.08 10.26,0.13 3.34,0.13 6.77,0.28 10.2,0.43 134.78,7.03 278.01,76.36 332.99,202.03 2.21,4.9 7.72,15.52 14.12,27.84 11.9,22.95 27.13,51.92 30.49,61.52 l 0.18,0.65 2.33,-2.61 c 5.49,-6.38 11.64,-12.43 18.55,-18.24 11.4,-9.53 24.52,-18.01 38.86,-25.35 19.43,-10.03 40.34,-18.25 62.23,-24.65 l 1.41,-0.45 c 91.54,-26.68 376.34,72.29 398.88,99.21 17.07,-69.28 23.53,-129.52 55,-181.74 26.38,-43.72 58.01,-103.75 107.52,-124.62 l 1.56,-0.72 c 17.13,-21.62 -39.61,-168.45 -13.11,-211.14 67.85,-109.26 219.35,-104.27 325.05,-61.45 76.93,31.16 171.6,97.31 167.42,186.7 -1.98,42.19 -7.96,72.48 -25.45,104.87 -13.11,24.37 -33.33,47.08 -62.14,66.72 -28.78,19.54 -39.74,57.15 -26.99,89.52 101.46,256.93 -48.43,605.28 -519.59,532.19 -27.2,-4.18 -54.84,6.21 -72.25,27.52 -190.57,232.55 -653.48,97.72 -621.91,-166.96 6.57,-55.66 -38.28,-103.84 -93.97,-98 -55.3,5.92 -116.63,5.6 -165.22,-12.34 -70.06,-26.02 -114.73,-64.5 -140.11,-108.55 -16.3,-28.16 -24.72,-58.68 -26.75,-89.62 -2.44,-35.69 3.59,-72 15.6,-106.05"
         style="fill:#363250;fill-opacity:1;fill-rule:nonzero;stroke:none"
         id="path90" /><path
         d="m 3650.78,4603.9 c -68.56,-0.23 -148.01,-17.65 -191.66,-34.79 -12.27,-4.82 -25.62,3.47 -26.51,16.22 -1.38,19.77 7.44,46.64 57.16,62.65 55.25,17.78 111.64,22.11 145.4,10.12 19.91,-7.07 29.36,-18.03 33.64,-28.29 5.16,-12.34 -4.24,-25.86 -18.03,-25.91"
         style="fill:#f2585b;fill-opacity:1;fill-rule:nonzero;stroke:none"
         id="path92" /><path
         d="m 3646.55,4626.02 c -68.56,-0.23 -148.01,-17.65 -191.66,-34.79 -12.27,-4.82 -25.62,3.47 -26.51,16.22 -1.38,19.77 7.44,46.64 57.16,62.65 55.25,17.78 111.64,22.11 145.4,10.12 19.91,-7.07 29.36,-18.03 33.64,-28.29 5.16,-12.34 -4.24,-25.86 -18.03,-25.91"
         style="fill:#29273a;fill-opacity:1;fill-rule:nonzero;stroke:none"
         id="path94" /><path
         d="m 4123.41,4508.1 c -20.58,107.63 -131.43,72.13 -136.17,15.61 -3.71,-44.26 23.25,-97.23 72.55,-96.87 62.31,0.46 71.59,39.57 63.62,81.26"
         style="fill:#ffffff;fill-opacity:1;fill-rule:nonzero;stroke:none"
         id="path96" /><path
         d="m 4029.97,4490.3 c 4.08,-35.36 13.33,-63.34 54.45,-58.6 32.43,3.75 44.22,33.71 40.13,69.07 -4.08,35.36 -26.66,62.25 -54.92,58.99 -28.26,-3.26 -43.74,-34.1 -39.66,-69.46"
         style="fill:#29273a;fill-opacity:1;fill-rule:nonzero;stroke:none"
         id="path98" /><path
         d="m 4129.44,4531.82 c 1.56,-1.23 9.22,-0.22 10.98,0.98 6.84,4.66 5.93,12.63 1.33,19.51 -17.83,26.62 -59.57,48.13 -98.29,43.25 -34.35,-4.33 -63.98,-17.95 -73.52,-50.6 -4.15,-14.21 4.43,-19.71 11.83,-23.43 18.06,-9.08 19.72,42.14 67,46.59 27.32,2.57 43.96,-7.37 80.67,-36.3"
         style="fill:#29273a;fill-opacity:1;fill-rule:nonzero;stroke:none"
         id="path100" /><path
         d="m 4021.44,4519.79 c 1.07,-5.57 7.15,-9.09 13.59,-7.86 6.45,1.23 10.8,6.75 9.74,12.32 -1.07,5.57 -7.15,9.08 -13.59,7.85 -6.44,-1.23 -10.8,-6.74 -9.74,-12.31"
         style="fill:#ffffff;fill-opacity:1;fill-rule:nonzero;stroke:none"
         id="path102" /><path
         d="m 3672.03,4479.96 c -27.58,99.01 -130.13,57.13 -133.72,0.83 -2.81,-44.09 28.69,-98.91 74.32,-99.25 57.68,-0.44 70.79,57.54 59.4,98.42"
         style="fill:#ffffff;fill-opacity:1;fill-rule:nonzero;stroke:none"
         id="path104" /><path
         d="m 3582.98,4445.02 c 4.08,-35.36 13.33,-63.34 54.44,-58.59 32.44,3.74 44.22,33.7 40.14,69.06 -4.08,35.36 -26.66,62.25 -54.92,58.99 -28.26,-3.26 -43.75,-34.1 -39.66,-69.46"
         style="fill:#29273a;fill-opacity:1;fill-rule:nonzero;stroke:none"
         id="path106" /><path
         d="m 3680.86,4488.96 c 1.57,-1.23 9.23,-0.21 10.98,0.99 6.85,4.66 5.94,12.62 1.33,19.5 -17.83,26.63 -59.57,48.13 -98.29,43.25 -34.34,-4.32 -63.98,-17.94 -73.52,-50.6 -4.15,-14.2 4.43,-19.71 11.83,-23.43 18.07,-9.08 19.73,42.15 67,46.59 27.32,2.57 43.96,-7.36 80.67,-36.3"
         style="fill:#29273a;fill-opacity:1;fill-rule:nonzero;stroke:none"
         id="path108" /><path
         d="m 3574.45,4474.51 c 1.06,-5.57 7.15,-9.09 13.59,-7.85 6.44,1.23 10.8,6.74 9.73,12.31 -1.06,5.57 -7.15,9.09 -13.59,7.86 -6.44,-1.24 -10.8,-6.75 -9.73,-12.32"
         style="fill:#ffffff;fill-opacity:1;fill-rule:nonzero;stroke:none"
         id="path110" /><path
         d="m 3736.82,4046.76 c -2.54,-3.51 -2.61,-5.63 -1.74,-6.49 11.46,-10.94 26.35,-23.73 47.98,-28.75 40.58,-9.35 96.53,-3.38 138.52,10.25 3.26,1.03 6.39,2.24 9.52,3.45 21.33,8.76 40.99,19.66 53.77,37.99 12.67,17.89 20.29,37.98 19.32,62.22 -0.06,0.3 -0.58,13.37 -1.61,18.78 -82.43,17.33 -224.51,-40.36 -265.76,-97.45"
         style="fill:#ed3049;fill-opacity:1;fill-rule:nonzero;stroke:none"
         id="path112" /><path
         d="m 3697.84,4162.95 c 9.92,-17.19 44.39,-56.7 107.33,-47.03 73.29,11.25 140.22,33.87 165.24,86.79 -63.84,-33.2 -195.65,-47.75 -272.57,-39.76"
         style="fill:#ffffff;fill-opacity:1;fill-rule:nonzero;stroke:none"
         id="path114" /><path
         d="m 3128.4,4763.61 c 16.08,-46.1 43.13,-87.97 75.02,-118.73 27.26,-26.35 62.45,-48.12 100.61,-47.95 3.37,0.03 6.84,0.08 10.31,0.13 3.35,0.14 6.81,0.29 10.26,0.44 136.2,5.78 286.86,61.77 346.77,185.42 13.29,27.39 21.02,53.4 25.76,73.04 120.31,-108.59 299.99,-69.03 421.75,-27.89 2.22,0.73 4.34,1.44 6.43,2.25 32.59,11.63 50.49,23.4 73.92,42.23 22.5,-121.05 6.36,-143.52 81.59,-244.87 25.37,-34.18 60.66,-60 87.98,-67.84 0.24,-0.07 -41.06,-83.86 7.63,-175.62 29.5,-55.58 107.38,-64.84 168.16,-69.19 68.66,-4.92 141.95,7.89 203.06,41.81 28.81,15.99 59.47,40.87 82.57,70.59 18.59,23.91 -8.14,57.34 -35.57,44.34 -7.47,-3.54 -15.44,-6.62 -24.13,-9.12 -36.18,-10.4 -74.72,-10.82 -111.57,-4.06 -68.28,12.53 -139.75,50.27 -177.36,110.08 -27.36,43.62 -40.02,97.07 -45.8,133.2 -3.23,20.24 -19.77,35.68 -40.32,37.38 -80.2,6.64 -173.49,107.03 -163.2,236.75 0.69,8.7 -9.41,13.77 -15.97,7.97 -91.05,-80.36 -421.16,-204.29 -587.05,14.33 -15.12,19.92 -46.72,13.48 -52.86,-10.75 -25.35,-100 -81.48,-163.37 -112.18,-180.88 -124.52,-71.15 -335.81,-43.06 -324.39,152.67 -16.42,-28.19 -24.92,-58.73 -26.99,-89.67 -2.49,-35.7 3.53,-72.02 15.57,-106.06"
         style="fill:#29273a;fill-opacity:1;fill-rule:nonzero;stroke:none"
         id="path116" /><path
         d="m 4367.9,4238.16 c -18.36,-100 -6.29,-148.03 66.66,-148.87 122.82,-1.41 228.98,101.72 227.38,203.16 -2.03,129.35 -101.49,184.29 -189.18,142.71 -80.95,-38.39 -92.22,-128.17 -104.86,-197"
         style="fill:#f2585b;fill-opacity:1;fill-rule:nonzero;stroke:none"
         id="path118" /><path
         d="m 4562.95,4293.98 c -10.54,2.85 -21.04,5.3 -31.22,4.02 -10.09,-0.82 -19.64,-3.69 -28.01,-8.95 -8.41,-5.06 -15.86,-11.76 -22.29,-19.47 -3.21,-3.84 -6.21,-7.93 -8.85,-12.2 -2.59,-4.02 -5.38,-9.09 -6.66,-12.42 -4,-10.4 -15.68,-15.6 -26.09,-11.59 -10.41,4 -15.6,15.68 -11.6,26.09 0.57,1.48 1.3,2.86 2.16,4.11 l 0.57,0.83 c 4.55,6.61 8.48,10.95 13.18,15.86 4.52,4.76 9.38,9.15 14.54,13.23 10.27,8.15 21.87,14.97 34.5,19.35 12.52,4.6 26.35,5.83 39.19,4.18 13.07,-1.17 24.76,-6.57 35.57,-12.08 2.95,-1.51 4.13,-5.12 2.62,-8.08 -1.31,-2.57 -4.23,-3.8 -6.91,-3.07 l -0.7,0.19"
         style="fill:#ed3049;fill-opacity:1;fill-rule:nonzero;stroke:none"
         id="path120" /><path
         d="m 1573.33,3069.17 c 7.7,38.93 14.59,34.83 17.42,75.65 5.33,76.89 3.59,188.61 12.6,256.03 8.82,65.94 -1.73,106.03 2.02,139.3 2.99,26.58 31.91,39.48 53.6,23.82 34.03,-24.59 49.63,-84.49 43.03,-155.27 -9.66,-103.68 -22.81,-223.39 42.4,-252.67 l 82.2,-362.64 c -35.65,17.23 -81.51,56.72 -115.43,79.31 -111.99,74.59 -143.01,170.3 -137.84,196.47"
         style="fill:#f68270;fill-opacity:1;fill-rule:nonzero;stroke:none"
         id="path122" /><path
         d="m 1819.92,2797.29 c 48.31,-28.37 84.64,-45.62 106.38,-71.03 2.25,-2.67 4.6,-5.41 6.77,-8.18 16.91,-20.31 33.72,-43.48 48.68,-67.66 24.48,-39.44 43.84,-81.78 49.75,-119.46 0,0 114.02,66.92 173.2,135.86 l 0.08,0.1 c 25.74,30.12 41.17,60.63 32.06,86.09 -3.5,9.8 -25.69,39.07 -47.66,70.03 -19.38,27.31 -33.24,58.07 -40.7,90.71 -13.29,58.09 -18.19,151.54 -87.02,291.58 -107.5,218.72 -41.06,290.91 -101.9,299.66 -60.84,8.75 -94.9,-63.12 -64.6,-154.16 11.62,-35.04 51.59,-150.69 14.7,-152.95 -85.32,-5.23 -128.21,14.71 -145.58,11.07 l -14.22,-107.43 -4.13,-25.54 -42.06,-98.28 c -11.16,-68.26 8.54,-117.18 116.25,-180.41"
         style="fill:#f68270;fill-opacity:1;fill-rule:nonzero;stroke:none"
         id="path124" /><path
         d="m 1981.75,2650.42 39.32,-79.57 183.63,95.97 0.08,0.1 c 25.74,30.12 41.17,60.63 32.06,86.09 -5.39,15.08 -46.74,56.58 -82.72,140.14 -22.53,-117.49 -132.3,-166.36 -221.05,-175.07 l 48.68,-67.66"
         style="fill:#f2585b;fill-opacity:1;fill-rule:nonzero;stroke:none"
         id="path126" /><path
         d="m 1954.67,3009.87 c 46.03,-74.11 21.8,-139.9 14.22,-145.36 0,0 87.65,46.4 -14.22,145.36"
         style="fill:#f2585b;fill-opacity:1;fill-rule:nonzero;stroke:none"
         id="path128" /><path
         d="m 1695.65,3333.88 c 28.1,-37.32 39.53,-66.36 69.27,-105.55 13.59,-17.92 56.46,-40.63 151.84,-28.22 -35.79,-68.86 -10.75,-123.2 32.93,-184.17 3.78,-10.25 -5.23,13.24 -42.54,27.05 -23.18,8.58 -121.72,-10.8 -161.42,32.99 -63.77,70.33 -50.08,257.9 -50.08,257.9"
         style="fill:#f2585b;fill-opacity:1;fill-rule:nonzero;stroke:none"
         id="path130" /><path
         d="m 1842.33,3187.77 c -73.83,12.54 -184.84,9.79 -239.22,-61.55 -10.45,-13.7 1.39,-33.08 18.29,-29.74 l 196.1,38.85 24.83,52.44"
         style="fill:#f2585b;fill-opacity:1;fill-rule:nonzero;stroke:none"
         id="path132" /><path
         d="m 1591.3,3097.63 c 116.15,66.84 215.31,59.34 258.65,50.18 34.54,-7.31 43.33,-55.54 10.48,-67.67 -33.22,-12.25 -118.05,-13.62 -157.91,-38.61 -54.05,-33.89 -76.75,-41.16 -102.7,-39.34 -14.76,1.03 -26.34,4.22 -35.62,31.25 -11.98,34.89 7.61,52.97 27.1,64.19"
         style="fill:#f68270;fill-opacity:1;fill-rule:nonzero;stroke:none"
         id="path134" /><path
         d="m 1770.36,3087.24 c -62.84,-13.21 -115.81,-45.34 -141.84,-73.8 -6.6,-7.22 10.56,-111.99 78.9,-86.15 52.93,20 110.63,46.57 165.6,70.83 25.95,11.45 60.05,123.33 -102.66,89.12"
         style="fill:#f2585b;fill-opacity:1;fill-rule:nonzero;stroke:none"
         id="path136" /><path
         d="m 1840.6,3064.71 c 40.26,-4.19 36.87,-45.57 22.64,-54.37 -23.35,-14.45 -72.92,-11.19 -118.07,-35.14 -17.37,-9.21 -72.55,-64.94 -106.09,-50.16 -43.8,19.3 -35.19,57.44 -20.33,69.65 75.39,61.92 169.37,75.48 221.85,70.02"
         style="fill:#f68270;fill-opacity:1;fill-rule:nonzero;stroke:none"
         id="path138" /><path
         d="m 2075.32,4570.93 c 67.24,-214.04 169.6,-423.59 459.6,-336.98 277.61,82.92 229.04,318.14 161.81,532.18 -67.24,214.05 -224.89,249.42 -398.31,194.94 -173.42,-54.47 -290.34,-176.1 -223.1,-390.14"
         style="fill:#ffffff;fill-opacity:1;fill-rule:nonzero;stroke:none"
         id="path140" /><path
         d="m 1133.77,5591.15 c 34.47,-180.32 131.86,-301.23 200.56,-385.95 68.58,-84.67 151.8,-155.19 244.41,-209.11 30.25,-17.6 126.8,-78.31 158.86,-92.28 198.04,-121.01 322.04,-330.44 347.88,-366.22 1.66,-2.25 61.27,-10.05 163.72,6.77 19.43,3.15 40.4,7.16 62.84,12.3 26.94,6.27 56.01,13.97 87.02,23.71 34.13,10.72 65.04,21.38 92.95,31.87 21.53,8 41.28,15.92 59.29,23.58 113.22,48.16 158.97,86.59 158.34,89.82 -3.06,17.65 -15.65,65.32 -8.41,162.25 7.24,96.94 18.37,249.35 110.43,457.42 95.2,215.18 146.52,502.82 66.59,744.8 -150.45,455.24 -647.18,666.59 -1106.54,529.26 -476.78,-142.62 -731.09,-540.89 -637.94,-1028.22"
         style="fill:#fab50f;fill-opacity:1;fill-rule:nonzero;stroke:none"
         id="path142" /><path
         d="m 1746.07,5536.65 c 3.4,8.32 9.99,18.02 22.23,21.87 2.61,0.82 5.5,1.34 8.67,1.57 27.85,1.88 73.59,-23.16 118.03,-98.99 28.02,-47.88 61.34,-108.7 99.22,-190.7 -71.7,8.3 -137.23,46.5 -195.74,114.29 -57.63,66.82 -64.31,123.6 -52.41,151.96 z m 610.65,-90.35 c -10.1,160.67 15.56,245.45 47.24,275.54 4.79,4.46 11.01,9.28 19.61,11.98 11.03,3.47 25.92,3.47 46.38,-5.18 4.95,-2.07 18.24,-7.63 17.35,-39.12 -1.76,-61.24 -52.59,-157.93 -130.58,-243.22 z m -606.41,-103.27 c 90.48,-104.89 187.32,-137.93 273.14,-138.06 64.35,-149.26 140.39,-358.21 225.75,-660.61 19.43,3.15 40.4,7.16 62.84,12.3 -83.18,295.16 -157.85,503.39 -222.02,654.52 22.53,4.22 43.74,10.21 63.3,17.21 53.22,18.92 105.37,49.42 153.41,86.65 27.67,-192.27 91.04,-432.58 185.28,-702.8 21.53,8 41.28,15.92 59.29,23.58 -112.01,321.04 -166.71,558.35 -187.04,728.78 107.77,102.56 184.1,233.51 186.69,323.07 1.92,65.3 -34.44,90.52 -56.22,99.71 -51.03,21.47 -98.8,14.67 -134.6,-19.29 -60.34,-57.31 -81.88,-188.32 -62.48,-379.47 -49.76,-43.01 -106.18,-79.06 -165.75,-100.25 -23.18,-8.24 -45.91,-13.95 -68.13,-17.02 -43.91,97.57 -82.11,167.83 -113.79,221.9 -51.01,87.04 -115.66,134.58 -177.32,130.38 -38.25,-2.48 -70.22,-25.88 -85.45,-62.44 -25.54,-61.17 -1.99,-142.8 63.1,-218.16"
         style="fill:#ffffff;fill-opacity:1;fill-rule:nonzero;stroke:none"
         id="path144" /><path
         d="m 1491.47,7111.86 c -59.16,-14.99 -69.32,-53.66 -43.05,-117.79 53.3,-130.09 105.96,-172.98 124.53,-166.86 36.91,12.15 41.46,315.79 -81.48,284.65"
         style="fill:#e9f0f1;fill-opacity:1;fill-rule:nonzero;stroke:none"
         id="path146" /><path
         d="m 2813.16,7080.25 c -44.87,41.39 -82.81,28.77 -122.18,-28.25 -79.88,-115.69 -87.06,-183.22 -71.79,-195.44 30.34,-24.28 287.19,137.72 193.97,223.69"
         style="fill:#e9f0f1;fill-opacity:1;fill-rule:nonzero;stroke:none"
         id="path148" /><path
         d="m 3275.69,6157.45 c 11.09,60.03 -19.81,85.4 -89.04,88.31 -140.47,5.91 -201.43,-24.02 -203.63,-43.45 -4.37,-38.61 269.62,-169.56 292.67,-44.86"
         style="fill:#e9f0f1;fill-opacity:1;fill-rule:nonzero;stroke:none"
         id="path150" /><path
         d="m 590.605,6183.56 c -13.468,-59.54 16.395,-86.12 85.458,-91.78 140.121,-11.49 205.625,15.77 205.195,35.32 -1.274,57.51 -262.668,180.15 -290.653,56.46"
         style="fill:#e9f0f1;fill-opacity:1;fill-rule:nonzero;stroke:none"
         id="path152" /><path
         d="m 698.633,5279.21 c 27.23,-54.63 67.176,-56.33 124.246,-17.03 115.789,79.74 149.277,142.29 136.574,157.16 -37.367,43.74 -317.394,-26.64 -260.82,-140.13"
         style="fill:#e9f0f1;fill-opacity:1;fill-rule:nonzero;stroke:none"
         id="path154" /><path
         d="m 1267.11,5887.7 c 44.29,-20.65 105.34,30.05 175.24,168.64 31.82,63.07 81.32,163.86 59.58,196.14 -39.46,58.59 -115.14,58.86 -158.87,3.38 -101.75,-129.08 -164.39,-326.91 -75.95,-368.16"
         style="fill:#ffffff;fill-opacity:1;fill-rule:nonzero;stroke:none"
         id="path156" /><path
         d="m 1188.67,5711.45 c 5,-52.5 41.21,-69.54 70.59,-60.31 29.38,9.23 53.84,88.41 44.61,117.79 -9.23,29.38 -40.53,45.72 -69.91,36.49 -29.38,-9.23 -48.21,-63.31 -45.29,-93.97"
         style="fill:#ffffff;fill-opacity:1;fill-rule:nonzero;stroke:none"
         id="path158" /><path
         d="m 2232.34,2802.26 c -106.24,-109.43 -202.92,-162.9 -268.98,-196.4 -12.32,-6.24 3.33,-43.99 11,-55.48 l 44.16,-73.63 306.67,218.95 c 0,0 -71.76,128.27 -92.85,106.56"
         style="fill:#ffffff;fill-opacity:1;fill-rule:nonzero;stroke:none"
         id="path160" /><path
         d="m 2288.79,2754.04 c 58.57,-67.85 138.86,-170.61 191.05,-234.84 403.05,-495.99 640.4,-885.59 427.45,-1031.53 -114.87,-78.72 -199.31,-45.12 -289.87,26.28 -294.28,232.02 -643.06,1036.43 -643.06,1036.43 129.46,55.62 239.19,109.6 314.43,203.66"
         style="fill:#363250;fill-opacity:1;fill-rule:nonzero;stroke:none"
         id="path162" /><path
         d="m 4431.67,3533.33 c -27.5,70 -69.79,114.19 -101.3,148.37 -7.83,8.49 -29.09,28.39 -34.92,30.27 0,0 -1.33,-12.79 0.46,-17.1 3.36,-2.82 14.74,-26.85 17.42,-36.12 10.44,-36.13 12.55,-136.21 -39.65,-297.22 -118.47,-365.42 -575.86,-923.92 -576.67,-925.38 -7.99,-13.86 3.34,-73.51 85.84,-26.83 160.68,90.92 646.89,387.47 676.66,751.65 2.49,30.43 -83.57,87.21 -74.49,87.82 0,0 76.62,-34.73 79.91,-11.7 17.08,119.71 -6.4,227.87 -33.26,296.24"
         style="fill:#2a2842;fill-opacity:1;fill-rule:nonzero;stroke:none"
         id="path164" /></g></g></svg>
