<svg xmlns="http://www.w3.org/2000/svg" xmlns:xlink="http://www.w3.org/1999/xlink" viewBox="0 0 22.56 24"><defs><style>.cls-1{fill:none;}.cls-2{clip-path:url(#clip-path);}.cls-3{fill:#b5b5b6;}</style><clipPath id="clip-path" transform="translate(-0.72 0)"><rect class="cls-1" width="24" height="24"/></clipPath></defs><title>attachement</title><g id="Layer_2" data-name="Layer 2"><g id="Layer_1-2" data-name="Layer 1"><g class="cls-2"><path class="cls-3" d="M23,8.74a1,1,0,0,0-1.41,0l-12,12.09a4,4,0,0,1-5.66-5.66L16.27,2.73A2.5,2.5,0,0,1,19.8,6.27L9.55,16.52h0a1,1,0,0,1-1.41-1.41l4.95-4.95a1,1,0,0,0-1.42-1.42L6.72,13.69A3,3,0,0,0,11,17.93h0L21.22,7.68a4.5,4.5,0,0,0-6.37-6.36L2.48,13.76A6,6,0,0,0,11,22.24L23,10.15A1,1,0,0,0,23,8.74Z" transform="translate(-0.72 0)"/></g></g></g></svg>