<svg xmlns="http://www.w3.org/2000/svg" xmlns:xlink="http://www.w3.org/1999/xlink" viewBox="0 0 16 15.2"><defs><style>.cls-1{fill:none;}.cls-2{clip-path:url(#clip-path);}.cls-3{fill:#606161;fill-opacity:0.75;}</style><clipPath id="clip-path" transform="translate(0 -0.4)"><rect class="cls-1" width="16" height="16"/></clipPath></defs><title>chat</title><g id="Layer_2" data-name="Layer 2"><g id="Layer_1-2" data-name="Layer 1"><g class="cls-2"><path class="cls-3" d="M8,.4C3.59.4,0,3.63,0,7.6a6.65,6.65,0,0,0,1.27,3.89A6.23,6.23,0,0,1,.08,15.14a.28.28,0,0,0,0,.31.27.27,0,0,0,.24.15h0a14.45,14.45,0,0,0,4.44-1.43A8.56,8.56,0,0,0,8,14.8c4.41,0,8-3.23,8-7.2S12.41.4,8,.4ZM4.27,8.67A1.07,1.07,0,1,1,5.33,7.6,1.07,1.07,0,0,1,4.27,8.67ZM8,8.67A1.07,1.07,0,1,1,9.07,7.6,1.07,1.07,0,0,1,8,8.67Zm3.73,0A1.07,1.07,0,1,1,12.8,7.6,1.07,1.07,0,0,1,11.73,8.67Z" transform="translate(0 -0.4)"/></g></g></g></svg>