<svg width="22" height="22" viewBox="0 0 22 22" fill="none" xmlns="http://www.w3.org/2000/svg">
    <path d="M10.7022 0.381104C10.461 0.380891 10.2328 0.490424 10.0821 0.678764L9.05113 1.96706H14.6771C16.4244 1.96706 17.8506 3.39426 17.8506 5.14206V5.93736H18.6304C19.6894 5.93736 19.6894 7.52641 18.6304 7.52641H17.8506V9.1139H18.635C18.6644 9.11128 18.6939 9.11033 18.7234 9.11087C19.8093 9.14258 19.7178 10.7846 18.635 10.6953H17.8506V12.2828H18.635C19.6928 12.284 19.6928 13.8705 18.635 13.8718H17.8506V17.0468H19.5048C20.3283 17.0468 21.0163 16.3599 21.0163 15.5368V1.89274C21.0163 1.06965 20.3283 0.381167 19.5048 0.381203L10.7022 0.381104ZM4.52893 3.86336L0.639246 7.7515C0.407676 7.98307 0.378906 8.1456 0.378906 8.3172H5.14761L5.14594 3.54697C4.88101 3.54697 4.68485 3.70744 4.52893 3.86336ZM6.73344 3.55455V9.1139C6.73177 9.54996 6.37872 9.903 5.94279 9.90455H0.397392V19.4311C0.397392 20.2967 1.11954 21.0186 1.98489 21.0186H14.6771C15.5425 21.0186 16.2631 20.2967 16.2631 19.4311V5.14205C16.2631 4.27644 15.5425 3.55455 14.6771 3.55455H6.73344ZM4.36304 10.6952H12.299C13.3336 10.718 13.3336 12.2597 12.299 12.2827H4.36304C3.3284 12.2599 3.3284 10.7182 4.36304 10.6952ZM4.36304 13.8718H12.299C13.3336 13.8946 13.3336 15.4363 12.299 15.4593H4.36304C3.3284 15.4365 3.3284 13.8947 4.36304 13.8718ZM4.36304 17.0452H12.299C13.3806 17.0212 13.3806 18.6567 12.299 18.6327H4.36304C3.28147 18.6567 3.28147 17.0212 4.36304 17.0452Z" fill="white"/>
</svg>
