<svg id="_Layer_" data-name="&lt;Layer&gt;" xmlns="http://www.w3.org/2000/svg" viewBox="0 0 2760 1840"><defs><style>.cls-1{fill:#fff;}.cls-2{fill:#deebe9;}.cls-3{fill:#bed5dc;}.cls-4{fill:#436e8e;}.cls-5{fill:#cfd3a3;}.cls-6{fill:#c4c695;}.cls-7{fill:#b2c9c6;}.cls-8{fill:#9bbcb6;}.cls-9{fill:#74a1bd;}.cls-10{opacity:0.6;}.cls-11{opacity:0.5;}.cls-12{fill:#2f1a31;}.cls-13{opacity:0.4;}.cls-14{fill:#e28569;}.cls-15{fill:#6f4975;}.cls-16{fill:#81b3cc;}.cls-17{fill:#f7b686;}.cls-18{fill:#ced891;}.cls-19{fill:#e08b65;}.cls-20{fill:#020202;}.cls-21{fill:#dd8964;}.cls-22{fill:#db6b49;}.cls-23{fill:#060633;}.cls-24{fill:#1c3442;}.cls-25{fill:#42428e;}.cls-26{fill:#96a7e2;}.cls-27{opacity:0.3;}.cls-28{fill:#56335b;}</style></defs><title>createproject</title><rect class="cls-1" width="2760" height="1840"/><path class="cls-2" d="M2181.55,1736.45c-180.23,26.38-365.92,15.39-745.32-12.22-213-15.5-641.4,10.18-855.21,12.22-155.89,1.48-282.26-134.6-282.26-300.64V400.33c0-166,126.64-310.41,282.26-300.65,144.51,9.07,357.08,45,578.66,23,263.54-26.14,763.76-48.36,1021.87-23,155.23,15.27,282.26,134.61,282.26,300.65V1435.81C2463.81,1601.85,2336,1713.84,2181.55,1736.45Z"/><ellipse class="cls-3" cx="1367.79" cy="1508.32" rx="877.61" ry="99.5"/><path class="cls-4" d="M1822.13,547.48a13.13,13.13,0,0,1-13-11.35l-2.44-18.2a10.9,10.9,0,0,0-7.51-9q-1.65-.51-3.24-1.08a10.84,10.84,0,0,0-3.57-.61,11,11,0,0,0-8,3.53l-13.26,14.39a13.1,13.1,0,0,1-18.5.76l-15.52-14.3a13.1,13.1,0,0,1-.75-18.51l11.4-12.34a10.92,10.92,0,0,0,1.54-12.66l-.08-.16a10.88,10.88,0,0,0-9.57-5.67,10.37,10.37,0,0,0-1.47.1l-15.63,2.11a13.07,13.07,0,0,1-14.72-11.23L1705,432.35a13.09,13.09,0,0,1,11.24-14.72l15.64-2.1a10.93,10.93,0,0,0,9.16-8.28l0-.18a10.92,10.92,0,0,0-4.83-11.78L1722,386.38a13.12,13.12,0,0,1-4.16-18.05L1729,350.45a13.07,13.07,0,0,1,18-4.16l16.59,10.38a11,11,0,0,0,5.81,1.67,10.77,10.77,0,0,0,6.15-1.92c.92-.65,1.88-1.29,2.84-1.9a10.93,10.93,0,0,0,4.87-10.67l-2.44-18.19a13.1,13.1,0,0,1,11.23-14.72l20.88-2.81a13.08,13.08,0,0,1,14.73,11.23l1.81,13.53a11,11,0,0,0,9.16,9.33,85.16,85.16,0,0,1,11.68,2.79,11.21,11.21,0,0,0,3.35.52,10.94,10.94,0,0,0,8-3.5l11.77-12.75a13.1,13.1,0,0,1,18.5-.74l15.5,14.3a13.11,13.11,0,0,1,.74,18.5l-8.31,9a10.85,10.85,0,0,0-1.37,12.95c.51.87,1,1.76,1.5,2.65a10.79,10.79,0,0,0,9.51,5.59,10.37,10.37,0,0,0,1.47-.1l11-1.47a12.87,12.87,0,0,1,1.75-.12,13.13,13.13,0,0,1,13,11.35l2.81,20.89a13.09,13.09,0,0,1-11.23,14.72l-11,1.48a10.88,10.88,0,0,0-9.15,8.21q-.36,1.5-.75,3a10.84,10.84,0,0,0,4.74,12.12l10.4,6.49a13.11,13.11,0,0,1,4.17,18.05L1915.59,504a13.08,13.08,0,0,1-18,4.16L1882.85,499a11.15,11.15,0,0,0-11.77.13,85.22,85.22,0,0,1-10.51,5.78,10.94,10.94,0,0,0-6.36,11.42l1.82,13.53a13.11,13.11,0,0,1-11.24,14.72l-20.9,2.81A12.9,12.9,0,0,1,1822.13,547.48Zm-29.72-42.41a12.63,12.63,0,0,1,4.3.74c1,.36,2.09.71,3.15,1a13.11,13.11,0,0,1,9,10.79l2.44,18.2a10.94,10.94,0,0,0,10.8,9.47,10.37,10.37,0,0,0,1.47-.1l20.9-2.8a10.93,10.93,0,0,0,9.37-12.28l-1.82-13.53a13.1,13.1,0,0,1,7.61-13.68,84.23,84.23,0,0,0,10.24-5.63,13.2,13.2,0,0,1,7.19-2.13,13,13,0,0,1,6.91,2l14.71,9.18a10.91,10.91,0,0,0,15-3.47L1924.92,485a10.9,10.9,0,0,0-3.47-15.05l-10.4-6.5a13,13,0,0,1-5.69-14.53c.26-1,.51-1.92.73-2.9a13.07,13.07,0,0,1,11-9.86l11-1.48a10.92,10.92,0,0,0,9.37-12.28l-2.81-20.89a11,11,0,0,0-10.81-9.47,11.8,11.8,0,0,0-1.46.1l-11.05,1.48a14.42,14.42,0,0,1-1.75.11,13,13,0,0,1-11.42-6.72c-.47-.87-1-1.74-1.46-2.59a13,13,0,0,1,1.64-15.52l8.32-9a10.94,10.94,0,0,0-.63-15.44l-15.5-14.29a10.91,10.91,0,0,0-15.43.62l-11.76,12.74a13.11,13.11,0,0,1-9.62,4.2,13.26,13.26,0,0,1-4-.62,84.19,84.19,0,0,0-11.39-2.71,13.11,13.11,0,0,1-10.95-11.2l-1.82-13.52a10.94,10.94,0,0,0-10.8-9.47,10.52,10.52,0,0,0-1.48.1l-20.88,2.81a10.93,10.93,0,0,0-9.37,12.28l2.45,18.19a13.13,13.13,0,0,1-5.86,12.8c-.94.59-1.87,1.21-2.77,1.84a12.89,12.89,0,0,1-7.39,2.31,13.1,13.1,0,0,1-7-2l-16.59-10.38a10.92,10.92,0,0,0-15.05,3.47l-11.19,17.88a10.91,10.91,0,0,0,3.48,15l14.25,8.91a13.11,13.11,0,0,1,5.79,14.15l0,.14a13.13,13.13,0,0,1-11,9.95l-15.64,2.1a10.92,10.92,0,0,0-9.37,12.28L1710,453a11,11,0,0,0,10.81,9.46,10.37,10.37,0,0,0,1.47-.1l15.63-2.11a14.85,14.85,0,0,1,1.76-.11,13,13,0,0,1,11.47,6.79l.09.18a13.07,13.07,0,0,1-1.86,15.16L1738,494.59a10.92,10.92,0,0,0,.63,15.43l15.51,14.3a10.92,10.92,0,0,0,15.43-.63l13.27-14.39A13.1,13.1,0,0,1,1792.41,505.07Z"/><path class="cls-4" d="M1825.87,476c-23.59,0-49.86-23.22-53-46.87-1.57-11.73,2.6-23.7,11.75-33.69a55.13,55.13,0,0,1,32.76-17.41,32.7,32.7,0,0,1,4.52-.31c23.54,0,42.6,24.2,45.64,46.81a47.1,47.1,0,0,1-7.92,33.62,42.18,42.18,0,0,1-29.13,17.55A34.54,34.54,0,0,1,1825.87,476Zm-4-96.11a31.53,31.53,0,0,0-4.23.29,53,53,0,0,0-31.45,16.72c-8.7,9.52-12.68,20.86-11.19,31.94,3,22.7,28.25,45,50.88,45a33.72,33.72,0,0,0,4.29-.28,40,40,0,0,0,27.64-16.66,44.81,44.81,0,0,0,7.54-32.07C1862.43,403.14,1844.26,379.91,1821.86,379.91Z"/><path class="cls-3" d="M788,909.89l29.89-.81a20.71,20.71,0,0,0,20.14-21.25l-1-36.34a20.71,20.71,0,0,0-21.26-20.15l-21.14.57a20.69,20.69,0,0,1-20.2-14.17c-.54-1.65-1.12-3.3-1.73-4.93a20.56,20.56,0,0,1,5.86-22.57l14.44-12.64A20.71,20.71,0,0,0,795,748.37l-24-27.35a20.7,20.7,0,0,0-29.2-1.95l-14.47,12.64a20.56,20.56,0,0,1-23.12,2.82c-1.53-.82-3.08-1.6-4.64-2.36a20.68,20.68,0,0,1-11.39-21.9l3.36-20.88a20.7,20.7,0,0,0-17.15-23.73l-35.91-5.78A20.7,20.7,0,0,0,614.81,677L610,706.56a20.78,20.78,0,0,1-14.83,16.63,145.58,145.58,0,0,0-19.21,7,20.82,20.82,0,0,1-24.23-5.17l-15.5-17.72a20.71,20.71,0,0,0-29.22-1.94l-27.35,24a20.7,20.7,0,0,0-1.94,29.21l20.86,23.83a20.7,20.7,0,0,1,3.46,22c-.78,1.78-1.54,3.56-2.25,5.36a20.6,20.6,0,0,1-18.64,12.93l-33.73.89a20.72,20.72,0,0,0-20.16,21.25l1,36.37a20.72,20.72,0,0,0,21.26,20.15l29-.78a20.74,20.74,0,0,1,20,13.6l.1.27a20.66,20.66,0,0,1-5.81,22.69L472.3,955a20.71,20.71,0,0,0-1.94,29.23l24,27.37a20.71,20.71,0,0,0,29.22,1.93L544,995.61a20.64,20.64,0,0,1,23.26-2.75l.29.15a20.73,20.73,0,0,1,10.83,21.62l-4.61,28.61A20.7,20.7,0,0,0,590.94,1067l35.92,5.76a20.72,20.72,0,0,0,23.73-17.16l5.35-33.33a20.61,20.61,0,0,1,15.28-16.77q2.82-.69,5.61-1.52a20.7,20.7,0,0,1,21.32,6.35L719,1034.14a20.71,20.71,0,0,0,29.22,1.95l27.37-23.95a20.71,20.71,0,0,0,1.95-29.22L762,965.2a20.82,20.82,0,0,1-1.92-24.69,145.71,145.71,0,0,0,9.48-18.09A20.8,20.8,0,0,1,788,909.89Zm-98.67,17c-31.78,27.81-96.74,19.91-124.55-11.87s-16.69-85.45,15.09-113.22,86-12.91,113.77,18.87S721.14,899,689.37,926.86Z"/><path class="cls-4" d="M633.43,1095.83a20.52,20.52,0,0,1-3.4-.28l-35.92-5.76a21.32,21.32,0,0,1-17.68-24.45l4.61-28.61a20.09,20.09,0,0,0-10.5-21l-.29-.15a20,20,0,0,0-22.56,2.67l-20.46,17.93a21.32,21.32,0,0,1-30.1-2l-24-27.37a21.33,21.33,0,0,1,2-30.11l20.49-17.92a20.12,20.12,0,0,0,5.63-22l-.1-.28a20.14,20.14,0,0,0-19.39-13.18l-29,.77a21.21,21.21,0,0,1-21.89-20.75L430,867a21.33,21.33,0,0,1,20.76-21.89l33.73-.89a19.93,19.93,0,0,0,18.08-12.54c.71-1.78,1.47-3.6,2.26-5.38A20.1,20.1,0,0,0,501.42,805l-20.86-23.83a21.36,21.36,0,0,1,2-30.09l27.35-23.94a21.31,21.31,0,0,1,30.1,2l15.5,17.71a20.06,20.06,0,0,0,15.1,6.82,20.39,20.39,0,0,0,8.41-1.81,146.77,146.77,0,0,1,19.28-7.06,20.27,20.27,0,0,0,14.4-16.13l4.76-29.53a21.23,21.23,0,0,1,21-17.94,20.67,20.67,0,0,1,3.42.28l35.91,5.78a21.32,21.32,0,0,1,17.66,24.44l-3.36,20.88a19.93,19.93,0,0,0,11,21.24c1.54.75,3.11,1.55,4.66,2.37a19.65,19.65,0,0,0,9.15,2.27,20.19,20.19,0,0,0,13.27-5l14.46-12.65a21.33,21.33,0,0,1,30.09,2l24,27.35a21.34,21.34,0,0,1-2,30.1L782.3,812.91a20,20,0,0,0-5.68,21.88c.61,1.64,1.19,3.31,1.74,5A20,20,0,0,0,798,853.49l21.14-.57A21.22,21.22,0,0,1,841,873.67L842,910a21.36,21.36,0,0,1-20.74,21.89l-29.9.81a20.27,20.27,0,0,0-17.9,12.16A146.08,146.08,0,0,1,763.89,963a20.13,20.13,0,0,0,1.87,24l15.51,17.72a21.34,21.34,0,0,1-2,30.1l-27.37,24a21.29,21.29,0,0,1-14,5.28h0a21.33,21.33,0,0,1-16.06-7.29L701,1032.92a20.2,20.2,0,0,0-15.18-6.94,19.7,19.7,0,0,0-5.5.78c-1.87.55-3.76,1.06-5.63,1.53a19.94,19.94,0,0,0-14.82,16.26l-5.35,33.33A21.23,21.23,0,0,1,633.43,1095.83Zm-72.49-83.78a21.15,21.15,0,0,1,9.89,2.46l.28.15a21.31,21.31,0,0,1,11.16,22.27l-4.61,28.61a20.07,20.07,0,0,0,16.64,23l35.93,5.77a20.29,20.29,0,0,0,3.2.25,20,20,0,0,0,19.81-16.9l5.35-33.33a21.2,21.2,0,0,1,15.75-17.27c1.85-.46,3.73-1,5.58-1.51a20.69,20.69,0,0,1,5.85-.84,21.46,21.46,0,0,1,16.12,7.37l20.84,23.83a20.11,20.11,0,0,0,15.13,6.86h0a20.06,20.06,0,0,0,13.22-5l27.37-24a20.08,20.08,0,0,0,1.88-28.34l-15.51-17.72a21.38,21.38,0,0,1-2-25.43,143.55,143.55,0,0,0,9.45-18,21.5,21.5,0,0,1,19-12.9l29.89-.81a20.1,20.1,0,0,0,19.53-20.61l-1-36.35a20,20,0,0,0-20.61-19.54l-21.15.57a21.27,21.27,0,0,1-20.8-14.59c-.54-1.64-1.12-3.29-1.73-4.92a21.27,21.27,0,0,1,6-23.25l14.45-12.64A20.09,20.09,0,0,0,797.81,771l-23.95-27.35a20.09,20.09,0,0,0-28.33-1.89l-14.46,12.65a21.43,21.43,0,0,1-14.09,5.3,20.83,20.83,0,0,1-9.73-2.41c-1.54-.82-3.09-1.6-4.62-2.35a21.18,21.18,0,0,1-11.74-22.56l3.36-20.87a20.06,20.06,0,0,0-16.63-23l-35.91-5.78a19.34,19.34,0,0,0-3.22-.26,20,20,0,0,0-19.8,16.88l-4.76,29.54A21.54,21.54,0,0,1,598.65,746a144.34,144.34,0,0,0-19.12,7,21.71,21.71,0,0,1-8.92,1.91,21.32,21.32,0,0,1-16-7.24l-15.5-17.72a20.09,20.09,0,0,0-28.34-1.88l-27.35,24a20.11,20.11,0,0,0-1.88,28.34l20.85,23.82a21.36,21.36,0,0,1,3.57,22.64c-.79,1.77-1.54,3.57-2.24,5.34a21.2,21.2,0,0,1-19.21,13.33l-33.73.89A20.1,20.1,0,0,0,431.19,867l1,36.37a20,20,0,0,0,20.62,19.54l29-.78a21.41,21.41,0,0,1,20.59,14l.1.28a21.39,21.39,0,0,1-6,23.37L476,977.68A20.09,20.09,0,0,0,474.1,1006l24,27.37a20.08,20.08,0,0,0,28.34,1.87l20.46-17.93A21.38,21.38,0,0,1,560.94,1012.05Z"/><path class="cls-5" d="M1171.74,1058.88c-33.52-19.56-73.43-41.05-114.59-62.58a65,65,0,0,1,0-16c-10.77-40.36-8.53-34-71.26-55.72-45-15.6-29.65-54.34-32.46-90.14,0-.65-.1-1.3-.16-2-1.31-13.4-5.39-26.33-16.38-37.39a191.37,191.37,0,0,1-30.62-40.28c-.68-1.21-1.35-2.42-2-3.64-15.73-29.68-20.08-60.88,1.53-78.57.51-.42,1-.84,1.57-1.24a55.44,55.44,0,0,1,13.54-7.25c55-20.75,80.69,11.91,116,39.54,19.52,15.28,65.23,5.1,102.43,8.9l1.59.17c29.35,3.34,53,15.86,53.58,57.33h0c0,.84,0,1.68,0,2.5,1.85,91.64,35.73,78,85.5,122.51,9.25,8.3,17.31,16.26,20.46,25.4C1329.94,1005.68,1250,1056.28,1171.74,1058.88Z"/><path class="cls-6" d="M1214.3,994.19l3.5-1.5c-.66-1.54-68.6-156.31-310.9-321.69l-2.15,3.15C1146.14,838.9,1213.64,992.65,1214.3,994.19Z"/><path class="cls-6" d="M1122.86,799.86c51.4-8.15,72.15-27.63,73-28.45l-2.64-2.75c-.2.2-20.88,19.5-71,27.45Z"/><path class="cls-6" d="M1094.89,830.66c19.54-10.15,33.7-33.87,40.95-68.58a254.62,254.62,0,0,0,5.12-49.57l-3.8.06c0,.91.91,91.37-44,114.72Z"/><path class="cls-6" d="M1033.74,783.1c6-.72,9.41-1.47,9.57-1.51l-.84-3.71c-.72.16-73.4,15.81-137.09-28.29l-2.16,3.13C954.53,788.25,1011.54,785.81,1033.74,783.1Z"/><path class="cls-6" d="M953.94,836.23c25.55-6.92,40.51-20.71,48.55-31.05,8.75-11.26,11.4-20.8,11.51-21.2l-3.67-1c-.1.37-10.6,36.9-57.38,49.57Z"/><path class="cls-7" d="M1253.5,869.86l-2.36-.22c0-.36,3.27-37.08-8.7-91-11.06-49.73-37.69-124.69-101.83-199.35l1.8-1.54c64.5,75.06,91.27,150.45,102.37,200.48C1256.81,832.48,1253.54,869.5,1253.5,869.86Z"/><path class="cls-7" d="M1169.92,633.1a84.13,84.13,0,0,1-42.48-12.51l1.34-2c.23.16,23.49,15.76,52,11.3l.37,2.34A68.6,68.6,0,0,1,1169.92,633.1Z"/><path class="cls-7" d="M1139.11,566.05c12.49,11.42,13.51,17.76,10.19,21.39s-9.72,3.18-22.21-8.25c-22.75-20.8-27.74-37.43-27.74-37.43S1116,544.94,1139.11,566.05Z"/><path class="cls-7" d="M1133.86,613c15.35,7.13,18.24,12.87,16.17,17.33s-8.32,6-23.67-1.17c-28-13-37.73-27.33-37.73-27.33S1105.49,599.78,1133.86,613Z"/><path class="cls-7" d="M1194.48,595.43c2.77,12.24-.29,16.77-5.09,17.85s-9.51-1.66-12.29-13.9c-5.06-22.3,1.18-35,1.18-35S1189.34,572.81,1194.48,595.43Z"/><path class="cls-7" d="M1346.09,971.56s1.55-317.87-84.72-315,46.16,213.23,42.77,305.75Z"/><path class="cls-8" d="M1322.7,941.16s-108.91-319.75-210.28-289,129,199.24,157.28,293.26Z"/><path class="cls-9" d="M1293.07,943.77c-18.31-65.28-60.49-129.36-92.66-171.62-34.87-45.82-65.78-76.55-66.09-76.86l1.91-1.92c.31.3,31.36,31.17,66.34,77.14,32.31,42.45,74.68,106.84,93.11,172.53Z"/><path class="cls-7" d="M1028.8,654.28c-7.25-10-4.65-16.39,1.22-20.66s12.77-4.77,20,5.19c13.21,18.15,9,34.65,9,34.65S1042.21,672.69,1028.8,654.28Z"/><g class="cls-10"><path class="cls-7" d="M1459,983.22s-10-211.05,47.35-211.62-24.62,142.91-19.76,204.26Z"/></g><path class="cls-5" d="M1468.78,965.55s72.87-243.41,149.93-223.19-91.4,153.4-110,224.86Z"/><path class="cls-6" d="M1491.13,966.68c11.92-49.59,41.83-98.94,64.82-131.61a610.73,610.73,0,0,1,47.51-59.63L1602,774a612.36,612.36,0,0,0-47.7,59.85c-23.09,32.82-53.13,82.42-65.14,132.31Z"/><path class="cls-7" d="M1715.88,854.63c-23.18,20.16,3.09,57.59-31,66.69-28.81,7.68-32.23,6.51-37,18.64a47.19,47.19,0,0,0-3,13c-.49,5.33-2.41,13.85-9.37,19.43-42.52,34.13-145.13-.09-117.11-65.43,2-4.72,6.6-8.63,11.82-12.66,28.33-21.88,45.81-13,50.15-62.9s66.27-15.8,86-29.07,34.66-29.57,63-16.45S1739.08,834.48,1715.88,854.63Z"/><g class="cls-11"><path class="cls-9" d="M1561.27,949.35l-1.8-.93c.41-.79,42.38-80.13,177.11-158.33l1,1.74C1603.37,869.74,1561.67,948.56,1561.27,949.35Z"/><path class="cls-9" d="M1617.22,850c-26.91-6.31-37.15-17.43-37.57-17.9l1.5-1.35c.1.11,10.31,11.14,36.53,17.28Z"/><path class="cls-9" d="M1630.84,867.36c-10-6.13-16.54-19.24-19-37.9A135.94,135.94,0,0,1,1611,803l2,.18c0,.48-4,48.36,18.87,62.46Z"/><path class="cls-9" d="M1665.06,844.54c-3.12-.61-4.92-1.14-5-1.17l.59-1.93c.38.12,38.27,11.21,73.7-9.68l1,1.74C1706.81,850.34,1676.72,846.84,1665.06,844.54Z"/><path class="cls-9" d="M1705.27,875.77c-13.27-4.65-20.65-12.53-24.51-18.32a35.51,35.51,0,0,1-5.28-11.68l2-.38c0,.2,4.18,20,28.47,28.47Z"/></g><path class="cls-12" d="M1407.34,961c-18.53-28.47-31.26-65.44-37.86-109.9-5.23-35.29-6.64-75.39-4.19-119.18,4.17-74.41,18.29-134.71,18.43-135.31l11.37,2.69c-.14.6-14,60-18.15,133.46-2.4,43-1,82.25,4.11,116.73,6.35,42.73,18.49,78.11,36.08,105.14Z"/><path class="cls-4" d="M1437.8,734h-.15l-113.51-15.38a1.1,1.1,0,0,1-.71-.42,1.05,1.05,0,0,1-.2-.79c0-.2,2.86-21.08-4.1-48-6.42-24.83-22.71-60-63.87-86.83-63.88-38.41-93.88-96.05-84.45-162.29,3.89-27.33,14.46-55.56,30.58-81.65a268.65,268.65,0,0,1,61.43-68.6,256.7,256.7,0,0,1,82.93-44.22c31.63-9.86,63.63-12.69,95.11-8.42,72.88,9.87,139.32,48.35,177.72,102.91,14.08,20,23.85,41.32,29.05,63.39a157.62,157.62,0,0,1,.85,69.48c-17.25,81.15-52,132.76-106.18,157.8-9.44,4.53-92.68,46.46-103.45,122.14A1.06,1.06,0,0,1,1437.8,734Zm-112.34-17.36,111.44,15.1c11.53-76.11,95-118.15,104.5-122.71,53.56-24.75,87.9-75.87,105-156.32a155.53,155.53,0,0,0-.83-68.55c-5.15-21.81-14.81-42.89-28.72-62.66-38.07-54.09-104-92.23-176.27-102-31.17-4.23-62.87-1.42-94.2,8.35a254.54,254.54,0,0,0-82.24,43.86,266.29,266.29,0,0,0-60.94,68c-16,25.85-26.44,53.8-30.29,80.84-4.8,33.72.53,65,15.84,92.94,14.41,26.3,37.17,48.93,67.64,67.25,41.8,27.19,58.32,63,64.82,88.18A142.65,142.65,0,0,1,1325.46,716.66Z"/><g class="cls-13"><path class="cls-4" d="M1305.88,339.7a19.52,19.52,0,0,1-10-2.77c-10.37-6.13-14.45-20.29-9.93-34.44s17-27.48,33.51-35.71c12.68-6.34,25.56-8.29,34.46-5.2,23.88,8.29,36.21,16.5,37.66,25.1.77,4.51-1.56,8.95-6.93,13.2a1,1,0,0,1-.51.22c-.35,0-34.54,5-57,28.82C1320.34,336,1312.9,339.7,1305.88,339.7Zm38.57-77.45c-7.19,0-15.65,2.21-24.08,6.43-16,8-28.09,20.86-32.43,34.46-4.22,13.2-.53,26.34,9,32,8.58,5.07,19.27,2.21,28.59-7.64,21.91-23.15,54.55-28.87,58-29.42,4.56-3.67,6.56-7.38,5.94-11-.89-5.26-7.91-13.6-36.27-23.44A26.58,26.58,0,0,0,1344.45,262.25Zm39.5,36.8h0Z"/></g><path class="cls-14" d="M1423.43,218.44c-130.1-17.63-252.94,90.1-268.87,202-10,70.32,24.6,125.54,84,161.25,80.32,52.24,68.45,135.89,68.45,135.89L1420.5,733c10.82-76,93.52-117.9,104.06-123,50.3-23.24,87.31-71.07,105.59-157.06C1653.66,342.37,1553.53,236.07,1423.43,218.44Z"/><path class="cls-15" d="M1428.31,704.43s35,10.15,20.73,49c0,0,21.45,30.49-5.72,49.73,0,0,16.43,31.08-7.23,55.89s-168.29-7.53-177.67-24.08-1.13-33.26,11.8-35.75c0,0-15.47-16-8.47-32.27s16.52-18.42,16.52-18.42-12.11-9.28-10.13-31.93S1299.67,668.44,1428.31,704.43Z"/><g class="cls-13"><path class="cls-1" d="M1366.66,299.05S1332,303.84,1309,328.19s-48.1,2-39.36-25.38,46.54-47.19,66.6-40.23S1387,283,1366.66,299.05Z"/></g><path class="cls-12" d="M1443.32,805.61a2.5,2.5,0,0,1-1.15-.28c-.13-.06-12.8-6.57-32.68-11.63-18.29-4.66-46.62-9-77.69-3.31a2.51,2.51,0,1,1-.91-4.93c32-5.88,61.18-1.39,80,3.42,20.4,5.21,33.07,11.73,33.6,12a2.51,2.51,0,0,1-1.16,4.73Z"/><path class="cls-12" d="M1449,755.88a2.53,2.53,0,0,1-.92-.17A321.73,321.73,0,0,0,1407,743.35c-21.48-5-52.43-9.66-77.9-3.86a2.51,2.51,0,0,1-1.12-4.89c26.43-6,58.21-1.21,80.22,3.88A330.51,330.51,0,0,1,1450,751a2.51,2.51,0,0,1-.93,4.84Z"/><g class="cls-13"><path class="cls-1" d="M1385.77,695.24c0-.39-2.17-39.78-1.77-80.91.16-15.88.64-29.15,1.37-40.27a116,116,0,0,1-20.6-1.6c-3.77,53.31-15.86,112.13-16.64,115.9l-9.53-2c.19-.93,12.82-62.36,16.57-116.06a76.34,76.34,0,0,1-29.5-15.27c-15.27-13.1-20.36-31.95-13.61-50.42,5.12-14,15.8-23.44,26.58-23.52h.14c5.41,0,15.25,2.48,21.5,18.77,5.43,14.16,6.38,37.42,5.08,62.86a105.56,105.56,0,0,0,20.75,1.62c3-34.29,8.66-44,13.17-48,14.08-12.6,33.78-11,46-2.86,10.64,7.1,14.82,18.48,10.91,29.71-3.85,11-18.62,21-39.51,26.64a124.77,124.77,0,0,1-21.46,3.73c-.75,11-1.28,24.48-1.44,40.84-.4,40.81,1.73,79.89,1.75,80.28Zm38-178.29a26.69,26.69,0,0,0-18,6.68c-2.38,2.12-7,10.14-9.8,40.14a113.72,113.72,0,0,0,18.13-3.31c17-4.58,30.2-12.79,32.86-20.44,3.48-10-3.81-16.21-7.11-18.41A29.55,29.55,0,0,0,1423.78,517Zm-85-26.11h-.07c-6.54.05-13.91,7.26-17.52,17.13-2,5.44-7.07,24.36,10.81,39.69a65.8,65.8,0,0,0,23.75,12.74c1.15-23.43.26-44.46-4.57-57C1349.39,498.68,1345.4,490.84,1338.79,490.84Z"/></g><path class="cls-9" d="M1052.06,1003l99.21,447.49c5.92,26.68,31.14,45.82,60.37,45.82h345.64c30,0,55.62-20.11,60.74-47.64l90.26-485.72Z"/><path class="cls-16" d="M1019,981.35l-5.67,36.45c-1.9,12.24,8.71,23,22,22.31l682.57-36.79c11.09-.6,19.76-9.15,19.76-19.51V951.74c0-10.89-9.55-19.68-21.23-19.55l-646.16,7.33C1044.41,939.81,1022.68,957.56,1019,981.35Z"/><path class="cls-12" d="M1060,1039.85a1.1,1.1,0,0,1-.06-2.2l639.56-34.47a1.07,1.07,0,0,1,1.15,1,1.1,1.1,0,0,1-1,1.16l-639.56,34.47Z"/><path class="cls-4" d="M1972.55,1539.31a2.75,2.75,0,0,1-2.69-2.23l-101.3-526a2.74,2.74,0,1,1,5.39-1l101.3,526a2.75,2.75,0,0,1-2.18,3.22A3.05,3.05,0,0,1,1972.55,1539.31Z"/><path class="cls-4" d="M2162.29,1493.79a2.74,2.74,0,0,1-2.67-2.1l-115.09-480.52a2.74,2.74,0,1,1,5.33-1.28L2165,1490.41a2.74,2.74,0,0,1-2,3.31A2.79,2.79,0,0,1,2162.29,1493.79Z"/><rect class="cls-4" x="1883.57" y="1071.32" width="179.6" height="6.35"/><rect class="cls-4" x="2005.32" y="1143.02" width="6.35" height="189.71" transform="translate(641.44 3160.79) rotate(-86.24)"/><rect class="cls-4" x="1943.05" y="1374.06" width="192.46" height="6.35" transform="translate(-103.86 167.95) rotate(-4.6)"/><path class="cls-12" d="M1926.06,1046.55s-.26,10.47-7.34,13.42-27.6,5.61-19.93,12.34c4.4,3.86,25.13,1.37,31,1.37s11.35,2.55,15.7-1.37c4.78-4.31,0-25.76,0-25.76s-5,2.63-9.6,2.52C1929.33,1048.9,1926.06,1046.55,1926.06,1046.55Z"/><path class="cls-12" d="M2007.37,1046.55s-.26,10.46-7.34,13.42-27.59,5.61-19.93,12.34c4.4,3.86,25.13,1.36,31,1.36s11.35,2.55,15.7-1.36c4.78-4.31,0-25.76,0-25.76s-5,2.63-9.59,2.51C2010.64,1048.89,2007.37,1046.55,2007.37,1046.55Z"/><path class="cls-14" d="M1873.43,759.7s-1.3,43.8,12.68,127.82c10.09,60.66,22,121.79,27.85,151.09a22.87,22.87,0,0,0,21.35,18.57l5.62.22c11.3.46,20.46-9.25,19.64-20.79l-14.18-198.25-3.5-65.26Z"/><path class="cls-12" d="M2001.32,798.24c-.65,5.33-30.79,4.69-67.7,0s-65.63-12.66-65-18,30.42-6,67.33-1.31S2002,792.91,2001.32,798.24Z"/><path class="cls-14" d="M1915.81,791l78.79,253.12a25.42,25.42,0,0,0,23.71,18l4.73.08c11.18.19,19.73-10.15,17.69-21.4L1997.63,803a7.85,7.85,0,0,0-5.44-5.86C1977.41,792.86,1914.36,780.51,1915.81,791Z"/><path class="cls-17" d="M2006.34,780.37l-17.87-20.76c.32-.2,35.39-22.33,32-53.86-1.75-16.43-11.6-29.66-29.28-39.29a101.13,101.13,0,0,0-28-10.1l4.2-26.93a126.67,126.67,0,0,1,36.34,13c25.57,13.93,40.52,34.82,43.24,60.4,2.2,20.65-5,41.19-20.88,59.4C2014.72,775.25,2015.23,776,2006.34,780.37Z"/><path class="cls-17" d="M1866.77,692.39c-14.38,0-29.61-5.47-45.33-16.28a132.48,132.48,0,0,1-20.11-17l19.28-18.82-9.65,9.41,9.63-9.43c6.8,7.24,28.63,25.78,47.79,24.76,8.69-.47,16.19-5,22.93-13.87l21,16.74c-11.47,15.09-26.23,23.51-42.68,24.36C1868.7,692.36,1867.73,692.39,1866.77,692.39Z"/><path class="cls-18" d="M1989,652.51s-10.48-29.49-47.83-28.15-65.54,50.42-72.53,155.9c0,0,61.16-13.41,132.8,17.87C2001.43,798.13,2005.4,695.51,1989,652.51Z"/><path class="cls-18" d="M2018.32,646.28l-29.56,21.39s-68,6.81-86.06,3.53-23-17.87-23-17.87,19.23-21.92,51.91-27.77a89.44,89.44,0,0,1,9.56-1.2,93.8,93.8,0,0,1,16.52.36C1990,628.21,2018.32,646.28,2018.32,646.28Z"/><path class="cls-12" d="M2018.32,646.28c1.6,2.31-3.71,9-11.88,14.89s-16.07,8.82-17.68,6.5,3.72-9,11.88-14.89S2016.72,644,2018.32,646.28Z"/><path class="cls-17" d="M1836.64,668.85s-8-22.89-16-28.51-12.75,1.35-12.75,1.35l-8.28-1.87s-8.12,35.41,17.5,33.77C1819.1,673.46,1836.64,668.85,1836.64,668.85Z"/><path class="cls-19" d="M2038.44,713c-2.7,0-4.9-3.09-4.9-6.9s2.2-6.91,4.9-6.91,4.91,3.1,4.91,6.91h0a8.56,8.56,0,0,1-1.36,4.79,4.34,4.34,0,0,1-3.55,2.11Zm0-12.51c-2,0-3.61,2.57-3.61,5.61s1.66,5.61,3.61,5.61h0a3.09,3.09,0,0,0,2.48-1.55,7.3,7.3,0,0,0,1.13-4.06h0C2042.05,703,2040.4,700.45,2038.44,700.45Z"/><path class="cls-17" d="M1957.62,624.72a11.12,11.12,0,0,1-9.06-6.63l-5-11.56-1.45-3.36-8.49-19.72,1.47,20.44.89,12.27.25,3.5a5.59,5.59,0,0,1-4.61,5.89h-.05c-1.51,2.46-3.6,7.45,2.64,9.44,7.33,2.33,19.19-3.44,23.44-10.28Z"/><path class="cls-17" d="M2002.88,750.46s-11.07-10.13-19.8-9.24-19.22,8.64-13.69,9.24a58.15,58.15,0,0,0,12.81-.6s-15.43,3.28-13.1,6.56,15.72.29,15.72.29-18,5.37-14.85,7.75,16.89-1.79,16.89-1.79-16.6,5.67-12.81,8.35,13.69-4.77,16-1.49,6.7,16.09,16.6,10.72Z"/><path class="cls-20" d="M1951,904.12l-16.94-51.52A48.85,48.85,0,0,0,1912,825.38l.66-1.15a50.19,50.19,0,0,1,22.67,28l16.94,51.51Z"/><path class="cls-17" d="M1994.21,668.07s-1.63-4.92,5.79-10.39,17.06-6.71,17.06-6.71l1.94,9.39-10.48,4.58Z"/><path class="cls-9" d="M1956.76,580.08s-.8,3.36,1.13,10.23c2.83,10.07-8.67,14.27-11.61,11.39-.37-.35.11-17.47.11-17.47l3.68-2.18Z"/><path class="cls-12" d="M1943.61,606.19c0,.11,0,.23,0,.34-.49,6.59-7.54,9.67-7.54,9.67l0,0-.89-12.28c2.16-.79,5.23-1.6,7-.72A2.9,2.9,0,0,1,1943.61,606.19Z"/><path class="cls-17" d="M1913.51,586.72c0-13.09,8.6-23.7,19.21-23.7s19.21,10.61,19.21,23.7-8.6,23.7-19.21,23.7S1913.51,599.81,1913.51,586.72Z"/><path class="cls-9" d="M1925.11,568.52c.53.73-2.49,12.92,20.1,15.84s9-24.5-7.65-25.12c-24.07-.89-27.57,15.29-25.26,21.11S1925.11,568.52,1925.11,568.52Z"/><path class="cls-9" d="M1959.92,553.53s-10.14,6.79-2.34,13.18,29.27,9.18,23.42,20-10.93,26.76-.39,28.75,17.17,1.2,21.46,9.58,23.42,3.2,21.85-6.78,14.83-18.77,7.81-28-24.2-17.17-28.49-29.15S1968.12,548.34,1959.92,553.53Z"/><path class="cls-9" d="M1942.72,580.47s9.23,9.74,6,19.68c0,0,5.35-5.85,5.47-8s-1.3-10.07-1.3-10.07Z"/><path class="cls-17" d="M1949.36,590.29c-2.18,2.08-5.22,2.29-6.8.48s-1.09-5,1.09-7,5.22-2.29,6.79-.48S1951.54,588.21,1949.36,590.29Z"/><path class="cls-1" d="M2019.24,628.26a.45.45,0,0,1-.16,0c-2.73-1.06-4.34-2.38-4.95-4.06-.92-2.55.66-5.35,2.32-8.31,1.45-2.6,3-5.28,2.6-7.69-.43-2.84-4.16-3.51-8.11-4.21-3.34-.59-6.78-1.21-8.15-3.33a4.66,4.66,0,0,1-.38-3.82c.43-1.68,1-3.19,1.48-4.64,2.22-6.26,4-11.2-5.83-22.52-12.58-14.51-23-15.21-32.39-13.81-1.09.17-3.88,1.6-3.86,2.87,0,.66.9,2.3,9,3.32a26.9,26.9,0,0,1,17.07,15c2.92,6.56-1.23,13.58-4.58,19.22-2.24,3.78-4.17,7-3.57,9.24a3.17,3.17,0,0,0,1.7,1.93,33.52,33.52,0,0,0,7.31,2.6c6.35,1.72,12.92,3.5,13.75,14.94a.47.47,0,0,1-.43.49.45.45,0,0,1-.48-.42c-.78-10.8-6.76-12.41-13.08-14.13a33.92,33.92,0,0,1-7.5-2.67,4.09,4.09,0,0,1-2.15-2.49c-.71-2.57,1.32-6,3.67-10,3.4-5.74,7.26-12.25,4.52-18.38a25.88,25.88,0,0,0-16.38-14.48c-6.56-.82-9.78-2.2-9.8-4.21s3.43-3.6,4.64-3.78c9.64-1.45,20.34-.73,33.21,14.11,10.16,11.72,8.33,16.88,6,23.42-.51,1.44-1,2.92-1.47,4.57a3.78,3.78,0,0,0,.27,3.09c1.15,1.79,4.4,2.37,7.54,2.93,4.09.73,8.33,1.48,8.85,5,.41,2.72-1.17,5.54-2.7,8.27s-3,5.4-2.25,7.56c.5,1.41,2,2.56,4.41,3.51a.46.46,0,0,1-.17.89Z"/><path class="cls-1" d="M1945.38,577.17h0a16.56,16.56,0,0,1-13.19-7.31.45.45,0,0,1,.15-.63.45.45,0,0,1,.63.15c0,.06,4.25,6.7,12.42,6.87a.46.46,0,0,1,0,.92Z"/><path class="cls-21" d="M1982.32,750.16l-.23-.6c.18-.07,4.43-1.63,6.79,0l-.37.53C1986.43,748.65,1982.36,750.15,1982.32,750.16Z"/><path class="cls-21" d="M1984.94,757l-.23-.61c.17-.07,4.27-1.65,8,0l-.26.59C1989,755.46,1985,757,1984.94,757Z"/><path class="cls-21" d="M1987,763l-.23-.61c.21-.08,5.24-1.94,7.6.06l-.42.49C1991.86,761.17,1987,763,1987,763Z"/><path class="cls-14" d="M1874.1,785s17.15-2.38,42.91-.48a437.41,437.41,0,0,1,73.78,12.18l-12.66,2.13-79.3,3.14-16-13.09Z"/><path class="cls-22" d="M1922.11,602.05a41.85,41.85,0,0,0,13.13-2.15s.54,6.47-6.57,6.9C1924.54,607.05,1922.11,602.05,1922.11,602.05Z"/><path class="cls-1" d="M1922.11,602.05s1.59,1.32,5.29,1.3,7.84-3.45,7.84-3.45S1927.33,602.07,1922.11,602.05Z"/><path class="cls-23" d="M1930.86,586.94a.41.41,0,0,1-.29-.25.44.44,0,0,1,.24-.57,4.73,4.73,0,0,1,5.66,1.26.44.44,0,0,1,0,.62.48.48,0,0,1-.62,0,7.46,7.46,0,0,0-4.69-1.05A.39.39,0,0,1,1930.86,586.94Z"/><path class="cls-23" d="M1934.32,591.75c0,1-.56,1.9-1.31,1.93s-1.4-.8-1.43-1.85.55-1.9,1.31-1.93S1934.29,590.71,1934.32,591.75Z"/><path class="cls-23" d="M1915.26,589.22a.38.38,0,0,1-.36-.13.43.43,0,0,1,0-.61,4.73,4.73,0,0,1,5.71-1,.44.44,0,0,1,.22.58.47.47,0,0,1-.57.22,7.49,7.49,0,0,0-4.75.81A.42.42,0,0,1,1915.26,589.22Z"/><path class="cls-23" d="M1920.29,592.35a1.69,1.69,0,0,1-.48,2.28c-.68.31-1.59-.21-2-1.16a1.69,1.69,0,0,1,.48-2.28C1919,590.88,1919.86,591.39,1920.29,592.35Z"/><path class="cls-15" d="M1801.51,698.56l-4.79-4.25c6.32-7.1,14.49-25.87,13.46-40.3-.41-5.69-2.22-9.92-5.4-12.6-10.47-8.86-33.62,3-41.65,8.24l-3.52-5.34c1.34-.9,33.06-21.53,49.31-7.79,4.54,3.83,7.12,9.57,7.65,17C1817.76,670.29,1808.42,690.79,1801.51,698.56Z"/><path class="cls-17" d="M1795.91,647.23a3.71,3.71,0,0,1-2.6-1.05,4,4,0,0,1-.19-5.51l6.41-7a3.77,3.77,0,0,1,5.39-.19,4,4,0,0,1,.19,5.52l-6.41,7A3.74,3.74,0,0,1,1795.91,647.23Z"/><path class="cls-17" d="M1798.34,653.71a3.75,3.75,0,0,1-2.6-1.05,4,4,0,0,1-.19-5.51l6.41-7a3.76,3.76,0,0,1,5.39-.19,4,4,0,0,1,.19,5.52l-6.41,7A3.78,3.78,0,0,1,1798.34,653.71Z"/><path class="cls-17" d="M1800.91,659.68a3.75,3.75,0,0,1-2.6-1,4,4,0,0,1-.19-5.51l6.41-7a3.76,3.76,0,0,1,5.39-.19,4,4,0,0,1,.18,5.52l-6.4,7A3.78,3.78,0,0,1,1800.91,659.68Z"/><path class="cls-17" d="M1804.94,663.59a2.51,2.51,0,0,1-1.64-.61,2.65,2.65,0,0,1-.3-3.67l5.84-7.06a2.51,2.51,0,0,1,3.59-.31,2.64,2.64,0,0,1,.3,3.66l-5.85,7.07A2.5,2.5,0,0,1,1804.94,663.59Z"/><path class="cls-15" d="M1661.43,644.2l35.49,114.86c3.62,11.71,17,17.81,30.57,13.91l76.4-22c12.59-3.62,19.41-16.68,13.91-26.64L1757.86,616Z"/><path class="cls-15" d="M1507.1,714c7,2.15,187.07,8.55,187.07,8.55l-14.59-49.81-145.41,17.62Z"/><path class="cls-15" d="M1549.45,706c1.85,22.07-7.73,41.82-21.39,44.1s-26.23-13.77-28.08-35.85,7.73-41.82,21.39-44.1S1547.6,683.89,1549.45,706Z"/><path class="cls-15" d="M1753.09,612.53c3.76,8.31-12.9,24-37.2,34.94s-47,13.15-50.8,4.84,12.9-24,37.2-34.94S1749.33,604.22,1753.09,612.53Z"/><path class="cls-15" d="M1712.25,611.54c1,2.21-.26,4.94-2.81,6.09s-5.44.3-6.44-1.91.27-4.93,2.82-6.09S1711.25,609.34,1712.25,611.54Z"/><path class="cls-15" d="M1758.24,617.27,1661,651.61a3.79,3.79,0,0,1-5-2.05h0a4.06,4.06,0,0,1,2.82-4.82L1756,610.41a3.79,3.79,0,0,1,5,2h0A4.07,4.07,0,0,1,1758.24,617.27Z"/><path class="cls-24" d="M1521.4,681.42c.09,1.08-.38,2-1.05,2.16s-1.28-.68-1.37-1.76.38-2.05,1-2.16S1521.31,680.34,1521.4,681.42Z"/><path class="cls-24" d="M1528.51,740.77c.09,1.08-.38,2.05-1,2.16s-1.29-.67-1.38-1.76.38-2,1.05-2.15S1528.42,739.69,1528.51,740.77Z"/><path class="cls-24" d="M1541.54,707.14c.09,1.08-.38,2.05-1,2.16s-1.29-.67-1.38-1.75.38-2,1.05-2.16S1541.44,706.06,1541.54,707.14Z"/><path class="cls-24" d="M1507.33,711.58c.09,1.08-.38,2-1,2.16s-1.29-.67-1.38-1.75.38-2,1-2.16S1507.24,710.5,1507.33,711.58Z"/><path class="cls-24" d="M1515.26,700.57c.09,1.08-.38,2-1,2.16s-1.29-.68-1.38-1.76.38-2.05,1.05-2.16S1515.17,699.48,1515.26,700.57Z"/><path class="cls-24" d="M1531.35,698.1c.09,1.09-.38,2-1,2.16s-1.28-.67-1.38-1.75.38-2,1-2.16S1531.26,697,1531.35,698.1Z"/><path class="cls-24" d="M1534.63,724.45c.09,1.08-.38,2-1.05,2.16s-1.28-.67-1.37-1.75.38-2.05,1-2.16S1534.54,723.37,1534.63,724.45Z"/><path class="cls-24" d="M1514.34,730.37c.09,1.08-.38,2-1,2.16s-1.29-.67-1.38-1.75.38-2,1-2.16S1514.25,729.29,1514.34,730.37Z"/><path class="cls-24" d="M1523.42,715.33c.09,1.08-.38,2-1,2.16s-1.29-.68-1.38-1.76.38-2.05,1-2.16S1523.33,714.25,1523.42,715.33Z"/><path class="cls-24" d="M1549.62,714.42h0a.34.34,0,0,1-.3-.38c0-.13,1.47-13-2.53-20.59a.34.34,0,1,1,.6-.32c4.11,7.74,2.67,20.45,2.61,21A.34.34,0,0,1,1549.62,714.42Z"/><path class="cls-24" d="M1691.49,723.19a28.2,28.2,0,0,1-6-.67.34.34,0,0,1-.26-.41.35.35,0,0,1,.42-.25c.08,0,8.44,2,13.14-1.05a6.61,6.61,0,0,0,3-4.42c1.83-8.94-25.51-38.95-25.78-39.25a.34.34,0,0,1,.5-.46c1.14,1.24,27.85,30.57,26,39.85a7.24,7.24,0,0,1-3.29,4.85A14.38,14.38,0,0,1,1691.49,723.19Z"/><path class="cls-24" d="M1661,652a.34.34,0,0,1,0-.68c.35,0,35.88-5,80.18-24.13a.34.34,0,1,1,.27.62c-44.39,19.2-80,24.14-80.36,24.19Z"/><rect class="cls-12" x="1886.33" y="659.38" width="18.67" height="0.91" transform="translate(420.83 2021.38) rotate(-61.9)"/><rect class="cls-4" x="1722.03" y="1380.17" width="263.81" height="6.35" transform="matrix(0.51, -0.86, 0.86, 0.51, -281.34, 2272.91)"/><path class="cls-12" d="M1195.27,938.06c-1.34-24.94-32.68-48.63-33-48.86l3.18-4.26c1.37,1,33.65,25.44,35.13,52.84Z"/><path class="cls-4" d="M1144.47,863.36h0a.09.09,0,0,1-.06-.06,41.65,41.65,0,0,0-7.94-12.41c-5.27-5.81-14.69-13-29.65-14.41-10.87-.62-20.27-3.51-27.94-8.59a45,45,0,0,1-17.6-23,65.2,65.2,0,0,1-3.32-26.23,81.34,81.34,0,0,1,6.8-27.1,78,78,0,0,1,16-23.59,66.43,66.43,0,0,1,24.34-15.69h0c21-7.65,44.23-6.7,62.25,2.52a55.4,55.4,0,0,1,16.74,12.9,47.66,47.66,0,0,1,10,18.5c6.83,24.22,4.81,43-6.19,57.33-1.91,2.57-18.44,25.74-10.58,47.75a.1.1,0,0,1-.06.13l-32.74,11.94Zm-10.46-156a84.44,84.44,0,0,0-28.87,5.12,66.21,66.21,0,0,0-24.26,15.64,77.7,77.7,0,0,0-16,23.53,81.36,81.36,0,0,0-6.79,27,65.19,65.19,0,0,0,3.31,26.15A44.73,44.73,0,0,0,1079,827.7c7.64,5.07,17,7.94,27.85,8.56,15,1.39,24.5,8.65,29.79,14.49a42.57,42.57,0,0,1,7.94,12.37l32.55-11.87c-3.27-9.24-2.73-19.69,1.59-31.07a73.74,73.74,0,0,1,9.06-16.77c11-14.31,13-33,6.15-57.15a47.5,47.5,0,0,0-10-18.43A55.19,55.19,0,0,0,1167.22,715,73,73,0,0,0,1134,707.36Zm-28.91,5h0Z"/><g class="cls-13"><path class="cls-4" d="M1083.2,764.59h-.3c-3.56-.18-6.58-3.34-7.35-7.69s.69-9.69,3.92-14.19c2.48-3.46,5.62-5.78,8.4-6.2,7.41-1.12,12-.67,13.49,1.34.79,1,.78,2.49,0,4.32l0,0c-.09.06-8.65,6.29-11.36,16C1088.81,762.22,1086.3,764.59,1083.2,764.59Zm11.54-28.47a47,47,0,0,0-6.84.6c-2.72.41-5.81,2.69-8.26,6.11-3.2,4.46-4.65,9.7-3.89,14s3.7,7.34,7.16,7.51c3.13.16,5.69-2.19,6.83-6.27,2.66-9.49,10.91-15.68,11.42-16.05.76-1.74.77-3.11,0-4.08C1100.24,736.74,1098.08,736.12,1094.74,736.12Zm6.5,6Z"/></g><path class="cls-14" d="M1100.45,714.83c-37.53,13.68-55.33,60.09-43.77,92.47,7.27,20.35,24.41,30.32,45.46,31.52,29,2.68,37.68,26.89,37.68,26.89l32.74-12c-7.86-22,8.47-45,10.59-47.84,10.25-13.38,13.44-31.5,6.18-57.24C1180,715.57,1138,701.14,1100.45,714.83Z"/><path class="cls-15" d="M1170.62,845s10.87-2.24,12.51,10.24c0,0,10.1,5.17,5.51,14.2,0,0,8.82,6,6,16.07s-46.37,21.81-51.24,18.69-5-8.8-1.89-11.3c0,0-6.43-2.1-6.85-7.49s1.83-7.3,1.83-7.3-4.57-.78-7.25-7.16S1130.88,853.51,1170.62,845Z"/><g class="cls-13"><path class="cls-1" d="M1096.58,744.57s-8.64,6.2-11.39,16-12.67,7.35-14.19-1.26,5.84-19.3,12.23-20.26S1099.77,737.37,1096.58,744.57Z"/></g><path class="cls-12" d="M1189,870.09a.68.68,0,0,1-.35.09,51.1,51.1,0,0,0-10.44,1.5,56,56,0,0,0-21.39,10.12.76.76,0,1,1-.94-1.2,57.51,57.51,0,0,1,22-10.42,52.55,52.55,0,0,1,10.75-1.53.76.76,0,0,1,.35,1.44Z"/><path class="cls-12" d="M1183.49,855.89a.71.71,0,0,1-.28.09,97.69,97.69,0,0,0-12.82,2.5c-6.48,1.7-15.48,4.82-21.52,10a.76.76,0,1,1-1-1.15c6.26-5.37,15.5-8.58,22.15-10.33a101.39,101.39,0,0,1,13-2.53.76.76,0,0,1,.44,1.43Z"/><g class="cls-13"><path class="cls-1" d="M1143.91,852.83a315.72,315.72,0,0,0-12-33.6,23.14,23.14,0,0,1-10.11.07A13.49,13.49,0,0,1,1111,807.66c-.6-4.49.93-8.55,3.83-10.1,1.44-.77,4.45-1.54,8.48,2,3.47,3,7,9.17,10.27,16.2a32.1,32.1,0,0,0,5.82-2.5c-2.69-6.54-4.25-12.12-3.25-14.79a11.6,11.6,0,0,1,12-7.28c3.87.4,6.61,2.88,7.15,6.45s-2,8.3-6.86,12.77a37.8,37.8,0,0,1-5.24,4A288.72,288.72,0,0,0,1160.4,847l-2.54,1.52c-2.6-4.34-11.64-19.69-17.29-32.56a35.21,35.21,0,0,1-5.76,2.48A305.2,305.2,0,0,1,1146.75,852Zm-26.45-53a2.53,2.53,0,0,0-1.22.3c-1.76.94-2.72,3.92-2.29,7.09a10.68,10.68,0,0,0,8.53,9.16,20.05,20.05,0,0,0,8.2.06c-3-6.47-6.23-12-9.31-14.71A6.71,6.71,0,0,0,1117.46,799.87Zm29.58-5.78a8.69,8.69,0,0,0-8.11,5.4c-.48,1.3.32,5.31,3.09,12.18a34.63,34.63,0,0,0,4.37-3.44c3.93-3.64,6.32-7.72,5.95-10.15a4.71,4.71,0,0,0-4.52-4A6.79,6.79,0,0,0,1147,794.09Z"/></g><path class="cls-3" d="M1709.37,1439s-38.44-39.18-25.21-61.49,35.54,47.93,35.54,47.93-11.57-83.07,12.39-84.51,0,84.51,0,84.51,8.89-20,17.57-21.28,6.2,17-9.3,34.84Z"/><path class="cls-25" d="M1712.12,1440a176.11,176.11,0,0,1-20.11-25.62c-12.28-19.43-15.2-34.85-8.69-45.84,2.43-4.1,5.35-6,8.68-5.61,6.63.76,14.41,11.23,23.14,31.12,2.65,6,5,12.11,6.86,17.12-2.12-21.75-4.58-65.06,7.39-79.68a12.92,12.92,0,0,1,9.43-5.12,9.87,9.87,0,0,1,8.69,3.79c10.76,13.33,1,60.4-4.31,82.43,4-6.47,9.64-13.66,15.42-14.49a5.64,5.64,0,0,1,6.14,2.87c3.49,6.41-1.33,22.73-15.42,39l-2.13-1.84c13.86-16,17.66-31,15.08-35.77a2.86,2.86,0,0,0-3.27-1.44c-7.44,1.07-16.12,17.2-18.83,23.32l-2.64-1c0-.19,5.3-19.12,8.83-39.85,4.61-27.11,4.24-44.91-1.06-51.47a7.08,7.08,0,0,0-6.33-2.75,10.09,10.09,0,0,0-7.42,4.09c-15.12,18.46-5.44,89.45-5.34,90.17l-2.73.62c-5-15.79-20.51-57-31.82-58.33-2.17-.24-4.1,1.14-5.94,4.25-14.28,24.09,28,67.61,28.38,68Z"/><path class="cls-3" d="M634.73,1467.24s-35.31-36-23.16-56.51,32.66,44,32.66,44-10.64-76.33,11.39-77.66,0,77.66,0,77.66,8.16-18.41,16.14-19.55,5.69,15.61-8.55,32Z"/><path class="cls-25" d="M637.26,1468.15a161.83,161.83,0,0,1-18.47-23.54c-11.29-17.85-14-32-8-42.12,2.23-3.77,4.92-5.5,8-5.16,6.09.7,13.25,10.32,21.27,28.59,2.44,5.57,4.6,11.13,6.3,15.74-2-20-4.21-59.79,6.8-73.22a11.89,11.89,0,0,1,8.65-4.71,9.09,9.09,0,0,1,8,3.49c9.89,12.24,1,55.5-4,75.74,3.67-5.94,8.86-12.55,14.18-13.31a5.15,5.15,0,0,1,5.63,2.64c3.21,5.88-1.22,20.88-14.17,35.8l-2-1.69c12.74-14.67,16.23-28.52,13.85-32.87a2.59,2.59,0,0,0-3-1.32c-6.83,1-14.81,15.8-17.31,21.42l-2.42-.87c0-.17,4.87-17.57,8.11-36.62,4.24-24.91,3.9-41.27-1-47.3a6.49,6.49,0,0,0-5.82-2.52,9.26,9.26,0,0,0-6.82,3.75c-13.89,17-5,82.2-4.9,82.86l-2.51.57c-4.61-14.5-18.85-52.41-29.24-53.6-2-.23-3.77,1-5.46,3.91-13.12,22.14,25.69,62.13,26.09,62.53Z"/><path class="cls-3" d="M1086.85,1553.24s-23.23-23.68-15.24-37.17,21.48,29,21.48,29-7-50.2,7.49-51.08,0,51.08,0,51.08,5.37-12.11,10.62-12.86,3.74,10.27-5.62,21.06Z"/><path class="cls-25" d="M1088.51,1553.83a106,106,0,0,1-12.15-15.48c-7.42-11.74-9.19-21.06-5.26-27.7,1.47-2.48,3.24-3.62,5.25-3.39,4,.45,8.71,6.78,14,18.8,1.6,3.66,3,7.32,4.14,10.35-1.28-13.14-2.77-39.32,4.47-48.16a7.8,7.8,0,0,1,5.7-3.09,5.93,5.93,0,0,1,5.25,2.29c6.5,8,.62,36.51-2.61,49.82,2.41-3.91,5.83-8.26,9.33-8.76a3.37,3.37,0,0,1,3.7,1.74c2.11,3.87-.8,13.73-9.32,23.54l-1.28-1.11c8.37-9.64,10.67-18.75,9.11-21.62a1.71,1.71,0,0,0-2-.87c-4.5.65-9.74,10.39-11.39,14.1l-1.59-.58c0-.11,3.21-11.55,5.34-24.08,2.78-16.39,2.56-27.15-.64-31.11a4.27,4.27,0,0,0-3.83-1.66,6.1,6.1,0,0,0-4.49,2.47c-9.13,11.16-3.28,54.06-3.22,54.49l-1.65.38c-3-9.54-12.4-34.47-19.23-35.25-1.3-.16-2.48.69-3.59,2.56-8.63,14.56,16.89,40.87,17.15,41.13Z"/><path class="cls-3" d="M1639.67,1565.65s-31.81-32.42-20.86-50.89,29.4,39.67,29.4,39.67-9.57-68.74,10.26-69.94,0,69.94,0,69.94,7.36-16.59,14.54-17.61,5.13,14.06-7.7,28.83Z"/><path class="cls-25" d="M1641.94,1566.47a145.31,145.31,0,0,1-16.63-21.2c-10.17-16.08-12.59-28.84-7.2-37.93,2-3.4,4.43-4.95,7.18-4.65,9.34,1.07,19.56,25.4,24.84,39.84-.56-5.78-1.14-13.39-1.36-21.39-.61-22.71,1.9-37.67,7.47-44.47a10.67,10.67,0,0,1,7.8-4.23,8.13,8.13,0,0,1,7.19,3.13c8.91,11,.86,50-3.57,68.21,3.3-5.34,8-11.3,12.77-12a4.64,4.64,0,0,1,5.07,2.37c2.89,5.3-1.09,18.81-12.76,32.24l-1.75-1.52c11.46-13.21,14.61-25.68,12.47-29.6a2.34,2.34,0,0,0-2.7-1.19c-6.16.88-13.34,14.23-15.59,19.29l-2.18-.78c0-.16,4.39-15.83,7.3-33,3.82-22.43,3.52-37.16-.87-42.59a5.83,5.83,0,0,0-5.24-2.28,8.35,8.35,0,0,0-6.14,3.38c-12.51,15.28-4.5,74-4.42,74.62l-2.26.52c-4.15-13.07-17-47.2-26.33-48.27-1.79-.21-3.39.94-4.92,3.51-11.81,19.94,23.14,56,23.5,56.32Z"/><path class="cls-3" d="M2049.63,1538.27s-25.44-25.94-16.69-40.71,23.53,31.73,23.53,31.73-7.66-55,8.21-56,0,56,0,56,5.88-13.27,11.63-14.09,4.1,11.26-6.16,23.07Z"/><path class="cls-25" d="M2051.45,1538.92a115.78,115.78,0,0,1-13.31-17c-8.13-12.86-10.06-23.07-5.75-30.34,1.61-2.72,3.55-4,5.74-3.72,7.46.85,15.62,20.25,19.85,31.81-1.4-14.44-3-43,4.91-52.63a8.59,8.59,0,0,1,6.24-3.39,6.56,6.56,0,0,1,5.76,2.51c7.12,8.83.68,40-2.86,54.58,2.64-4.28,6.39-9,10.21-9.59a3.72,3.72,0,0,1,4.07,1.9c2.31,4.24-.88,15-10.21,25.79l-1.41-1.22c9.18-10.57,11.69-20.54,10-23.68a1.87,1.87,0,0,0-2.16-1c-4.93.7-10.67,11.38-12.47,15.44l-1.75-.63c0-.13,3.51-12.66,5.85-26.39,3.05-18,2.81-29.73-.7-34.08a4.73,4.73,0,0,0-4.2-1.82,6.71,6.71,0,0,0-4.91,2.71c-10,12.22-3.6,59.23-3.53,59.7l-1.81.41c-3.32-10.45-13.58-37.76-21.07-38.62-1.42-.17-2.71.76-3.93,2.81-9.45,16,18.51,44.77,18.79,45.06Z"/><path class="cls-16" d="M1474.6,793.78h0a.72.72,0,0,1-.86-.57,21.82,21.82,0,0,1-.36-3.77.72.72,0,0,1,.7-.75.73.73,0,0,1,.75.71,23.15,23.15,0,0,0,.33,3.51A.74.74,0,0,1,1474.6,793.78Zm-.29-7.3a.62.62,0,0,1-.19,0,.73.73,0,0,1-.69-.77c.07-1.21.19-2.45.35-3.69a.73.73,0,0,1,1.45.2c-.16,1.2-.28,2.4-.35,3.57A.71.71,0,0,1,1474.31,786.48Zm.94-7.23a.7.7,0,0,1-.29,0,.73.73,0,0,1-.57-.86c.23-1.15.51-2.34.84-3.6a.72.72,0,0,1,.89-.52.73.73,0,0,1,.52.89c-.32,1.22-.59,2.4-.82,3.52A.72.72,0,0,1,1475.25,779.25Zm1.87-7a.82.82,0,0,1-.38,0,.73.73,0,0,1-.46-.92c.36-1.13.78-2.29,1.23-3.48a.74.74,0,0,1,1-.42.73.73,0,0,1,.42.94c-.45,1.16-.86,2.3-1.22,3.4A.71.71,0,0,1,1477.12,772.2Zm2.63-6.8a.78.78,0,0,1-.45,0,.74.74,0,0,1-.37-1c.49-1.08,1-2.19,1.58-3.33a.73.73,0,0,1,1.31.66c-.56,1.12-1.08,2.2-1.56,3.27A.7.7,0,0,1,1479.75,765.4Zm3.27-6.52a.74.74,0,0,1-.5-.08.72.72,0,0,1-.28-1c.58-1,1.2-2.11,1.86-3.17a.75.75,0,0,1,1-.24.74.74,0,0,1,.24,1c-.65,1.05-1.26,2.09-1.84,3.11A.74.74,0,0,1,1483,758.88Zm3.83-6.21a.73.73,0,0,1-.76-1.12c.67-1,1.37-2,2.1-3a.75.75,0,0,1,1-.16.73.73,0,0,1,.17,1c-.72,1-1.42,2-2.08,3A.71.71,0,0,1,1486.85,752.67Zm4.29-5.89a.73.73,0,0,1-.73-1.16c.74-1,1.51-1.9,2.31-2.86a.73.73,0,0,1,1.12.94c-.79.94-1.55,1.88-2.28,2.81A.77.77,0,0,1,1491.14,746.78Zm4.67-5.6a.73.73,0,0,1-.69-1.19c.8-.9,1.62-1.8,2.48-2.71a.72.72,0,0,1,1,0,.73.73,0,0,1,0,1c-.84.9-1.66,1.79-2.45,2.67A.69.69,0,0,1,1495.81,741.18Zm5-5.3a.74.74,0,0,1-.66-.19.73.73,0,0,1,0-1c.84-.85,1.72-1.7,2.62-2.56a.74.74,0,0,1,1,0,.73.73,0,0,1,0,1c-.89.85-1.76,1.69-2.6,2.54A.73.73,0,0,1,1500.82,735.88Zm5.29-5a.75.75,0,0,1-.69-.22.73.73,0,0,1,0-1c.9-.82,1.81-1.62,2.75-2.44a.76.76,0,0,1,1,.08.74.74,0,0,1-.07,1c-.94.8-1.84,1.6-2.73,2.39A.66.66,0,0,1,1506.11,730.86Z"/><path class="cls-16" d="M1502,866.6a.73.73,0,0,1-.86-.55c-.28-1.19-.55-2.37-.81-3.55a.72.72,0,0,1,.55-.87h0a.72.72,0,0,1,.86.54c.26,1.18.53,2.37.81,3.55a.73.73,0,0,1-.54.88Zm-1.59-7.12a.72.72,0,0,1-.86-.55l-.25-1.2c-.17-.8-.34-1.59-.5-2.39a.73.73,0,0,1,.57-.85h0a.72.72,0,0,1,.85.58c.16.78.32,1.57.49,2.37l.25,1.19a.72.72,0,0,1-.55.86Zm-1.45-7.15h0a.72.72,0,0,1-.85-.58c-.24-1.2-.46-2.41-.67-3.59a.74.74,0,0,1,.57-.85h0a.71.71,0,0,1,.84.59c.22,1.19.44,2.38.67,3.58A.73.73,0,0,1,1499,852.33Zm-1.29-7.19h0a.72.72,0,0,1-.83-.6c-.2-1.21-.4-2.41-.59-3.6a.73.73,0,0,1,.61-.84.74.74,0,0,1,.84.61c.18,1.19.38,2.39.57,3.59A.71.71,0,0,1,1497.69,845.14Zm-1.13-7.2h0a.73.73,0,0,1-.83-.61c-.17-1.23-.34-2.44-.5-3.63a.77.77,0,0,1,.63-.82.73.73,0,0,1,.82.63c.16,1.18.32,2.39.5,3.61A.72.72,0,0,1,1496.56,837.94Zm-.94-7.24h-.07a.73.73,0,0,1-.81-.64c-.14-1.22-.27-2.43-.4-3.63a.76.76,0,0,1,.65-.8.73.73,0,0,1,.8.65c.13,1.19.26,2.4.4,3.61A.73.73,0,0,1,1495.62,830.7Zm-.76-7.25h-.08a.74.74,0,0,1-.8-.66c-.11-1.23-.21-2.45-.3-3.65a.7.7,0,0,1,.67-.78.73.73,0,0,1,.78.67c.1,1.2.19,2.4.31,3.63A.74.74,0,0,1,1494.86,823.45Zm-.55-7.27h-.1a.73.73,0,0,1-.78-.68c-.07-1.23-.14-2.46-.2-3.65a.71.71,0,0,1,.7-.77.72.72,0,0,1,.76.7c.06,1.19.12,2.4.2,3.63A.74.74,0,0,1,1494.31,816.18Zm-.34-7.3-.12,0a.73.73,0,0,1-.75-.71c0-1.24-.06-2.45-.08-3.65a.7.7,0,0,1,.72-.74.73.73,0,0,1,.74.71c0,1.2,0,2.42.07,3.64A.72.72,0,0,1,1494,808.88Zm-.08-7.29-.15,0a.73.73,0,0,1-.73-.73c0-1.25,0-2.46,0-3.67a.76.76,0,0,1,.75-.71.73.73,0,0,1,.71.75c0,1.19,0,2.4,0,3.63A.73.73,0,0,1,1493.89,801.59Zm.17-7.29a.55.55,0,0,1-.18,0,.73.73,0,0,1-.7-.76c0-1.24.12-2.45.19-3.65a.73.73,0,1,1,1.46.09c-.08,1.18-.14,2.4-.19,3.63A.72.72,0,0,1,1494.06,794.3Zm.45-7.29a.71.71,0,0,1-.88-.77c.11-1.25.23-2.46.35-3.65a.71.71,0,0,1,.8-.65.73.73,0,0,1,.65.8c-.12,1.18-.24,2.39-.34,3.62A.72.72,0,0,1,1494.51,787Zm.76-7.26a.93.93,0,0,1-.24,0,.74.74,0,0,1-.63-.82c.16-1.23.33-2.45.51-3.63a.76.76,0,0,1,.83-.61.72.72,0,0,1,.61.84c-.18,1.16-.34,2.36-.5,3.58A.72.72,0,0,1,1495.27,779.75Zm1.11-7.2a.66.66,0,0,1-.28,0,.72.72,0,0,1-.58-.85q.33-1.85.69-3.6a.71.71,0,0,1,.86-.57.74.74,0,0,1,.57.87c-.24,1.16-.47,2.34-.69,3.56A.73.73,0,0,1,1496.38,772.55Zm1.48-7.15a.81.81,0,0,1-.31,0,.72.72,0,0,1-.54-.88c.28-1.22.58-2.41.89-3.55a.73.73,0,1,1,1.41.38c-.3,1.13-.6,2.3-.89,3.51A.71.71,0,0,1,1497.86,765.4Zm1.9-7a.73.73,0,0,1-.36,0,.72.72,0,0,1-.49-.9c.37-1.23.74-2.39,1.13-3.5a.71.71,0,0,1,.93-.46.74.74,0,0,1,.45.93c-.38,1.1-.75,2.24-1.11,3.44A.75.75,0,0,1,1499.76,758.37Zm2.36-6.92a.76.76,0,0,1-.42,0,.73.73,0,0,1-.41-.94c.47-1.21.93-2.34,1.39-3.4a.74.74,0,0,1,1-.38.73.73,0,0,1,.38,1c-.45,1.05-.91,2.17-1.37,3.34A.75.75,0,0,1,1502.12,751.45Zm2.91-6.68a.71.71,0,0,1-.47-.06.73.73,0,0,1-.34-1c.6-1.22,1.17-2.3,1.71-3.27a.73.73,0,0,1,1-.28.71.71,0,0,1,.28,1c-.53,1-1.09,2-1.67,3.21A.74.74,0,0,1,1505,744.77Zm3.57-6.36a.8.8,0,0,1-.54-.1.72.72,0,0,1-.21-1,31.48,31.48,0,0,1,2.21-3,.74.74,0,0,1,1,0,.73.73,0,0,1,.06,1,26.57,26.57,0,0,0-2.08,2.86A.74.74,0,0,1,1508.6,738.41Z"/><path class="cls-16" d="M1463.69,759.79a.78.78,0,0,1-.34,0,.75.75,0,0,1-.52-.9,2.56,2.56,0,0,1,.11-.24.72.72,0,0,1,1-.2.71.71,0,0,1,.24.95A.69.69,0,0,1,1463.69,759.79Zm1.81-3.2a.73.73,0,0,1-.77-1.09c.65-1.07,1.31-2.1,2-3.1a.74.74,0,0,1,1-.19.72.72,0,0,1,.19,1q-1,1.47-2,3A.75.75,0,0,1,1465.5,756.59Zm4.11-6a.7.7,0,0,1-.6-.14.72.72,0,0,1-.12-1c.76-1,1.53-1.93,2.31-2.86a.74.74,0,0,1,1-.08.73.73,0,0,1,.08,1c-.77.91-1.52,1.85-2.27,2.81A.72.72,0,0,1,1469.61,750.56Zm4.74-5.54a.78.78,0,0,1-.66-.19.73.73,0,0,1,0-1c.86-.9,1.73-1.77,2.6-2.61a.76.76,0,0,1,1,0,.74.74,0,0,1,0,1q-1.29,1.23-2.55,2.55A.78.78,0,0,1,1474.35,745Zm5.28-5a.73.73,0,0,1-.63-1.27c1-.81,1.9-1.59,2.85-2.33a.73.73,0,0,1,.9,1.15c-.93.73-1.87,1.49-2.79,2.29A.78.78,0,0,1,1479.63,740Zm5.75-4.5a.74.74,0,0,1-.75-.3.72.72,0,0,1,.18-1c1-.73,2-1.41,3-2.06a.71.71,0,0,1,1,.22.72.72,0,0,1-.21,1c-1,.64-2,1.33-3,2A.8.8,0,0,1,1485.38,735.48Zm6.13-4a.74.74,0,0,1-.78-.34.73.73,0,0,1,.26-1c1.11-.65,2.18-1.25,3.23-1.79a.7.7,0,0,1,1,.3.73.73,0,0,1-.31,1c-1,.54-2.08,1.12-3.16,1.76A.65.65,0,0,1,1491.51,731.53Zm6.47-3.4a.73.73,0,0,1-.46-1.37c1.2-.56,2.33-1.06,3.37-1.49a.67.67,0,0,1,.95.39.72.72,0,0,1-.39,1c-1,.43-2.13.92-3.31,1.47Zm6.75-2.8a.74.74,0,0,1-.84-.47.72.72,0,0,1,.44-.93c2.2-.78,3.5-1.12,3.55-1.14a.79.79,0,0,1,.89.53.74.74,0,0,1-.52.89s-1.3.33-3.43,1.09Z"/><path class="cls-16" d="M1517.45,856.52a.73.73,0,0,1-.86-.55c-.29-1.2-.56-2.38-.83-3.56a.73.73,0,0,1,.55-.87h0a.73.73,0,0,1,.86.55c.27,1.18.54,2.37.83,3.55a.73.73,0,0,1-.54.88Zm-1.61-7.12a.73.73,0,0,1-.87-.55l-.33-1.6-.41-2a.73.73,0,0,1,.56-.86h0a.74.74,0,0,1,.86.57l.4,2,.34,1.58a.73.73,0,0,1-.56.87Zm-1.46-7.15h0a.72.72,0,0,1-.85-.58c-.23-1.2-.45-2.41-.67-3.59a.75.75,0,0,1,.57-.85h0a.73.73,0,0,1,.85.59c.21,1.18.43,2.38.66,3.58A.73.73,0,0,1,1514.38,842.25Zm-1.28-7.19h0a.72.72,0,0,1-.84-.6c-.21-1.22-.4-2.42-.58-3.61a.73.73,0,0,1,.57-.83h0a.73.73,0,0,1,.83.6c.18,1.2.37,2.39.57,3.6A.72.72,0,0,1,1513.1,835.06Zm-1.1-7.2h0a.74.74,0,0,1-.82-.62c-.18-1.23-.34-2.44-.49-3.63-.05-.41.26-.68.63-.82a.73.73,0,0,1,.82.63c.15,1.19.31,2.39.48,3.61A.73.73,0,0,1,1512,827.86Zm-.92-7.24H1511a.74.74,0,0,1-.81-.64c-.14-1.23-.27-2.45-.39-3.65a.79.79,0,0,1,.65-.8.73.73,0,0,1,.8.66c.12,1.19.25,2.4.39,3.62A.73.73,0,0,1,1511.08,820.62Zm-.73-7.27a.14.14,0,0,1-.09,0,.72.72,0,0,1-.79-.65c-.11-1.24-.2-2.45-.29-3.66a.73.73,0,0,1,1.46-.1c.08,1.19.18,2.4.28,3.63A.71.71,0,0,1,1510.35,813.35Zm-.53-7.28-.11,0a.74.74,0,0,1-.77-.69c-.07-1.24-.13-2.45-.18-3.65a.73.73,0,1,1,1.46-.07c0,1.2.11,2.41.18,3.64A.73.73,0,0,1,1509.82,806.07Zm-.31-7.29-.13,0a.73.73,0,0,1-.75-.71c0-1.24-.05-2.46-.07-3.65a.73.73,0,0,1,1.46,0c0,1.2,0,2.42.07,3.64A.72.72,0,0,1,1509.51,798.78Zm-.08-7.3h-.16a.72.72,0,0,1-.72-.73c0-1.24,0-2.46,0-3.66a.76.76,0,0,1,.75-.71.73.73,0,0,1,.71.75c0,1.18,0,2.4,0,3.63A.73.73,0,0,1,1509.43,791.48Zm.15-7.3a.5.5,0,0,1-.18,0,.71.71,0,0,1-.69-.75c0-1.25.1-2.47.17-3.66a.76.76,0,0,1,.77-.69.73.73,0,0,1,.68.77c-.06,1.19-.12,2.39-.17,3.63A.72.72,0,0,1,1509.58,784.18Zm.42-7.28a.74.74,0,0,1-.21,0,.73.73,0,0,1-.67-.78c.1-1.25.2-2.47.31-3.65a.72.72,0,0,1,.79-.66.72.72,0,0,1,.66.8c-.11,1.17-.21,2.38-.31,3.62A.71.71,0,0,1,1510,776.9Zm.69-7.27a.58.58,0,0,1-.23,0,.72.72,0,0,1-.64-.81c.14-1.26.29-2.47.46-3.64a.74.74,0,0,1,.82-.62.73.73,0,0,1,.62.82c-.16,1.16-.31,2.36-.46,3.6A.71.71,0,0,1,1510.69,769.63Zm1-7.23a.81.81,0,0,1-.27,0,.74.74,0,0,1-.6-.84c.21-1.26.42-2.47.63-3.61a.73.73,0,1,1,1.44.27c-.21,1.13-.42,2.32-.63,3.58A.71.71,0,0,1,1511.69,762.4Zm1.35-7.17a.81.81,0,0,1-.31,0,.72.72,0,0,1-.55-.87c.28-1.31.56-2.5.83-3.57a.72.72,0,0,1,.88-.54.73.73,0,0,1,.54.89c-.27,1.05-.55,2.23-.83,3.53A.73.73,0,0,1,1513,755.23Zm1.78-7.08a.88.88,0,0,1-.36,0,.74.74,0,0,1-.49-.91c.68-2.3,1.14-3.48,1.16-3.54a.75.75,0,0,1,.95-.41.73.73,0,0,1,.41,1s-.46,1.18-1.12,3.41A.73.73,0,0,1,1514.82,748.15Z"/><path class="cls-4" d="M1891.24,427.74l-1.23-.64,39.3-76.26A52.6,52.6,0,0,1,1949,329.66,75,75,0,0,1,1987.46,319h84.09v1.39h-84.09a73.66,73.66,0,0,0-37.8,10.44,51.29,51.29,0,0,0-19.12,20.63Z"/><path class="cls-4" d="M2077.61,320.05c0-2.86-3.24-5-6.06-5.53-3.8-.69-5.19,2.33-5.19,5.19s2.32,6,5.19,6S2077.61,322.92,2077.61,320.05Z"/><path class="cls-4" d="M1896.25,427.42c0-2.87-3.24-5-6.06-5.53-3.8-.69-5.19,2.32-5.19,5.19s2.33,6,5.19,6S1896.25,430.29,1896.25,427.42Z"/><path class="cls-4" d="M662,728.84l-1.23-.63L700.1,652a52.61,52.61,0,0,1,19.64-21.18,75,75,0,0,1,38.51-10.64h84.09v1.38H758.25A73.66,73.66,0,0,0,720.45,632a51.29,51.29,0,0,0-19.12,20.63Z"/><path class="cls-4" d="M848.4,621.16c0-2.87-3.24-5-6.06-5.53-3.8-.69-5.19,2.32-5.19,5.19s2.33,6,5.19,6S848.4,624,848.4,621.16Z"/><path class="cls-4" d="M667,728.52c0-2.86-3.24-5-6.06-5.53-3.8-.69-5.19,2.33-5.19,5.19s2.33,6,5.19,6S667,731.39,667,728.52Z"/><rect class="cls-3" x="1924.82" y="218.86" width="117.92" height="72.79" rx="5.57"/><path class="cls-2" d="M2018.89,258.22h-73.26c-1.61,0-4.09-1.68-4.3-3.28-.44-3.28,2.69-4.22,4.3-4.22l73.26,1.63a2.94,2.94,0,0,1,2.93,2.93h0A2.94,2.94,0,0,1,2018.89,258.22Z"/><path class="cls-2" d="M1999.86,244.45h-55.29c-1.22,0-3.09-1.35-3.25-2.63-.33-2.64,2-3.39,3.24-3.39l55.3,1.31a2.3,2.3,0,0,1,2.22,2.36h0A2.3,2.3,0,0,1,1999.86,244.45Z"/><path class="cls-2" d="M1999.86,272.08h-55.29c-1.22,0-3.09-1.35-3.25-2.63-.33-2.64,2-3.39,3.24-3.39l55.3,1.31a2.3,2.3,0,0,1,2.22,2.36h0A2.3,2.3,0,0,1,1999.86,272.08Z"/><rect class="cls-3" x="759.14" y="504.1" width="141.83" height="87.55" rx="6.7"/><path class="cls-2" d="M872.29,551.43H784.17c-1.94,0-4.92-2-5.18-3.94-.53-4,3.24-5.07,5.18-5.07l88.12,2a3.53,3.53,0,0,1,3.52,3.52h0A3.54,3.54,0,0,1,872.29,551.43Z"/><path class="cls-2" d="M849.4,534.87H782.89c-1.47,0-3.72-1.62-3.91-3.16-.4-3.17,2.44-4.08,3.9-4.08l66.52,1.58a2.76,2.76,0,0,1,2.66,2.83h0A2.76,2.76,0,0,1,849.4,534.87Z"/><path class="cls-2" d="M849.4,568.11H782.89c-1.47,0-3.72-1.62-3.91-3.17-.4-3.17,2.44-4.07,3.9-4.07l66.52,1.57a2.77,2.77,0,0,1,2.66,2.84h0A2.76,2.76,0,0,1,849.4,568.11Z"/><path class="cls-17" d="M892.84,1093.74c1.23.49,22.64,2.79,30.74,39.18,7,31.39-21.35,6.53-21.35,6.53Z"/><path class="cls-12" d="M865.89,1521.09s.28,11.09,7.78,14.22,29.25,6,21.12,13.08c-4.66,4.09-26.62,1.45-32.83,1.45s-12,2.7-16.63-1.45c-5.07-4.57,0-27.3,0-27.3s5.35,2.79,10.17,2.67C862.43,1523.58,865.89,1521.09,865.89,1521.09Z"/><path class="cls-12" d="M779.73,1521.09s.28,11.09,7.78,14.22,29.24,6,21.12,13.08c-4.66,4.09-26.63,1.44-32.83,1.44s-12,2.71-16.63-1.44c-5.07-4.57,0-27.3,0-27.3s5.35,2.79,10.16,2.66C776.27,1523.58,779.73,1521.09,779.73,1521.09Z"/><path class="cls-4" d="M921.66,1217.13s1.39,46.41-13.43,135.45c-10.69,64.28-23.32,129.05-29.51,160.1a24.22,24.22,0,0,1-22.63,19.67l-6,.24c-12,.48-21.69-9.8-20.81-22l15-210.08,3.7-69.14Z"/><path class="cls-12" d="M786.15,1258c.68,5.65,32.62,5,71.73,0s69.55-13.42,68.87-19.07-32.23-6.34-71.34-1.39S785.47,1252.33,786.15,1258Z"/><path class="cls-4" d="M876.76,1250.28l-83.5,268.21a26.91,26.91,0,0,1-25.11,19.12l-5,.09c-11.85.2-20.91-10.76-18.75-22.68l45.68-252a8.3,8.3,0,0,1,5.76-6.21C811.48,1252.27,878.3,1239.19,876.76,1250.28Z"/><path class="cls-26" d="M799.21,1103.56s11.11-31.26,50.68-29.84,69.46,53.43,76.86,165.2c0,0-64.8-14.21-140.72,18.94C786,1257.86,781.83,1149.11,799.21,1103.56Z"/><path class="cls-26" d="M769.93,1106.33l29.52,13.29s77.46,17.45,96.59,14,29.19-21.23,29.19-21.23-30.67-31.51-65.31-37.71a93.57,93.57,0,0,0-10-.93,97.27,97.27,0,0,0-17.5.38C783.56,1079.41,769.93,1106.33,769.93,1106.33Z"/><path class="cls-20" d="M839.44,1370.16l-1.33-.44,17.95-54.58a53.18,53.18,0,0,1,24-29.63l.7,1.22a51.77,51.77,0,0,0-23.38,28.85Z"/><path class="cls-14" d="M877,1066.76l-.11-.44c.06,0,5.1-1.25,6.52-4.69.74-1.78.39-3.87-1-6.2l-1.87-3c-3.93-6.26-5.4-8.61-4.32-13.73l.45.09c-1,5,.3,7.08,4.26,13.4l1.87,3c1.52,2.46,1.88,4.69,1.08,6.62C882.35,1065.47,877.25,1066.71,877,1066.76Z"/><path class="cls-14" d="M876.43,1038.75a23.35,23.35,0,0,0,3.51,16.24c5.26,8.31-.47,14.38-7.59,11.18s-9.84,5.89-19,.87S876.43,1038.75,876.43,1038.75Z"/><path class="cls-17" d="M834.34,1073.84a10.92,10.92,0,0,0,8.92-6.53l4.91-11.39,1.42-3.3,8.37-19.44-1.45,20.14-.88,12.1-.24,3.44a5.5,5.5,0,0,0,4.53,5.8H860c1.49,2.42,3.55,7.34-2.6,9.3-7.22,2.3-18.9-3.39-23.09-10.12Z"/><path class="cls-12" d="M848.15,1055.59c0,.11,0,.22,0,.33.48,6.5,7.42,9.53,7.42,9.53l0,0,.88-12.1c-2.13-.77-5.15-1.57-6.92-.7A2.81,2.81,0,0,0,848.15,1055.59Z"/><ellipse class="cls-17" cx="858.87" cy="1036.4" rx="18.93" ry="23.35"/><path class="cls-17" d="M842.48,1039.92c2.14,2,5.14,2.26,6.69.47s1.08-4.89-1.06-6.94-5.15-2.26-6.7-.47S840.34,1037.88,842.48,1039.92Z"/><path class="cls-22" d="M869.06,1051.51a41,41,0,0,1-12.92-2.12s-.54,6.37,6.46,6.8C866.67,1056.44,869.06,1051.51,869.06,1051.51Z"/><path class="cls-1" d="M869.06,1051.51s-1.56,1.3-5.21,1.28-7.71-3.4-7.71-3.4S863.92,1051.53,869.06,1051.51Z"/><path class="cls-23" d="M860.7,1036.63a.44.44,0,0,0,.29-.26.43.43,0,0,0-.24-.56,4.67,4.67,0,0,0-5.57,1.24.44.44,0,0,0,0,.61.47.47,0,0,0,.61,0,7.4,7.4,0,0,1,4.63-1A.42.42,0,0,0,860.7,1036.63Z"/><path class="cls-23" d="M857.3,1041.36c0,1,.54,1.88,1.29,1.9s1.37-.79,1.41-1.82-.55-1.87-1.29-1.9S857.33,1040.33,857.3,1041.36Z"/><path class="cls-23" d="M876.07,1038.87a.41.41,0,0,0,.36-.12.43.43,0,0,0,0-.61,4.65,4.65,0,0,0-5.62-1,.43.43,0,0,0-.22.57.47.47,0,0,0,.57.22,7.34,7.34,0,0,1,4.67.8A.42.42,0,0,0,876.07,1038.87Z"/><path class="cls-23" d="M871.12,1042a1.67,1.67,0,0,0,.47,2.25c.68.3,1.57-.21,2-1.14a1.67,1.67,0,0,0-.47-2.25C872.43,1040.5,871.54,1041,871.12,1042Z"/><path class="cls-14" d="M866.91,1017.29s-.41,8.1-10.53,9.48-17.09,5.66-15.73,13,17.67,22.41,5.68,28.26-9.44-5.06-22.43-2.53-15.34-14.82-6.39-24.89,5.32-36.71,38.87-35.53,21.26,28,21.26,28S866.89,1026.23,866.91,1017.29Z"/><path class="cls-1" d="M842.88,1069.48l-.1-.25c2.47-1,3.93-2.42,4.45-4.33,1.44-5.3-4.85-13.45-10.4-20.64-1.47-1.91-2.86-3.71-4.09-5.44-3.44-4.79-3.74-10.51-.8-14.92,3.28-4.9,9.49-7,16.23-5.41,6.52,1.51,11,.15,13.6-1.26a12.2,12.2,0,0,0,4.12-3.43l.23.15a12.24,12.24,0,0,1-4.22,3.52c-2.65,1.43-7.19,2.81-13.79,1.28s-12.73.5-15.94,5.3c-2.92,4.38-2.63,9.85.79,14.62,1.23,1.71,2.62,3.51,4.09,5.42,5.58,7.24,11.92,15.45,10.44,20.88C847,1067,845.4,1068.46,842.88,1069.48Z"/><path class="cls-15" d="M874.75,1054.17a5.39,5.39,0,0,1-2.89-.85c-4.08-2.53-5.61-10.17-3.42-17h0c1.33-4.2,3.84-7.34,6.68-8.38a5.42,5.42,0,0,1,4.92.48c4.07,2.52,5.6,10.15,3.42,17-1.34,4.21-3.84,7.35-6.69,8.4A6,6,0,0,1,874.75,1054.17Zm-5.51-17.61c-2.08,6.5-.7,13.71,3.07,16.06a4.71,4.71,0,0,0,4.17.4c2.61-1,4.91-3.91,6.17-7.86,2.08-6.52.71-13.72-3.06-16.06a4.69,4.69,0,0,0-4.18-.4c-2.61,1-4.91,3.89-6.17,7.86Z"/><g class="cls-27"><path class="cls-1" d="M846.54,1031.84c-1.52,6.67.91,13.82,5.42,16s9.4-1.49,10.92-8.16-.91-13.82-5.42-16S848.06,1025.17,846.54,1031.84Z"/></g><g class="cls-27"><path class="cls-1" d="M868.26,1036.85c-1.53,6.7.5,14,4.52,16.23s8.52-1.34,10-8-.5-14-4.52-16.22S869.78,1030.16,868.26,1036.85Z"/></g><path class="cls-15" d="M855.15,1048.66a7,7,0,0,1-3-.7c-5-2.33-7.67-10-6-17.16h0c1-4.13,3.17-7.32,6.07-8.73a6.93,6.93,0,0,1,6.15-.05c5,2.33,7.67,10,6,17.15-1,4.15-3.18,7.34-6.09,8.75A7.31,7.31,0,0,1,855.15,1048.66Zm.18-26.5a6.29,6.29,0,0,0-2.77.66c-2.63,1.29-4.74,4.35-5.63,8.18h0c-1.56,6.75.92,14,5.56,16.2a6.27,6.27,0,0,0,5.4,0c2.64-1.27,4.75-4.34,5.65-8.19,1.56-6.75-.93-14-5.55-16.2A6.37,6.37,0,0,0,855.33,1022.16Z"/><path class="cls-15" d="M869.15,1039.35a.77.77,0,0,1-.5-.18h0a7.06,7.06,0,0,0-5.64-1,.82.82,0,0,1-.93-.62.79.79,0,0,1,.62-.92,8.48,8.48,0,0,1,6.95,1.32.79.79,0,0,1,.1,1.11A.77.77,0,0,1,869.15,1039.35Z"/><path class="cls-12" d="M769.93,1106.33c-.44,3,9.43,7.13,22,9.34s23.19,1.61,23.62-1.35-9.43-7.14-22-9.34S770.37,1103.37,769.93,1106.33Z"/><path class="cls-4" d="M817.59,1251.86S895.65,1236.94,921,1244l-12.13,18-45.12,2.55Z"/><path class="cls-12" d="M1223.85,1548.09a2.14,2.14,0,0,1-1.7-1.55l-56.83-185.11c-.31-1.14,7.74-2.29,8.88-2.6a2.13,2.13,0,0,1,2.6,1.51l49.46,185.11a2.12,2.12,0,0,1-2.41,2.64Z"/><path class="cls-12" d="M1023.9,1571.38a2.12,2.12,0,0,1-1.48-1.75L990,1378.72c-.15-1.16,8-1.27,9.14-1.43a2.14,2.14,0,0,1,2.39,1.83l25.09,190a2.11,2.11,0,0,1-2.73,2.3Z"/><path class="cls-12" d="M905.84,1533.06a3.07,3.07,0,0,0,2.17-2.35l53.72-250.21c.26-1.52-11.29-1.33-12.94-1.49a3.2,3.2,0,0,0-3.46,2.48l-43.28,248.67a2.63,2.63,0,0,0,2.5,3A3.48,3.48,0,0,0,905.84,1533.06Z"/><path class="cls-15" d="M918.37,1111.89l220.14-12.23a14.41,14.41,0,0,1,14.44,9.76l86,253.64a14.41,14.41,0,0,1-9.13,18.31l-249.95,82.51a14.42,14.42,0,0,1-18.72-11.22L905,1128.74A14.41,14.41,0,0,1,918.37,1111.89Z"/><path class="cls-3" d="M933.28,1119l201.61-11.35a13.2,13.2,0,0,1,13.23,9.06L1226.88,1352a13.39,13.39,0,0,1-8.36,17l-228.91,76.54a13.19,13.19,0,0,1-17.14-10.41L921,1134.61A13.33,13.33,0,0,1,933.28,1119Z"/><path class="cls-4" d="M1063.25,1303a.53.53,0,0,1-.47-.28c-3.56-6.71-11-20.67-30.63-25.15-24.19-4.61-40.08-19-44.73-40.68-7.46-34.76,14.93-76,48.89-90a69.59,69.59,0,0,1,11.62-3.67c23.7-5.26,48.66-.93,66.79,11.58,13.61,9.4,22.3,22.83,24.46,37.81,3.92,27.11-1,47.06-14.89,61-2,2.07-19.65,20.82-18.85,42.71a.53.53,0,0,1-.73.51,12.51,12.51,0,0,0-5.11-1c-16-.45-28.15,4.09-35.39,6.8l-.77.29A.63.63,0,0,1,1063.25,1303ZM1068,1142a91.88,91.88,0,0,0-19.8,2.17,69.33,69.33,0,0,0-11.44,3.62c-33.52,13.85-55.62,54.53-48.26,88.82,4.55,21.18,20.15,35.34,43.91,39.86,19.75,4.5,27.41,18.29,31.13,25.28l.33-.13c7.32-2.74,19.57-7.33,35.75-6.86a13.75,13.75,0,0,1,4.78.74c-.37-22,17.15-40.62,19.17-42.69h0c13.69-13.7,18.47-33.37,14.6-60.12-2.12-14.69-10.65-27.85-24-37.08C1101.24,1146.72,1084.86,1142,1068,1142Z"/><path class="cls-4" d="M1018,1197.08a6.67,6.67,0,0,1-1.25-.11c-4-.73-6.92-4.71-7.14-9.69s2.16-10.53,6.34-15c3.28-3.5,7-5.53,10.19-5.59,8.39-.16,13.2,1,14.66,3.56.79,1.36.57,3.07-.64,5a.52.52,0,0,1-.2.19c-.1.06-10,5.47-14.27,15.32C1024,1194.83,1021.13,1197.08,1018,1197.08Zm9.58-29.33-1.42,0c-2.87,0-6.39,2-9.43,5.25-4,4.25-6.26,9.57-6.05,14.22.19,4.47,2.77,8,6.26,8.68,3.14.58,6.05-1.48,7.77-5.51,4.16-9.7,13.36-15.06,14.62-15.76.93-1.58,1.12-2.87.55-3.86C1039,1169.39,1036.23,1167.75,1027.55,1167.75Zm12.13,7.3h0Z"/><path class="cls-4" d="M1060,1304.5l-.16,0a.58.58,0,0,1-.31-.27c-4.68-9-14.16-20.5-32.7-24.72-24.2-4.61-40.08-19.07-44.72-40.69-3.67-17.07-.1-36.89,9.79-54.39,10.38-18.37,26.18-31.73,44.48-37.61,2.06-.66,4.16-1.23,6.23-1.69,23.71-5.26,48.68-.92,66.81,11.6,13.6,9.4,22.29,22.82,24.45,37.79,3.92,27.11-1,47.07-14.89,61-3,3.13-18.13,19.7-18.85,39.8a.53.53,0,0,1-.53.52c-16-.51-27.86,4-34.25,6.33a41.69,41.69,0,0,0-5.1,2.27A.54.54,0,0,1,1060,1304.5ZM1062.6,1144a91.17,91.17,0,0,0-19.79,2.17c-2,.45-4.11,1-6.13,1.66-18.05,5.8-33.64,19-43.89,37.12-9.76,17.28-13.29,36.83-9.67,53.65,4.54,21.18,20.13,35.34,43.9,39.87,18.63,4.24,28.3,15.72,33.17,24.8a44.91,44.91,0,0,1,4.76-2.07c6.39-2.39,18.23-6.82,34.11-6.42,1-20.26,16.08-36.84,19.13-40h0c13.69-13.69,18.46-33.36,14.6-60.12-2.12-14.67-10.65-27.84-24-37.06C1095.91,1148.69,1079.51,1144,1062.6,1144Z"/><path class="cls-4" d="M1069.65,1356.74c-4,0-7-.41-8.08-1.35a9.33,9.33,0,0,1-3.56-7.82,6.92,6.92,0,0,1,2.48-4.92c-1.81-1.07-6.09-4.15-5.83-9.1.23-4.24,1.68-6.43,2.57-7.38-1.52-.78-4.76-3-6.31-8.74-.83-3-.78-8.86,8.8-13.93,22.93-9.54,43.14-11.53,50.32-5,2.5,2.28,3.23,5.51,2.12,9.34a17.47,17.47,0,0,1,4.12,4.55,10.38,10.38,0,0,1-.15,11.61c1.57,1.6,8,9,3.93,18.38h0c-2.31,5.33-14.93,9-22.25,10.69A139.38,139.38,0,0,1,1069.65,1356.74Zm26.6-61c-9.49,0-22.41,3-36.08,8.67-8.43,4.47-9.13,9.37-8.22,12.69,1.85,6.84,6.22,8.3,6.41,8.35a.54.54,0,0,1,.36.44.52.52,0,0,1-.24.52s-2.47,1.7-2.76,7.15,5.94,8.48,6,8.51a.54.54,0,0,1,.3.45.52.52,0,0,1-.26.48,5.82,5.82,0,0,0-2.7,4.61,8.31,8.31,0,0,0,3.19,6.92c2.38,2,19.14,1.26,35.32-2.51,12.12-2.82,20-6.5,21.52-10.08,4.27-9.88-3.66-17.19-4-17.5a.52.52,0,0,1-.08-.69,9.31,9.31,0,0,0,.36-10.83,16.68,16.68,0,0,0-4.12-4.46.53.53,0,0,1-.21-.59c1.14-3.63.56-6.52-1.71-8.6C1106.73,1296.94,1102.15,1295.79,1096.25,1295.79Zm23.33,46.41h0Z"/><path class="cls-4" d="M1115.73,1324.87a.84.84,0,0,1-.39.05,55.14,55.14,0,0,0-11.43.12,61,61,0,0,0-24.39,7.83.82.82,0,0,1-.84-1.42,62.43,62.43,0,0,1,25.11-8.06,55.8,55.8,0,0,1,11.76-.11.82.82,0,0,1,.71.92A.81.81,0,0,1,1115.73,1324.87Z"/><path class="cls-4" d="M1111.83,1308.85a1,1,0,0,1-.3.05,107.32,107.32,0,0,0-14.12.86c-7.21.92-17.31,3-24.52,7.68a.83.83,0,0,1-1.15-.24.82.82,0,0,1,.24-1.14c7.49-4.87,17.86-7,25.24-7.94a107.73,107.73,0,0,1,14.34-.87.83.83,0,0,1,.27,1.6Z"/><path class="cls-4" d="M1071.36,1300.24a.53.53,0,0,1-.52-.46c0-.31-3.25-21.43-8.4-38.75a24.35,24.35,0,0,1-11.24-1.22,13.56,13.56,0,0,1-9.25-13c0-4.39,2-8.21,4.84-9.29,1.39-.53,4.24-.84,7.64,3s6.29,11.11,8.8,19.34a35.64,35.64,0,0,0,8.82-2.51c-2.19-7.47-3.31-13.79-1.93-16.38a11.48,11.48,0,0,1,12.68-5.58c3.65.88,5.87,3.46,5.93,6.92s-3.28,8-8.73,11.84a39.67,39.67,0,0,1-6.67,3.8c1.11,3.67,2.62,8.09,4.63,13.43,4.71,12.51,10,24.19,10.06,24.31a.52.52,0,0,1-.26.7.53.53,0,0,1-.7-.26c-.59-1.28-9.88-21.83-14.7-37.76a37,37,0,0,1-8.82,2.51c5.06,17,8.16,37.46,8.35,38.74a.53.53,0,0,1-.45.6Zm-22.83-62a3.82,3.82,0,0,0-1.37.25c-2.45.93-4.16,4.34-4.15,8.3a12.54,12.54,0,0,0,8.56,12,23.32,23.32,0,0,0,10.56,1.18c-2.45-8-5.32-15.15-8.5-18.77C1051.89,1239.25,1050.16,1238.23,1048.53,1238.23Zm31.76-2a10.41,10.41,0,0,0-9.24,5.3c-.83,1.57-.94,5.61,2,15.46a40.21,40.21,0,0,0,6.37-3.64c5.09-3.61,8.34-7.91,8.28-11s-2-5.15-5.12-5.9A9.72,9.72,0,0,0,1080.29,1236.18Z"/><path class="cls-4" d="M970.47,1301.23l-.65-.18,11.28-40.37a25.65,25.65,0,0,1,7.3-12.07,36.67,36.67,0,0,1,17.37-8.89l40.24-8.3.13.66-40.23,8.3a36,36,0,0,0-17,8.73,25,25,0,0,0-7.11,11.76Z"/><path class="cls-14" d="M1049,1231.31c-.28-1.37-2-2.08-3.44-2-1.89,0-2.25,1.62-2,3a2.88,2.88,0,0,0,3.07,2.34A3.11,3.11,0,0,0,1049,1231.31Z"/><path class="cls-14" d="M972.84,1300.58c-.28-1.37-2-2.08-3.44-2-1.89,0-2.26,1.62-2,3a2.89,2.89,0,0,0,3.07,2.35A3.13,3.13,0,0,0,972.84,1300.58Z"/><path class="cls-4" d="M1177.28,1309l-10.79-39.64a35.9,35.9,0,0,0-9.76-16.47,25,25,0,0,0-12.18-6.37l-41-8.75.14-.66,41,8.75a25.59,25.59,0,0,1,12.5,6.54,36.62,36.62,0,0,1,10,16.79l10.78,39.64Z"/><path class="cls-14" d="M1178.22,1311.85c1.35-.36,2-2.17,1.83-3.56-.16-1.88-1.76-2.15-3.11-1.78a2.89,2.89,0,0,0-2.15,3.21A3.12,3.12,0,0,0,1178.22,1311.85Z"/><path class="cls-14" d="M1104.36,1240.13c1.35-.37,2-2.17,1.83-3.56-.16-1.89-1.76-2.15-3.11-1.78a2.88,2.88,0,0,0-2.15,3.21A3.12,3.12,0,0,0,1104.36,1240.13Z"/><path class="cls-4" d="M1052.65,1196.27l-.09-.67,41.52-5.7a25,25,0,0,0,12.61-5.45,36.06,36.06,0,0,0,11-15.71l13.68-38.73.64.22L1118.29,1169a36.66,36.66,0,0,1-11.17,16,25.66,25.66,0,0,1-12.95,5.6Z"/><path class="cls-14" d="M1132.47,1127.28c1.33.46,1.79,2.3,1.57,3.68-.3,1.87-1.92,2-3.24,1.55a2.88,2.88,0,0,1-1.9-3.36A3.11,3.11,0,0,1,1132.47,1127.28Z"/><path class="cls-14" d="M1053.52,1193.34c1.32.47,1.78,2.31,1.56,3.69-.3,1.87-1.92,2-3.24,1.55a2.88,2.88,0,0,1-1.9-3.36A3.13,3.13,0,0,1,1053.52,1193.34Z"/><path class="cls-14" d="M1034.22,1324.9l-44.6,10.45a2.39,2.39,0,0,1-2.87-1.78l-6-25.75a2.39,2.39,0,0,1,1.78-2.87l44.6-10.46a2.4,2.4,0,0,1,2.87,1.79l6,25.75A2.39,2.39,0,0,1,1034.22,1324.9Z"/><path class="cls-2" d="M1023.31,1312.72l-30.6,7.18a2.18,2.18,0,0,1-2.12-1,1.66,1.66,0,0,1,1.39-2.18l30.76-6.5a1.27,1.27,0,0,1,1.51.94h0A1.26,1.26,0,0,1,1023.31,1312.72Z"/><path class="cls-2" d="M1014,1308.84l-23.1,5.41a1.65,1.65,0,0,1-1.62-.78,1.3,1.3,0,0,1,1-1.73l23.22-4.87a1,1,0,0,1,1.16.77h0A1,1,0,0,1,1014,1308.84Z"/><path class="cls-2" d="M1016.72,1320.38l-23.1,5.41A1.63,1.63,0,0,1,992,1325a1.29,1.29,0,0,1,1-1.73l23.23-4.87a1,1,0,0,1,1.16.77h0A1,1,0,0,1,1016.72,1320.38Z"/><path class="cls-9" d="M1162.22,1291.26l-31,7.26a1.66,1.66,0,0,1-2-1.23l-4.2-17.9a1.67,1.67,0,0,1,1.24-2l31-7.26a1.65,1.65,0,0,1,2,1.23l4.2,17.9A1.67,1.67,0,0,1,1162.22,1291.26Z"/><path class="cls-2" d="M1154.64,1282.79l-21.27,5a1.48,1.48,0,0,1-1.47-.66,1.16,1.16,0,0,1,1-1.52l21.38-4.51a.88.88,0,0,1,1,.65h0A.87.87,0,0,1,1154.64,1282.79Z"/><path class="cls-2" d="M1148.18,1280.09l-16,3.77a1.16,1.16,0,0,1-1.13-.55.9.9,0,0,1,.72-1.2l16.14-3.38a.67.67,0,0,1,.8.53h0A.68.68,0,0,1,1148.18,1280.09Z"/><path class="cls-2" d="M1150.06,1288.12l-16,3.76a1.14,1.14,0,0,1-1.13-.55.9.9,0,0,1,.72-1.2l16.14-3.38a.67.67,0,0,1,.8.53h0A.69.69,0,0,1,1150.06,1288.12Z"/><path class="cls-9" d="M1051.1,1380.83l-62.7,14.7a3.37,3.37,0,0,1-4-2.51l-8.49-36.2a3.37,3.37,0,0,1,2.51-4l62.7-14.7a3.38,3.38,0,0,1,4,2.5l8.48,36.21A3.37,3.37,0,0,1,1051.1,1380.83Z"/><path class="cls-2" d="M1035.76,1363.71l-43,10.08a3,3,0,0,1-3-1.33c-.71-1.86,1-2.85,2-3.07l43.25-9.13a1.77,1.77,0,0,1,2.12,1.32h0A1.78,1.78,0,0,1,1035.76,1363.71Z"/><path class="cls-2" d="M1022.7,1358.24l-32.48,7.62a2.32,2.32,0,0,1-2.27-1.1,1.82,1.82,0,0,1,1.44-2.44l32.66-6.84a1.38,1.38,0,0,1,1.62,1.08h0A1.37,1.37,0,0,1,1022.7,1358.24Z"/><path class="cls-2" d="M1026.5,1374.47,994,1382.08a2.3,2.3,0,0,1-2.27-1.1,1.81,1.81,0,0,1,1.44-2.43l32.65-6.85a1.38,1.38,0,0,1,1.62,1.08h0A1.39,1.39,0,0,1,1026.5,1374.47Z"/><path class="cls-9" d="M1122.29,1136.43l-26.71,2.82A1.39,1.39,0,0,1,1094,1138l-1.64-15.43a1.41,1.41,0,0,1,1.25-1.54l26.72-2.82a1.4,1.4,0,0,1,1.54,1.24l1.63,15.43A1.41,1.41,0,0,1,1122.29,1136.43Z"/><path class="cls-2" d="M1116.84,1128.55l-18.33,1.94a1.28,1.28,0,0,1-1.17-.71c-.2-.81.56-1.13,1-1.17l18.37-1.53a.73.73,0,0,1,.81.66h0A.74.74,0,0,1,1116.84,1128.55Z"/><path class="cls-2" d="M1111.71,1125.61l-13.83,1.46a1,1,0,0,1-.89-.57.77.77,0,0,1,.72-.94l13.88-1.13a.56.56,0,0,1,.61.53h0A.58.58,0,0,1,1111.71,1125.61Z"/><path class="cls-2" d="M1112.44,1132.52l-13.83,1.46a1,1,0,0,1-.89-.57.76.76,0,0,1,.73-.93l13.87-1.14a.58.58,0,0,1,.61.53h0A.57.57,0,0,1,1112.44,1132.52Z"/><path class="cls-17" d="M949.9,1101.48s-7.16-3.64-9.28,4.31c-2.69,10.14,1,25.73,5.71,21,1.06-1.08,2.46-8.79,2.46-8.79s-.32,14.74,4.57,13.42,5.1-14.37,5.1-14.37,1.65,15.64,5.77,13,3.79-12.94,3.79-12.94,1.07,14.17,5.76,11,2-14.15,1.92-19c-.05-4.56-3.27-5.33-8-5.18a6.62,6.62,0,0,0-7.5-1.19c-1.08.51-2.87-1.66-3.72-1.77A16.14,16.14,0,0,0,949.9,1101.48Z"/><path class="cls-17" d="M904.76,1166.37s8.81-15.11,18.84-17.14,24.39,3,18.44,5.55-14.47,3.77-14.47,3.77,18.32-1.69,16.86,2.76-17.41,5.78-17.41,5.78,22-.28,19.22,3.48-19.43,3.86-19.43,3.86,20.44.55,17.16,4.85-16.89-.57-18.35,3.89-8.76,21.65-21.64,19.11Z"/><path class="cls-21" d="M920.64,1161l-.6-.45c2-2.68,7.33-2.41,7.55-2.4l0,.76S922.44,1158.67,920.64,1161Z"/><path class="cls-21" d="M918.64,1170.05l-.5-.57c3.58-3.13,8.7-2.79,8.91-2.77l-.06.75S922,1167.13,918.64,1170.05Z"/><path class="cls-21" d="M919,1177.15l-.64-.41c1.94-3,8.18-2.7,8.45-2.69l-.05.75C926.73,1174.8,920.73,1174.49,919,1177.15Z"/><path class="cls-17" d="M875.63,1203.18c-36.17,0-63.87-9.52-82.58-28.42-28.14-28.43-19.95-66.63-19.75-68.24,0,0,1.26-3.15,20.28-.17s18.91,7.38,18.91,7.38-6,19.08,8.77,33.68c14.3,14.16,46.47,23.33,83.5,19l-.21,36.13C894.47,1203.69,884.66,1203.18,875.63,1203.18Z"/><g class="cls-11"><path class="cls-19" d="M818.58,1185.21a9.48,9.48,0,0,1-4.37-1.15h0a9.07,9.07,0,0,1-3.8-3.65,4.27,4.27,0,0,1,3.52-6.64,9.14,9.14,0,0,1,5.16,1.1c3.56,1.89,5.37,5.49,4,8a4.63,4.63,0,0,1-3.75,2.27C819.11,1185.19,818.84,1185.21,818.58,1185.21Zm-3.85-10.11c-.22,0-.44,0-.65,0a3.28,3.28,0,0,0-2.68,1.55,3.31,3.31,0,0,0,.22,3.09,7.74,7.74,0,0,0,3.24,3.08h0a7.74,7.74,0,0,0,4.36,1,3.25,3.25,0,0,0,2.68-1.55c1-1.86-.56-4.63-3.45-6.16A8,8,0,0,0,814.73,1175.1Z"/></g><path class="cls-17" d="M1174.15,1149.7c-5.42-5.34,13.57-30,13.57-30,2.07-1.45,36.58,31.25,76.12,18.72,14.08-4.47,33.55-29.12,35-32.78.18-.48,31.18,10.72,31.18,10.72-2.55,6.63-1.3,29.95-16.46,43.9C1282.17,1189.15,1227.54,1192.23,1174.15,1149.7Z"/><path class="cls-12" d="M1361.08,1543s-.27,10.7-7.51,13.72-28.22,5.74-20.38,12.62c4.5,4,25.7,1.4,31.69,1.4s11.6,2.6,16-1.4c4.89-4.41,0-26.34,0-26.34s-5.17,2.69-9.81,2.57C1364.42,1545.35,1361.08,1543,1361.08,1543Z"/><path class="cls-15" d="M1298.61,1220s-1.44,48.29,14,140.94c11.13,66.88,24.26,134.27,30.71,166.58a25.19,25.19,0,0,0,23.54,20.47l6.19.25c12.46.5,22.57-10.2,21.66-22.92L1379,1306.75l-3.85-71.94Z"/><path class="cls-12" d="M1429.66,1543s-.27,10.7-7.51,13.72-28.22,5.74-20.38,12.62c4.5,4,25.7,1.4,31.68,1.4s11.61,2.6,16-1.4c4.9-4.41,0-26.34,0-26.34s-5.16,2.69-9.8,2.57C1433,1545.35,1429.66,1543,1429.66,1543Z"/><path class="cls-15" d="M1367.19,1220s-1.44,48.29,14,140.94c11.12,66.88,24.26,134.27,30.7,166.58a25.21,25.21,0,0,0,23.55,20.47l6.19.25c12.45.5,22.56-10.2,21.65-22.92l-15.63-218.59-3.85-71.94Z"/><path class="cls-12" d="M1451.34,1273c-.15,5.82-35.38,8.14-79,6.78s-78.39-7.39-78.24-13.21,35.21-9.25,78.78-7.89S1451.49,1267.12,1451.34,1273Z"/><path class="cls-18" d="M1440.67,1108s-7.7-30.54-64.55-30.85c-82-.45-74.4,74.88-82,189.37,0,0,80.75-11.42,157.24,5C1451.38,1271.51,1458.47,1154.66,1440.67,1108Z"/><path class="cls-18" d="M1461.66,1103.62l-37.13,20.54s-81.31,7.38-102.89,3.83-27.5-19.41-27.5-19.41,23-23.78,62.06-30.13q5.5-.9,11.42-1.3a112.1,112.1,0,0,1,19.75.39C1436.89,1083.12,1461.66,1103.62,1461.66,1103.62Z"/><path class="cls-17" d="M1383.93,1070.16l-4.29-13.85-1.25-4-7.34-23.71-1,23.58-.58,14.16-.18,4.48c-.12,3-2,3.68-4.24,6.32-.91,1.07-6.76,7.56-.12,10.5,8.27,3.65,23.73-1.88,29.61-9.13C1394.53,1078.47,1385.32,1074.63,1383.93,1070.16Z"/><path class="cls-15" d="M1301,1271.23s47.21-13.89,145,5.18l.75,14.06-143.34,5.07Z"/><path class="cls-12" d="M1462.43,1104.47c3.15,4.46-1.49,13.26-10.36,19.66s-18.61,8-21.75,3.52,1.48-13.25,10.35-19.65S1459.28,1100,1462.43,1104.47Z"/><path class="cls-17" d="M1495.15,1294.29h0a3.41,3.41,0,0,1,2.72,4l-5.25,28.44a3.4,3.4,0,0,1-3.94,2.72h0a3.4,3.4,0,0,1-2.72-4l5.24-28.44A3.4,3.4,0,0,1,1495.15,1294.29Z"/><path class="cls-17" d="M1486.62,1292.72h0a3.39,3.39,0,0,1,2.71,3.94l-5.86,31.81a3.39,3.39,0,0,1-3.94,2.72h0a3.39,3.39,0,0,1-2.72-3.94l5.86-31.81A3.4,3.4,0,0,1,1486.62,1292.72Z"/><path class="cls-17" d="M1487.38,1275.74l.79.91a4.11,4.11,0,0,1-.4,5.78l-16.55,14.41a4.11,4.11,0,0,1-5.78-.4l-.79-.91a4.11,4.11,0,0,1,.4-5.78l16.55-14.41A4.11,4.11,0,0,1,1487.38,1275.74Z"/><path class="cls-17" d="M1478.09,1291.15h0a3.4,3.4,0,0,1,2.72,3.94l-4.7,25.5a3.41,3.41,0,0,1-3.95,2.72h0a3.41,3.41,0,0,1-2.72-4l4.7-25.5A3.4,3.4,0,0,1,1478.09,1291.15Z"/><path class="cls-17" d="M1503.92,1279.16s6.62,18.19-.66,29.87c-2.52,4-27.5-1.28-28.93-6.41s3.42-22.06,3.42-22.06Z"/><path class="cls-17" d="M1503.62,1295.83h0a3.37,3.37,0,0,1,2.71,3.93l-4.69,25.45a3.37,3.37,0,0,1-3.93,2.71h0A3.4,3.4,0,0,1,1495,1324l4.69-25.44A3.39,3.39,0,0,1,1503.62,1295.83Z"/><path class="cls-17" d="M1472.63,1283c-3.42-37.63-11.26-91.43-29.21-134-4.16-9.88-5.89-13.58-9.14-19-2.61-4.34,2.07-13.88,9.44-18.42,6.92-4.27,17.69-3.57,19.4-1.46,2.89,3.59,6,10.47,10.8,21.4,16.72,38,26.75,87,30.8,150.25Z"/><path class="cls-28" d="M1352.15,1019.66a31.13,31.13,0,0,0,0,12.94c1.5,7.19,8.81-10.49,8.81-10.49Z"/><path class="cls-17" d="M1351.28,1034.67c1.82-13.91,12.66-24,24.19-22.44s19.41,14,17.59,27.93-12.66,24-24.2,22.45S1349.45,1048.58,1351.28,1034.67Z"/><path class="cls-12" d="M1393.58,1032.89l-10.2-1.06a7.43,7.43,0,0,1-5.5-3.34c-2.09-3.27-4.61-5-14.12-4.59-12,.45-20-6.73-21.3-13s4.83-10.8,10.89-7.73,3.45-4.46,9.27-5.26c10.87-1.49,12.91,6.89,21.81,6.62,11.67-.36,32.58,8.51,22.66,29.06Z"/><path class="cls-23" d="M1371.06,1036.35a.41.41,0,0,1-.2-.32.42.42,0,0,1,.39-.46,4.59,4.59,0,0,1,4.92,2.8.43.43,0,0,1-.19.57.46.46,0,0,1-.57-.19,7.27,7.27,0,0,0-4.09-2.33A.46.46,0,0,1,1371.06,1036.35Z"/><path class="cls-23" d="M1372.91,1041.83c-.27,1-1.06,1.62-1.78,1.43a1.65,1.65,0,0,1-.8-2.13c.27-1,1.06-1.63,1.77-1.43A1.64,1.64,0,0,1,1372.91,1041.83Z"/><path class="cls-23" d="M1355.26,1035.08a.29.29,0,0,1-.23-.21.52.52,0,0,1,.16-.58,3,3,0,0,1,4.36.5.53.53,0,0,1,0,.6.33.33,0,0,1-.48.06,4.52,4.52,0,0,0-3.61-.42A.24.24,0,0,1,1355.26,1035.08Z"/><path class="cls-23" d="M1359.15,1039.46c.13,1-.36,1.91-1.1,2s-1.43-.66-1.55-1.67.36-1.9,1.09-2S1359,1038.45,1359.15,1039.46Z"/><path class="cls-28" d="M1407.09,1033.56s-7,15.2-17,16.31c0,0,8.08-11.58-8.94-18.64C1381.12,1031.23,1396.75,1028.77,1407.09,1033.56Z"/><path class="cls-17" d="M1393,1042a4.12,4.12,0,1,1,1.67-5.92A4.35,4.35,0,0,1,1393,1042Z"/><path class="cls-28" d="M1381.12,1031.23s1.36,12.76-1.24,15.17-19.73,3.45-27.73.35h0a16.66,16.66,0,0,0,13.72,16.79,24.42,24.42,0,0,0,8.18,0h0c5.6-1,11-3.3,13.35-8.49.71-1.58-1.34-11.31-1.34-11.31s-.77-5.71,2.55-8.67C1388.61,1035,1384.78,1031.59,1381.12,1031.23Z"/><path class="cls-1" d="M1356.37,1051.36a43.43,43.43,0,0,0,13.74,1.08s-1,6.64-8.31,5.32C1357.58,1057,1356.37,1051.36,1356.37,1051.36Z"/><path class="cls-12" d="M1354.64,1002.13h-.18l0-.57c2.78.1,3-2.14,3-2.23l.58,0A3.21,3.21,0,0,1,1354.64,1002.13Z"/><path class="cls-1" d="M1360.35,1020.52a38.06,38.06,0,0,1-6.62-2.75c-4.39-2.37-6.84-5.12-7.07-7.94-.16-2,.19-3.28,1.06-4,1.38-1.18,3.76-.63,5.87-.14l.91.21-.06.28-.91-.21c-2-.47-4.36-1-5.63.08-.79.69-1.1,1.92-1,3.79.53,6.6,13.35,10.4,13.48,10.44Z"/><path class="cls-1" d="M1385.59,1007.14a22.5,22.5,0,0,1-10.38-2.37,15.32,15.32,0,0,1-4.63-3.41l.22-.18c.06.07,6.09,7.1,18.6,5.41l0,.28A28,28,0,0,1,1385.59,1007.14Z"/><path class="cls-19" d="M1481.5,1198.25c-2.67,0-5.22-2.79-5.85-6.58a9.4,9.4,0,0,1,.61-5.37,4.74,4.74,0,0,1,3.43-2.89c2.89-.47,5.8,2.45,6.48,6.53a9.3,9.3,0,0,1-.62,5.37,4.68,4.68,0,0,1-3.42,2.89A3.35,3.35,0,0,1,1481.5,1198.25Zm-1.16-13.48-.42,0a3.36,3.36,0,0,0-2.38,2.1,7.94,7.94,0,0,0-.5,4.55c.54,3.25,2.76,5.71,4.86,5.36a3.34,3.34,0,0,0,2.38-2.09,8,8,0,0,0,.5-4.55h0C1484.27,1187.07,1482.33,1184.77,1480.34,1184.77Z"/><path class="cls-12" d="M1308.76,1125.21l-.9-.25c2.39-8.66,10.41-19.47,10.49-19.58l.75.56C1319,1106,1311.11,1116.72,1308.76,1125.21Z"/><path class="cls-12" d="M1383.76,1379.82c-.07-.39-6.4-39.71-10.75-53.73s-22.84-25.56-23-25.68l.5-.79c.19.12,19,12,23.42,26.2s10.72,53.46,10.78,53.85Z"/><path class="cls-17" d="M1182.74,1139.92h0a3.18,3.18,0,0,1-3.7,2.52l-26.55-5a3.18,3.18,0,0,1-2.53-3.7h0a3.19,3.19,0,0,1,3.71-2.52l26.55,5A3.17,3.17,0,0,1,1182.74,1139.92Z"/><path class="cls-17" d="M1184.26,1132h0a3.17,3.17,0,0,1-3.71,2.51l-29.7-5.64a3.18,3.18,0,0,1-2.52-3.7h0a3.19,3.19,0,0,1,3.71-2.52l29.7,5.64A3.19,3.19,0,0,1,1184.26,1132Z"/><path class="cls-17" d="M1200.12,1132.75l-.85.74a3.84,3.84,0,0,1-5.4-.41l-13.39-15.54a3.84,3.84,0,0,1,.41-5.4l.85-.73a3.83,3.83,0,0,1,5.4.4l13.38,15.54A3.83,3.83,0,0,1,1200.12,1132.75Z"/><path class="cls-17" d="M1185.77,1124h0a3.17,3.17,0,0,1-3.7,2.52l-23.81-4.52a3.18,3.18,0,0,1-2.52-3.7h0a3.17,3.17,0,0,1,3.7-2.52l23.81,4.52A3.17,3.17,0,0,1,1185.77,1124Z"/><path class="cls-17" d="M1196.84,1148.2s-17,6.09-27.92-.77c-3.76-2.38,1.34-25.7,6.15-27s20.59,3.31,20.59,3.31Z"/><path class="cls-17" d="M1181.26,1147.83h0a3.17,3.17,0,0,1-3.69,2.52l-23.76-4.52a3.15,3.15,0,0,1-2.51-3.69h0a3.17,3.17,0,0,1,3.69-2.52l23.76,4.52A3.16,3.16,0,0,1,1181.26,1147.83Z"/></svg>