<svg xmlns="http://www.w3.org/2000/svg" xmlns:xlink="http://www.w3.org/1999/xlink" viewBox="0 0 16 16"><defs><style>.cls-1{fill:none;}.cls-2{clip-path:url(#clip-path);}.cls-3{fill:#117173;fill-opacity:0.75;}</style><clipPath id="clip-path"><rect class="cls-1" width="16" height="16"/></clipPath></defs><title>dashboarda</title><g id="Layer_2" data-name="Layer 2"><g id="Layer_1-2" data-name="Layer 1"><g class="cls-2"><path class="cls-3" d="M6.17,0h-5A1.17,1.17,0,0,0,0,1.17v3A1.16,1.16,0,0,0,1.17,5.33h5A1.16,1.16,0,0,0,7.33,4.17v-3A1.16,1.16,0,0,0,6.17,0Z"/><path class="cls-3" d="M6.17,6.67h-5A1.16,1.16,0,0,0,0,7.83v7A1.17,1.17,0,0,0,1.17,16h5a1.16,1.16,0,0,0,1.16-1.17v-7A1.16,1.16,0,0,0,6.17,6.67Z"/><path class="cls-3" d="M14.83,10.67h-5a1.16,1.16,0,0,0-1.16,1.16v3A1.16,1.16,0,0,0,9.83,16h5A1.17,1.17,0,0,0,16,14.83v-3A1.16,1.16,0,0,0,14.83,10.67Z"/><path class="cls-3" d="M14.83,0h-5A1.16,1.16,0,0,0,8.67,1.17v7A1.16,1.16,0,0,0,9.83,9.33h5A1.16,1.16,0,0,0,16,8.17v-7A1.17,1.17,0,0,0,14.83,0Z"/></g></g></g></svg>