<svg xmlns="http://www.w3.org/2000/svg" viewBox="0 0 16.55 16.44"><defs><style>.cls-1{fill:#fff;}</style></defs><title>fullscreen</title><g id="Layer_2" data-name="Layer 2"><g id="Layer_1-2" data-name="Layer 1"><path class="cls-1" d="M16.16,0H12.44a.39.39,0,0,0-.39.39v1a.4.4,0,0,0,.39.4h1l-3,3a.39.39,0,0,0-.11.27.39.39,0,0,0,.11.28l.74.74a.41.41,0,0,0,.56,0l3-3v1a.39.39,0,0,0,.39.39h1a.39.39,0,0,0,.39-.39V.39A.38.38,0,0,0,16.16,0Z"/><path class="cls-1" d="M3.12,1.83h1a.4.4,0,0,0,.39-.4v-1A.39.39,0,0,0,4.11,0H.39A.39.39,0,0,0,0,.39V4.11a.4.4,0,0,0,.39.39h1a.4.4,0,0,0,.4-.39v-1l3,3a.39.39,0,0,0,.27.11.43.43,0,0,0,.28-.11l.74-.74a.39.39,0,0,0,.11-.28.39.39,0,0,0-.11-.27Z"/><path class="cls-1" d="M5.36,10.34a.39.39,0,0,0-.55,0l-3,3v-1a.39.39,0,0,0-.4-.39h-1a.39.39,0,0,0-.39.39v3.72a.4.4,0,0,0,.39.39H4.11a.4.4,0,0,0,.39-.39V15a.4.4,0,0,0-.39-.39h-1l3-3a.39.39,0,0,0,.11-.28.39.39,0,0,0-.11-.27Z"/><path class="cls-1" d="M16.16,11.94h-1a.38.38,0,0,0-.39.39v1l-3-3a.4.4,0,0,0-.56,0l-.74.74a.39.39,0,0,0-.11.27.39.39,0,0,0,.11.28l3,3h-1a.4.4,0,0,0-.39.39v1.05a.4.4,0,0,0,.39.39h3.72a.39.39,0,0,0,.39-.39V12.33A.38.38,0,0,0,16.16,11.94Z"/></g></g></svg>