<svg xmlns="http://www.w3.org/2000/svg" xmlns:xlink="http://www.w3.org/1999/xlink" viewBox="0 0 18 15.54"><defs><style>.cls-1{fill:none;}.cls-2{clip-path:url(#clip-path);}.cls-3{fill:#fff;}</style><clipPath id="clip-path" transform="translate(0 -1.23)"><rect class="cls-1" width="18" height="18"/></clipPath></defs><title>hide</title><g id="Layer_2" data-name="Layer 2"><g id="Layer_1-2" data-name="Layer 1"><g class="cls-2"><path class="cls-3" d="M8.86,6.15l2.58,2.58V8.59A2.45,2.45,0,0,0,9,6.14Z" transform="translate(0 -1.23)"/><path class="cls-3" d="M9,4.5a4.07,4.07,0,0,1,3.8,5.58l2.39,2.4A9.68,9.68,0,0,0,18,8.59,9.68,9.68,0,0,0,9,2.46,9.51,9.51,0,0,0,5.74,3L7.51,4.79A4.08,4.08,0,0,1,9,4.5Z" transform="translate(0 -1.23)"/><path class="cls-3" d="M.82,2.27,2.68,4.14l.38.37A9.7,9.7,0,0,0,0,8.59a9.69,9.69,0,0,0,9,6.14A9.63,9.63,0,0,0,12.58,14l.35.34,2.39,2.39,1-1L1.86,1.23ZM5.34,6.79,6.61,8.05a2.5,2.5,0,0,0-.07.54A2.46,2.46,0,0,0,9,11.05,2.33,2.33,0,0,0,9.53,11l1.26,1.27A4,4,0,0,1,9,12.68,4.07,4.07,0,0,1,5.34,6.79Z" transform="translate(0 -1.23)"/></g></g></g></svg>