<svg xmlns="http://www.w3.org/2000/svg" xmlns:xlink="http://www.w3.org/1999/xlink" viewBox="0 0 16 16"><defs><style>.cls-1{fill:none;}.cls-2{clip-path:url(#clip-path);}.cls-3{fill:#606161;fill-opacity:0.75;}</style><clipPath id="clip-path"><rect class="cls-1" width="16" height="16"/></clipPath></defs><title>logout</title><g id="Layer_2" data-name="Layer 2"><g id="Layer_1-2" data-name="Layer 1"><g class="cls-2"><path class="cls-3" d="M10,8.67a.66.66,0,0,0-.67.66V12a.67.67,0,0,1-.66.67h-2v-10A1.36,1.36,0,0,0,5.76,1.4l-.2-.07H8.67A.67.67,0,0,1,9.33,2V4a.67.67,0,0,0,1.34,0V2a2,2,0,0,0-2-2H1.5L1.43,0l-.1,0A1.34,1.34,0,0,0,0,1.33v12A1.34,1.34,0,0,0,.91,14.6l4,1.34a1.45,1.45,0,0,0,.41.06,1.34,1.34,0,0,0,1.34-1.33V14h2a2,2,0,0,0,2-2V9.33A.66.66,0,0,0,10,8.67Z"/><path class="cls-3" d="M15.8,6.2,13.14,3.53A.66.66,0,0,0,12,4V6H9.33a.67.67,0,0,0-.66.67.66.66,0,0,0,.66.66H12v2a.67.67,0,0,0,.41.62.68.68,0,0,0,.73-.15L15.8,7.14A.65.65,0,0,0,15.8,6.2Z"/></g></g></g></svg>