<svg xmlns="http://www.w3.org/2000/svg" viewBox="0 0 193 193"><defs><style>.cls-1{fill:none;}.cls-1,.cls-2{opacity:0.43;}.cls-3{fill:#107173;}</style></defs><title>moodboard</title><g id="Layer_2" data-name="Layer 2"><g id="Layer_1-2" data-name="Layer 1"><rect class="cls-1" width="193" height="193"/><g id="Outline" class="cls-2"><path class="cls-3" d="M117.14,86.18H130A2.58,2.58,0,1,0,130,81h-12.9a2.58,2.58,0,1,0,0,5.16Z"/><path class="cls-3" d="M171.32,81a2.57,2.57,0,0,0-2.58,2.58v85.14H37.16a12.9,12.9,0,1,1,12.9-12.9,2.58,2.58,0,0,0,5.16,0V86.18H63A2.58,2.58,0,1,0,63,81H55.22V73.28a18.06,18.06,0,0,0-36.12,0v82.56A18.08,18.08,0,0,0,37.16,173.9H171.32a2.59,2.59,0,0,0,2.58-2.58V83.6A2.58,2.58,0,0,0,171.32,81ZM24.26,73.28a12.9,12.9,0,0,1,25.8,0V143.2a18,18,0,0,0-25.51-.3l-.29.3Z"/><path class="cls-3" d="M138,112.94l4.13,10.32h0l6.19,15.48a2.59,2.59,0,0,0,4.8,0l6.19-15.48h0l4.13-10.32a2.84,2.84,0,0,0,.16-.86s0-.07,0-.1V68.12a2.58,2.58,0,0,0-5.16,0V109.4h-5.16V50.06h5.16V57.8a2.58,2.58,0,0,0,5.16,0V32a12.9,12.9,0,1,0-25.8,0v80s0,.06,0,.1A2.57,2.57,0,0,0,138,112.94Zm10.34,11.94h4.76l-2.38,6Zm6.82-5.16h-8.89l-2.06-5.16h13Zm-7-10.32h-5.16V50.06h5.16Zm-5.16-64.5V39.74h15.48V44.9Zm0-12.9a7.74,7.74,0,1,1,15.48,0v2.58H142.94Z"/><path class="cls-3" d="M75.86,69.92v1.24a7.69,7.69,0,0,0,0,14.53v.49a15.49,15.49,0,0,0,10.67,14.7,21.34,21.34,0,0,1-10,5.68l-3.94,1a12.72,12.72,0,0,0,3.09,25.07H81a2.58,2.58,0,1,0,0-5.16H75.68a7.56,7.56,0,0,1-1.84-14.9l3.94-1a26.56,26.56,0,0,0,14.91-10,15.49,15.49,0,0,0,14.13-15.41V85.7a7.7,7.7,0,0,0,0-14.53V69.92a23.14,23.14,0,0,0,4.51-29.07,2.58,2.58,0,0,0-4.45,2.62,18,18,0,0,1-4.26,23.25,2.58,2.58,0,0,0-1,2v2H99.38l2.26-20.36a2.57,2.57,0,0,0-3.38-2.73l-6.92,2.31-6.93-2.31A2.58,2.58,0,0,0,81,50.34L83.3,70.7H81v-2a2.59,2.59,0,0,0-1-2,18,18,0,0,1,20.44-29.63,2.58,2.58,0,1,0,2.63-4.44A23.2,23.2,0,0,0,75.86,69.92ZM91.34,96.5A10.32,10.32,0,0,1,81,86.18h20.64A10.32,10.32,0,0,1,91.34,96.5ZM86.61,53.78l3.91,1.31a2.67,2.67,0,0,0,1.63,0l3.92-1.31L94.19,70.7H88.5Zm-.43,22.08h18.06a2.58,2.58,0,1,1,0,5.16H78.44a2.58,2.58,0,0,1,0-5.16Z"/><circle class="cls-3" cx="60.38" cy="52.64" r="2.58"/><circle class="cls-3" cx="122.3" cy="52.64" r="2.58"/><circle class="cls-3" cx="91.34" cy="21.68" r="2.58"/><path class="cls-3" d="M63.24,39.39a2.58,2.58,0,1,0-1-3.52h0A2.57,2.57,0,0,0,63.24,39.39Z"/><path class="cls-3" d="M116.86,70.35a2.58,2.58,0,1,0-.94-3.52h0A2.57,2.57,0,0,0,116.86,70.35Z"/><circle class="cls-3" cx="106.82" cy="25.83" r="2.58"/><path class="cls-3" d="M119.44,39.39a2.58,2.58,0,1,0-3.52-.94h0A2.58,2.58,0,0,0,119.44,39.39Z"/><path class="cls-3" d="M66.76,66.83a2.58,2.58,0,1,0-.94,3.52h0A2.58,2.58,0,0,0,66.76,66.83Z"/><path class="cls-3" d="M77.15,28.06a2.58,2.58,0,1,0-3.53-.95h0A2.59,2.59,0,0,0,77.15,28.06Z"/><path class="cls-3" d="M104.24,153.26h10.32a2.59,2.59,0,0,0,2.58-2.58v-4.34a18,18,0,0,0,2.51-1.45l3.75,2.17a2.59,2.59,0,0,0,3.53-.94l5.16-8.94a2.57,2.57,0,0,0-1-3.52l-3.74-2.17c0-.49.06-1,.06-1.45s0-1-.06-1.45l3.74-2.17a2.57,2.57,0,0,0,1-3.52L126.93,114a2.58,2.58,0,0,0-3.53-.94l-3.75,2.16a19,19,0,0,0-2.51-1.45V109.4a2.58,2.58,0,0,0-2.58-2.58H104.24a2.57,2.57,0,0,0-2.58,2.58v4.33a18.5,18.5,0,0,0-2.52,1.45L95.39,113a2.57,2.57,0,0,0-3.52.94l-5.16,8.94a2.58,2.58,0,0,0,.94,3.52l3.75,2.17c0,.48-.06,1-.06,1.45s0,1,.06,1.45l-3.75,2.17a2.58,2.58,0,0,0,2.55,4.48l0,0,5.24-3a2.59,2.59,0,0,0,1.24-2.71,12.44,12.44,0,0,1,0-4.71,2.58,2.58,0,0,0-1.24-2.7l-3-1.74L95,118.77l3,1.74a2.57,2.57,0,0,0,3-.27,13,13,0,0,1,4.08-2.35,2.59,2.59,0,0,0,1.73-2.43V112H112v3.48a2.59,2.59,0,0,0,1.72,2.43,12.85,12.85,0,0,1,4.07,2.35,2.58,2.58,0,0,0,3,.27l3-1.74,2.58,4.47-3,1.74a2.57,2.57,0,0,0-1.25,2.7,12.44,12.44,0,0,1,0,4.71,2.58,2.58,0,0,0,1.25,2.71l3,1.73-2.58,4.47-3-1.74a2.6,2.6,0,0,0-3,.28,13,13,0,0,1-4.07,2.35,2.58,2.58,0,0,0-1.72,2.43v3.48h-5.17v-3.48a2.58,2.58,0,0,0-1.72-2.43,13.2,13.2,0,0,1-4.08-2.35,2.58,2.58,0,0,0-3-.28l-5.25,3a2.58,2.58,0,0,0,2.55,4.49l0,0,3.75-2.17a17.5,17.5,0,0,0,2.52,1.45v4.34a2.58,2.58,0,0,0,2.58,2.58Z"/><path class="cls-3" d="M117.14,130a7.74,7.74,0,1,0-7.74,7.74A7.74,7.74,0,0,0,117.14,130Zm-10.32,0a2.58,2.58,0,1,1,2.58,2.58A2.57,2.57,0,0,1,106.82,130Z"/><path class="cls-3" d="M112,163.58h31a10.32,10.32,0,0,0,10.32-10.32V148.1a2.58,2.58,0,0,0-5.16,0v5.16a5.16,5.16,0,0,1-5.16,5.16H112a2.58,2.58,0,1,0,0,5.16Z"/><path class="cls-3" d="M65.54,153.26a7.74,7.74,0,1,0,7.74-7.74A7.74,7.74,0,0,0,65.54,153.26Zm10.32,0a2.58,2.58,0,1,1-2.58-2.58A2.59,2.59,0,0,1,75.86,153.26Z"/></g></g></g></svg>