<svg xmlns="http://www.w3.org/2000/svg" viewBox="0 0 453.07 381.48"><defs><style>.cls-1{fill:#eeefef;}.cls-2{fill:#e5e6e7;}.cls-3{fill:#fbfbfb;}.cls-4{fill:#f6f7f7;}.cls-5{fill:#4d575c;}.cls-6{fill:#a4c9ca;}.cls-7{fill:#65a4a5;}.cls-8{fill:#455a64;}.cls-9{fill:#0f7173;}.cls-10{opacity:0.6;}.cls-11{fill:#fff;}.cls-12,.cls-16{opacity:0.3;}.cls-13,.cls-14,.cls-16{fill:#263238;}.cls-14{opacity:0.5;}.cls-15{opacity:0.4;}</style></defs><title>notfound</title><g id="Layer_2" data-name="Layer 2"><g id="Background_Complete" data-name="Background Complete"><rect class="cls-1" x="144.08" y="293.11" width="104.15" height="80.33"/><path class="cls-2" d="M222.14,372.87c-.14,0-.26-17.9-.26-40s.12-40,.26-40,.26,17.9.26,40S222.29,372.87,222.14,372.87Z"/><rect class="cls-3" x="231.42" y="355.15" width="7.98" height="9.03"/><rect class="cls-2" x="175.86" y="293.31" width="11.83" height="17.14"/><rect class="cls-2" x="175.86" y="356.06" width="11.83" height="17.14"/><rect class="cls-1" x="305.89" y="272.97" width="131.33" height="101.29"/><path class="cls-2" d="M404.32,373.54c-.15,0-.26-22.58-.26-50.42s.11-50.43.26-50.43.26,22.57.26,50.43S404.46,373.54,404.32,373.54Z"/><rect class="cls-3" x="416.02" y="351.2" width="10.07" height="11.38"/><rect class="cls-2" x="345.96" y="273.23" width="14.92" height="21.61"/><rect class="cls-2" x="345.96" y="352.34" width="14.92" height="21.61"/><path class="cls-1" d="M58.53,276c5.32-2.75,11.58-3.1,17.48-2.13,3.17.53,6.47,1.47,8.63,3.86s2.57,6.57.09,8.61c-1.47,1.22-3.53,1.41-5.44,1.38-4.62-.05-9.75-.86-13.44,1.92-2.1,1.58-3.51,4.22-6,5s-5.24-.69-6.55-2.92a10.13,10.13,0,0,1-.74-7.5A11.45,11.45,0,0,1,58.53,276Z"/><path class="cls-1" d="M46.36,252.44c3.25,4.64,9.56,3.1,12.49.27s4.17-6.94,5.3-10.86c2.57-8.94,5.17-18.33,3.25-27.44A15.23,15.23,0,0,0,63.9,207a8,8,0,0,0-7.55-2.52c-3.19.84-5.17,4-6.6,6.93a65.44,65.44,0,0,0-6.46,28.08c0,4.52.52,9.26,3.07,13"/><path class="cls-1" d="M37.43,259.1c3.53-4.19,4.2-10.3,2.63-15.55s-5.12-9.71-9.21-13.35a49.53,49.53,0,0,0-16.48-9.73A17.74,17.74,0,0,0,7,219.21,7.8,7.8,0,0,0,.73,223C-1,226.29.66,230.3,2.46,233.57a124.93,124.93,0,0,0,10.83,16.49c3.24,4.19,7,8.31,11.91,10.21s10.08,1.66,12.7-1.77"/><path class="cls-2" d="M46.14,322.46a10.11,10.11,0,0,0,.29-2.11c.15-1.53.34-3.46.56-5.75a81.65,81.65,0,0,1,1.3-8.45,65.89,65.89,0,0,1,3.06-10,36.77,36.77,0,0,1,5.09-9,19,19,0,0,1,6.44-5.35,18.3,18.3,0,0,1,5.42-1.69,9.88,9.88,0,0,0,2.1-.3,9.85,9.85,0,0,0-2.14,0,16.2,16.2,0,0,0-5.65,1.47,18.91,18.91,0,0,0-6.79,5.39,35.89,35.89,0,0,0-5.27,9.2,61,61,0,0,0-3,10.13,70.79,70.79,0,0,0-1.12,8.55c-.19,2.44-.25,4.42-.29,5.79A9.56,9.56,0,0,0,46.14,322.46Z"/><path class="cls-2" d="M46.53,318a4.17,4.17,0,0,0,.06-1c0-.73,0-1.66,0-2.8,0-2.43,0-5.94.13-10.28.21-8.68,1-18,2.4-31.2,1.37-12.38,3.21-26.8,5.14-36.17.42-2.13.83-4,1.23-5.73s.69-3.13,1-4.3.49-2,.66-2.73a4,4,0,0,0,.17-1,3.79,3.79,0,0,0-.34.92l-.81,2.68c-.36,1.16-.73,2.6-1.15,4.28s-.91,3.59-1.36,5.71A314.94,314.94,0,0,0,48.25,270c-1.45,13.2-2.1,25.21-2.16,33.92-.05,4.35,0,7.87.15,10.3.07,1.14.13,2.06.17,2.8A4.14,4.14,0,0,0,46.53,318Z"/><path class="cls-2" d="M46.59,294.85a18.64,18.64,0,0,0,0-2.92c-.11-1.88-.37-4.6-.89-7.92a106.81,106.81,0,0,0-2.58-11.54,94,94,0,0,0-4.83-13.66A72.68,72.68,0,0,0,24.1,236.74a36.42,36.42,0,0,0-3.33-3.1c-.52-.43-1-.86-1.43-1.2l-1.29-.89A18.88,18.88,0,0,0,15.59,230c-.14.19,3.49,2.32,8.07,7.2a76.6,76.6,0,0,1,13.81,22,107.37,107.37,0,0,1,4.86,13.53c1.26,4.24,2.1,8.14,2.74,11.42s1,6,1.16,7.85A19.68,19.68,0,0,0,46.59,294.85Z"/><polygon class="cls-1" points="22.64 332.22 24.96 364.04 65.84 364.04 68.16 332.22 22.64 332.22"/><rect class="cls-1" x="18.69" y="319.68" width="54.35" height="12.54"/><polygon class="cls-2" points="18.69 362.82 18.69 366.3 21.24 366.3 72.14 366.3 72.14 362.82 18.69 362.82"/><polygon class="cls-2" points="23.74 372.03 21.24 365.91 70.19 365.91 67.27 372.03 23.74 372.03"/><path class="cls-4" d="M67.4,342.62s-.05.11-.19.29l-.61.81-2.38,3-.11.13-.1-.14c-1.5-2.07-3.5-4.83-5.85-8.09h.34l-5.76,8.16-.18.25-.21-.24-6.83-8.12h.4l-.38.47-6.11,7.66-.2.26-.19-.27-5.76-8.15h.33l-7.1,8.09-.12.14-.1-.16L24.07,343l-.57-1c-.13-.23-.19-.35-.17-.35a1.42,1.42,0,0,1,.23.31l.63,1,2.34,3.66h-.22c1.81-2.14,4.18-4.91,7-8.19l.18-.2.15.22c1.77,2.47,3.73,5.19,5.82,8.12l-.39,0,6.09-7.66.38-.48.19-.24.2.24,6.81,8.14-.38,0c2.1-2.94,4.06-5.67,5.82-8.12l.17-.24.17.24,5.72,8.18H64l2.48-3,.67-.77C67.31,342.7,67.39,342.61,67.4,342.62Z"/><path class="cls-4" d="M68.73,332c0,.14-10.24.25-22.88.25S23,332.15,23,332s10.24-.25,22.87-.25S68.73,331.87,68.73,332Z"/></g><g id="Floor"><path class="cls-5" d="M441.73,373.71c0,.14-96.11.26-214.65.26s-214.66-.12-214.66-.26,96.09-.26,214.66-.26S441.73,373.56,441.73,373.71Z"/></g><g id="Character"><path class="cls-5" d="M126.28,6.71a31.87,31.87,0,0,1,7.22,20.45c-.05,4.22-.82,8.87,1.63,12.3,1.86,2.61,5.26,3.91,6.77,6.73,1.82,3.4.27,7.68,1.39,11.37C144.88,62.78,151,65,154.62,69a14.5,14.5,0,0,1,3,13.27,15,15,0,0,1-9.37,9.93,9.7,9.7,0,0,1-7.43-.13c-2.45-1.22-4-3.73-5.19-6.18-2.42-4.81-23.59-30.87-24.79-36.12"/><path class="cls-5" d="M110.88.56c-8.66-1.39-17,4.36-20.63,12.33s-3.74,17-4,25.81-.89,17.91-5.36,25.46c-2.84,4.78-7.24,9-7.93,14.5-.61,5,1.94,9.93,1.09,14.84-.73,4.27-4,8-3.86,12.33.15,5.22,5.52,9.15,10.74,9.29s10.09-2.6,14.18-5.84A54.68,54.68,0,0,0,110.67,89.5"/><path class="cls-6" d="M96.64,21.21A16.39,16.39,0,0,1,111.37,2.85c8.74-.83,16.5,5.68,17.81,14.35,1.15,7.61,2.14,15.29,2.1,18.08-.11,8.42-5,11.69-7,12.67a10.45,10.45,0,0,1-2.22.55h0a.06.06,0,0,0,0,.07l1.87,9.66c.84,6.32-2.69,12-9,12.89s-11.29-3.94-12.25-10.27Z"/><path class="cls-5" d="M127.46,20.89c-.14.2-1.25-.4-2.67-.19s-2.36,1.08-2.54.93,0-.41.44-.8a3.65,3.65,0,0,1,2-1,3.57,3.57,0,0,1,2.16.37C127.34,20.51,127.53,20.8,127.46,20.89Z"/><path class="cls-5" d="M114.8,24c-.14.19-1.25-.4-2.67-.19s-2.37,1.07-2.55.92,0-.4.45-.8a3.71,3.71,0,0,1,2-.95,3.57,3.57,0,0,1,2.16.36C114.67,23.59,114.87,23.88,114.8,24Z"/><path class="cls-5" d="M120,31.6a9.88,9.88,0,0,1,2.25-.76c.36-.09.69-.21.72-.47a1.85,1.85,0,0,0-.4-1l-1.48-2.61c-2.07-3.72-3.62-6.81-3.47-6.89s2,2.87,4,6.6c.5.91,1,1.79,1.43,2.63a2.09,2.09,0,0,1,.4,1.4.94.94,0,0,1-.52.62,2.41,2.41,0,0,1-.6.17A9.5,9.5,0,0,1,120,31.6Z"/><path class="cls-7" d="M122,48.51s-5.43,1.25-12.91-1.88c0,0,3.22,7,13.41,4.48Z"/><path class="cls-5" d="M114.08,20.24c-.08.4-1.53.43-3.17.87s-2.93,1.1-3.2.78c-.12-.15.06-.55.55-1a5.6,5.6,0,0,1,2.28-1.19,5.39,5.39,0,0,1,2.57-.07C113.76,19.78,114.12,20,114.08,20.24Z"/><path class="cls-5" d="M126.29,17.73c-.2.36-1.23.17-2.41.33s-2.15.53-2.43.23c-.12-.15,0-.5.38-.87a3.35,3.35,0,0,1,1.88-.81,3.25,3.25,0,0,1,2,.37C126.2,17.25,126.38,17.56,126.29,17.73Z"/><path class="cls-5" d="M111.71,25.8a1.19,1.19,0,0,0,1.35,1,1.13,1.13,0,0,0,1-1.28,1.19,1.19,0,0,0-1.35-1A1.14,1.14,0,0,0,111.71,25.8Z"/><path class="cls-5" d="M124.32,23.08a1.18,1.18,0,0,0,1.35,1,1.14,1.14,0,0,0,1-1.28,1.2,1.2,0,0,0-1.35-1A1.14,1.14,0,0,0,124.32,23.08Z"/><path class="cls-7" d="M122.23,34.37a1.79,1.79,0,0,0-2.08.86,1.83,1.83,0,0,0,.26,2.12,1.6,1.6,0,0,0,2.07.15,2,2,0,0,0,.66-1.36,1.9,1.9,0,0,0-.33-1.36,1.11,1.11,0,0,0-1.27-.39"/><path class="cls-5" d="M128.07,10.4a12.93,12.93,0,0,0-5.48-7.71A14.38,14.38,0,0,0,114.93,0a10.44,10.44,0,0,0-7.53,2.73,7.83,7.83,0,0,0-2.29,5.42l.16-1.4a5.07,5.07,0,0,0,0,3.52h0c.23.61.51,1.22.76,1.84a7.86,7.86,0,0,0,3.73,4.06,5.14,5.14,0,0,0,2.5.61,3,3,0,0,0,2.27-1.1,5.06,5.06,0,0,0,.54-3.59,8.77,8.77,0,0,0,2.73,3.06,3,3,0,0,0,3.77-.43c.81-1.06.49-2.58,0-3.83a7.55,7.55,0,0,0,3.12,2.7,2.79,2.79,0,0,0,2.23.23,2.15,2.15,0,0,0,1.16-1.5A4.54,4.54,0,0,0,128.07,10.4Z"/><path class="cls-8" d="M120.85,13c-.09,0-.08-1.18-.46-3a11.59,11.59,0,0,0-3.46-6.27,8.3,8.3,0,0,0-3.46-1.87,7.68,7.68,0,0,0-3.22-.08,9.44,9.44,0,0,0-2.78,1.16s.17-.26.61-.57a6.32,6.32,0,0,1,2.09-1,7.49,7.49,0,0,1,3.41,0,8.4,8.4,0,0,1,3.7,1.94,11.22,11.22,0,0,1,3.47,6.59,13.36,13.36,0,0,1,.18,2.27A2.5,2.5,0,0,1,120.85,13Z"/><path class="cls-6" d="M213,129.6,174.5,114.36S154.8,88.53,155.21,88l-13.83,15.14,20.1,27.2,46.57,10.9,22,.18C228.39,133,213,129.6,213,129.6Z"/><path class="cls-9" d="M129.14,55.91l-5.24-2-22.62,2.87v4l-.64.08a46.34,46.34,0,0,0-13.86,5.38,23.64,23.64,0,0,0-11,24.07C76.66,96,78.44,103,81.88,107c6.57,7.68,12.57-1.81,12.57-1.81s4.12,9.4,3.88,13.85c-.19,3.72-1.84,11.49-2.37,13.91a.74.74,0,0,0,.59.88l47.72,8.82L144.5,131,143,83l-2.1-18.64S140.94,55.45,129.14,55.91Z"/><polygon class="cls-9" points="140.15 61.26 158.34 87.54 143.69 105.39 140.15 61.26"/><path class="cls-5" d="M144.05,116.58a10.46,10.46,0,0,1-.08-1.7c0-1.18,0-2.74-.05-4.62a145.66,145.66,0,0,0-1.09-15.18c-.76-5.89-1.9-11.16-2.78-15-.43-1.84-.79-3.35-1.06-4.5a9.23,9.23,0,0,1-.33-1.66,11.21,11.21,0,0,1,.53,1.61c.31,1.05.73,2.57,1.22,4.46a122.6,122.6,0,0,1,2.93,15,117.85,117.85,0,0,1,.95,15.24c0,1.95,0,3.53-.11,4.62A11.84,11.84,0,0,1,144.05,116.58Z"/><path class="cls-3" d="M99.28,76.61c0,.08-1.38.06-3.6.18a56.35,56.35,0,0,0-16.89,3.5c-2.08.77-3.34,1.33-3.38,1.26a4,4,0,0,1,.84-.5c.55-.29,1.37-.67,2.4-1.1a46.32,46.32,0,0,1,17-3.53c1.11,0,2,0,2.64.06A3.45,3.45,0,0,1,99.28,76.61Z"/><path class="cls-3" d="M141.42,88.64a8.63,8.63,0,0,1-2.27.49,49.05,49.05,0,0,1-5.57.51,50.23,50.23,0,0,1-5.6-.12,8.81,8.81,0,0,1-2.29-.34,11,11,0,0,1,2.31,0c1.43,0,3.39,0,5.56,0s4.13-.23,5.55-.35A12.77,12.77,0,0,1,141.42,88.64Z"/><path class="cls-3" d="M149.77,76.74a13.53,13.53,0,0,1-3.9,3.16,14.14,14.14,0,0,1-4.59,2c-.06-.14,2-1,4.32-2.48S149.67,76.63,149.77,76.74Z"/><path class="cls-3" d="M142.42,64.55a15.32,15.32,0,0,1-5.3,3.38A15.54,15.54,0,0,1,131,69.39c0-.16,2.75-.59,5.91-1.94S142.32,64.42,142.42,64.55Z"/><path class="cls-3" d="M143.41,109a4.1,4.1,0,0,1-.94.5c-.62.29-1.54.67-2.69,1.09a49.38,49.38,0,0,1-18.87,2.9c-1.22-.06-2.21-.14-2.89-.24a3.51,3.51,0,0,1-1-.19c0-.08,1.51,0,4,.06a61.06,61.06,0,0,0,9.49-.68,59,59,0,0,0,9.25-2.2C142,109.48,143.38,108.91,143.41,109Z"/><path class="cls-3" d="M143.78,122.55s-.14.1-.42.24l-1.27.6c-1.1.52-2.73,1.2-4.77,2s-4.51,1.57-7.29,2.34-5.88,1.42-9.17,1.94-6.45.78-9.32.93-5.48.1-7.66,0-3.93-.26-5.14-.42l-1.38-.19a2.13,2.13,0,0,1-.48-.1,1.68,1.68,0,0,1,.49,0l1.39.1c1.21.1,3,.19,5.14.25s4.75.05,7.61-.09,6-.47,9.27-1,6.35-1.18,9.13-1.89,5.24-1.49,7.29-2.21,3.69-1.34,4.81-1.8l1.3-.51A1.46,1.46,0,0,1,143.78,122.55Z"/><path class="cls-9" d="M56,335.13l-5.4,24.44-9.85,18.09A2.56,2.56,0,0,0,42,381.21h0a2.57,2.57,0,0,0,2.35-.1C48.9,378.46,65.7,368.64,66,366.83c.34-2.1,7.41-25.39,7.41-25.39Z"/><g class="cls-10"><path class="cls-11" d="M42,381.21l24.43-16-.25,1a3.82,3.82,0,0,1-1.49,2.21c-2,1.44-7.56,5.28-20.27,12.7a2.56,2.56,0,0,1-2.42.08Z"/></g><g class="cls-10"><path class="cls-11" d="M63.34,356.13a1.54,1.54,0,0,0-.9,1.86,1.49,1.49,0,0,0,1.84.91,1.64,1.64,0,0,0,.94-2,1.54,1.54,0,0,0-2-.72"/></g><path class="cls-5" d="M50.13,372a7.67,7.67,0,0,0-1.67-2.42,8,8,0,0,0-2.66-1.22c0-.06.34-.17.93-.12a4.07,4.07,0,0,1,2.09.92,4,4,0,0,1,1.26,1.9C50.25,371.58,50.2,372,50.13,372Z"/><path class="cls-5" d="M47.6,374.79c-.14.07-.73-.91-1.9-1.58a20.78,20.78,0,0,0-2.29-.88,2.84,2.84,0,0,1,2.57.41C47.31,373.51,47.74,374.75,47.6,374.79Z"/><path class="cls-5" d="M54.38,368.58A25.68,25.68,0,0,0,51.61,366a24.74,24.74,0,0,0-3.4-1.72,5.64,5.64,0,0,1,3.72,1.27A5.71,5.71,0,0,1,54.38,368.58Z"/><path class="cls-5" d="M56.64,361.29c-.1.13-1.31-.76-3-1.25s-3.22-.42-3.23-.58a4.93,4.93,0,0,1,3.39.05A4.91,4.91,0,0,1,56.64,361.29Z"/><path class="cls-5" d="M58.41,354.16a12.44,12.44,0,0,0-3.13-1.39,12.21,12.21,0,0,0-3.42,0c0-.06.31-.3,1-.49a5.59,5.59,0,0,1,4.92,1C58.24,353.75,58.46,354.11,58.41,354.16Z"/><path class="cls-5" d="M55.66,351.42a2.12,2.12,0,0,1,.19-.93,6.66,6.66,0,0,1,1.32-2.23,2.92,2.92,0,0,1,1.55-1.05,1,1,0,0,1,1.07.5,1.7,1.7,0,0,1,.12,1.19A3.63,3.63,0,0,1,56,351.4a4.18,4.18,0,0,1-3.48-3.12,1.43,1.43,0,0,1,.22-1.19,1,1,0,0,1,1.15-.27,3.55,3.55,0,0,1,1.4,1.22,7.21,7.21,0,0,1,1.19,2.3,2.25,2.25,0,0,1,.17.93,11.65,11.65,0,0,0-1.66-3,3.39,3.39,0,0,0-1.25-1,.54.54,0,0,0-.63.14,1,1,0,0,0-.1.8,3.77,3.77,0,0,0,3.06,2.67,3.15,3.15,0,0,0,3.32-2.08,1.22,1.22,0,0,0,0-.83.56.56,0,0,0-.59-.29,2.72,2.72,0,0,0-1.33.87A9.52,9.52,0,0,0,55.66,351.42Z"/><g class="cls-12"><polygon class="cls-13" points="55.41 337.78 54.24 343.39 71.93 346.32 73.41 341.44 56.04 335.13 55.41 337.78"/></g><path class="cls-9" d="M135.1,344.17l-1.47,19.53s19.36,8,19.44,11.67l-38-1.47,1-30.51Z"/><g class="cls-10"><path class="cls-11" d="M122,361.6a1.56,1.56,0,0,0-1.14,1.73,1.49,1.49,0,0,0,1.7,1.14,1.63,1.63,0,0,0,1.2-1.83,1.55,1.55,0,0,0-1.9-1"/></g><g class="cls-10"><path class="cls-11" d="M115.11,373.9l.23-3.07,36.31,2.56s1.66.8,1.42,2Z"/></g><path class="cls-5" d="M134.26,363.53c0,.18-.95.23-1.88.79s-1.45,1.32-1.62,1.24.15-1.14,1.29-1.8S134.3,363.36,134.26,363.53Z"/><path class="cls-5" d="M138.18,365.33c0,.18-.78.47-1.44,1.23s-.88,1.58-1.06,1.56-.26-1.07.57-2S138.18,365.15,138.18,365.33Z"/><path class="cls-5" d="M140.25,370.18c-.17,0-.39-.9.12-1.9s1.4-1.36,1.47-1.21-.48.68-.89,1.51S140.44,370.17,140.25,370.18Z"/><path class="cls-5" d="M134.1,359c-.09.17-.93-.12-2-.09s-1.88.33-2,.17.72-.8,2-.81S134.19,358.9,134.1,359Z"/><g class="cls-12"><polygon class="cls-13" points="134.8 348.04 134.55 351.52 115.9 350.63 116.02 346.6 134.8 348.04"/></g><path class="cls-5" d="M134.32,355.1a3.53,3.53,0,0,1-1.9-.09,8.73,8.73,0,0,1-2-.68,10.87,10.87,0,0,1-1.07-.62,2.51,2.51,0,0,1-.55-.47.81.81,0,0,1-.05-1,1,1,0,0,1,.83-.4,2.81,2.81,0,0,1,.71.13,7.18,7.18,0,0,1,1.16.45,6.6,6.6,0,0,1,1.71,1.22c.85.85,1.13,1.55,1.06,1.59s-.49-.54-1.36-1.25a7.76,7.76,0,0,0-1.66-1,6.86,6.86,0,0,0-1.08-.38c-.4-.12-.74-.14-.85,0s0,.09,0,.21a2.55,2.55,0,0,0,.41.35,10.44,10.44,0,0,0,2.8,1.38A13.43,13.43,0,0,1,134.32,355.1Z"/><path class="cls-5" d="M134.07,355.35a3,3,0,0,1-.43-1.85,6.08,6.08,0,0,1,.34-2.07,5.82,5.82,0,0,1,.53-1.14,1.55,1.55,0,0,1,1.25-.91.9.9,0,0,1,.77.56,2.91,2.91,0,0,1,.17.71,4.52,4.52,0,0,1,0,1.28,4.38,4.38,0,0,1-.89,1.93c-.78.95-1.56,1.14-1.57,1.08s.6-.43,1.2-1.35a4.38,4.38,0,0,0,.67-1.76,4,4,0,0,0,0-1.1c0-.41-.18-.74-.33-.7s-.53.28-.69.59a6,6,0,0,0-.51,1,6.76,6.76,0,0,0-.45,1.89C134,354.63,134.17,355.33,134.07,355.35Z"/><path class="cls-5" d="M95.8,133.66s-6,.26-10,20.79S51.3,341.24,51.3,341.24l22.11.2,41.7-158.08-2.77,163L134.8,348s16.86-180.28,17-190.77C152,144.19,144.5,131,144.5,131Z"/><path class="cls-8" d="M126.18,131.9c.14,0-2.15,11.76-5.12,26.19s-5.5,26.11-5.64,26.08,2.16-11.75,5.13-26.19S126,131.87,126.18,131.9Z"/><path class="cls-8" d="M129.63,134.83c0-.05.6-.24,1.28.37a1.87,1.87,0,0,1,.61,1.42,1.82,1.82,0,0,1-1.14,1.52,1.79,1.79,0,0,1-1.87-.25,1.85,1.85,0,0,1-.59-1.42c0-.92.62-1.25.63-1.18a2.59,2.59,0,0,0-.27,1.17,1.59,1.59,0,0,0,.54,1.06,1.43,1.43,0,0,0,2.22-.93,1.57,1.57,0,0,0-.39-1.13C130.16,134.9,129.62,134.92,129.63,134.83Z"/><path class="cls-8" d="M128.67,143c0-.07.62,0,1,.83a1.77,1.77,0,0,1-.06,1.47,1.77,1.77,0,0,1-3.11-.24,1.77,1.77,0,0,1,.17-1.46c.47-.75,1.11-.74,1.09-.68s-.47.21-.76.85a1.44,1.44,0,0,0,0,1.12,1.24,1.24,0,0,0,1.07.7,1.21,1.21,0,0,0,1.17-.53,1.42,1.42,0,0,0,.13-1.11C129.1,143.23,128.63,143,128.67,143Z"/><path class="cls-8" d="M107.48,135a3,3,0,0,1-.26,1,16.45,16.45,0,0,1-1.16,2.65,19.45,19.45,0,0,1-15.39,10.14,16.64,16.64,0,0,1-2.89,0,3.71,3.71,0,0,1-1-.17c0-.1,1.51.08,3.9-.23a20.33,20.33,0,0,0,15.11-9.95C107,136.45,107.39,135,107.48,135Z"/><path class="cls-8" d="M150.5,149.62s-.26-.11-.66-.4a11.8,11.8,0,0,1-1.61-1.37,17,17,0,0,1-3.76-5.84,16.77,16.77,0,0,1-1.13-6.85,12.2,12.2,0,0,1,.27-2.1,2.45,2.45,0,0,1,.22-.74c.1,0-.12,1.1-.12,2.85a18.54,18.54,0,0,0,4.79,12.43C149.68,148.89,150.56,149.55,150.5,149.62Z"/><path class="cls-6" d="M87,94.11l9.83.55a49.67,49.67,0,0,0,2.77,8c7.91-13.73,14-32.11,15.56-39.5-.22-.74-.48-1.56-.81-2.47s-.06-3.05.12-4.15c.27-1.65.73-3.86.87-4.89.42-3.12.92-3.61,2-3.26,1.48.48-.61,8.77.61,9,.65.1,1.45-2.74,1.68-5.07s1.28-9.5,2-10c1.13-.7,2.12.41,1.83,2.73s-.65,9.35.58,9.45,2.23-11.79,2.23-11.79-.19-2.59,1.24-2.52c2.57.11.56,12.63.34,13.82-.16.83,1.18,1,1.3.08s.74-11.88,3.36-11.79c2,.06-1.56,10.32-.43,12.7s1.91-8.08,3.83-7.93c.71,0,1.24.19-.07,6.11a135.6,135.6,0,0,1-4.59,13.86c-3,16.4-16.38,68.86-37.3,59.26-11.71-5.38-17.17-32-17.17-32Z"/><path class="cls-7" d="M131.31,67.07a2,2,0,0,1,.1-.36c.09-.27.21-.61.35-1,.33-.94.79-2.27,1.37-4s1.3-3.83,2-6.31c.37-1.24.66-2.58.94-4,.13-.72.27-1.46.35-2.22a6.22,6.22,0,0,0,0-1.14c0-.39-.09-.71-.39-.71s-.53.18-.75.51a5.93,5.93,0,0,0-.5,1.11c-.28.78-.5,1.62-.72,2.48s-.42,1.74-.68,2.64a3.89,3.89,0,0,1-.6,1.38.48.48,0,0,1-.27.16.49.49,0,0,1-.38-.08,1.22,1.22,0,0,1-.27-.38,2.7,2.7,0,0,1-.21-.76,24.61,24.61,0,0,1,.59-6c.17-1,.35-2,.48-3a13.33,13.33,0,0,0,.13-1.54c0-.48-.07-1.12-.27-1.21s-.72.19-1,.62a6.35,6.35,0,0,0-.65,1.42,20.48,20.48,0,0,0-.77,3.2c-.19,1.1-.34,2.22-.46,3.36-.06.57-.12,1.14-.17,1.71l-.08.87a1.3,1.3,0,0,1-.39,1,1,1,0,0,1-1.19,0,.87.87,0,0,1-.36-.57,1.12,1.12,0,0,1,0-.32l0-.22c.09-.58.17-1.16.26-1.75.17-1.17.31-2.36.43-3.55s.19-2.41.21-3.62a12.31,12.31,0,0,0-.35-3.56,1.21,1.21,0,0,0-.51-.72.61.61,0,0,0-.67.21,3.3,3.3,0,0,0-.38,1.94v0h0c-.21,2.35-.47,4.66-.81,6.93-.17,1.14-.36,2.26-.64,3.37-.07.28-.16.56-.26.84a1.8,1.8,0,0,1-.56.86.62.62,0,0,1-.74-.16,1.84,1.84,0,0,1-.27-.45,4.11,4.11,0,0,1-.22-.87,31.94,31.94,0,0,1-.06-6.55,18.11,18.11,0,0,0,.16-3.06,1.68,1.68,0,0,0-.56-1.14.65.65,0,0,0-.51-.08,1,1,0,0,0-.28.12c-.09.07-.07,0-.14.17a13.74,13.74,0,0,0-.79,2.78c-.2,1-.36,1.91-.52,2.85s-.29,1.87-.4,2.78-.19,1.83-.37,2.72a15,15,0,0,1-.7,2.59,4.85,4.85,0,0,1-.29.61c-.14.19-.22.44-.6.55a.52.52,0,0,1-.51-.21,1.25,1.25,0,0,1-.15-.37,3.17,3.17,0,0,1-.09-.67c0-1.7.24-3.26.32-4.77a12.09,12.09,0,0,0,0-2.17c-.05-.32-.15-.7-.34-.78a.92.92,0,0,0-.81,0,2.84,2.84,0,0,0-.74,1.63c-.14.62-.21,1.23-.32,1.83-.42,2.36-.86,4.39-1.07,6a7.86,7.86,0,0,0,0,2.21c.14.6.34,1.14.46,1.56s.21.71.28,1a1.58,1.58,0,0,1,.08.34,1.58,1.58,0,0,1-.14-.32c-.08-.24-.2-.56-.34-.95s-.35-.91-.52-1.56a8.06,8.06,0,0,1,0-2.26c.18-1.69.58-3.71,1-6.08.1-.59.16-1.22.3-1.85a7,7,0,0,1,.26-1,1.75,1.75,0,0,1,.63-.92,1.29,1.29,0,0,1,1.18,0c.47.26.48.71.57,1.07a12.07,12.07,0,0,1,0,2.25c-.08,1.52-.31,3.12-.28,4.73a3.54,3.54,0,0,0,.07.58c0,.19.14.26.12.23a.9.9,0,0,0,.28-.33,4,4,0,0,0,.25-.55,14.1,14.1,0,0,0,.66-2.5c.16-.86.22-1.76.34-2.69s.25-1.86.4-2.8.31-1.91.5-2.87a14.38,14.38,0,0,1,.84-3,1,1,0,0,1,.35-.38,2,2,0,0,1,.42-.18,1.25,1.25,0,0,1,1,.15,2.18,2.18,0,0,1,.81,1.53,5.93,5.93,0,0,1,0,1.63c-.06.52-.1,1-.14,1.56a32,32,0,0,0,.07,6.41,3.34,3.34,0,0,0,.19.74.89.89,0,0,0,.15.26s0,0,.05,0h0c0,.24,0,.05,0,.1a.63.63,0,0,0,0-.09,1.84,1.84,0,0,0,.29-.55c.08-.25.16-.5.23-.77.27-1.07.46-2.18.63-3.31.33-2.25.58-4.55.79-6.89v0a3.83,3.83,0,0,1,.51-2.37,1.22,1.22,0,0,1,1.39-.41,1.7,1.7,0,0,1,.86,1.09,12.29,12.29,0,0,1,.39,3.78c0,1.23-.11,2.46-.22,3.66s-.26,2.41-.43,3.59l-.27,1.77c-.08.37-.06.38.05.49a.42.42,0,0,0,.47,0c.13-.08.14-.26.17-.58l.08-.87c0-.58.11-1.16.17-1.73.12-1.15.28-2.28.47-3.4a22.77,22.77,0,0,1,.81-3.28,6.6,6.6,0,0,1,.72-1.55,2.18,2.18,0,0,1,.65-.67,1.11,1.11,0,0,1,1-.15,1.16,1.16,0,0,1,.54.88,5,5,0,0,1,.05.85,12.06,12.06,0,0,1-.13,1.61c-.14,1-.33,2.07-.5,3.07a24.24,24.24,0,0,0-.62,5.8,2,2,0,0,0,.16.61,1,1,0,0,0,.12.2s0,0,0,0,0,0,0,0,0-.05,0-.07a4.08,4.08,0,0,0,.49-1.17c.26-.88.46-1.76.69-2.62a25.35,25.35,0,0,1,.75-2.52A6.69,6.69,0,0,1,135,47.6a2.24,2.24,0,0,1,.46-.53.8.8,0,0,1,.36-.17,1,1,0,0,1,.38,0,.77.77,0,0,1,.63.47,1.8,1.8,0,0,1,.13.66,8,8,0,0,1-.07,1.21c-.09.78-.23,1.52-.38,2.24a39.84,39.84,0,0,1-1,4c-.74,2.48-1.49,4.57-2.11,6.29s-1.13,3-1.48,3.92c-.17.42-.3.75-.41,1A1.42,1.42,0,0,1,131.31,67.07Z"/><path class="cls-9" d="M76.73,95.25c1.9,6.7,5.61,17.06,9.6,28a1.89,1.89,0,0,0,3.49.16l9.78-20.68s-2.35-17-2.15-16.4-20.19,2.2-20.19,2.2Z"/><path class="cls-3" d="M98.76,91.91c0,.09-1.21.45-3.15,1.18a46.21,46.21,0,0,0-7.26,3.54,45.53,45.53,0,0,0-6.49,4.81c-1.55,1.37-2.45,2.3-2.51,2.24a3.38,3.38,0,0,1,.55-.72,24.39,24.39,0,0,1,1.71-1.8,37.4,37.4,0,0,1,6.47-5,37,37,0,0,1,7.4-3.44c1-.33,1.81-.56,2.38-.69A3.28,3.28,0,0,1,98.76,91.91Z"/><path class="cls-5" d="M102.64,97.07A10.54,10.54,0,0,1,101,94.94a35.28,35.28,0,0,1-5-11.94,10.63,10.63,0,0,1-.36-2.67,20.36,20.36,0,0,1,.72,2.58,47.58,47.58,0,0,0,4.9,11.83A21.11,21.11,0,0,1,102.64,97.07Z"/><path class="cls-5" d="M109.17,5.46a22,22,0,0,0-1.92,18.81c1,2.74,2.6,5.46,2.31,8.37s-2.56,5.81-1.76,8.7c.47,1.71,1.94,3,2.5,4.66.66,2,0,4.1-.34,6.16-.8,5.24.87,10.5,1.29,15.78s-1,11.47-5.73,13.77c-1.43.71-3.3.91-4.49-.16-1.51-1.36-1.09-3.79-.68-5.79,4.14-20-8.65-39.52-5.73-59.76.47-3.24,2.28-8.75,4.62-11s8.79-2,11,.4"/><path class="cls-8" d="M89.47,63.47s.6-.72,1.5-2.14a19.21,19.21,0,0,0,2.61-6.54,19.52,19.52,0,0,0,.31-4.87,51.3,51.3,0,0,1-.21-5.68,11.8,11.8,0,0,1,.58-3.06,16,16,0,0,1,1.37-2.94c1.12-1.89,2.54-3.66,3.83-5.54a14.94,14.94,0,0,0,2.72-6,18.75,18.75,0,0,0-.34-6.14,22.85,22.85,0,0,1-.45-5.68,19.64,19.64,0,0,1,1-4.88,18.94,18.94,0,0,1,3.54-6.22,13.32,13.32,0,0,1,1.36-1.4,3.21,3.21,0,0,1,.53-.43s-.68.65-1.74,2a19.4,19.4,0,0,0-3.34,6.21,19.08,19.08,0,0,0-.87,4.79,22.22,22.22,0,0,0,.48,5.57,19,19,0,0,1,.38,6.3A15.57,15.57,0,0,1,99.89,33c-1.31,1.9-2.72,3.65-3.82,5.5a15.83,15.83,0,0,0-1.34,2.83,11.76,11.76,0,0,0-.57,2.94,54.22,54.22,0,0,0,.16,5.63,19.16,19.16,0,0,1-.38,5,18.5,18.5,0,0,1-2.8,6.58A18.15,18.15,0,0,1,90,63,4.08,4.08,0,0,1,89.47,63.47Z"/><path class="cls-8" d="M80,65a4.3,4.3,0,0,1,.31-.67c.25-.47.57-1.1,1-1.88.84-1.63,2.1-4,3.33-7A30.78,30.78,0,0,0,87,44.3,19.38,19.38,0,0,0,86.78,41c-.17-1.11-.43-2.24-.59-3.43a9.67,9.67,0,0,1,.07-3.67,6.53,6.53,0,0,1,2-3.21c1.88-1.72,4.16-2.83,5.33-4.84s1.47-4.29,1.77-6.41a26.13,26.13,0,0,1,1.38-6.05,21.47,21.47,0,0,1,2.54-4.77,21,21,0,0,1,5.56-5.44,14.48,14.48,0,0,1,1.83-1.07,4.3,4.3,0,0,1,.67-.31c0,.05-.89.49-2.39,1.54a22,22,0,0,0-5.37,5.49,21.54,21.54,0,0,0-2.43,4.72,24.84,24.84,0,0,0-1.31,5.95,16.73,16.73,0,0,1-1.81,6.62c-1.28,2.16-3.63,3.3-5.42,4.95a6.12,6.12,0,0,0-1.89,3,9.41,9.41,0,0,0-.07,3.47c.16,1.16.42,2.29.59,3.43a21.33,21.33,0,0,1,.23,3.36,30.42,30.42,0,0,1-2.58,11.25,68.89,68.89,0,0,1-3.49,7l-1.06,1.83A3.27,3.27,0,0,1,80,65Z"/></g><g id="Plant"><path class="cls-5" d="M410.85,347.54a2.53,2.53,0,0,1,.17-.43l.57-1.2a31.07,31.07,0,0,0,1.66-4.84c1.1-4.3,1.49-10.87-.14-18.68a102.41,102.41,0,0,0-3.46-12.54c-1.47-4.45-3.17-9.18-4.56-14.28a55.15,55.15,0,0,1-2.25-16.42c.21-5.81,1.93-11.61,3.82-17.38s3.84-11.43,4.42-17.11a26.07,26.07,0,0,0-3.14-15.81c-2.5-4.61-5.65-8.55-8-12.64a43.94,43.94,0,0,1-4.81-12.15,45.38,45.38,0,0,1-.31-18.83,35,35,0,0,1,2-6.65,2.32,2.32,0,0,1-.12.44c-.1.32-.23.74-.39,1.28a48.24,48.24,0,0,0-1.23,5,46,46,0,0,0,.49,18.69,44,44,0,0,0,4.83,12c2.35,4,5.52,8,8.07,12.63a26.54,26.54,0,0,1,3.23,16.13c-.58,5.78-2.55,11.46-4.43,17.24s-3.59,11.5-3.81,17.21a55.22,55.22,0,0,0,2.2,16.25c1.37,5.09,3.05,9.81,4.5,14.27a100.5,100.5,0,0,1,3.41,12.62c1.58,7.87,1.13,14.5,0,18.82A28.3,28.3,0,0,1,411.7,346l-.63,1.18C410.93,347.41,410.85,347.54,410.85,347.54Z"/><path class="cls-9" d="M403.13,220.24s-4.78-15.3,3.8-24.26a.53.53,0,0,1,.91.26C408.3,198.77,408.87,206.47,403.13,220.24Z"/><path class="cls-5" d="M406,201.08a13.77,13.77,0,0,1-.32,2.82c-.31,1.94-.68,4.23-1.09,6.75s-.76,4.81-1.07,6.75a15.58,15.58,0,0,1-.51,2.79,11.51,11.51,0,0,1,.09-2.84c.15-1.75.46-4.16.9-6.8s.89-5,1.26-6.73A13.13,13.13,0,0,1,406,201.08Z"/><path class="cls-9" d="M408.76,256.34s2.92-15.77,14.7-19.67a.53.53,0,0,1,.68.65C423.37,239.77,420.27,246.84,408.76,256.34Z"/><path class="cls-5" d="M420.25,240.74a13.72,13.72,0,0,1-1.6,2.34l-4.12,5.46c-1.54,2-2.92,3.89-4.11,5.46a15.27,15.27,0,0,1-1.75,2.23,11.66,11.66,0,0,1,1.4-2.47c1-1.47,2.36-3.45,4-5.58s3.13-4,4.27-5.36A12.6,12.6,0,0,1,420.25,240.74Z"/><path class="cls-9" d="M405.57,295.89s-1.77-15.94,8.36-23.1a.53.53,0,0,1,.84.43C414.74,275.79,413.84,283.46,405.57,295.89Z"/><path class="cls-5" d="M412,277.62a13.75,13.75,0,0,1-.85,2.71l-2.36,6.42c-.87,2.4-1.67,4.57-2.34,6.42a15.55,15.55,0,0,1-1,2.64,12.08,12.08,0,0,1,.63-2.77c.49-1.69,1.25-4,2.18-6.5s1.83-4.76,2.52-6.37A13.58,13.58,0,0,1,412,277.62Z"/><path class="cls-9" d="M414.45,335.67s-1.21-16,9.18-22.78a.52.52,0,0,1,.82.46C424.33,315.91,423.15,323.54,414.45,335.67Z"/><path class="cls-5" d="M421.57,317.64a14.2,14.2,0,0,1-.95,2.68c-.75,1.83-1.63,4-2.59,6.33L415.46,333a16.2,16.2,0,0,1-1.12,2.61,11.1,11.1,0,0,1,.72-2.75c.55-1.67,1.39-3.94,2.41-6.42s2-4.68,2.76-6.27A12.81,12.81,0,0,1,421.57,317.64Z"/><path class="cls-9" d="M396.26,206.8S382,199.37,381.77,187a.52.52,0,0,1,.82-.46C384.71,188,390.56,193,396.26,206.8Z"/><path class="cls-5" d="M384.72,191.23a14,14,0,0,1,1.77,2.22l4,5.54,4,5.53a14.8,14.8,0,0,1,1.61,2.33,12.22,12.22,0,0,1-1.95-2.07c-1.12-1.35-2.61-3.26-4.17-5.44s-2.92-4.17-3.87-5.65A12.61,12.61,0,0,1,384.72,191.23Z"/><path class="cls-9" d="M411.52,239.66s-14.64-6.54-15.67-18.91a.53.53,0,0,1,.8-.51C398.85,221.57,405,226.24,411.52,239.66Z"/><path class="cls-5" d="M399.05,224.82a13.7,13.7,0,0,1,1.91,2.12l4.33,5.28,4.35,5.27a16,16,0,0,1,1.76,2.23,11.34,11.34,0,0,1-2.08-1.94c-1.2-1.28-2.8-3.1-4.49-5.18s-3.17-4-4.21-5.4A13.81,13.81,0,0,1,399.05,224.82Z"/><path class="cls-9" d="M403.1,276.32s-10.05-12.49-5.34-24a.53.53,0,0,1,.94-.09C400.05,254.45,403.4,261.4,403.1,276.32Z"/><path class="cls-5" d="M398.76,257.44a13.59,13.59,0,0,1,.73,2.74l1.45,6.68c.55,2.5,1.05,4.75,1.47,6.68a14.6,14.6,0,0,1,.55,2.78,12.14,12.14,0,0,1-1-2.68c-.49-1.68-1.08-4-1.64-6.65s-1-5-1.29-6.73A13.24,13.24,0,0,1,398.76,257.44Z"/><path class="cls-9" d="M413.05,319.46s-14.52-6.79-15.35-19.17a.53.53,0,0,1,.81-.49C400.69,301.16,406.75,305.93,413.05,319.46Z"/><path class="cls-5" d="M400.84,304.42a14,14,0,0,1,1.87,2.14l4.24,5.36c1.59,2,3,3.81,4.26,5.34a14.78,14.78,0,0,1,1.72,2.26,11.65,11.65,0,0,1-2-2c-1.18-1.3-2.75-3.15-4.41-5.25s-3.1-4-4.11-5.47A12,12,0,0,1,400.84,304.42Z"/><path class="cls-5" d="M442,256.42s0,.12,0,.35,0,.62,0,1c-.05,1-.1,2.26-.17,3.89-.19,3.42-.45,8.18-.77,13.88v0c-1,5.8-4,12.23-8,18.47-2.91,4.6-6,8.78-8.6,12.67A89.41,89.41,0,0,0,418,317.41a45.38,45.38,0,0,0-3,7.81c-.25,1-.44,1.71-.55,2.22a3.73,3.73,0,0,1-.22.77,4.59,4.59,0,0,1,.1-.79c.07-.52.23-1.28.45-2.26a41.21,41.21,0,0,1,2.86-7.94A85.43,85.43,0,0,1,424,306.44c2.61-3.91,5.65-8.1,8.54-12.68,3.95-6.21,6.89-12.54,8-18.25v0c.4-5.7.74-10.46,1-13.87.13-1.62.23-2.92.31-3.88,0-.41.07-.74.1-1A1.68,1.68,0,0,1,442,256.42Z"/><path class="cls-9" d="M433.34,292.89s6.15-14.81-1.59-24.51a.53.53,0,0,0-.93.18C430.13,271,428.87,278.65,433.34,292.89Z"/><path class="cls-5" d="M432.22,273.54a12.69,12.69,0,0,1,.48,2.8c.22,1.74.46,4.15.66,6.82s.28,5.1.28,6.85a11.77,11.77,0,0,1-.18,2.84,17.11,17.11,0,0,1-.25-2.83c-.13-2-.28-4.27-.45-6.82s-.34-4.85-.48-6.82A13.06,13.06,0,0,1,432.22,273.54Z"/><g class="cls-12"><path class="cls-13" d="M433.34,292.89s6.15-14.81-1.59-24.51a.53.53,0,0,0-.93.18C430.13,271,428.87,278.65,433.34,292.89Z"/></g><path class="cls-9" d="M414.28,328.57s4.93-15.26-3.57-24.3a.53.53,0,0,0-.91.26C409.32,307.05,408.67,314.74,414.28,328.57Z"/><path class="cls-5" d="M411.6,309.38a13.42,13.42,0,0,1,.71,2.75c.36,1.72.8,4.1,1.2,6.75s.7,5.05.84,6.8a12.26,12.26,0,0,1,.06,2.84,14.33,14.33,0,0,1-.48-2.79c-.29-2-.63-4.24-1-6.76s-.73-4.82-1-6.76A14,14,0,0,1,411.6,309.38Z"/><g class="cls-12"><path class="cls-13" d="M414.28,328.57s4.93-15.26-3.57-24.3a.53.53,0,0,0-.91.26C409.32,307.05,408.67,314.74,414.28,328.57Z"/></g><path class="cls-9" d="M441.17,274.79s13.14-9.19,11.81-21.53a.53.53,0,0,0-.88-.35C450.19,254.63,445,260.38,441.17,274.79Z"/><g class="cls-12"><path class="cls-13" d="M441.17,274.79s13.14-9.19,11.81-21.53a.53.53,0,0,0-.88-.35C450.19,254.63,445,260.38,441.17,274.79Z"/></g><path class="cls-5" d="M450.6,257.87a12.39,12.39,0,0,1-1.09,2.62c-.75,1.59-1.83,3.75-3.11,6.1s-2.49,4.45-3.43,5.94a12.29,12.29,0,0,1-1.67,2.3,16.3,16.3,0,0,1,1.3-2.52c.95-1.73,2-3.76,3.28-6s2.32-4.28,3.25-6A14.08,14.08,0,0,1,450.6,257.87Z"/><path class="cls-9" d="M419.58,313.45s15.84-2.47,20.09-14.14a.54.54,0,0,0-.64-.7C436.56,299.32,429.4,302.21,419.58,313.45Z"/><g class="cls-12"><path class="cls-13" d="M419.58,313.45s15.84-2.47,20.09-14.14a.54.54,0,0,0-.64-.7C436.56,299.32,429.4,302.21,419.58,313.45Z"/></g><path class="cls-5" d="M435.5,302.4a12.19,12.19,0,0,1-2.13,1.88c-1.37,1.09-3.3,2.56-5.48,4.11s-4.2,2.9-5.7,3.81a12.71,12.71,0,0,1-2.51,1.34,14.31,14.31,0,0,1,2.28-1.69l5.58-4,5.57-4A15.42,15.42,0,0,1,435.5,302.4Z"/><polygon class="cls-8" points="404.46 342.6 399.84 373.71 428.64 373.71 424.91 342.6 404.46 342.6"/><path class="cls-5" d="M426.06,352.24c0,.17-5.2.3-11.61.3s-11.62-.13-11.62-.3,5.2-.3,11.62-.3S426.06,352.07,426.06,352.24Z"/><path class="cls-5" d="M426.63,354.72c0,.16-5.37.3-12,.3s-12-.14-12-.3,5.37-.3,12-.3S426.63,354.55,426.63,354.72Z"/></g><g id="Boxes"><path class="cls-5" d="M314.64,40.9h-.78a19.41,19.41,0,0,0-2.29,0,25.51,25.51,0,0,0-8.52,2,26.24,26.24,0,0,0-10.83,8.44A23.51,23.51,0,0,0,288.45,59a25.89,25.89,0,0,0,2.66,19.67,23.21,23.21,0,0,0,3.4,4.51,18.25,18.25,0,0,0,4.6,3.6,11.35,11.35,0,0,0,5.78,1.46A8.31,8.31,0,0,0,310.48,86a8.09,8.09,0,0,0,2.22-5.76,10.56,10.56,0,0,0-2-6.13c-2.6-3.65-6.8-6.1-11.26-7.43a27.68,27.68,0,0,0-14.21-.19,28.89,28.89,0,0,0-6.84,2.72,24.55,24.55,0,0,0-5.87,4.6c-.41.48-.88.91-1.24,1.42l-1.13,1.53a25.76,25.76,0,0,0-1.84,3.34,27.05,27.05,0,0,0-2.18,7.36,28,28,0,0,0,2,15,23.06,23.06,0,0,0,9.66,11,15.8,15.8,0,0,0,6.83,2.08,12.08,12.08,0,0,0,6.75-1.62,10.67,10.67,0,0,0,4.57-5,9.06,9.06,0,0,0,.1-6.54,12.91,12.91,0,0,0-3.76-5.32,16.93,16.93,0,0,0-5.53-3.21,21.4,21.4,0,0,0-12.17-.21,23.69,23.69,0,0,0-10,5.56,22.77,22.77,0,0,0-5.72,8.88,25.68,25.68,0,0,0,.26,18,27.15,27.15,0,0,0,8.24,11,28.7,28.7,0,0,0,7.57,4.41q1.41.54,2.16.75l.74.25-.76-.2c-.5-.12-1.23-.36-2.18-.7a28.29,28.29,0,0,1-7.66-4.35,27.27,27.27,0,0,1-8.38-11,26,26,0,0,1-.34-18.2,23.3,23.3,0,0,1,5.79-9,24.17,24.17,0,0,1,10.15-5.69,22,22,0,0,1,12.44.19,17.54,17.54,0,0,1,5.69,3.3,13.51,13.51,0,0,1,3.9,5.51,9.5,9.5,0,0,1-.1,6.88,11.13,11.13,0,0,1-4.77,5.22,12.68,12.68,0,0,1-7,1.69,16.39,16.39,0,0,1-7.06-2.13,23.61,23.61,0,0,1-9.88-11.19A28.33,28.33,0,0,1,265.6,87.4a26.74,26.74,0,0,1,4.1-10.92l1.15-1.56c.37-.52.85-1,1.27-1.45a25.38,25.38,0,0,1,6-4.7,29.38,29.38,0,0,1,7-2.77,28.21,28.21,0,0,1,14.46.21c4.56,1.36,8.83,3.85,11.52,7.63a11.06,11.06,0,0,1,2.1,6.41,8.58,8.58,0,0,1-2.37,6.09,8.79,8.79,0,0,1-5.9,2.37,11.67,11.67,0,0,1-6-1.52,18.55,18.55,0,0,1-4.7-3.69,23,23,0,0,1-3.45-4.6,26.31,26.31,0,0,1-2.63-20A23.84,23.84,0,0,1,292,51.12a26.21,26.21,0,0,1,11-8.44,25.1,25.1,0,0,1,8.59-1.89,17.47,17.47,0,0,1,2.3,0Z"/><rect class="cls-9" x="207.83" y="140.96" width="140.21" height="108.14"/><polygon class="cls-9" points="207.83 140.96 233.72 165.11 371.56 165.11 348.04 140.96 207.83 140.96"/><path class="cls-5" d="M207.83,141,348,140.7h.1l.08.08,23.28,23.9.24.25.43.44h-.61l-137.84-.1h-.06l0,0L207.83,141l26,24-.11,0,137.84-.11-.19.44-.24-.24-23.28-23.91.19.07Z"/><path class="cls-11" d="M249.94,190.82a2.91,2.91,0,1,0,.21,0"/><path class="cls-11" d="M283.05,190.82a2.9,2.9,0,1,0,.21,0"/><path class="cls-11" d="M283.26,216.71a20.28,20.28,0,0,0-2.78-6.22,18.46,18.46,0,0,0-5.29-5.08,16.17,16.17,0,0,0-17.13-.47,18.25,18.25,0,0,0-5.57,4.79,19.92,19.92,0,0,0-3.11,6.05,1.51,1.51,0,0,1,.08-.47,10.74,10.74,0,0,1,.36-1.33,16.4,16.4,0,0,1,2.37-4.48,18.45,18.45,0,0,1,5.63-5,16.42,16.42,0,0,1,17.62.49,18.18,18.18,0,0,1,5.35,5.28,16.16,16.16,0,0,1,2.12,4.6,12.13,12.13,0,0,1,.29,1.34A1.46,1.46,0,0,1,283.26,216.71Z"/><polygon class="cls-14" points="208.14 142.15 232.94 173.59 348.04 173.59 348.04 165.11 233.72 165.11 208.14 142.15"/><path class="cls-5" d="M320.39,248.85c-.15,0-.26-18.81-.26-42s.11-42,.26-42,.26,18.81.26,42S320.53,248.85,320.39,248.85Z"/><rect class="cls-4" x="330.04" y="224.34" width="12.36" height="13.97"/><polygon class="cls-9" points="207.83 140.96 179.04 165.11 207.83 165.11 207.83 140.96"/><g class="cls-15"><polygon class="cls-13" points="207.83 140.96 179.04 165.11 207.83 165.11 207.83 140.96"/></g><rect class="cls-9" x="190.97" y="249.1" width="161.21" height="124.34"/><rect class="cls-16" x="190.97" y="249.1" width="161.21" height="124.34"/><path class="cls-5" d="M311.78,372.56c-.14,0-.26-27.71-.26-61.89s.12-61.91.26-61.91.26,27.71.26,61.91S311.93,372.56,311.78,372.56Z"/><rect class="cls-4" x="326.15" y="345.14" width="12.36" height="13.97"/><rect class="cls-11" x="240.15" y="249.42" width="18.31" height="26.53"/><rect class="cls-11" x="240.15" y="346.54" width="18.31" height="26.53"/><path class="cls-5" d="M350.77,249.1a2.18,2.18,0,0,1-.41,0l-1.22,0-4.65,0-17.12.08-56.5.08-56.5-.08-17.13-.08-4.65,0-1.21,0a2,2,0,0,1-.41,0,2,2,0,0,1,.41,0l1.21,0,4.65-.05,17.13-.08,56.5-.08,56.5.08,17.12.08,4.65.05,1.22,0Z"/></g></g></svg>