<svg xmlns="http://www.w3.org/2000/svg" viewBox="0 0 12 16"><defs><style>.cls-1{fill:#117173;fill-opacity:0.75;}.cls-2{fill:#fff;}</style></defs><title>ordersa</title><g id="Layer_2" data-name="Layer 2"><g id="Layer_1-2" data-name="Layer 1"><path class="cls-1" d="M8.5,1H7.41A1.5,1.5,0,0,0,6,0,1.52,1.52,0,0,0,4.58,1H3.5a.5.5,0,0,0-.5.5v2a.5.5,0,0,0,.5.5h5A.5.5,0,0,0,9,3.5v-2A.5.5,0,0,0,8.5,1Z"/><path class="cls-1" d="M11,2H10V3.5A1.5,1.5,0,0,1,8.5,5h-5A1.5,1.5,0,0,1,2,3.5V2H1A1,1,0,0,0,0,3V15a1,1,0,0,0,1,1H11a1,1,0,0,0,1-1V3A1,1,0,0,0,11,2ZM9.5,11h-7a.5.5,0,0,1,0-1h7a.5.5,0,0,1,0,1Zm0-3h-7a.5.5,0,0,1,0-1h7a.5.5,0,0,1,0,1Z"/><path class="cls-2" d="M2.5,14h7a.5.5,0,0,0,0-1h-7a.5.5,0,0,0,0,1Z"/></g></g></svg>