<svg width="18" height="14" viewBox="0 0 18 14" fill="none" xmlns="http://www.w3.org/2000/svg">
    <path d="M8.99996 4.54547C7.64585 4.54547 6.54541 5.64591 6.54541 7.00002C6.54541 8.35412 7.64585 9.45456 8.99996 9.45456C10.3541 9.45456 11.4545 8.35412 11.4545 7.00002C11.4545 5.64591 10.354 4.54547 8.99996 4.54547Z" fill="white"/>
    <path d="M9.00002 0.863647C4.90909 0.863647 1.41547 3.40817 0 7.00002C1.41547 10.5918 4.90909 13.1364 9.00002 13.1364C13.095 13.1364 16.5846 10.5918 18 7.00002C16.5846 3.40817 13.095 0.863647 9.00002 0.863647ZM9.00002 11.0909C6.74184 11.0909 4.90909 9.25816 4.90909 6.99998C4.90909 4.74179 6.74184 2.90909 9.00002 2.90909C11.2582 2.90909 13.0909 4.74183 13.0909 7.00002C13.0909 9.2582 11.2582 11.0909 9.00002 11.0909Z" fill="white"/>
</svg>
