<svg xmlns="http://www.w3.org/2000/svg" viewBox="0 0 18 18"><defs><style>.cls-1{fill:#fff;}</style></defs><title>zoom</title><g id="Layer_2" data-name="Layer 2"><g id="Layer_1-2" data-name="Layer 1"><path class="cls-1" d="M17.48,15l-4.73-4.73a6.62,6.62,0,0,1-2.5,2.5L15,17.48a1.77,1.77,0,0,0,2.5-2.5Z"/><path class="cls-1" d="M6.23,0a6.23,6.23,0,1,0,6.23,6.23A6.24,6.24,0,0,0,6.23,0ZM8.77,7.15H7.15V8.77a.92.92,0,0,1-1.84,0V7.15H3.69a.92.92,0,0,1,0-1.84H5.31V3.69a.92.92,0,0,1,1.84,0V5.31H8.77a.92.92,0,1,1,0,1.84Z"/></g></g></svg>