<svg xmlns="http://www.w3.org/2000/svg" viewBox="0 0 229 229"><defs><style>.cls-1{fill:#0063a9;}.cls-2{fill:#fff;}</style></defs><title>favicon</title><g id="Layer_2" data-name="Layer 2"><g id="Layer_1-2" data-name="Layer 1"><rect class="cls-1" width="229" height="229"/><path class="cls-2" d="M78.4,150.68c-.85-6.77-.3-13.56-1.11-20.29-1.86-15.51-3.94-31-3.83-46.67.12-16.48-2.1-32.87-1.64-49.37.09-3.31-.28-7.08-4.25-8.74H65.9c-3.57,3.95-4.47,8.73-4.35,13.86.42,18.53-1,37.09.78,55.62.14,1.39.67,3.32-1.18,4s-2.89-.83-3.8-2c-2.74-3.42-6.46-5.61-10-8C42.26,85.59,37,86.18,32.86,90.75c-5.07,5.54-9.31,11.5-11.1,19.12a60,60,0,0,0-1.53,21.41c1.92,14.7,13,26.1,29.71,15.13,3.74-2.46,6.68-5.79,10.24-8.42,1.31-1,2.28-2.83,4.16-2s2,2.86,2.19,4.64c1.27,12,3.47,23.78,5.7,35.59a11.27,11.27,0,0,0,3.94,6.65c2.59,2.2,4.65,1.6,5.37-1.73a18.79,18.79,0,0,0-.15-7.43C79.94,166.07,79.36,158.35,78.4,150.68Zm-18.8-23.6a35.86,35.86,0,0,1-9.19,7,9.44,9.44,0,0,1-8.39.54c-6.65-2.85-12.09-11.27-11.84-20.14.22-4.52,3.48-9.11,7.85-12.89,2.28-2,5.25-1.43,7.84-.17a16.73,16.73,0,0,1,6.8,5.93c2.57,3.93,5,7.92,7.66,11.82C62.25,122.06,61.87,124.71,59.6,127.08Z"/><path class="cls-2" d="M208.79,117.13c-1.93-13.62-10.1-18.52-23.92-14.86-6.87,1.82-10.93,6.65-13.28,13.14-.37,1-.55,2.51-1.85,2.46-1.72-.07-1.37-1.82-1.54-2.94-.41-2.74-.55-5.51-1-8.24-.24-1.51-.87-3-2.77-3.16-1.67-.11-2.47,1.08-3.08,2.37a15.75,15.75,0,0,0-1.65,6.38c-.12,4.61.92,9.07,1.69,13.56,1.28,7.48,2.69,14.94,4.25,23.55-3-2.45-3-5-3.75-7.12-2.88-8.18-5.32-16.5-9.95-24-7.46-12.08-19.55-13.68-29.34-3.43a80.13,80.13,0,0,0-6.84,8.87c-1.54,2.16-2.69,2.2-3.76-.28-.71-1.65-1.34-3.34-2.12-5-2.47-5.2-6.43-5.54-9.71-.74-1.87,2.73-3.42,5.69-5.25,8.45-1.08,1.62-1.4,4.74-3.81,4.18-1.8-.42-.62-3.2-.92-4.9-.07-.41,0-.83-.08-1.24-.24-1.59-.77-3-2.56-3.38-1.61-.33-2.57.75-3.38,1.92a11.32,11.32,0,0,0-1.73,6.72c0,11.2-.21,22.41,2.34,33.43.62,2.68.81,6.37,4.22,6.12,3-.21,3-4,3.29-6.44.45-4.67.17-9.39,1.13-14,1.23-6,1.7-12.1,5.28-17.31,1.11-1.61,2.25-3.22,4.58-3s3.24,2,4.12,3.69a9.89,9.89,0,0,1,.7,3.2c.93,7,1.87,14,2.7,21,.28,2.38,1.44,4,3.7,4.4,2.08.37,3.75-.89,4.87-2.57a8.4,8.4,0,0,0,1.49-5.12c-.33-6,1-11.84,1.59-17.74.65-6.12,3.41-11,7.47-15.38,2.46-2.65,4.81-3,7.24.09,5.53,7,8.57,15.12,11.3,23.42.88,2.68-.92,3-3,3.09a88.57,88.57,0,0,1-20.5-1.79c.12,1.34,1.14,1.31,1.83,1.65,6.2,2.95,13,2.61,19.54,3.13,3.93.31,5.74,2.15,6.67,5.54q3.19,11.6,6.39,23.19c.79,2.88,1.13,6.84,5.2,6.14,3.71-.65,3-4.45,2.93-7.28-.28-7.33-1.87-14.52-2.78-21.78-.11-.86-.68-1.95.72-2.43,1.55.68,1.43,2.2,1.81,3.49,3.25,11.17,4.76,22.7,7.2,34a54.46,54.46,0,0,0,3.7,11c.61,1.33,1.37,2.44,3.08,2.26,1.54-.16,1.93-1.3,2.31-2.56a8,8,0,0,0,.37-3.67c-1.86-11-3.26-22.15-5.58-33.12-.86-4-2.65-7.85-2.58-12.14.1-6.14.93-6.86,6.38-3.95,4.31,2.3,8,2.46,12.31-.42C205.5,140.17,210.64,130.16,208.79,117.13Zm-23.53,19.8c-9.64-2.64-10.16-3.51-6.68-12.47,2.31-5.94,6.21-10.14,12.38-11.87,6.44-1.8,10.61,1.2,11.23,7.82.1,1.1.12,2.21.15,2.84C202.49,132.77,194.24,139.39,185.26,136.93Z"/><path class="cls-2" d="M88.14,118.14A9,9,0,1,0,84.63,101c.14-.15.28-.3.43-.44a9,9,0,0,0-5.87,8.4s0,.09,0,.13,0,.1,0,.14A9,9,0,0,0,88.14,118.14Z"/></g></g></svg>