<svg width="165" height="113" viewBox="0 0 165 113" fill="none" xmlns="http://www.w3.org/2000/svg">
    <g clip-path="url(#clip0_714_2045)">
        <path d="M30.7759 44.542C30.3339 44.5691 29.8906 44.5691 29.4486 44.542L28.1213 44.3309C27.717 44.2249 27.3189 44.0968 26.9287 43.9471C26.6458 43.8651 26.3694 43.7625 26.1016 43.6401L26.9287 40.7998C27.3327 40.9533 27.852 41.1453 28.4676 41.3372C29.2253 41.5456 30.0094 41.6425 30.7951 41.625C31.6147 41.6797 32.4304 41.4712 33.1227 41.0301C33.4659 40.6899 33.689 40.2477 33.7584 39.77C33.8278 39.2924 33.7397 38.8051 33.5074 38.3818C33.3236 38.0957 33.0727 37.8585 32.7764 37.6909C32.4373 37.5014 32.0652 37.3776 31.68 37.3263C31.2354 37.2486 30.7848 37.21 30.3335 37.2111H28.9869V34.4284H30.5066C30.8329 34.4584 31.1613 34.4584 31.4876 34.4284C31.7848 34.3634 32.0702 34.2534 32.334 34.1022C32.5806 33.9646 32.7813 33.7577 32.9111 33.5073C33.0705 33.213 33.1501 32.8822 33.1419 32.5477C33.1515 32.285 33.0847 32.025 32.9495 31.7993C32.8391 31.5872 32.6811 31.4033 32.4879 31.262C32.2807 31.1255 32.0536 31.022 31.8146 30.9549C31.5643 30.8852 31.305 30.8529 31.0452 30.8589C30.3923 30.8456 29.7418 30.943 29.1216 31.1468C28.5837 31.3417 28.0679 31.5926 27.5827 31.8953L26.3709 29.3812C26.672 29.1631 26.9869 28.9644 27.3134 28.7863C27.6656 28.603 28.0323 28.449 28.4099 28.3258C28.8268 28.1678 29.2586 28.0521 29.6987 27.9803C30.1727 27.8777 30.6563 27.8263 31.1414 27.8268C31.9626 27.8121 32.7808 27.9288 33.5651 28.1722C34.1928 28.3553 34.7713 28.6766 35.2578 29.1126C35.7015 29.4982 36.0448 29.9855 36.2581 30.5327C36.4772 31.1022 36.5881 31.7074 36.5851 32.3175C36.576 32.9629 36.3897 33.5934 36.0465 34.1406C35.7133 34.7172 35.2186 35.1841 34.6231 35.4839C35.4001 35.7889 36.0694 36.3164 36.5466 37C37.0061 37.7218 37.2404 38.5633 37.2199 39.4181C37.2307 40.1133 37.1066 40.8041 36.8544 41.4523C36.6007 42.072 36.2055 42.624 35.7003 43.0643C35.1391 43.5451 34.4841 43.9045 33.7767 44.1198C32.8073 44.4277 31.7928 44.5704 30.7759 44.542Z" fill="#606060"/>
        <path d="M54.5329 36.2132C54.5482 37.4483 54.3194 38.6742 53.8596 39.8211C53.4315 40.8126 52.772 41.6877 51.9361 42.3734C51.0956 43.0856 50.1116 43.6091 49.0507 43.9087C47.7978 44.2528 46.5029 44.4207 45.2035 44.4077C44.5495 44.4077 43.7993 44.4077 42.9337 44.4077C42.0802 44.3518 41.2318 44.2363 40.3945 44.0622V28.5176C41.2532 28.3636 42.1204 28.261 42.9914 28.2106C43.8955 28.2106 44.6649 28.2106 45.3189 28.2106C46.5716 28.1966 47.8204 28.3515 49.0314 28.6712C50.0872 28.9445 51.0714 29.442 51.9168 30.1297C52.7563 30.8041 53.4169 31.674 53.8404 32.6629C54.2921 33.7926 54.527 34.9969 54.5329 36.2132ZM44.1263 41.2796H44.7226H45.5113C46.2365 41.3426 46.9669 41.254 47.6559 41.0194C48.3448 40.7848 48.9771 40.4093 49.5123 39.917C50.4263 38.8907 50.8965 37.5456 50.8204 36.1748C50.8777 35.4843 50.7967 34.7893 50.582 34.1303C50.3674 33.4713 50.0234 32.8616 49.57 32.3366C49.0353 31.8654 48.4097 31.5083 47.7316 31.2871C47.0534 31.066 46.3371 30.9856 45.6267 31.0508H44.8573H44.1263V41.2796Z" fill="#606060"/>
        <path d="M62.2268 28.0571C64.1535 27.9366 66.0733 28.3837 67.7475 29.3429C68.3878 29.7799 68.9023 30.3765 69.2397 31.0735C69.5772 31.7704 69.7259 32.5433 69.671 33.3154C69.7158 34.2828 69.4459 35.2387 68.9016 36.0405C68.3232 36.7839 67.5514 37.3548 66.6702 37.6909C67.036 38.1252 67.3764 38.5802 67.6897 39.0535C68.0552 39.5716 68.4015 40.109 68.7477 40.6655C69.094 41.222 69.421 41.8169 69.748 42.4119C70.075 43.0068 70.3635 43.6209 70.6521 44.1966H66.6125L65.7277 42.6038C65.4199 42.0664 65.1121 41.5483 64.8044 41.0493C64.4774 40.5312 64.1696 40.0514 63.8618 39.61C63.5774 39.1836 63.2691 38.7736 62.9385 38.3818H61.1688V44.139H57.5332V28.4793C58.3399 28.3197 59.1558 28.2108 59.9762 28.153C60.8225 28.0955 61.5535 28.0571 62.2268 28.0571ZM62.4383 31.1276H61.7266H61.1495V35.4648H62.1498C63.1524 35.5359 64.157 35.3578 65.0737 34.9466C65.3581 34.7607 65.588 34.503 65.7401 34.1996C65.8921 33.8962 65.9609 33.558 65.9393 33.2194C65.9631 32.8864 65.8928 32.5534 65.7364 32.2583C65.5799 31.9632 65.3437 31.7177 65.0544 31.5498C64.2293 31.2008 63.3317 31.0559 62.4383 31.1276Z" fill="#606060"/>
        <path d="M71.5568 38.2283C71.5338 37.2658 71.6971 36.308 72.0377 35.4072C72.3401 34.658 72.7842 33.9739 73.3458 33.3922C73.89 32.8529 74.5468 32.44 75.2694 32.1831C75.9524 31.9014 76.6847 31.7579 77.4238 31.7609C78.176 31.7242 78.9276 31.8453 79.63 32.1163C80.3325 32.3874 80.9701 32.8024 81.5018 33.3346C82.5851 34.6308 83.1229 36.2954 83.0022 37.9788C83.0022 38.1899 83.0022 38.401 83.0022 38.6313C83.0022 38.8616 83.0022 39.0919 83.0022 39.2646H75.0193C75.0498 39.6025 75.1554 39.9294 75.3284 40.2216C75.5014 40.5137 75.7375 40.7637 76.0196 40.9534C76.7149 41.4052 77.5382 41.6207 78.3663 41.5675C79.0116 41.5716 79.6558 41.5137 80.2899 41.3948C80.7978 41.3094 81.2946 41.1678 81.7711 40.9726L82.2327 43.7552C81.9988 43.8742 81.7541 43.9706 81.5018 44.0431C81.1679 44.1442 80.8272 44.2212 80.4823 44.2734C80.0754 44.3537 79.6644 44.4114 79.2512 44.4461C78.8221 44.4753 78.3915 44.4753 77.9624 44.4461C77.0025 44.5261 76.0361 44.4219 75.1155 44.1391C74.3869 43.8397 73.731 43.3882 73.1919 42.8149C72.6626 42.2667 72.2561 41.6125 71.9993 40.8958C71.7012 40.0381 71.5516 39.136 71.5568 38.2283ZM79.6359 36.9233C79.6143 36.6372 79.5627 36.3542 79.482 36.0789C79.4051 35.8024 79.2671 35.5467 79.0781 35.3304C78.9007 35.112 78.6774 34.9351 78.424 34.8123C78.108 34.6559 77.7569 34.5832 77.4045 34.6012C77.067 34.5882 76.7311 34.654 76.4235 34.7931C76.1593 34.9164 75.9236 35.0928 75.731 35.3113C75.5386 35.5282 75.3944 35.7832 75.3078 36.0597C75.2041 36.3398 75.1268 36.6289 75.077 36.9233H79.6359Z" fill="#606060"/>
        <path d="M85.5996 32.5094C86.3465 32.3069 87.1044 32.1467 87.8694 32.0296C88.8302 31.8802 89.8017 31.8096 90.7741 31.8185C91.6508 31.7928 92.5248 31.9294 93.3517 32.2215C93.9868 32.4493 94.5507 32.8398 94.9867 33.3538C95.393 33.8674 95.6819 34.4634 95.8331 35.1001C96.0427 35.8376 96.159 36.5984 96.1793 37.3646V44.139H92.6592V37.7677C92.7174 36.9622 92.5649 36.1554 92.2167 35.4264C92.0281 35.1792 91.778 34.9854 91.4912 34.8643C91.2044 34.7431 90.8909 34.6987 90.5817 34.7355H89.793H89.0428V44.139H85.5996V32.5094Z" fill="#606060"/>
        <path d="M109.913 43.8127L108.855 44.0814L107.605 44.2925L106.258 44.446H104.95C104.048 44.5012 103.143 44.3973 102.277 44.139C101.529 43.8786 100.85 43.451 100.294 42.8888C99.7368 42.3267 99.3162 41.6449 99.0641 40.8957C98.76 40.0595 98.6101 39.1753 98.6217 38.2858C98.6165 37.3901 98.7396 36.4983 98.9872 35.6374C99.1824 34.8751 99.5363 34.1624 100.026 33.5456C100.479 32.993 101.06 32.5584 101.719 32.279C102.441 31.9693 103.222 31.8187 104.008 31.8376C104.441 31.8297 104.874 31.8749 105.297 31.972C105.683 32.074 106.062 32.2022 106.431 32.3558V26.8672L109.875 26.3107L109.913 43.8127ZM102.219 38.0555C102.173 38.9607 102.422 39.8565 102.931 40.6079C103.177 40.9293 103.499 41.185 103.868 41.3524C104.237 41.5198 104.642 41.5937 105.047 41.5674H105.797H106.431V35.2152C106.173 35.0636 105.894 34.9474 105.604 34.8698C105.259 34.7792 104.903 34.7341 104.546 34.7355C102.95 34.7355 102.142 35.8485 102.142 38.0555H102.219Z" fill="#606060"/>
        <path d="M112.568 38.2283C112.551 37.2645 112.72 36.3066 113.068 35.4072C113.363 34.6543 113.808 33.9688 114.376 33.3922C114.922 32.8553 115.578 32.4428 116.299 32.1831C116.983 31.9033 117.715 31.7599 118.454 31.7609C119.209 31.7239 119.963 31.8447 120.669 32.1157C121.375 32.3867 122.016 32.8019 122.551 33.3346C123.634 34.6308 124.172 36.2954 124.051 37.9788C124.051 38.1899 124.051 38.401 124.051 38.6313C124.051 38.8615 124.051 39.0918 124.051 39.2646H116.357C116.388 39.6002 116.492 39.9252 116.661 40.2168C116.83 40.5084 117.061 40.7598 117.338 40.9534C118.042 41.4017 118.87 41.6167 119.704 41.5675C120.349 41.5729 120.994 41.5151 121.628 41.3947C122.142 41.3118 122.646 41.1701 123.128 40.9725L123.59 43.7552C123.348 43.8705 123.097 43.9668 122.84 44.0431C122.506 44.1442 122.165 44.2212 121.82 44.2734C121.419 44.3523 121.015 44.4099 120.608 44.4461C120.179 44.4742 119.748 44.4742 119.319 44.4461C118.245 44.5687 117.157 44.4641 116.126 44.139C115.401 43.8332 114.747 43.3825 114.203 42.8149C113.673 42.2705 113.272 41.6148 113.029 40.8958C112.725 40.0392 112.568 39.1371 112.568 38.2283ZM120.647 36.9233C120.634 36.6361 120.583 36.3519 120.493 36.0789C120.422 35.8041 120.29 35.5485 120.108 35.3304C119.923 35.1124 119.693 34.9359 119.435 34.8123C119.127 34.6532 118.781 34.5802 118.435 34.6012C118.117 34.5837 117.799 34.6385 117.506 34.7615C117.213 34.8845 116.951 35.0725 116.742 35.3112C116.556 35.533 116.413 35.7867 116.319 36.0597C116.221 36.3403 116.15 36.6294 116.107 36.9233H120.647Z" fill="#606060"/>
        <path d="M133.939 35.1193L132.861 34.889C132.419 34.794 131.967 34.749 131.515 34.7546H130.745C130.517 34.7767 130.291 34.8217 130.072 34.889V44.139H126.629V32.6244C127.368 32.4101 128.119 32.2434 128.879 32.1255C129.802 31.9249 130.744 31.8283 131.688 31.8376C131.912 31.8206 132.137 31.8206 132.361 31.8376H133.15L133.939 31.9912C134.164 32.0266 134.384 32.0911 134.593 32.1831L133.939 35.1193Z" fill="#606060"/>
        <path d="M139.843 41.7402C140.301 41.7717 140.759 41.7063 141.19 41.5483C141.32 41.4851 141.428 41.3825 141.497 41.2551C141.566 41.1277 141.593 40.9819 141.574 40.8382C141.565 40.683 141.513 40.5333 141.425 40.4049C141.337 40.2766 141.216 40.1743 141.074 40.109C140.585 39.8294 140.07 39.5981 139.535 39.4181C138.997 39.207 138.497 38.9959 138.054 38.7848C137.644 38.5901 137.267 38.3309 136.939 38.0172C136.63 37.711 136.388 37.3453 136.227 36.9425C136.044 36.4651 135.959 35.9562 135.977 35.4456C135.957 34.929 136.062 34.4153 136.283 33.9477C136.504 33.4801 136.834 33.0723 137.246 32.7589C138.259 32.0394 139.487 31.6873 140.728 31.7609C141.438 31.7642 142.146 31.8284 142.844 31.9528C143.395 32.0508 143.936 32.1986 144.46 32.3942L143.864 35.0618C143.436 34.9126 142.999 34.7908 142.555 34.6971C142.039 34.5753 141.509 34.5173 140.978 34.5244C139.901 34.5244 139.362 34.8315 139.362 35.4264C139.331 35.546 139.331 35.6714 139.362 35.791C139.418 35.9188 139.512 36.0261 139.632 36.0981C139.809 36.2313 140.003 36.341 140.209 36.4243C140.503 36.5684 140.805 36.6965 141.113 36.8081C141.772 37.0383 142.415 37.314 143.036 37.6333C143.477 37.8557 143.874 38.1546 144.21 38.5161C144.487 38.8101 144.692 39.1651 144.806 39.5524C144.929 39.9894 144.987 40.442 144.979 40.8958C145.009 41.4246 144.901 41.9522 144.665 42.4267C144.429 42.9011 144.073 43.3061 143.633 43.6017C142.472 44.2862 141.131 44.6071 139.786 44.5229C138.887 44.5375 137.989 44.4473 137.112 44.2542C136.602 44.132 136.101 43.9782 135.611 43.7936L136.188 40.9917C136.775 41.2263 137.38 41.4125 137.997 41.5483C138.605 41.6705 139.223 41.7347 139.843 41.7402Z" fill="#606060"/>
        <path d="M6.3472 61.027C6.457 61.0069 6.55783 60.9533 6.63574 60.8735L15.5419 68.5498C15.4955 68.649 15.4715 68.7571 15.4715 68.8665C15.4715 68.9759 15.4955 69.084 15.5419 69.1831C15.5884 69.3252 15.6754 69.4506 15.7923 69.544C15.9092 69.6375 16.0509 69.6948 16.2 69.7091C16.349 69.7233 16.4991 69.6939 16.6316 69.6243C16.7642 69.5548 16.8735 69.4481 16.9462 69.3175L32.7003 73.0981C32.6717 73.2179 32.6717 73.3428 32.7003 73.4627C32.7309 73.5604 32.7806 73.6511 32.8468 73.7293C32.9129 73.8076 32.9941 73.8718 33.0855 73.9183C33.1769 73.9648 33.2767 73.9926 33.3791 74.0001C33.4814 74.0075 33.5842 73.9944 33.6814 73.9617C33.8566 73.9042 34.0044 73.7844 34.0966 73.6251C34.1889 73.4658 34.2191 73.2782 34.1815 73.0981L50.4743 67.3408C50.5364 67.5387 50.6743 67.7042 50.858 67.8012C51.0417 67.8983 51.2564 67.919 51.4553 67.859C51.6502 67.7931 51.8115 67.6539 51.9049 67.4711C51.9984 67.2882 52.0165 67.0762 51.9555 66.8802C51.903 66.7086 51.7858 66.5641 51.6284 66.4772L58.9188 58.2443C59.009 58.3103 59.1139 58.3534 59.2244 58.3701C59.335 58.3869 59.4479 58.3766 59.5536 58.3403C59.6577 58.3172 59.7559 58.2727 59.8418 58.2097C59.9278 58.1467 59.9997 58.0666 60.053 57.9744C60.1062 57.8822 60.1397 57.7799 60.1512 57.6741C60.1628 57.5684 60.1522 57.4613 60.1201 57.3599C60.0879 57.2584 60.035 57.1647 59.9647 57.0847C59.8943 57.0047 59.8081 56.9402 59.7114 56.8953C59.6147 56.8503 59.5097 56.8259 59.4031 56.8236C59.2965 56.8213 59.1905 56.8411 59.092 56.8818C58.9947 56.9101 58.9042 56.9577 58.8259 57.0219C58.7477 57.086 58.6832 57.1653 58.6365 57.255C58.5897 57.3447 58.5617 57.4428 58.554 57.5436C58.5463 57.6444 58.5592 57.7457 58.5918 57.8413C58.6186 57.9174 58.6576 57.9887 58.7072 58.0524L52.3594 63.3299L52.2248 63.1956L57.3223 53.3507C57.5319 53.436 57.7667 53.436 57.9763 53.3507C58.2314 53.2743 58.4456 53.1 58.5719 52.8661C58.6981 52.6321 58.7261 52.3577 58.6495 52.1033C58.573 51.8488 58.3983 51.635 58.1638 51.5091C57.9293 51.3831 57.6543 51.3552 57.3992 51.4316C57.2761 51.4664 57.1613 51.5259 57.0619 51.6064C56.9626 51.687 56.8807 51.7868 56.8213 51.9C56.7619 52.0131 56.7262 52.1371 56.7165 52.2644C56.7067 52.3918 56.723 52.5198 56.7644 52.6406C56.7609 52.6917 56.7609 52.743 56.7644 52.7941L50.9167 57.5727L49.5125 54.5021C49.6525 54.4126 49.7587 54.2791 49.8144 54.1228C49.8701 53.9665 49.8722 53.7962 49.8203 53.6385C49.7919 53.5415 49.7441 53.4512 49.6798 53.3731C49.6156 53.295 49.5361 53.2307 49.4462 53.1841C49.3563 53.1375 49.2579 53.1095 49.1569 53.1018C49.0559 53.0942 48.9544 53.107 48.8585 53.1396C48.6651 53.2013 48.504 53.3368 48.4103 53.5166C48.3166 53.6963 48.2979 53.9057 48.3583 54.0991L44.5112 58.11L35.0856 53.9456C35.153 53.7072 35.153 53.4548 35.0856 53.2163C34.9709 52.8669 34.723 52.5764 34.3955 52.4077C34.068 52.2389 33.6872 52.2054 33.3351 52.3144C32.9898 52.4286 32.7034 52.6738 32.5379 52.997C32.3723 53.3202 32.3408 53.6954 32.4503 54.0415L26.1601 56.3061L26.7565 53.1012L14.0223 49.8963L13.0028 46.442C13.3446 46.3223 13.6248 46.0722 13.7817 45.7465C13.9387 45.4208 13.9595 45.0462 13.8396 44.7052C13.7197 44.3642 13.4689 44.0846 13.1424 43.9281C12.816 43.7715 12.4405 43.7508 12.0987 43.8704L9.6173 37.6334L12.445 36.194C12.5118 36.2469 12.5902 36.2831 12.6738 36.2998C12.7574 36.3165 12.8438 36.3131 12.9259 36.29C12.9918 36.2703 13.0532 36.2377 13.1064 36.1941C13.1597 36.1505 13.2037 36.0968 13.2359 36.0361C13.2681 35.9753 13.2879 35.9088 13.2941 35.8404C13.3003 35.772 13.2929 35.703 13.2721 35.6375C13.228 35.5075 13.1356 35.3992 13.014 35.335C12.8924 35.2707 12.7507 35.2554 12.6181 35.2921C12.5062 35.3286 12.4109 35.4034 12.3488 35.5032L6.65497 30.3984V30.2257C6.81808 30.1212 6.94576 29.9701 7.02127 29.792C7.09679 29.6139 7.11662 29.4173 7.07816 29.2277L20.7164 26.8673C20.7164 26.8673 20.7164 26.8673 20.7164 27.0016C20.7694 27.17 20.8671 27.321 20.9992 27.4386C21.1312 27.5561 21.2926 27.6359 21.4664 27.6693C21.6401 27.7028 21.8197 27.6888 21.9861 27.6287C22.1525 27.5686 22.2996 27.4648 22.4116 27.3281C22.5237 27.1915 22.5966 27.0272 22.6227 26.8525C22.6488 26.6779 22.627 26.4995 22.5597 26.3362C22.4924 26.1729 22.3821 26.0308 22.2405 25.925C22.0988 25.8192 21.9311 25.7535 21.7551 25.735L21.1588 15.8325C21.2541 15.8511 21.3521 15.8511 21.4474 15.8325C21.5785 15.788 21.7018 15.7232 21.8128 15.6406L30.3151 13.4337L31.1038 13.8751C31.0165 14.1037 31.0165 14.3564 31.1038 14.5851C31.1828 14.8396 31.36 15.0523 31.5963 15.1765C31.8326 15.3007 32.1086 15.3261 32.3637 15.2472C32.6188 15.1683 32.832 14.9916 32.9565 14.7558C33.0809 14.5201 33.1064 14.2447 33.0274 13.9902C32.9964 13.916 32.9577 13.8453 32.9119 13.7791L39.9715 10.8813C40.0353 11.0772 40.1745 11.2399 40.3584 11.3335C40.5424 11.427 40.7561 11.4439 40.9525 11.3802C41.149 11.3166 41.312 11.1778 41.4058 10.9942C41.4996 10.8107 41.5164 10.5975 41.4527 10.4015C41.368 10.2059 41.2092 10.0517 41.011 9.97264C40.8127 9.89352 40.5912 9.89592 40.3947 9.97931C40.2505 10.0291 40.1234 10.1186 40.0281 10.2375C39.9328 10.3563 39.8731 10.4997 39.8561 10.651L25.6215 10.4207C25.5597 10.2277 25.4238 10.067 25.2437 9.97354C25.0635 9.88007 24.8536 9.86145 24.6597 9.92173C24.4902 9.97086 24.3442 10.0795 24.2488 10.2277C24.1533 10.3759 24.1148 10.5535 24.1404 10.7278L14.8495 14.5659C14.7516 14.4356 14.6148 14.3397 14.4587 14.2921C14.3026 14.2445 14.1354 14.2476 13.9813 14.301C13.8271 14.3544 13.694 14.4553 13.6011 14.5892C13.5082 14.7231 13.4603 14.8829 13.4645 15.0457C13.4732 15.1539 13.5061 15.2588 13.5607 15.3527L6.8858 21.4171C6.7899 21.2624 6.64209 21.1468 6.4687 21.0907C6.29531 21.0347 6.10761 21.0419 5.93903 21.111C5.77045 21.1801 5.63193 21.3067 5.54816 21.4682C5.46438 21.6296 5.44079 21.8156 5.48158 21.9928C5.52806 22.1352 5.61428 22.2613 5.73013 22.3565C5.84598 22.4517 5.98664 22.5119 6.1356 22.5301L1.19198 33.0851C1.07833 33.0567 0.959395 33.0567 0.845739 33.0851C0.650897 33.151 0.489552 33.2901 0.396118 33.473C0.302685 33.6558 0.284559 33.8679 0.345607 34.0638C0.396349 34.1806 0.472879 34.2844 0.569476 34.3674C0.666073 34.4505 0.78024 34.5107 0.903447 34.5436V46.3076C0.801718 46.2889 0.697402 46.2889 0.595673 46.3076C0.399259 46.3687 0.235208 46.5051 0.139612 46.6869C0.0440148 46.8686 0.0247022 47.0808 0.0859222 47.2768C0.147142 47.4727 0.28388 47.6364 0.466055 47.7318C0.64823 47.8271 0.860919 47.8464 1.05733 47.7853L5.77012 59.6453C5.61999 59.7461 5.51027 59.8964 5.46024 60.0699C5.41021 60.2434 5.42307 60.4289 5.49656 60.5939C5.57006 60.7589 5.69948 60.8927 5.86209 60.972C6.02469 61.0512 6.21008 61.0707 6.38567 61.027H6.3472ZM32.8735 12.7428L30.3343 13.4337L25.5831 10.8237L32.8542 12.7428C32.8542 12.7428 32.8735 12.7044 32.8735 12.7428ZM12.2718 21.513H11.3101L12.0987 20.304C12.2065 20.4302 12.3572 20.5123 12.5219 20.5343L12.2718 21.513ZM6.09713 28.4601C5.9825 28.4411 5.86552 28.4411 5.75089 28.4601H5.61624L6.11637 27.942L6.09713 28.4601ZM4.73139 39.8595C4.67232 39.8031 4.5993 39.7634 4.51979 39.7443L5.0584 30.3216L5.34693 30.0913C5.49834 30.2534 5.70321 30.3556 5.92401 30.3792L4.73139 39.8595ZM47.3196 60.3361L47.4735 60.4513L46.7425 61.1997L44.415 61.8138L47.3196 60.3361ZM16.0613 68.2812L15.0995 65.249L20.8703 67.6479V67.7822L16.9077 68.8761C16.9167 68.8382 16.9167 68.7988 16.9077 68.7609C16.8468 68.5936 16.7282 68.4534 16.5731 68.3655C16.418 68.2776 16.2365 68.2477 16.0613 68.2812ZM51.513 60.1826L50.4358 61.0654L49.801 61.5644L49.0508 60.7583L51.4746 60.125L51.513 60.1826ZM50.9937 64.0208L43.5494 66.7843L49.7433 61.7371L51.1091 63.234C51.0313 63.3405 50.9803 63.464 50.9602 63.5942C50.9402 63.7244 50.9516 63.8575 50.9937 63.9824V64.0208ZM29.8342 68.3004L29.4302 68.4539C29.4055 68.3883 29.366 68.3292 29.3148 68.2812L29.8342 68.3004ZM29.4495 68.6074L30.1612 68.3195L33.4121 68.4731L29.5649 68.7226C29.5532 68.6612 29.5189 68.6064 29.4687 68.569L29.4495 68.6074ZM30.469 68.1852L36.7591 65.6328C36.8744 65.8084 37.0432 65.9424 37.2406 66.015C37.4381 66.0875 37.6536 66.0948 37.8556 66.0358C37.9722 65.994 38.0823 65.9359 38.1826 65.8631L39.7791 67.5519C39.6429 67.6978 39.5673 67.8899 39.5676 68.0893L34.7009 68.3963L30.469 68.1852ZM48.8777 60.8351L49.6664 61.6987L43.1454 66.9954L41.0295 67.7822L40.9333 67.6095L46.8195 61.4108L48.8777 60.8351ZM41.068 67.9165L42.8184 67.2832L42.0874 67.8782H41.068V67.9165ZM41.068 68.2236C41.0773 68.1793 41.0773 68.1335 41.068 68.0893H41.8566L41.5296 68.3579C41.4219 68.2511 41.2774 68.1894 41.1257 68.1852L41.068 68.2236ZM39.5483 68.2236C39.5751 68.2939 39.6141 68.3589 39.6637 68.4155L39.5291 68.5306L35.932 68.3579L39.5483 68.2236ZM48.3006 60.6624C48.3905 60.6226 48.4746 60.571 48.5507 60.5089L48.7238 60.72L46.9541 61.1805L47.512 60.5664C47.6406 60.6361 47.7828 60.6773 47.9289 60.6872C48.0749 60.6972 48.2214 60.6756 48.3583 60.624L48.3006 60.6624ZM40.3947 63.0229L43.2416 62.2936L40.1446 63.8673V63.637C40.2297 63.5598 40.2962 63.4645 40.3395 63.3582C40.3828 63.252 40.4017 63.1374 40.3947 63.0229ZM43.8956 62.1209L46.5694 61.4108L40.7986 67.456L40.01 64.0208L43.8956 62.1209ZM40.7986 67.3792C40.7019 67.3358 40.597 67.3133 40.4909 67.3133C40.3848 67.3133 40.2799 67.3358 40.1831 67.3792C40.1052 67.4023 40.0331 67.4415 39.9715 67.4943L38.3749 65.7672C38.4826 65.646 38.5597 65.5009 38.5998 65.3441C38.64 65.1872 38.642 65.023 38.6058 64.8652L40.0292 64.1359L40.7986 67.3792ZM37.3554 64.1359C37.211 64.1874 37.0804 64.2712 36.9737 64.381C36.867 64.4909 36.787 64.6237 36.7399 64.7692L35.2587 64.3278L37.1823 63.8289L37.3554 64.1359ZM36.7014 64.9228C36.6639 65.0675 36.6639 65.2194 36.7014 65.3642L30.1612 68.1276H29.1994C29.1056 68.047 28.9933 67.9908 28.8725 67.9641C28.7517 67.9373 28.6261 67.9407 28.5069 67.9741L27.9876 66.1894L34.9317 64.443L36.7014 64.9228ZM28.0068 66.0166L26.9296 62.8693C27.0808 62.8185 27.2166 62.7302 27.3242 62.6127C27.4319 62.4953 27.5079 62.3524 27.5451 62.1977L34.6239 64.3278L28.0068 66.0166ZM26.9296 62.8885L27.8721 66.055L23.6595 67.1681L22.0244 66.6499L24.275 62.4471L25.737 62.1401C25.7276 62.1908 25.7276 62.2429 25.737 62.2936C25.8202 62.5273 25.9908 62.7198 26.2132 62.8307C26.4355 62.9416 26.6923 62.9624 26.9296 62.8885ZM21.7167 67.2832L22.0244 66.7075L23.4671 67.1681L21.9667 67.5519C21.9364 67.4852 21.8912 67.4263 21.8345 67.3797C21.7778 67.3331 21.7112 67.3001 21.6397 67.2832H21.7167ZM21.9667 66.5348L15.5227 64.5006C15.5506 64.4001 15.5506 64.294 15.5227 64.1935L24.0057 62.4279L21.9667 66.5348ZM7.19358 53.2355L8.1169 53.6002L7.69371 54.4829L7.13587 53.3699C7.16449 53.3297 7.18417 53.2839 7.19358 53.2355ZM7.52059 56.7283C7.58797 56.5621 7.58797 56.3763 7.52059 56.2101C7.48958 56.1093 7.43757 56.0161 7.36795 55.9367C7.29834 55.8574 7.21269 55.7936 7.11663 55.7495L7.69371 54.8092L8.84786 57.1313L8.46315 57.0161L7.52059 56.7283ZM12.2334 63.5794L11.9833 63.0804L13.3106 63.6945L12.8874 63.8289C12.8292 63.7134 12.7299 63.6238 12.6089 63.5777C12.4879 63.5315 12.3539 63.5321 12.2334 63.5794ZM11.8487 62.9077L10.6368 60.4705L13.83 63.5602L13.4645 63.6562L11.8487 62.9077ZM13.9454 63.6754L14.1377 63.8481L13.6953 63.6562L13.9454 63.6754ZM14.1185 63.6754H14.3109L14.1954 63.8289L14.1185 63.6754ZM13.9838 63.4835L10.4444 60.0867L9.07869 57.3616L15.792 59.4917C15.7532 59.6623 15.7532 59.8394 15.792 60.0099C15.8409 60.141 15.9153 60.2611 16.0111 60.3632C16.1068 60.4653 16.222 60.5475 16.3499 60.6048L15.1572 63.234L13.9838 63.4835ZM16.4845 60.5472C16.6608 60.5954 16.8468 60.5954 17.0231 60.5472C17.1739 60.4978 17.3105 60.4127 17.4211 60.299C17.5316 60.1854 17.6129 60.0466 17.6579 59.8948L22.5246 60.9503L15.3881 63.1188L16.4845 60.5472ZM8.17461 53.4658L7.23205 53.1012C7.2516 53.0257 7.2516 52.9464 7.23205 52.8709L9.00175 51.8154L8.17461 53.4658ZM6.8858 53.4658L7.48212 54.6748L7.02045 55.6536C6.88863 55.6147 6.74833 55.6147 6.6165 55.6536L6.84733 53.4466L6.8858 53.4658ZM7.46288 56.8242L8.88633 57.2656L10.1367 59.7604L7.28976 57.0545C7.3572 57 7.41562 56.9352 7.46288 56.8626V56.8242ZM12.8874 63.9824L13.4645 63.8097L14.0608 64.0976C14.0425 64.1797 14.0425 64.2649 14.0608 64.347C14.1087 64.4993 14.203 64.6329 14.3306 64.7292C14.4581 64.8255 14.6126 64.8797 14.7725 64.8844V65.0379L12.8489 64.2127C12.8814 64.1405 12.8946 64.0612 12.8874 63.9824ZM14.9649 64.8652H15.0803C15.204 64.8119 15.3105 64.7256 15.3881 64.6157L21.7744 66.6691L21.4666 67.2449H21.2358C21.163 67.2651 21.0958 67.3015 21.0392 67.3514C20.9825 67.4012 20.9379 67.4632 20.9088 67.5327L15.0418 65.1147L14.9649 64.8652ZM21.9283 67.6862L23.6402 67.264L25.7177 67.9165L21.8705 67.7438L21.9283 67.6862ZM23.8518 67.1873L27.699 66.1894L28.2376 67.9933L26.1986 67.8974L23.8518 67.1873ZM28.0837 68.1852C28.0066 68.2725 27.9536 68.3783 27.9298 68.4923L26.718 68.1085L28.0837 68.1852ZM29.411 68.8185L34.6624 68.4923L39.3367 68.7226L33.9314 72.7718C33.833 72.6424 33.6977 72.5457 33.5433 72.4943C33.3888 72.4429 33.2224 72.4393 33.0658 72.484L32.8542 72.5991L29.1994 69.2215C29.3315 69.1207 29.4262 68.9789 29.4687 68.8185H29.411ZM39.5676 68.8185H39.9907C40.1637 68.8869 40.3564 68.8869 40.5293 68.8185H40.7217L34.6239 72.5032L39.5676 68.8185ZM41.722 68.6266C41.7283 68.5692 41.7283 68.5113 41.722 68.4539L42.2029 68.0701L49.1278 67.4176L41.8181 68.6458L41.722 68.6266ZM50.859 66.5924C50.7324 66.6338 50.6183 66.7066 50.5275 66.8039C50.4366 66.9012 50.372 67.0199 50.3396 67.1489L42.3183 67.8014L43.2031 67.0913L51.0706 64.1743L51.263 64.3662L50.9937 66.4772L50.859 66.5924ZM39.7214 63.8481H39.8176V64.0592L38.4711 64.6733C38.3844 64.4787 38.2353 64.3184 38.0472 64.2176C37.8592 64.1168 37.6429 64.0814 37.4324 64.1167L37.317 63.7905L38.8943 63.3875C38.9761 63.5416 39.1093 63.6624 39.2708 63.7289C39.4324 63.7955 39.6122 63.8037 39.7791 63.7521L39.7214 63.8481ZM37.0861 63.8481L34.874 64.4046L27.5836 62.2168C27.6121 62.0776 27.6121 61.934 27.5836 61.7947C27.5084 61.6148 27.3894 61.4564 27.2374 61.3341L27.6221 60.9119L36.7399 62.7158L37.0861 63.8481ZM25.66 62.0825L24.3135 62.3704L24.6982 61.6411L25.6985 61.8522C25.7038 61.8781 25.7103 61.9037 25.7177 61.929L25.66 62.0825ZM24.1404 62.4088L15.5612 64.2127C15.5612 64.2127 15.5612 64.0976 15.5612 64.04C15.4925 63.8394 15.3473 63.674 15.1572 63.5794V63.4451L22.7169 61.2189L24.5251 61.6027L24.1404 62.4088ZM23.0824 60.9694L24.6213 60.5281C24.6899 60.6636 24.7885 60.7817 24.9098 60.8735L24.679 61.3341L23.0824 60.9694ZM24.5636 60.3937L22.7939 60.9119L17.6964 59.7988C17.7154 59.6844 17.7154 59.5677 17.6964 59.4534L20.5625 58.4363L24.6213 60.0099C24.5789 60.1332 24.5658 60.2645 24.5828 60.3937H24.5636ZM17.6387 59.2998C17.5565 59.1037 17.4126 58.9395 17.2287 58.8322C17.0448 58.7248 16.8308 58.6802 16.6192 58.7049L16.0228 56.6707L20.3317 58.3595L17.6387 59.2998ZM16.4653 58.7241C16.3297 58.7708 16.2061 58.8465 16.1031 58.946C16.0001 59.0454 15.9201 59.1662 15.869 59.2998L9.00175 57.1888L7.69371 54.6556L8.25155 53.7345L15.9459 56.7091L16.4653 58.7241ZM11.1177 45.54C11.1753 45.7207 11.27 45.8875 11.3959 46.0295C11.5218 46.1716 11.676 46.286 11.8487 46.3652L11.2139 47.6126L8.07843 44.1391L11.0792 44.8683C11.0372 45.092 11.0504 45.3225 11.1177 45.54ZM11.1177 47.7469L9.19411 51.5851L7.27052 52.6982C7.23721 52.6318 7.18834 52.5745 7.12806 52.5311C7.06777 52.4877 6.99786 52.4594 6.92427 52.4487L5.77012 46.9409L5.15457 43.7169C5.17271 43.6282 5.17271 43.5368 5.15457 43.4482L7.82836 44.1391L11.1177 47.7469ZM5.0584 30.1297V29.4964C5.04894 29.5729 5.04894 29.6502 5.0584 29.7267C5.09903 29.8059 5.14399 29.8827 5.19305 29.957L5.0584 30.1297ZM4.80833 42.623C4.72472 42.5668 4.6342 42.5217 4.53903 42.4886L4.63521 41.721L4.80833 42.623ZM4.38514 39.7635H4.25049L1.46129 34.5436C1.64325 34.4743 1.79209 34.3387 1.87777 34.1642C1.96345 33.9896 1.97959 33.7892 1.92295 33.6033C1.87541 33.4765 1.7959 33.3642 1.69212 33.277L5.00069 30.456L4.38514 39.7635ZM4.11584 39.7635C4.02056 39.8141 3.94342 39.893 3.89516 39.9893C3.8469 40.0856 3.8299 40.1945 3.84654 40.3009C3.86523 40.3639 3.89721 40.4222 3.94034 40.4718C3.98347 40.5215 4.03675 40.5613 4.0966 40.5887L3.84654 41.2988L1.36511 34.6396L4.11584 39.7635ZM4.23125 40.7231C4.30696 40.7426 4.38638 40.7426 4.46208 40.7231L4.55826 41.2604L4.40438 42.4503C4.33416 42.4408 4.26299 42.4408 4.19278 42.4503L3.84654 41.4907L4.23125 40.7231ZM4.05813 42.4694C3.93426 42.5064 3.81914 42.568 3.71964 42.6504C3.62015 42.7327 3.53833 42.8343 3.47907 42.949C3.41982 43.0636 3.38434 43.189 3.37476 43.3176C3.36519 43.4463 3.38171 43.5755 3.42335 43.6977C3.46706 43.8328 3.5392 43.9572 3.63494 44.0623L1.36511 46.6147L3.84654 41.6634L4.05813 42.4694ZM1.51899 46.8833C1.52265 46.8386 1.52265 46.7937 1.51899 46.749L3.65418 44.1391C3.77073 44.2409 3.91111 44.3119 4.06238 44.3455C4.21365 44.379 4.37096 44.374 4.51979 44.331L5.77012 51.9114L1.36511 47.5934C1.44753 47.4969 1.50472 47.3816 1.53157 47.2577C1.55843 47.1338 1.55411 47.0052 1.51899 46.8833ZM4.63521 44.2734C4.80738 44.2025 4.95464 44.0823 5.0584 43.928L5.65471 47.152L6.65497 52.5063H6.55879L6.0779 52.0265L4.63521 44.2734ZM6.3472 52.6598C6.28629 52.7259 6.24362 52.8066 6.22339 52.8941C6.20316 52.9815 6.20605 53.0727 6.23178 53.1588C6.26114 53.2635 6.32401 53.3559 6.41083 53.4217C6.49764 53.4875 6.60364 53.5232 6.71268 53.5234L6.52032 55.2889L6.02019 52.3144L6.3472 52.6598ZM7.05893 57.1697H7.15511L10.329 60.221L11.6371 62.8502L6.8281 60.624C6.88526 60.456 6.88526 60.2739 6.8281 60.1059C6.80376 59.961 6.73826 59.8261 6.63938 59.7172C6.5405 59.6084 6.41239 59.5301 6.27026 59.4917L6.63574 57.1121C6.7659 57.1795 6.91543 57.1998 7.05893 57.1697ZM11.7525 62.9269L12.0795 63.5986L7.25129 60.9311L11.7525 62.9269ZM12.7335 64.3854V64.2703L14.9264 65.249L15.9267 68.3579C15.8759 68.3476 15.8235 68.3476 15.7728 68.3579L12.7335 64.3854ZM16.9654 69.0872L20.9472 67.9741C20.9779 68.058 21.0305 68.1321 21.0996 68.1888C21.1687 68.2455 21.2519 68.2826 21.3403 68.2963C21.4287 68.3101 21.5192 68.2999 21.6023 68.2668C21.6854 68.2338 21.7581 68.1791 21.8128 68.1085L23.6018 68.9145L16.9654 69.0872ZM21.8898 67.9933V67.8974L26.1986 68.1085L27.9106 68.665C27.9106 68.665 27.9106 68.665 27.9106 68.7801L23.8711 68.8953L21.8898 67.9933ZM27.9876 68.9145C28.0494 69.1074 28.1853 69.2682 28.3654 69.3616C28.5456 69.4551 28.7555 69.4737 28.9494 69.4134L29.1417 69.3175L32.8158 72.6951V72.8102L24.3135 68.972L27.9876 68.9145ZM40.8564 68.9145C40.9127 69.0113 41.0013 69.0854 41.1067 69.124C41.2121 69.1626 41.3277 69.1631 41.4334 69.1256C41.54 69.0926 41.6331 69.0263 41.6989 68.9364C41.7647 68.8465 41.7998 68.7379 41.7989 68.6266L50.2242 67.2065L34.143 72.9637L40.8564 68.9145ZM51.4361 64.3854H51.5707L51.263 65.652L51.4361 64.3854ZM51.4361 62.9653L51.2053 63.0996L50.7628 62.6007L49.8587 61.6219L51.5707 60.221H51.7631L51.4361 62.9653ZM51.4361 59.9331L48.9547 60.5856L48.7431 60.3361C48.875 60.2102 48.9698 60.0506 49.0173 59.8747C49.0648 59.6988 49.0631 59.5132 49.0124 59.3382V59.2423L50.936 57.7262L51.7054 59.3766C51.5913 59.4273 51.4994 59.5172 51.4464 59.63C51.3934 59.7428 51.3829 59.8708 51.4168 59.9907L51.4361 59.9331ZM47.1465 59.9331C47.1771 60.0136 47.2158 60.0907 47.2619 60.1634L43.7802 61.929L40.3177 62.831V62.735L44.5881 58.3403L47.1657 59.4726C47.1148 59.6403 47.1017 59.8173 47.1273 59.9907L47.1465 59.9331ZM38.8174 63.3299L37.2785 63.7137L36.9322 62.6582L38.8558 63.0229C38.8217 63.1214 38.8086 63.226 38.8174 63.3299ZM36.7206 62.4855L27.776 60.72L32.9889 54.9627C33.1595 55.068 33.3506 55.1361 33.5495 55.1626C33.7484 55.189 33.9507 55.1732 34.143 55.1162L34.3354 55.0203L34.8548 56.6323L36.7206 62.4855ZM27.1027 61.1805C26.9877 61.1132 26.8602 61.07 26.7279 61.0535C26.5956 61.037 26.4613 61.0476 26.3333 61.0846C26.2002 61.1303 26.0784 61.2035 25.9756 61.2994C25.8728 61.3953 25.7915 61.5117 25.737 61.6411L24.7752 61.43L25.006 61.0078C25.1678 61.0649 25.3443 61.0649 25.5061 61.0078C25.6234 60.9706 25.73 60.9059 25.8171 60.8191C25.9041 60.7323 25.969 60.6259 26.0063 60.5089L27.449 60.7775L27.1027 61.1805ZM25.1022 59.4917C24.9891 59.5372 24.8849 59.6022 24.7944 59.6837L22.5438 57.7646L25.987 56.5555L25.4292 59.4917C25.3221 59.4633 25.2093 59.4633 25.1022 59.4917ZM24.7175 59.7988V59.8948L20.8703 58.3787L22.5053 57.803L24.7175 59.7988ZM20.5433 58.3019L15.9651 56.498L14.3301 50.9134L22.2553 57.6878L20.5433 58.3019ZM15.792 56.3828L8.30926 53.5234L9.23258 51.8154L12.4065 49.8963C12.4774 49.9753 12.5688 50.0333 12.6707 50.0638C12.7725 50.0942 12.8808 50.0961 12.9836 50.069C13.0753 50.0344 13.1554 49.9745 13.2144 49.8963L14.1377 50.6831L15.792 56.3828ZM13.2913 49.8963L13.8877 50.0498L14.0415 50.6064L13.2913 49.8963ZM12.3103 49.8963L9.30952 51.5851L10.8676 48.553L11.2139 47.9197L12.445 49.2822C12.3823 49.3474 12.3371 49.4273 12.3136 49.5145C12.29 49.6017 12.2889 49.6934 12.3103 49.7812V49.8963ZM5.21228 43.2947C5.21228 43.2947 5.21228 43.1603 5.21228 43.1027C5.1652 42.9748 5.0933 42.8575 5.00069 42.7573L4.71215 41.2604V40.6655L7.69371 43.8896L5.21228 43.2947ZM6.05866 30.3792H6.36644L6.52032 30.5135L9.4057 37.595L4.86604 39.8787L6.05866 30.3792ZM6.25102 28.4601V27.8844L8.3862 25.6774L6.46261 28.5561L6.25102 28.4601ZM6.25102 27.6733L6.52032 22.415C6.62855 22.3654 6.72339 22.2908 6.79698 22.1973C6.87057 22.1039 6.9208 21.9943 6.94351 21.8776L11.0023 21.6857L8.82863 25.0825L6.25102 27.6733ZM11.1754 21.6857H12.0987L9.30952 24.5644L11.1754 21.6857ZM14.0608 15.5638H14.3109C14.4241 15.5248 14.5274 15.4616 14.6138 15.3788C14.7001 15.296 14.7674 15.1954 14.811 15.0841L18.2542 16.1204L13.0798 19.1909L14.0608 15.5638ZM20.1393 15.18C20.2214 15.4051 20.3866 15.5904 20.601 15.6982L19.4276 15.986L19.2352 15.8901L19.7931 15.3527L20.1393 15.18ZM19.2352 15.8517H19.0429L19.2352 15.7174V15.8517ZM18.7351 16.2163C18.7351 16.2163 18.7351 16.3123 18.7351 16.3699L13.7338 20.3424L13.4645 20.0737C13.5121 19.9173 13.5121 19.7503 13.4645 19.5939C13.4036 19.4325 13.2966 19.2924 13.1567 19.1909L18.485 16.1204L18.7351 16.2163ZM12.6758 20.5919H12.9066C13.0835 20.5191 13.232 20.3912 13.3298 20.2272L13.6184 20.4383L12.445 21.3979L12.6758 20.5919ZM21.3704 25.6966C21.2402 25.7294 21.1208 25.7955 21.0242 25.8885L13.8492 20.4191L18.6005 16.581C18.6443 16.7104 18.7377 16.8173 18.8602 16.8784C18.9826 16.9395 19.1244 16.9498 19.2545 16.9072C19.3204 16.8875 19.3818 16.8549 19.435 16.8113C19.4883 16.7677 19.5323 16.714 19.5645 16.6533C19.5967 16.5926 19.6165 16.526 19.6227 16.4576C19.6289 16.3892 19.6215 16.3202 19.6007 16.2547L20.928 15.9285L21.582 25.7542C21.5135 25.7282 21.4426 25.709 21.3704 25.6966ZM21.3704 13.9518L23.0824 12.1863L21.4281 13.9902L21.3704 13.9518ZM20.197 14.8922L19.7161 15.3527L18.4658 16.0628L14.8879 14.9497L20.1393 14.8346L20.197 14.8922ZM12.9451 19.1909H12.7912L13.5991 16.9648L12.9451 19.1909ZM11.9256 20.1313C11.9155 20.1884 11.9155 20.2469 11.9256 20.304L11.0408 21.6474L6.8858 21.8201L11.8102 19.901C11.8415 19.9571 11.8803 20.0088 11.9256 20.0545V20.1313ZM6.15484 27.9228L5.44311 28.652C5.38028 28.6339 5.31359 28.6339 5.25075 28.652L6.42414 22.8948L6.15484 27.9228ZM4.98145 29.554V30.3408L1.67288 33.0467L4.82757 29.4197L4.98145 29.554ZM1.21122 34.5436L3.69265 41.4331L1.21122 46.4995C1.13833 46.4535 1.061 46.415 0.98039 46.3844L1.0381 34.5436H1.21122ZM5.77012 52.1608L6.38567 55.7687L6.25102 55.8647L1.26893 47.7086L5.77012 52.1608ZM6.42414 57.1313V57.5919V57.1313ZM6.65497 60.7775L11.8294 63.8865C11.8009 63.9998 11.8009 64.1185 11.8294 64.2319C11.8733 64.3613 11.9666 64.4682 12.0891 64.5293C12.2116 64.5904 12.3533 64.6008 12.4834 64.5581L15.5227 68.5115L6.65497 60.7775ZM16.85 69.2599L23.8903 69.0872L32.7003 72.9254L16.85 69.2599ZM58.6495 58.2827L51.3399 66.5156H51.1668L51.6284 64.5965C51.7172 64.6152 51.809 64.6152 51.8977 64.5965C51.9957 64.5661 52.0866 64.5164 52.165 64.4504C52.2434 64.3844 52.3079 64.3034 52.3545 64.2123C52.4011 64.1211 52.4289 64.0215 52.4364 63.9194C52.4438 63.8173 52.4307 63.7148 52.3979 63.6178L58.6495 58.2827ZM56.8414 53.0052C56.9164 53.1029 57.0075 53.1873 57.1107 53.2547L52.0324 63.0804C51.8723 63.0143 51.6924 63.0143 51.5323 63.0804L51.9362 60.3745H52.0516C52.1173 60.3544 52.1784 60.3215 52.2313 60.2778C52.2843 60.2341 52.3281 60.1804 52.3602 60.1198C52.3924 60.0592 52.4122 59.9929 52.4187 59.9247C52.4252 59.8564 52.4181 59.7876 52.3979 59.722C52.3777 59.6565 52.3447 59.5956 52.3009 59.5428C52.2571 59.49 52.2033 59.4463 52.1426 59.4142C52.0818 59.3821 52.0154 59.3623 51.947 59.3558C51.8786 59.3494 51.8095 59.3564 51.7439 59.3766L50.9744 57.707L56.8414 53.0052ZM48.3776 54.2718C48.4669 54.4125 48.5996 54.5204 48.7557 54.5793C48.9119 54.6381 49.083 54.6447 49.2432 54.5981L50.8013 57.5727L48.8777 59.1079C48.7674 58.9265 48.6 58.7867 48.4016 58.7103C48.2033 58.6339 47.9851 58.6253 47.7813 58.6857C47.6457 58.7324 47.5221 58.8081 47.4191 58.9076C47.3161 59.0071 47.2361 59.1278 47.185 59.2615L44.6458 58.1484L48.3776 54.2718ZM44.2996 58.2827L40.1062 62.6007C40.0164 62.461 39.8827 62.3551 39.726 62.2995C39.5693 62.2439 39.3985 62.2418 39.2405 62.2936C39.1219 62.3341 39.0146 62.4022 38.9277 62.4923C38.8407 62.5824 38.7765 62.692 38.7404 62.8118L36.8168 62.4471L34.8932 56.2485L34.4316 54.8476C34.6934 54.6767 34.8952 54.4284 35.0087 54.1375L44.2996 58.2827ZM32.3926 54.2335C32.4874 54.4392 32.6251 54.6224 32.7965 54.7708L27.5259 60.5281L26.0255 60.2402C26.054 60.1268 26.054 60.0081 26.0255 59.8948C25.9856 59.7813 25.9196 59.6788 25.8327 59.5954C25.7458 59.5121 25.6406 59.4503 25.5254 59.415L26.1024 56.3828L32.3926 54.2335ZM26.6218 53.2163L26.0255 56.3636L22.4092 57.5727L14.2724 50.6639L14.0608 49.8963L26.6218 53.2163ZM13.8492 49.762L13.3298 49.6276C13.3392 49.5769 13.3392 49.5249 13.3298 49.4741C13.3125 49.4068 13.2813 49.3438 13.2382 49.2892C13.195 49.2346 13.141 49.1896 13.0794 49.1571C13.0178 49.1246 12.9501 49.1053 12.8806 49.1004C12.8111 49.0955 12.7413 49.1051 12.6758 49.1287L11.387 47.6894L12.0603 46.3844C12.3407 46.4809 12.6454 46.4809 12.9259 46.3844L13.8492 49.762ZM11.9256 43.832C11.7246 43.9019 11.5431 44.0184 11.396 44.1719C11.2489 44.3253 11.1403 44.5114 11.0792 44.7148L10.1559 44.4845L7.9053 43.9471L4.78909 40.4928C4.81839 40.4296 4.83356 40.3609 4.83356 40.2913C4.83356 40.2217 4.81839 40.1529 4.78909 40.0898L9.4057 37.7293L11.9256 43.832ZM12.2334 35.6375C12.1947 35.7362 12.1947 35.8458 12.2334 35.9446C12.2234 35.9888 12.2234 36.0347 12.2334 36.0789L9.6173 37.499L6.77039 30.7054L12.2334 35.6375ZM6.96275 29.0934C6.89255 28.9266 6.77981 28.7811 6.63574 28.6712L8.94404 25.1593L12.368 21.6474L13.7338 20.5151L20.3124 25.5239L20.9472 26.0037C20.7906 26.1781 20.7019 26.4028 20.6972 26.637L6.96275 29.0934ZM21.8898 15.3527C21.9773 15.2363 22.0353 15.1004 22.0587 14.9567C22.0822 14.8129 22.0704 14.6657 22.0244 14.5275C21.9581 14.3112 21.8143 14.1268 21.6205 14.0094L24.275 11.1308C24.3779 11.236 24.5066 11.3126 24.6483 11.353C24.79 11.3934 24.9398 11.3962 25.0829 11.361C25.281 11.2874 25.4452 11.1441 25.5446 10.958L30.1227 13.4337L21.8898 15.3527ZM39.8369 10.7469L32.7003 13.7407C32.6184 13.614 32.5059 13.5097 32.3732 13.4375C32.2405 13.3654 32.0917 13.3275 31.9405 13.3275C31.7894 13.3275 31.6406 13.3654 31.5079 13.4375C31.3751 13.5097 31.2626 13.614 31.1807 13.7407L30.5267 13.4337L32.9119 12.8579C32.9628 12.971 33.054 13.0611 33.1678 13.1108C33.2815 13.1604 33.4098 13.1661 33.5275 13.1266C33.595 13.1093 33.6581 13.0782 33.7128 13.0352C33.7675 12.9921 33.8126 12.9382 33.8452 12.8768C33.8778 12.8153 33.8972 12.7478 33.9021 12.6784C33.907 12.6091 33.8974 12.5395 33.8737 12.4741C33.8543 12.4085 33.8215 12.3476 33.7775 12.2951C33.7335 12.2427 33.6791 12.1998 33.6178 12.1692C33.5564 12.1386 33.4894 12.121 33.421 12.1173C33.3525 12.1136 33.284 12.124 33.2197 12.1479C33.1492 12.168 33.0845 12.2046 33.0309 12.2547C32.9774 12.3047 32.9366 12.3668 32.9119 12.4357L25.6023 10.5167L39.8369 10.7469ZM24.1211 10.7469C24.1211 10.7469 24.1211 10.7469 24.1211 10.8813L21.1588 13.9134C21.0452 13.885 20.9262 13.885 20.8126 13.9134C20.6587 13.9631 20.5199 14.0507 20.4089 14.1681C20.2979 14.2855 20.2185 14.4289 20.1778 14.5851L14.8687 14.7003L24.1019 10.8621L24.1211 10.7469ZM13.9069 15.5447L12.6373 19.0758H12.4257C12.2933 19.1188 12.175 19.1968 12.0836 19.3016C11.9921 19.4063 11.9309 19.5339 11.9064 19.6707L6.96275 21.5898L13.6761 15.3527C13.7282 15.4416 13.8099 15.5095 13.9069 15.5447ZM6.21255 22.5109L5.00069 28.4793H4.96222C4.89625 28.499 4.83486 28.5316 4.78164 28.5752C4.72842 28.6188 4.68441 28.6725 4.65219 28.7332C4.61997 28.794 4.60018 28.8605 4.59396 28.9289C4.58774 28.9973 4.59522 29.0663 4.61597 29.1318C4.64077 29.1974 4.68024 29.2565 4.73139 29.3045L1.38434 33.1427L6.21255 22.5109ZM1.26893 47.9772L6.23178 55.9798C6.151 56.0734 6.09467 56.1854 6.06782 56.306C6.04097 56.4265 6.04443 56.5518 6.0779 56.6707C6.13355 56.814 6.22651 56.9398 6.3472 57.0353L6.0779 59.4917H5.8663L1.26893 47.9772Z" fill="#606060"/>
        <path d="M54.9763 48.7064C54.7824 48.9037 54.6738 49.169 54.6738 49.4453C54.6738 49.7216 54.7824 49.9868 54.9763 50.1841C55.0715 50.2846 55.1863 50.3646 55.3137 50.4193C55.441 50.474 55.5782 50.5022 55.7168 50.5022C55.8555 50.5022 55.9927 50.474 56.12 50.4193C56.2473 50.3646 56.3621 50.2846 56.4574 50.1841C56.6538 49.9882 56.7642 49.7224 56.7642 49.4453C56.7642 49.1682 56.6538 48.9024 56.4574 48.7064C56.261 48.5105 55.9946 48.4004 55.7168 48.4004C55.4391 48.4004 55.1727 48.5105 54.9763 48.7064Z" fill="#606060"/>
        <path d="M33.027 7.38853C33.6007 7.38853 34.0658 6.92456 34.0658 6.35223C34.0658 5.77989 33.6007 5.31592 33.027 5.31592C32.4533 5.31592 31.9883 5.77989 31.9883 6.35223C31.9883 6.92456 32.4533 7.38853 33.027 7.38853Z" fill="#606060"/>
        <path d="M62.5936 46.3459C62.5249 46.4137 62.4705 46.4944 62.4333 46.5834C62.3961 46.6723 62.377 46.7677 62.377 46.8641C62.377 46.9604 62.3961 47.0558 62.4333 47.1448C62.4705 47.2337 62.5249 47.3144 62.5936 47.3822C62.6599 47.4501 62.7391 47.5041 62.8267 47.5409C62.9142 47.5778 63.0083 47.5968 63.1033 47.5968C63.1983 47.5968 63.2924 47.5778 63.3799 47.5409C63.4675 47.5041 63.5467 47.4501 63.6131 47.3822C63.6817 47.3144 63.7362 47.2337 63.7733 47.1448C63.8105 47.0558 63.8297 46.9604 63.8297 46.8641C63.8297 46.7677 63.8105 46.6723 63.7733 46.5834C63.7362 46.4944 63.6817 46.4137 63.6131 46.3459C63.4744 46.2178 63.2923 46.1466 63.1033 46.1466C62.9143 46.1466 62.7322 46.2178 62.5936 46.3459Z" fill="#606060"/>
        <path d="M45.6841 1.45851C46.0878 1.45851 46.4151 1.13201 46.4151 0.729253C46.4151 0.326498 46.0878 0 45.6841 0C45.2804 0 44.9531 0.326498 44.9531 0.729253C44.9531 1.13201 45.2804 1.45851 45.6841 1.45851Z" fill="#606060"/>
        <path d="M50.4357 5.37348C50.3801 5.43017 50.3424 5.50199 50.3275 5.57993C50.3126 5.65788 50.321 5.73849 50.3519 5.81165C50.3827 5.88481 50.4345 5.94727 50.5007 5.99119C50.567 6.03511 50.6447 6.05854 50.7243 6.05854C50.8038 6.05854 50.8816 6.03511 50.9478 5.99119C51.0141 5.94727 51.0659 5.88481 51.0967 5.81165C51.1275 5.73849 51.136 5.65788 51.1211 5.57993C51.1061 5.50199 51.0685 5.43017 51.0128 5.37348C50.9345 5.30064 50.8314 5.26013 50.7243 5.26013C50.6172 5.26013 50.5141 5.30064 50.4357 5.37348Z" fill="#606060"/>
    </g>
    <path d="M1.92 112V95.368H13.056V98.512H5.664V101.992H12.24V105.136H5.664V112H1.92ZM14.6269 105.784C14.6269 104.664 14.7949 103.688 15.1309 102.856C15.4829 102.008 15.9389 101.304 16.4989 100.744C17.0589 100.184 17.6989 99.76 18.4189 99.472C19.1549 99.184 19.9069 99.04 20.6749 99.04C22.4669 99.04 23.8829 99.592 24.9229 100.696C25.9629 101.784 26.4829 103.392 26.4829 105.52C26.4829 105.728 26.4749 105.96 26.4589 106.216C26.4429 106.456 26.4269 106.672 26.4109 106.864H18.2989C18.3789 107.6 18.7229 108.184 19.3309 108.616C19.9389 109.048 20.7549 109.264 21.7789 109.264C22.4349 109.264 23.0749 109.208 23.6989 109.096C24.3389 108.968 24.8589 108.816 25.2589 108.64L25.7389 111.544C25.5469 111.64 25.2909 111.736 24.9709 111.832C24.6509 111.928 24.2909 112.008 23.8909 112.072C23.5069 112.152 23.0909 112.216 22.6429 112.264C22.1949 112.312 21.7469 112.336 21.2989 112.336C20.1629 112.336 19.1709 112.168 18.3229 111.832C17.4909 111.496 16.7949 111.04 16.2349 110.464C15.6909 109.872 15.2829 109.176 15.0109 108.376C14.7549 107.576 14.6269 106.712 14.6269 105.784ZM23.0269 104.416C23.0109 104.112 22.9549 103.816 22.8589 103.528C22.7789 103.24 22.6429 102.984 22.4509 102.76C22.2749 102.536 22.0429 102.352 21.7549 102.208C21.4829 102.064 21.1389 101.992 20.7229 101.992C20.3229 101.992 19.9789 102.064 19.6909 102.208C19.4029 102.336 19.1629 102.512 18.9709 102.736C18.7789 102.96 18.6269 103.224 18.5149 103.528C18.4189 103.816 18.3469 104.112 18.2989 104.416H23.0269ZM28.6425 105.784C28.6425 104.664 28.8105 103.688 29.1465 102.856C29.4985 102.008 29.9545 101.304 30.5145 100.744C31.0745 100.184 31.7145 99.76 32.4345 99.472C33.1705 99.184 33.9225 99.04 34.6905 99.04C36.4825 99.04 37.8985 99.592 38.9385 100.696C39.9785 101.784 40.4985 103.392 40.4985 105.52C40.4985 105.728 40.4905 105.96 40.4745 106.216C40.4585 106.456 40.4425 106.672 40.4265 106.864H32.3145C32.3945 107.6 32.7385 108.184 33.3465 108.616C33.9545 109.048 34.7705 109.264 35.7945 109.264C36.4505 109.264 37.0905 109.208 37.7145 109.096C38.3545 108.968 38.8745 108.816 39.2745 108.64L39.7545 111.544C39.5625 111.64 39.3065 111.736 38.9865 111.832C38.6665 111.928 38.3065 112.008 37.9065 112.072C37.5225 112.152 37.1065 112.216 36.6585 112.264C36.2105 112.312 35.7625 112.336 35.3145 112.336C34.1785 112.336 33.1865 112.168 32.3385 111.832C31.5065 111.496 30.8105 111.04 30.2505 110.464C29.7065 109.872 29.2985 109.176 29.0265 108.376C28.7705 107.576 28.6425 106.712 28.6425 105.784ZM37.0425 104.416C37.0265 104.112 36.9705 103.816 36.8745 103.528C36.7945 103.24 36.6585 102.984 36.4665 102.76C36.2905 102.536 36.0585 102.352 35.7705 102.208C35.4985 102.064 35.1545 101.992 34.7385 101.992C34.3385 101.992 33.9945 102.064 33.7065 102.208C33.4185 102.336 33.1785 102.512 32.9865 102.736C32.7945 102.96 32.6425 103.224 32.5305 103.528C32.4345 103.816 32.3625 104.112 32.3145 104.416H37.0425ZM46.3061 105.592C46.3061 106.696 46.5541 107.584 47.0501 108.256C47.5461 108.928 48.2821 109.264 49.2581 109.264C49.5781 109.264 49.8741 109.256 50.1461 109.24C50.4181 109.208 50.6421 109.176 50.8181 109.144V102.64C50.5941 102.496 50.2981 102.376 49.9301 102.28C49.5781 102.184 49.2181 102.136 48.8501 102.136C47.1541 102.136 46.3061 103.288 46.3061 105.592ZM54.3941 111.592C54.0741 111.688 53.7061 111.784 53.2901 111.88C52.8741 111.96 52.4341 112.032 51.9701 112.096C51.5221 112.16 51.0581 112.208 50.5781 112.24C50.1141 112.288 49.6661 112.312 49.2341 112.312C48.1941 112.312 47.2661 112.16 46.4501 111.856C45.6341 111.552 44.9461 111.12 44.3861 110.56C43.8261 109.984 43.3941 109.296 43.0901 108.496C42.8021 107.68 42.6581 106.768 42.6581 105.76C42.6581 104.736 42.7861 103.816 43.0421 103C43.2981 102.168 43.6661 101.464 44.1461 100.888C44.6261 100.312 45.2101 99.872 45.8981 99.568C46.6021 99.264 47.4021 99.112 48.2981 99.112C48.7941 99.112 49.2341 99.16 49.6181 99.256C50.0181 99.352 50.4181 99.488 50.8181 99.664V93.952L54.3941 93.376V111.592ZM65.8305 105.592C65.8305 103.288 64.9825 102.136 63.2865 102.136C62.9185 102.136 62.5505 102.184 62.1825 102.28C61.8305 102.376 61.5425 102.496 61.3185 102.64V109.144C61.4945 109.176 61.7185 109.208 61.9905 109.24C62.2625 109.256 62.5585 109.264 62.8785 109.264C63.8545 109.264 64.5905 108.928 65.0865 108.256C65.5825 107.584 65.8305 106.696 65.8305 105.592ZM69.4785 105.688C69.4785 106.696 69.3265 107.608 69.0225 108.424C68.7345 109.24 68.3105 109.936 67.7505 110.512C67.1905 111.088 66.5025 111.536 65.6865 111.856C64.8705 112.16 63.9425 112.312 62.9025 112.312C62.4705 112.312 62.0145 112.288 61.5345 112.24C61.0705 112.208 60.6065 112.16 60.1425 112.096C59.6945 112.032 59.2625 111.96 58.8465 111.88C58.4305 111.784 58.0625 111.688 57.7425 111.592V93.952L61.3185 93.376V99.664C61.7185 99.488 62.1345 99.352 62.5665 99.256C62.9985 99.16 63.4625 99.112 63.9585 99.112C64.8545 99.112 65.6465 99.272 66.3345 99.592C67.0225 99.896 67.5985 100.336 68.0625 100.912C68.5265 101.488 68.8785 102.184 69.1185 103C69.3585 103.8 69.4785 104.696 69.4785 105.688ZM77.0509 109.504C77.4029 109.504 77.7389 109.496 78.0589 109.48C78.3789 109.464 78.6349 109.44 78.8269 109.408V106.696C78.6829 106.664 78.4669 106.632 78.1789 106.6C77.8909 106.568 77.6269 106.552 77.3869 106.552C77.0509 106.552 76.7309 106.576 76.4269 106.624C76.1389 106.656 75.8829 106.728 75.6589 106.84C75.4349 106.952 75.2589 107.104 75.1309 107.296C75.0029 107.488 74.9389 107.728 74.9389 108.016C74.9389 108.576 75.1229 108.968 75.4909 109.192C75.8749 109.4 76.3949 109.504 77.0509 109.504ZM76.7629 99.04C77.8189 99.04 78.6989 99.16 79.4029 99.4C80.1069 99.64 80.6669 99.984 81.0829 100.432C81.5149 100.88 81.8189 101.424 81.9949 102.064C82.1709 102.704 82.2589 103.416 82.2589 104.2V111.64C81.7469 111.752 81.0349 111.88 80.1229 112.024C79.2109 112.184 78.1069 112.264 76.8109 112.264C75.9949 112.264 75.2509 112.192 74.5789 112.048C73.9229 111.904 73.3549 111.672 72.8749 111.352C72.3949 111.016 72.0269 110.584 71.7709 110.056C71.5149 109.528 71.3869 108.88 71.3869 108.112C71.3869 107.376 71.5309 106.752 71.8189 106.24C72.1229 105.728 72.5229 105.32 73.0189 105.016C73.5149 104.712 74.0829 104.496 74.7229 104.368C75.3629 104.224 76.0269 104.152 76.7149 104.152C77.1789 104.152 77.5869 104.176 77.9389 104.224C78.3069 104.256 78.6029 104.304 78.8269 104.368V104.032C78.8269 103.424 78.6429 102.936 78.2749 102.568C77.9069 102.2 77.2669 102.016 76.3549 102.016C75.7469 102.016 75.1469 102.064 74.5549 102.16C73.9629 102.24 73.4509 102.36 73.0189 102.52L72.5629 99.64C72.7709 99.576 73.0269 99.512 73.3309 99.448C73.6509 99.368 73.9949 99.304 74.3629 99.256C74.7309 99.192 75.1149 99.144 75.5149 99.112C75.9309 99.064 76.3469 99.04 76.7629 99.04ZM84.8925 105.688C84.8925 104.776 85.0365 103.92 85.3245 103.12C85.6285 102.304 86.0605 101.6 86.6205 101.008C87.1805 100.4 87.8605 99.92 88.6605 99.568C89.4605 99.216 90.3725 99.04 91.3965 99.04C92.0685 99.04 92.6845 99.104 93.2445 99.232C93.8045 99.344 94.3485 99.512 94.8765 99.736L94.1325 102.592C93.7965 102.464 93.4285 102.352 93.0285 102.256C92.6285 102.16 92.1805 102.112 91.6845 102.112C90.6285 102.112 89.8365 102.44 89.3085 103.096C88.7965 103.752 88.5405 104.616 88.5405 105.688C88.5405 106.824 88.7805 107.704 89.2605 108.328C89.7565 108.952 90.6125 109.264 91.8285 109.264C92.2605 109.264 92.7245 109.224 93.2205 109.144C93.7165 109.064 94.1725 108.936 94.5885 108.76L95.0925 111.688C94.6765 111.864 94.1565 112.016 93.5325 112.144C92.9085 112.272 92.2205 112.336 91.4685 112.336C90.3165 112.336 89.3245 112.168 88.4925 111.832C87.6605 111.48 86.9725 111.008 86.4285 110.416C85.9005 109.824 85.5085 109.128 85.2525 108.328C85.0125 107.512 84.8925 106.632 84.8925 105.688ZM101.069 103.936C101.421 103.552 101.781 103.152 102.148 102.736C102.533 102.32 102.901 101.912 103.253 101.512C103.605 101.096 103.933 100.704 104.237 100.336C104.557 99.968 104.829 99.648 105.053 99.376H109.301C108.453 100.352 107.621 101.288 106.805 102.184C106.005 103.064 105.125 103.976 104.165 104.92C104.645 105.352 105.141 105.872 105.653 106.48C106.165 107.072 106.661 107.688 107.141 108.328C107.621 108.968 108.061 109.608 108.461 110.248C108.861 110.888 109.197 111.472 109.469 112H105.365C105.109 111.584 104.813 111.128 104.477 110.632C104.157 110.12 103.813 109.616 103.445 109.12C103.077 108.608 102.685 108.12 102.269 107.656C101.869 107.192 101.469 106.8 101.069 106.48V112H97.4925V93.952L101.069 93.376V103.936ZM129.733 95.368V98.56H124.717V112H120.973V98.56H115.957V95.368H129.733ZM141.902 105.664C141.902 106.656 141.758 107.568 141.47 108.4C141.182 109.216 140.766 109.92 140.222 110.512C139.678 111.088 139.022 111.536 138.254 111.856C137.502 112.176 136.654 112.336 135.71 112.336C134.782 112.336 133.934 112.176 133.166 111.856C132.414 111.536 131.766 111.088 131.222 110.512C130.678 109.92 130.254 109.216 129.95 108.4C129.646 107.568 129.494 106.656 129.494 105.664C129.494 104.672 129.646 103.768 129.95 102.952C130.27 102.136 130.702 101.44 131.246 100.864C131.806 100.288 132.462 99.84 133.214 99.52C133.982 99.2 134.814 99.04 135.71 99.04C136.622 99.04 137.454 99.2 138.206 99.52C138.974 99.84 139.63 100.288 140.174 100.864C140.718 101.44 141.142 102.136 141.446 102.952C141.75 103.768 141.902 104.672 141.902 105.664ZM138.254 105.664C138.254 104.56 138.03 103.696 137.582 103.072C137.15 102.432 136.526 102.112 135.71 102.112C134.894 102.112 134.262 102.432 133.814 103.072C133.366 103.696 133.142 104.56 133.142 105.664C133.142 106.768 133.366 107.648 133.814 108.304C134.262 108.944 134.894 109.264 135.71 109.264C136.526 109.264 137.15 108.944 137.582 108.304C138.03 107.648 138.254 106.768 138.254 105.664ZM156.48 105.664C156.48 106.656 156.336 107.568 156.048 108.4C155.76 109.216 155.344 109.92 154.8 110.512C154.256 111.088 153.6 111.536 152.832 111.856C152.08 112.176 151.232 112.336 150.288 112.336C149.36 112.336 148.512 112.176 147.744 111.856C146.992 111.536 146.344 111.088 145.8 110.512C145.256 109.92 144.832 109.216 144.528 108.4C144.224 107.568 144.072 106.656 144.072 105.664C144.072 104.672 144.224 103.768 144.528 102.952C144.848 102.136 145.28 101.44 145.824 100.864C146.384 100.288 147.04 99.84 147.792 99.52C148.56 99.2 149.392 99.04 150.288 99.04C151.2 99.04 152.032 99.2 152.784 99.52C153.552 99.84 154.208 100.288 154.752 100.864C155.296 101.44 155.72 102.136 156.024 102.952C156.328 103.768 156.48 104.672 156.48 105.664ZM152.832 105.664C152.832 104.56 152.608 103.696 152.16 103.072C151.728 102.432 151.104 102.112 150.288 102.112C149.472 102.112 148.84 102.432 148.392 103.072C147.944 103.696 147.72 104.56 147.72 105.664C147.72 106.768 147.944 107.648 148.392 108.304C148.84 108.944 149.472 109.264 150.288 109.264C151.104 109.264 151.728 108.944 152.16 108.304C152.608 107.648 152.832 106.768 152.832 105.664ZM164.29 112.24C163.25 112.224 162.402 112.112 161.746 111.904C161.106 111.696 160.594 111.408 160.21 111.04C159.842 110.656 159.586 110.2 159.442 109.672C159.314 109.128 159.25 108.52 159.25 107.848V93.952L162.826 93.376V107.128C162.826 107.448 162.85 107.736 162.898 107.992C162.946 108.248 163.034 108.464 163.162 108.64C163.306 108.816 163.506 108.96 163.762 109.072C164.018 109.184 164.362 109.256 164.794 109.288L164.29 112.24Z" fill="#606060"/>
    <defs>
        <clipPath id="clip0_714_2045">
            <rect width="145" height="74" fill="white"/>
        </clipPath>
    </defs>
</svg>
