<svg width="145" height="74" viewBox="0 0 145 74" fill="none" xmlns="http://www.w3.org/2000/svg">
    <g clip-path="url(#clip0_925_2507)">
        <path d="M30.7773 44.542C30.3353 44.5691 29.8921 44.5691 29.4501 44.542L28.1228 44.3309C27.7185 44.2249 27.3203 44.0968 26.9302 43.9471C26.6473 43.8651 26.3708 43.7625 26.103 43.6401L26.9302 40.7998C27.3341 40.9533 27.8535 41.1453 28.469 41.3372C29.2267 41.5456 30.0108 41.6425 30.7966 41.625C31.6162 41.6797 32.4318 41.4712 33.1241 41.0301C33.4674 40.6899 33.6905 40.2477 33.7599 39.77C33.8293 39.2924 33.7412 38.8051 33.5088 38.3818C33.325 38.0957 33.0742 37.8585 32.7779 37.6909C32.4388 37.5014 32.0667 37.3776 31.6814 37.3263C31.2368 37.2486 30.7863 37.21 30.3349 37.2111H28.9884V34.4284H30.508C30.8344 34.4584 31.1628 34.4584 31.4891 34.4284C31.7862 34.3634 32.0717 34.2534 32.3354 34.1022C32.5821 33.9646 32.7827 33.7577 32.9125 33.5073C33.072 33.213 33.1516 32.8822 33.1434 32.5477C33.153 32.285 33.0862 32.025 32.951 31.7993C32.8406 31.5872 32.6826 31.4033 32.4893 31.262C32.2821 31.1255 32.055 31.022 31.8161 30.9549C31.5658 30.8852 31.3065 30.8529 31.0466 30.8589C30.3937 30.8456 29.7433 30.943 29.1231 31.1468C28.5852 31.3417 28.0694 31.5926 27.5842 31.8953L26.3723 29.3812C26.6735 29.1631 26.9883 28.9644 27.3149 28.7863C27.6671 28.603 28.0338 28.449 28.4113 28.3258C28.8282 28.1678 29.26 28.0521 29.7001 27.9803C30.1741 27.8777 30.6578 27.8263 31.1428 27.8268C31.964 27.8121 32.7823 27.9288 33.5665 28.1722C34.1943 28.3553 34.7728 28.6766 35.2593 29.1126C35.703 29.4982 36.0463 29.9855 36.2596 30.5327C36.4787 31.1022 36.5896 31.7074 36.5866 32.3175C36.5774 32.9629 36.3912 33.5934 36.048 34.1406C35.7148 34.7172 35.22 35.1841 34.6245 35.4839C35.4016 35.7889 36.0709 36.3164 36.5481 37C37.0075 37.7218 37.2418 38.5633 37.2214 39.4181C37.2321 40.1133 37.108 40.8041 36.8559 41.4523C36.6022 42.072 36.207 42.624 35.7017 43.0643C35.1406 43.5451 34.4856 43.9045 33.7781 44.1198C32.8087 44.4277 31.7943 44.5704 30.7773 44.542Z" fill="#606060"/>
        <path d="M54.5336 36.2132C54.5489 37.4483 54.3201 38.6742 53.8604 39.8211C53.4322 40.8126 52.7727 41.6877 51.9368 42.3734C51.0964 43.0856 50.1124 43.6091 49.0514 43.9087C47.7985 44.2528 46.5036 44.4207 45.2042 44.4077C44.5502 44.4077 43.8 44.4077 42.9344 44.4077C42.081 44.3518 41.2325 44.2363 40.3953 44.0622V28.5176C41.2539 28.3636 42.1211 28.261 42.9921 28.2106C43.8962 28.2106 44.6656 28.2106 45.3196 28.2106C46.5723 28.1966 47.8211 28.3515 49.0322 28.6712C50.088 28.9445 51.0722 29.442 51.9175 30.1297C52.7571 30.8041 53.4176 31.674 53.8411 32.6629C54.2928 33.7926 54.5277 34.9969 54.5336 36.2132ZM44.127 41.2796H44.7233H45.512C46.2372 41.3426 46.9677 41.254 47.6566 41.0194C48.3456 40.7848 48.9779 40.4093 49.5131 39.917C50.4271 38.8907 50.8973 37.5456 50.8211 36.1748C50.8785 35.4843 50.7974 34.7893 50.5828 34.1303C50.3681 33.4713 50.0241 32.8616 49.5708 32.3366C49.0361 31.8654 48.4104 31.5083 47.7323 31.2871C47.0542 31.066 46.3379 30.9856 45.6274 31.0508H44.858H44.127V41.2796Z" fill="#606060"/>
        <path d="M62.228 28.0571C64.1547 27.9366 66.0745 28.3837 67.7487 29.3429C68.389 29.7799 68.9035 30.3765 69.241 31.0735C69.5784 31.7704 69.7271 32.5433 69.6723 33.3154C69.717 34.2828 69.4471 35.2387 68.9028 36.0405C68.3244 36.7839 67.5526 37.3548 66.6715 37.6909C67.0372 38.1252 67.3776 38.5802 67.691 39.0535C68.0564 39.5716 68.4027 40.109 68.7489 40.6655C69.0952 41.222 69.4222 41.8169 69.7492 42.4119C70.0762 43.0068 70.3648 43.6209 70.6533 44.1966H66.6138L65.7289 42.6038C65.4211 42.0664 65.1134 41.5483 64.8056 41.0493C64.4786 40.5312 64.1708 40.0514 63.863 39.61C63.5786 39.1836 63.2703 38.7736 62.9397 38.3818H61.17V44.139H57.5344V28.4793C58.3411 28.3197 59.157 28.2108 59.9774 28.153C60.8238 28.0955 61.5547 28.0571 62.228 28.0571ZM62.4396 31.1276H61.7278H61.1508V35.4648H62.151C63.1536 35.5359 64.1582 35.3578 65.0749 34.9466C65.3593 34.7607 65.5892 34.503 65.7413 34.1996C65.8934 33.8962 65.9621 33.558 65.9405 33.2194C65.9643 32.8864 65.894 32.5534 65.7376 32.2583C65.5812 31.9632 65.3449 31.7177 65.0557 31.5498C64.2305 31.2008 63.333 31.0559 62.4396 31.1276V31.1276Z" fill="#606060"/>
        <path d="M71.5573 38.2282C71.5343 37.2657 71.6975 36.3079 72.0382 35.4071C72.3406 34.658 72.7847 33.9738 73.3463 33.3921C73.8905 32.8528 74.5473 32.44 75.2698 32.1831C75.9529 31.9013 76.6852 31.7578 77.4243 31.7609C78.1765 31.7242 78.9281 31.8452 79.6305 32.1163C80.3329 32.3873 80.9706 32.8024 81.5023 33.3345C82.5856 34.6307 83.1234 36.2953 83.0027 37.9787C83.0027 38.1898 83.0027 38.4009 83.0027 38.6312C83.0027 38.8615 83.0027 39.0918 83.0027 39.2645H75.0198C75.0503 39.6025 75.1559 39.9294 75.3289 40.2215C75.5019 40.5136 75.738 40.7636 76.02 40.9533C76.7154 41.4052 77.5386 41.6206 78.3668 41.5674C79.0121 41.5715 79.6562 41.5137 80.2904 41.3947C80.7983 41.3094 81.2951 41.1677 81.7716 40.9725L82.2332 43.7552C81.9993 43.8742 81.7546 43.9706 81.5023 44.043C81.1684 44.1442 80.8277 44.2211 80.4828 44.2733C80.0759 44.3537 79.6649 44.4113 79.2517 44.446C78.8226 44.4753 78.392 44.4753 77.9629 44.446C77.0029 44.526 76.0366 44.4218 75.116 44.139C74.3874 43.8396 73.7315 43.3881 73.1924 42.8148C72.6631 42.2666 72.2566 41.6125 71.9997 40.8957C71.7017 40.038 71.5521 39.136 71.5573 38.2282V38.2282ZM79.6364 36.9232C79.6148 36.6372 79.5632 36.3542 79.4825 36.0788C79.4056 35.8024 79.2676 35.5466 79.0785 35.3304C78.9012 35.112 78.6779 34.9351 78.4245 34.8122C78.1084 34.6558 77.7574 34.5832 77.405 34.6011C77.0675 34.5882 76.7316 34.6539 76.424 34.793C76.1598 34.9163 75.9241 35.0927 75.7315 35.3112C75.5391 35.5281 75.3949 35.7832 75.3083 36.0596C75.2046 36.3397 75.1273 36.6288 75.0775 36.9232H79.6364Z" fill="#606060"/>
        <path d="M85.5994 32.5094C86.3463 32.3069 87.1041 32.1467 87.8692 32.0296C88.83 31.8802 89.8015 31.8096 90.7738 31.8185C91.6506 31.7928 92.5246 31.9294 93.3514 32.2215C93.9866 32.4493 94.5504 32.8398 94.9865 33.3538C95.3928 33.8674 95.6816 34.4634 95.8328 35.1001C96.0425 35.8376 96.1588 36.5984 96.1791 37.3646V44.139H92.6589V37.7677C92.7171 36.9622 92.5647 36.1554 92.2165 35.4264C92.0278 35.1792 91.7777 34.9854 91.491 34.8643C91.2042 34.7431 90.8907 34.6987 90.5815 34.7355H89.7928H89.0426V44.139H85.5994V32.5094Z" fill="#606060"/>
        <path d="M109.914 43.8127L108.856 44.0814L107.605 44.2925L106.259 44.446H104.951C104.048 44.5012 103.143 44.3973 102.277 44.139C101.529 43.8786 100.851 43.451 100.294 42.8888C99.7372 42.3267 99.3167 41.6449 99.0646 40.8957C98.7605 40.0595 98.6106 39.1753 98.6222 38.2858C98.617 37.3901 98.7401 36.4983 98.9877 35.6374C99.1829 34.8751 99.5368 34.1624 100.026 33.5456C100.48 32.993 101.061 32.5584 101.719 32.279C102.441 31.9693 103.222 31.8187 104.008 31.8376C104.442 31.8297 104.875 31.8749 105.297 31.972C105.684 32.074 106.063 32.2022 106.432 32.3558V26.8672L109.875 26.3107L109.914 43.8127ZM102.219 38.0555C102.173 38.9607 102.423 39.8565 102.931 40.6079C103.177 40.9293 103.499 41.185 103.868 41.3524C104.238 41.5198 104.642 41.5937 105.047 41.5674H105.797H106.432V35.2152C106.173 35.0636 105.895 34.9474 105.605 34.8698C105.26 34.7792 104.904 34.7341 104.547 34.7355C102.95 34.7355 102.142 35.8485 102.142 38.0555H102.219Z" fill="#606060"/>
        <path d="M112.568 38.2282C112.551 37.2645 112.721 36.3066 113.068 35.4071C113.364 34.6542 113.809 33.9688 114.376 33.3921C114.923 32.8552 115.579 32.4428 116.3 32.1831C116.984 31.9033 117.716 31.7598 118.454 31.7609C119.21 31.7238 119.964 31.8447 120.67 32.1157C121.375 32.3867 122.016 32.8018 122.552 33.3345C123.635 34.6307 124.173 36.2953 124.052 37.9787C124.052 38.1898 124.052 38.4009 124.052 38.6312C124.052 38.8615 124.052 39.0918 124.052 39.2645H116.358C116.389 39.6002 116.492 39.9251 116.662 40.2167C116.831 40.5084 117.062 40.7597 117.339 40.9533C118.043 41.4017 118.871 41.6166 119.705 41.5674C120.35 41.5728 120.994 41.515 121.628 41.3947C122.143 41.3117 122.647 41.1701 123.129 40.9725L123.59 43.7552C123.348 43.8704 123.097 43.9667 122.84 44.043C122.506 44.1442 122.166 44.2211 121.821 44.2733C121.42 44.3522 121.016 44.4099 120.609 44.446C120.18 44.4741 119.749 44.4741 119.32 44.446C118.246 44.5686 117.158 44.464 116.127 44.139C115.402 43.8331 114.747 43.3825 114.203 42.8148C113.674 42.2704 113.273 41.6147 113.03 40.8957C112.725 40.0392 112.569 39.1371 112.568 38.2282ZM120.647 36.9232C120.635 36.636 120.583 36.3519 120.493 36.0788C120.422 35.804 120.291 35.5484 120.109 35.3304C119.923 35.1124 119.694 34.9358 119.436 34.8122C119.127 34.6531 118.782 34.5802 118.435 34.6011C118.118 34.5836 117.8 34.6384 117.507 34.7614C117.214 34.8845 116.952 35.0725 116.742 35.3112C116.557 35.533 116.414 35.7866 116.319 36.0596C116.222 36.3402 116.151 36.6293 116.108 36.9232H120.647Z" fill="#606060"/>
        <path d="M133.939 35.1193L132.862 34.889C132.42 34.7941 131.968 34.749 131.516 34.7547H130.746C130.518 34.7767 130.292 34.8217 130.073 34.889V44.139H126.63V32.6245C127.368 32.4101 128.12 32.2435 128.88 32.1255C129.803 31.9249 130.745 31.8284 131.689 31.8377C131.913 31.8206 132.138 31.8206 132.362 31.8377H133.151L133.939 31.9912C134.165 32.0267 134.385 32.0912 134.593 32.1831L133.939 35.1193Z" fill="#606060"/>
        <path d="M139.845 41.7401C140.302 41.7716 140.761 41.7062 141.191 41.5482C141.322 41.485 141.429 41.3825 141.498 41.2551C141.567 41.1276 141.594 40.9818 141.576 40.8382C141.566 40.6829 141.514 40.5332 141.426 40.4049C141.338 40.2765 141.217 40.1743 141.076 40.1089C140.586 39.8294 140.071 39.598 139.537 39.418C138.998 39.2069 138.498 38.9958 138.056 38.7847C137.645 38.59 137.268 38.3309 136.94 38.0171C136.632 37.711 136.39 37.3453 136.228 36.9424C136.046 36.465 135.961 35.9561 135.978 35.4455C135.958 34.9289 136.064 34.4152 136.284 33.9476C136.505 33.48 136.836 33.0723 137.248 32.7588C138.26 32.0394 139.489 31.6872 140.73 31.7609C141.439 31.7642 142.147 31.8284 142.845 31.9528C143.396 32.0508 143.937 32.1985 144.461 32.3942L143.865 35.0617C143.437 34.9125 143 34.7907 142.557 34.6971C142.04 34.5753 141.51 34.5173 140.98 34.5244C139.902 34.5244 139.364 34.8314 139.364 35.4263C139.333 35.5459 139.333 35.6714 139.364 35.791C139.419 35.9187 139.514 36.026 139.633 36.098C139.81 36.2313 140.004 36.341 140.21 36.4243C140.504 36.5683 140.806 36.6965 141.114 36.8081C141.774 37.0382 142.417 37.314 143.038 37.6333C143.478 37.8556 143.876 38.1546 144.211 38.5161C144.489 38.81 144.693 39.165 144.808 39.5524C144.93 39.9894 144.989 40.4419 144.981 40.8957C145.011 41.4246 144.903 41.9522 144.667 42.4266C144.431 42.901 144.075 43.306 143.634 43.6016C142.473 44.2862 141.133 44.6071 139.787 44.5228C138.888 44.5374 137.991 44.4473 137.113 44.2541C136.604 44.132 136.103 43.9781 135.613 43.7936L136.19 40.9917C136.776 41.2263 137.381 41.4124 137.998 41.5482C138.606 41.6704 139.224 41.7347 139.845 41.7401V41.7401Z" fill="#606060"/>
        <path d="M6.34769 61.027C6.45749 61.0068 6.55832 60.9532 6.63623 60.8734L15.5424 68.5498C15.496 68.6489 15.472 68.757 15.472 68.8664C15.472 68.9758 15.496 69.0839 15.5424 69.1831C15.5889 69.3251 15.6759 69.4505 15.7928 69.544C15.9097 69.6374 16.0514 69.6948 16.2004 69.709C16.3495 69.7233 16.4996 69.6938 16.6321 69.6243C16.7647 69.5547 16.874 69.4481 16.9467 69.3174L32.7008 73.098C32.6722 73.2179 32.6722 73.3428 32.7008 73.4626C32.7313 73.5604 32.7811 73.651 32.8473 73.7293C32.9134 73.8075 32.9946 73.8718 33.086 73.9183C33.1774 73.9648 33.2772 73.9926 33.3795 74C33.4819 74.0074 33.5847 73.9944 33.6819 73.9616C33.857 73.9041 34.0049 73.7843 34.0971 73.625C34.1894 73.4657 34.2196 73.2781 34.182 73.098L50.4748 67.3408C50.5369 67.5387 50.6747 67.7041 50.8585 67.8012C51.0422 67.8982 51.2568 67.919 51.4558 67.8589C51.6507 67.7931 51.812 67.6539 51.9054 67.471C51.9989 67.2882 52.017 67.0762 51.9559 66.8802C51.9035 66.7086 51.7862 66.564 51.6289 66.4772L58.9193 58.2443C59.0095 58.3102 59.1144 58.3534 59.2249 58.3701C59.3354 58.3868 59.4484 58.3766 59.5541 58.3402C59.6582 58.3171 59.7564 58.2726 59.8423 58.2096C59.9283 58.1466 60.0002 58.0665 60.0535 57.9743C60.1067 57.8821 60.1402 57.7799 60.1517 57.6741C60.1633 57.5683 60.1527 57.4613 60.1205 57.3598C60.0884 57.2583 60.0355 57.1646 59.9652 57.0846C59.8948 57.0047 59.8086 56.9401 59.7119 56.8952C59.6152 56.8502 59.5102 56.8258 59.4036 56.8235C59.2969 56.8212 59.191 56.841 59.0925 56.8817C58.9952 56.91 58.9047 56.9577 58.8264 57.0218C58.7481 57.086 58.6837 57.1653 58.637 57.2549C58.5902 57.3446 58.5622 57.4428 58.5545 57.5435C58.5468 57.6443 58.5597 57.7456 58.5923 57.8413C58.6191 57.9174 58.6581 57.9887 58.7077 58.0524L52.3599 63.3299L52.2252 63.1955L57.3227 53.3506C57.5324 53.4359 57.7672 53.4359 57.9768 53.3506C58.2319 53.2743 58.4461 53.0999 58.5724 52.866C58.6986 52.6321 58.7266 52.3577 58.65 52.1032C58.5735 51.8487 58.3988 51.635 58.1643 51.509C57.9298 51.383 57.6548 51.3552 57.3997 51.4315C57.2765 51.4663 57.1618 51.5258 57.0624 51.6064C56.9631 51.6869 56.8812 51.7868 56.8218 51.8999C56.7624 52.013 56.7267 52.137 56.7169 52.2644C56.7072 52.3917 56.7235 52.5197 56.7649 52.6405C56.7614 52.6917 56.7614 52.743 56.7649 52.7941L50.9172 57.5726L49.513 54.5021C49.653 54.4125 49.7592 54.2791 49.8149 54.1228C49.8706 53.9664 49.8727 53.7961 49.8208 53.6385C49.7924 53.5415 49.7446 53.4512 49.6803 53.3731C49.616 53.295 49.5366 53.2307 49.4467 53.184C49.3568 53.1374 49.2584 53.1094 49.1574 53.1018C49.0564 53.0941 48.9549 53.107 48.859 53.1395C48.6656 53.2012 48.5044 53.3367 48.4108 53.5165C48.3171 53.6962 48.2984 53.9056 48.3588 54.0991L44.5117 58.1099L35.0861 53.9455C35.1535 53.7071 35.1535 53.4547 35.0861 53.2163C34.9713 52.8668 34.7235 52.5764 34.396 52.4076C34.0685 52.2389 33.6877 52.2054 33.3356 52.3143C32.9903 52.4286 32.7039 52.6738 32.5384 52.997C32.3728 53.3201 32.3413 53.6953 32.4508 54.0415L26.1606 56.306L26.7569 53.1011L14.0228 49.8963L13.0033 46.4419C13.3451 46.3223 13.6253 46.0721 13.7822 45.7464C13.9391 45.4207 13.9599 45.0461 13.8401 44.7051C13.7202 44.3641 13.4694 44.0846 13.1429 43.928C12.8165 43.7715 12.441 43.7507 12.0992 43.8703L9.61779 37.6333L12.4455 36.194C12.5123 36.2468 12.5907 36.283 12.6743 36.2997C12.7579 36.3164 12.8443 36.313 12.9264 36.2899C12.9923 36.2702 13.0537 36.2376 13.1069 36.194C13.1602 36.1504 13.2042 36.0967 13.2364 36.036C13.2686 35.9753 13.2884 35.9088 13.2946 35.8403C13.3008 35.7719 13.2933 35.7029 13.2726 35.6374C13.2285 35.5074 13.1361 35.3992 13.0145 35.3349C12.8928 35.2707 12.7512 35.2553 12.6186 35.292C12.5067 35.3286 12.4113 35.4033 12.3493 35.5031L6.65546 30.3983V30.2256C6.81857 30.1212 6.94624 29.97 7.02176 29.7919C7.09727 29.6139 7.1171 29.4172 7.07865 29.2277L20.7169 26.8672C20.7169 26.8672 20.7169 26.8672 20.7169 27.0015C20.7699 27.17 20.8676 27.321 20.9996 27.4385C21.1317 27.5561 21.2931 27.6358 21.4669 27.6693C21.6406 27.7028 21.8202 27.6887 21.9866 27.6286C22.153 27.5686 22.3001 27.4647 22.4121 27.3281C22.5242 27.1914 22.5971 27.0271 22.6232 26.8525C22.6492 26.6778 22.6275 26.4994 22.5602 26.3361C22.4929 26.1729 22.3826 26.0308 22.2409 25.9249C22.0993 25.8191 21.9316 25.7534 21.7556 25.7349L21.1593 15.8325C21.2546 15.8511 21.3526 15.8511 21.4478 15.8325C21.579 15.7879 21.7023 15.7232 21.8133 15.6406L30.3156 13.4336L31.1043 13.875C31.017 14.1037 31.017 14.3564 31.1043 14.5851C31.1833 14.8395 31.3605 15.0523 31.5968 15.1764C31.8331 15.3006 32.1091 15.326 32.3642 15.2471C32.6193 15.1682 32.8325 14.9915 32.957 14.7558C33.0814 14.52 33.1069 14.2446 33.0278 13.9901C32.9969 13.9159 32.9582 13.8452 32.9124 13.779L39.972 10.8812C40.0358 11.0772 40.1749 11.2398 40.3589 11.3334C40.5429 11.427 40.7566 11.4438 40.953 11.3802C41.1494 11.3166 41.3125 11.1777 41.4063 10.9942C41.5001 10.8106 41.5169 10.5974 41.4532 10.4014C41.3685 10.2059 41.2097 10.0517 41.0115 9.97258C40.8132 9.89346 40.5917 9.89586 40.3952 9.97924C40.251 10.029 40.1239 10.1185 40.0286 10.2374C39.9332 10.3563 39.8736 10.4997 39.8566 10.6509L25.622 10.4206C25.5602 10.2277 25.4243 10.0669 25.2442 9.97348C25.064 9.88001 24.8541 9.86139 24.6602 9.92167C24.4907 9.9708 24.3447 10.0795 24.2492 10.2276C24.1538 10.3758 24.1153 10.5534 24.1409 10.7277L14.8499 14.5659C14.7521 14.4356 14.6153 14.3397 14.4592 14.292C14.3031 14.2444 14.1359 14.2475 13.9818 14.3009C13.8276 14.3544 13.6944 14.4553 13.6015 14.5891C13.5086 14.723 13.4608 14.8829 13.465 15.0456C13.4737 15.1539 13.5066 15.2588 13.5611 15.3527L6.88629 21.417C6.79039 21.2624 6.64258 21.1467 6.46919 21.0907C6.2958 21.0346 6.1081 21.0418 5.93952 21.1109C5.77094 21.18 5.63242 21.3066 5.54865 21.4681C5.46487 21.6296 5.44128 21.8155 5.48207 21.9927C5.52854 22.1351 5.61477 22.2613 5.73062 22.3565C5.84646 22.4516 5.98713 22.5119 6.13609 22.5301L1.19247 33.0851C1.07882 33.0566 0.959883 33.0566 0.846227 33.0851C0.651385 33.1509 0.49004 33.2901 0.396607 33.4729C0.303173 33.6558 0.285047 33.8678 0.346095 34.0638C0.396838 34.1805 0.473367 34.2843 0.569964 34.3674C0.666561 34.4505 0.780729 34.5107 0.903935 34.5436V46.3076C0.802206 46.2888 0.69789 46.2888 0.596161 46.3076C0.399747 46.3686 0.235697 46.5051 0.1401 46.6868C0.0445031 46.8686 0.0251905 47.0807 0.0864105 47.2767C0.147631 47.4727 0.284368 47.6363 0.466543 47.7317C0.648718 47.8271 0.861408 47.8463 1.05782 47.7853V47.7853L5.77061 59.6452C5.62048 59.746 5.51076 59.8964 5.46073 60.0698C5.4107 60.2433 5.42356 60.4289 5.49705 60.5939C5.57054 60.7588 5.69997 60.8927 5.86257 60.9719C6.02518 61.0511 6.21057 61.0706 6.38616 61.027H6.34769ZM32.874 12.7427L30.3348 13.4336L25.5836 10.8236L32.8547 12.7427C32.8547 12.7427 32.874 12.7043 32.874 12.7427ZM12.2723 21.513H11.3105L12.0992 20.3039C12.207 20.4302 12.3577 20.5122 12.5224 20.5342L12.2723 21.513ZM6.09762 28.4601C5.98299 28.4411 5.86601 28.4411 5.75138 28.4601H5.61672L6.11686 27.9419L6.09762 28.4601ZM4.73187 39.8594C4.67281 39.803 4.59979 39.7633 4.52028 39.7443L5.05888 30.3216L5.34742 30.0913C5.49883 30.2533 5.7037 30.3555 5.9245 30.3791L4.73187 39.8594ZM47.3201 60.3361L47.474 60.4512L46.743 61.1997L44.4155 61.8138L47.3201 60.3361ZM16.0618 68.2811L15.1 65.2489L20.8708 67.6478V67.7821L16.9082 68.876C16.9172 68.8382 16.9172 68.7987 16.9082 68.7609C16.8473 68.5936 16.7287 68.4534 16.5736 68.3654C16.4185 68.2775 16.237 68.2476 16.0618 68.2811V68.2811ZM51.5135 60.1826L50.4363 61.0653L49.8015 61.5643L49.0513 60.7583L51.475 60.125L51.5135 60.1826ZM50.9941 64.0207L43.5499 66.7842L49.7438 61.737L51.1096 63.2339C51.0318 63.3404 50.9808 63.4639 50.9607 63.5941C50.9406 63.7243 50.9521 63.8575 50.9941 63.9824V64.0207ZM29.8347 68.3003L29.4307 68.4538C29.4059 68.3882 29.3665 68.3292 29.3153 68.2811L29.8347 68.3003ZM29.45 68.6073L30.1617 68.3195L33.4126 68.473L29.5654 68.7225C29.5537 68.6611 29.5194 68.6063 29.4692 68.569L29.45 68.6073ZM30.4695 68.1851L36.7596 65.6328C36.8749 65.8084 37.0437 65.9423 37.2411 66.0149C37.4386 66.0875 37.6541 66.0948 37.856 66.0358C37.9727 65.994 38.0828 65.9358 38.1831 65.8631L39.7796 67.5519C39.6434 67.6978 39.5678 67.8898 39.568 68.0892L34.7014 68.3962L30.4695 68.1851ZM48.8782 60.835L49.6669 61.6986L43.1459 66.9953L41.03 67.7821L40.9338 67.6094L46.82 61.4108L48.8782 60.835ZM41.0684 67.9165L42.8189 67.2832L42.0879 67.8781H41.0684V67.9165ZM41.0684 68.2235C41.0778 68.1792 41.0778 68.1335 41.0684 68.0892H41.8571L41.5301 68.3579C41.4224 68.2511 41.2779 68.1893 41.1261 68.1851L41.0684 68.2235ZM39.5488 68.2235C39.5756 68.2938 39.6146 68.3588 39.6642 68.4154L39.5296 68.5306L35.9325 68.3579L39.5488 68.2235ZM48.3011 60.6623C48.391 60.6226 48.4751 60.5709 48.5512 60.5088L48.7243 60.7199L46.9546 61.1805L47.5125 60.5664C47.6411 60.636 47.7833 60.6772 47.9294 60.6872C48.0754 60.6971 48.2219 60.6755 48.3588 60.6239L48.3011 60.6623ZM40.3952 63.0228L43.2421 62.2936L40.1451 63.8672V63.6369C40.2301 63.5597 40.2967 63.4645 40.34 63.3582C40.3833 63.2519 40.4021 63.1373 40.3952 63.0228V63.0228ZM43.8961 62.1208L46.5699 61.4108L40.7991 67.4559L40.0105 64.0207L43.8961 62.1208ZM40.7991 67.3791C40.7024 67.3357 40.5975 67.3132 40.4914 67.3132C40.3853 67.3132 40.2804 67.3357 40.1836 67.3791C40.1057 67.4022 40.0336 67.4415 39.972 67.4943L38.3754 65.7671C38.4831 65.6459 38.5602 65.5009 38.6003 65.344C38.6405 65.1871 38.6425 65.0229 38.6062 64.8651L40.0297 64.1359L40.7991 67.3791ZM37.3559 64.1359C37.2115 64.1873 37.0809 64.2712 36.9742 64.381C36.8675 64.4908 36.7875 64.6236 36.7404 64.7692L35.2592 64.3278L37.1828 63.8288L37.3559 64.1359ZM36.7019 64.9227C36.6644 65.0675 36.6644 65.2193 36.7019 65.3641C36.7019 65.3641 36.7019 65.3641 36.7019 65.3641L30.1617 68.1276H29.1999C29.1061 68.047 28.9938 67.9908 28.873 67.964C28.7522 67.9372 28.6266 67.9407 28.5074 67.974L27.988 66.1893L34.9322 64.4429L36.7019 64.9227ZM28.0073 66.0166L26.9301 62.8693C27.0813 62.8184 27.2171 62.7302 27.3247 62.6127C27.4324 62.4952 27.5084 62.3524 27.5456 62.1976L34.6244 64.3278L28.0073 66.0166ZM26.9301 62.8885L27.8726 66.055L23.66 67.168L22.0249 66.6499L24.2755 62.4471L25.7374 62.14C25.728 62.1908 25.728 62.2428 25.7374 62.2936C25.8206 62.5273 25.9913 62.7198 26.2137 62.8307C26.436 62.9416 26.6928 62.9623 26.9301 62.8885ZM21.7171 67.2832L22.0249 66.7075L23.4676 67.168L21.9672 67.5519C21.9369 67.4851 21.8916 67.4262 21.835 67.3797C21.7783 67.3331 21.7117 67.3001 21.6402 67.2832H21.7171ZM21.9672 66.5347L15.5232 64.5005C15.5511 64.4 15.5511 64.2939 15.5232 64.1935L24.0062 62.4279L21.9672 66.5347ZM7.19407 53.2355L8.11739 53.6001L7.6942 54.4829L7.13636 53.3698C7.16498 53.3296 7.18465 53.2838 7.19407 53.2355V53.2355ZM7.52108 56.7282C7.58846 56.562 7.58846 56.3762 7.52108 56.2101C7.49007 56.1092 7.43806 56.0161 7.36844 55.9367C7.29883 55.8573 7.21318 55.7935 7.11712 55.7495L7.6942 54.8091L8.84835 57.1312L8.46363 57.0161L7.52108 56.7282ZM12.2339 63.5793L11.9838 63.0804L13.3111 63.6945L12.8879 63.8288C12.8297 63.7134 12.7304 63.6238 12.6093 63.5776C12.4883 63.5314 12.3544 63.5321 12.2339 63.5793V63.5793ZM11.8491 62.9077L10.6373 60.4704L13.8304 63.5601L13.465 63.6561L11.8491 62.9077ZM13.9459 63.6753L14.1382 63.848L13.6958 63.6561L13.9459 63.6753ZM14.119 63.6753H14.3113L14.1959 63.8288L14.119 63.6753ZM13.9843 63.4834L10.4449 60.0866L9.07918 57.3615L15.7925 59.4917C15.7537 59.6622 15.7537 59.8393 15.7925 60.0098C15.8413 60.1409 15.9158 60.261 16.0116 60.3632C16.1073 60.4653 16.2225 60.5474 16.3503 60.6048L15.1577 63.2339L13.9843 63.4834ZM16.485 60.5472C16.6613 60.5954 16.8473 60.5954 17.0236 60.5472C17.1744 60.4978 17.311 60.4126 17.4216 60.2989C17.5321 60.1853 17.6134 60.0466 17.6584 59.8947L22.5251 60.9502L15.3885 63.1188L16.485 60.5472ZM8.1751 53.4658L7.23254 53.1011C7.25208 53.0256 7.25208 52.9464 7.23254 52.8708L9.00224 51.8153L8.1751 53.4658ZM6.88629 53.4658L7.4826 54.6748L7.02094 55.6535C6.88912 55.6146 6.74881 55.6146 6.61699 55.6535L6.84782 53.4466L6.88629 53.4658ZM7.46337 56.8242L8.88682 57.2655L10.1372 59.7604L7.29025 57.0544C7.35769 56.9999 7.41611 56.9352 7.46337 56.8625V56.8242ZM12.8879 63.9824L13.465 63.8096L14.0613 64.0975C14.043 64.1797 14.043 64.2648 14.0613 64.347C14.1092 64.4992 14.2035 64.6328 14.3311 64.7291C14.4586 64.8254 14.6131 64.8797 14.773 64.8843V65.0378L12.8494 64.2126C12.8818 64.1404 12.8951 64.0611 12.8879 63.9824ZM14.9654 64.8651H15.0808C15.2044 64.8119 15.311 64.7255 15.3885 64.6156L21.7749 66.6691L21.4671 67.2448H21.2363C21.1635 67.265 21.0963 67.3014 21.0396 67.3513C20.983 67.4012 20.9384 67.4632 20.9092 67.5327L15.0423 65.1146L14.9654 64.8651ZM21.9287 67.6862L23.6407 67.264L25.7182 67.9165L21.871 67.7438L21.9287 67.6862ZM23.8523 67.1872L27.6995 66.1893L28.2381 67.9932L26.1991 67.8973L23.8523 67.1872ZM28.0842 68.1851C28.0071 68.2725 27.9541 68.3783 27.9303 68.4922L26.7185 68.1084L28.0842 68.1851ZM29.4115 68.8185L34.6629 68.4922L39.3372 68.7225L33.9319 72.7718C33.8335 72.6423 33.6982 72.5456 33.5438 72.4943C33.3893 72.4429 33.2229 72.4393 33.0663 72.4839L32.8547 72.5991L29.1999 69.2215C29.332 69.1206 29.4267 68.9789 29.4692 68.8185H29.4115ZM39.568 68.8185H39.9912C40.1642 68.8868 40.3568 68.8868 40.5298 68.8185H40.7222L34.6244 72.5031L39.568 68.8185ZM41.7225 68.6265C41.7288 68.5691 41.7288 68.5112 41.7225 68.4538L42.2034 68.07L49.1283 67.4175L41.8186 68.6457L41.7225 68.6265ZM50.8595 66.5923C50.7328 66.6337 50.6188 66.7065 50.528 66.8038C50.4371 66.9012 50.3725 67.0199 50.3401 67.1488L42.3188 67.8013L43.2036 67.0913L51.0711 64.1743L51.2635 64.3662L50.9941 66.4772L50.8595 66.5923ZM39.7219 63.848H39.8181V64.0591L38.4716 64.6732C38.3849 64.4786 38.2358 64.3183 38.0477 64.2175C37.8597 64.1168 37.6434 64.0813 37.4329 64.1167L37.3174 63.7904L38.8948 63.3874C38.9766 63.5415 39.1098 63.6623 39.2713 63.7289C39.4329 63.7954 39.6127 63.8036 39.7796 63.7521L39.7219 63.848ZM37.0866 63.848L34.8745 64.4046L27.5841 62.2168C27.6126 62.0775 27.6126 61.9339 27.5841 61.7946C27.5089 61.6147 27.3899 61.4564 27.2378 61.334L27.6226 60.9118L36.7404 62.7158L37.0866 63.848ZM25.6605 62.0825L24.314 62.3703L24.6987 61.6411L25.699 61.8522C25.7043 61.878 25.7107 61.9036 25.7182 61.9289L25.6605 62.0825ZM24.1409 62.4087L15.5617 64.2126C15.5617 64.2126 15.5617 64.0975 15.5617 64.0399C15.493 63.8394 15.3478 63.6739 15.1577 63.5793V63.445L22.7174 61.2189L24.5256 61.6027L24.1409 62.4087ZM23.0829 60.9694L24.6218 60.528C24.6904 60.6635 24.789 60.7817 24.9103 60.8734L24.6795 61.334L23.0829 60.9694ZM24.5641 60.3937L22.7944 60.9118L17.6969 59.7987C17.7159 59.6844 17.7159 59.5677 17.6969 59.4533L20.563 58.4362L24.6218 60.0098C24.5794 60.1331 24.5663 60.2645 24.5833 60.3937H24.5641ZM17.6391 59.2998C17.557 59.1036 17.4131 58.9394 17.2292 58.8321C17.0453 58.7248 16.8313 58.6801 16.6196 58.7049L16.0233 56.6706L20.3322 58.3594L17.6391 59.2998ZM16.4658 58.7241C16.3302 58.7707 16.2066 58.8464 16.1036 58.9459C16.0006 59.0454 15.9206 59.1662 15.8694 59.2998L9.00224 57.1888L7.6942 54.6556L8.25204 53.7344L15.9464 56.709L16.4658 58.7241ZM11.1182 45.5399C11.1758 45.7206 11.2705 45.8874 11.3964 46.0295C11.5222 46.1716 11.6765 46.2859 11.8491 46.3651L11.2144 47.6125L8.07892 44.139L11.0797 44.8682C11.0377 45.0919 11.0509 45.3225 11.1182 45.5399V45.5399ZM11.1182 47.7469L9.1946 51.585L7.27101 52.6981C7.2377 52.6318 7.18883 52.5745 7.12854 52.531C7.06826 52.4876 6.99835 52.4593 6.92476 52.4486L5.77061 46.9409L5.15506 43.7168C5.1732 43.6282 5.1732 43.5368 5.15506 43.4481L7.82885 44.139L11.1182 47.7469ZM5.05888 30.1297V29.4964C5.04943 29.5728 5.04943 29.6502 5.05888 29.7267C5.09952 29.8058 5.14447 29.8827 5.19354 29.9569L5.05888 30.1297ZM4.80882 42.6229C4.7252 42.5668 4.63469 42.5216 4.53952 42.4886L4.63569 41.7209L4.80882 42.6229ZM4.38563 39.7635H4.25098L1.46178 34.5436C1.64374 34.4742 1.79258 34.3386 1.87826 34.1641C1.96394 33.9896 1.98008 33.7891 1.92344 33.6032C1.87589 33.4765 1.79639 33.3641 1.69261 33.277L5.00118 30.4559L4.38563 39.7635ZM4.11633 39.7635C4.02104 39.814 3.94391 39.8929 3.89565 39.9892C3.84739 40.0855 3.83039 40.1944 3.84702 40.3008C3.86571 40.3638 3.8977 40.4221 3.94083 40.4718C3.98396 40.5214 4.03724 40.5613 4.09709 40.5887L3.84702 41.2987L1.3656 34.6395L4.11633 39.7635ZM4.23174 40.723C4.30744 40.7425 4.38687 40.7425 4.46257 40.723L4.55875 41.2604L4.40486 42.4502C4.33465 42.4407 4.26348 42.4407 4.19327 42.4502L3.84702 41.4907L4.23174 40.723ZM4.05862 42.4694C3.93475 42.5064 3.81962 42.5679 3.72013 42.6503C3.62064 42.7327 3.53882 42.8342 3.47956 42.9489C3.4203 43.0635 3.38483 43.1889 3.37525 43.3176C3.36568 43.4462 3.3822 43.5755 3.42383 43.6976C3.46755 43.8328 3.53969 43.9571 3.63543 44.0622L1.3656 46.6146L3.84702 41.6634L4.05862 42.4694ZM1.51948 46.8833C1.52314 46.8386 1.52314 46.7937 1.51948 46.749L3.65467 44.139C3.77122 44.2409 3.9116 44.3119 4.06287 44.3454C4.21414 44.3789 4.37144 44.374 4.52028 44.3309L5.77061 51.9113L1.3656 47.5933C1.44802 47.4969 1.50521 47.3815 1.53206 47.2576C1.55892 47.1337 1.55459 47.0051 1.51948 46.8833V46.8833ZM4.63569 44.2733C4.80787 44.2024 4.95513 44.0822 5.05888 43.9279L5.6552 47.152L6.65546 52.5062H6.55928L6.07839 52.0264L4.63569 44.2733ZM6.34769 52.6597C6.28677 52.7258 6.24411 52.8065 6.22388 52.894C6.20365 52.9815 6.20654 53.0727 6.23227 53.1587C6.26163 53.2635 6.3245 53.3558 6.41132 53.4216C6.49813 53.4874 6.60413 53.5232 6.71317 53.5233L6.52081 55.2889L6.02068 52.3143L6.34769 52.6597ZM7.05941 57.1696H7.15559L10.3295 60.2209L11.6376 62.8501L6.82858 60.6239C6.88575 60.4559 6.88575 60.2738 6.82858 60.1058C6.80425 59.9609 6.73875 59.826 6.63987 59.7172C6.54099 59.6083 6.41288 59.5301 6.27074 59.4917L6.63623 57.112C6.76639 57.1794 6.91592 57.1997 7.05941 57.1696V57.1696ZM11.753 62.9269L12.08 63.5985L7.25177 60.931L11.753 62.9269ZM12.734 64.3854V64.2702L14.9269 65.2489L15.9272 68.3579C15.8764 68.3475 15.824 68.3475 15.7733 68.3579L12.734 64.3854ZM16.9659 69.0871L20.9477 67.974C20.9783 68.0579 21.031 68.1321 21.1001 68.1887C21.1692 68.2454 21.2523 68.2825 21.3408 68.2963C21.4292 68.31 21.5197 68.2998 21.6028 68.2668C21.6859 68.2337 21.7586 68.179 21.8133 68.1084L23.6023 68.9144L16.9659 69.0871ZM21.8903 67.9932V67.8973L26.1991 68.1084L27.9111 68.6649C27.9111 68.6649 27.9111 68.6649 27.9111 68.7801L23.8716 68.8952L21.8903 67.9932ZM27.988 68.9144C28.0499 69.1074 28.1857 69.2681 28.3659 69.3616C28.5461 69.455 28.756 69.4736 28.9498 69.4134L29.1422 69.3174L32.8162 72.695V72.8101L24.314 68.972L27.988 68.9144ZM40.8568 68.9144C40.9132 69.0113 41.0018 69.0854 41.1072 69.1239C41.2126 69.1625 41.3282 69.163 41.4339 69.1255C41.5405 69.0925 41.6336 69.0262 41.6994 68.9363C41.7652 68.8465 41.8003 68.7378 41.7994 68.6265L50.2247 67.2064L34.1435 72.9637L40.8568 68.9144ZM51.4366 64.3854H51.5712L51.2635 65.652L51.4366 64.3854ZM51.4366 62.9652L51.2057 63.0996L50.7633 62.6006L49.8592 61.6219L51.5712 60.2209H51.7636L51.4366 62.9652ZM51.4366 59.9331L48.9551 60.5856L48.7436 60.3361C48.8755 60.2101 48.9703 60.0505 49.0178 59.8746C49.0652 59.6987 49.0635 59.5132 49.0129 59.3382V59.2422L50.9364 57.7261L51.7059 59.3765C51.5918 59.4272 51.4999 59.5172 51.4469 59.63C51.3939 59.7427 51.3834 59.8708 51.4173 59.9907L51.4366 59.9331ZM47.147 59.9331C47.1776 60.0135 47.2163 60.0907 47.2624 60.1634L43.7807 61.9289L40.3182 62.8309V62.7349L44.5886 58.3402L47.1662 59.4725C47.1153 59.6403 47.1021 59.8172 47.1277 59.9907L47.147 59.9331ZM38.8178 63.3299L37.279 63.7137L36.9327 62.6582L38.8563 63.0228C38.8222 63.1214 38.8091 63.226 38.8178 63.3299V63.3299ZM36.7211 62.4855L27.7764 60.7199L32.9894 54.9626C33.16 55.0679 33.3511 55.1361 33.55 55.1625C33.7489 55.189 33.9512 55.1732 34.1435 55.1162L34.3359 55.0202L34.8553 56.6322L36.7211 62.4855ZM27.1032 61.1805C26.9882 61.1132 26.8607 61.0699 26.7284 61.0534C26.5961 61.0369 26.4618 61.0475 26.3338 61.0845C26.2007 61.1302 26.0788 61.2034 25.9761 61.2993C25.8733 61.3952 25.792 61.5117 25.7374 61.6411L24.7757 61.43L25.0065 61.0078C25.1683 61.0648 25.3448 61.0648 25.5066 61.0078C25.6239 60.9706 25.7305 60.9058 25.8176 60.819C25.9046 60.7322 25.9695 60.6258 26.0068 60.5088L27.4494 60.7775L27.1032 61.1805ZM25.1027 59.4917C24.9896 59.5371 24.8854 59.6021 24.7949 59.6836L22.5443 57.7645L25.9875 56.5555L25.4297 59.4917C25.3225 59.4632 25.2098 59.4632 25.1027 59.4917ZM24.7179 59.7987V59.8947L20.8708 58.3786L22.5058 57.8029L24.7179 59.7987ZM20.5438 58.3019L15.9656 56.4979L14.3306 50.9134L22.2558 57.6877L20.5438 58.3019ZM15.7925 56.3828L8.30975 53.5233L9.23307 51.8153L12.407 49.8963C12.4779 49.9753 12.5693 50.0332 12.6711 50.0637C12.773 50.0942 12.8813 50.096 12.9841 50.069C13.0758 50.0343 13.1558 49.9744 13.2149 49.8963L14.1382 50.6831L15.7925 56.3828ZM13.2918 49.8963L13.8881 50.0498L14.042 50.6063L13.2918 49.8963ZM12.3108 49.8963L9.31001 51.585L10.8681 48.5529L11.2144 47.9196L12.4455 49.2821C12.3828 49.3473 12.3376 49.4272 12.3141 49.5144C12.2905 49.6016 12.2894 49.6934 12.3108 49.7811V49.8963ZM5.21277 43.2946C5.21277 43.2946 5.21277 43.1603 5.21277 43.1027C5.16569 42.9748 5.09378 42.8574 5.00118 42.7573L4.71264 41.2604V40.6654L7.6942 43.8895L5.21277 43.2946ZM6.05915 30.3791H6.36692L6.52081 30.5135L9.40619 37.5949L4.86653 39.8786L6.05915 30.3791ZM6.25151 28.4601V27.8843L8.38669 25.6774L6.4631 28.556L6.25151 28.4601ZM6.25151 27.6732L6.52081 22.4149C6.62904 22.3653 6.72387 22.2907 6.79746 22.1973C6.87105 22.1038 6.92128 21.9942 6.944 21.8776L11.0028 21.6857L8.82912 25.0825L6.25151 27.6732ZM11.1759 21.6857H12.0992L9.31001 24.5643L11.1759 21.6857ZM14.0613 15.5638H14.3113C14.4246 15.5247 14.5279 15.4616 14.6143 15.3787C14.7006 15.2959 14.7679 15.1953 14.8115 15.084L18.2547 16.1203L13.0802 19.1909L14.0613 15.5638ZM20.1398 15.18C20.2219 15.405 20.3871 15.5904 20.6015 15.6981L19.4281 15.986L19.2357 15.89L19.7936 15.3527L20.1398 15.18ZM19.2357 15.8517H19.0434L19.2357 15.7173V15.8517ZM18.7356 16.2163C18.7356 16.2163 18.7356 16.3122 18.7356 16.3698L13.7343 20.3423L13.465 20.0736C13.5126 19.9172 13.5126 19.7503 13.465 19.5939C13.404 19.4324 13.297 19.2923 13.1572 19.1909L18.4855 16.1203L18.7356 16.2163ZM12.6763 20.5918H12.9071C13.084 20.5191 13.2325 20.3912 13.3303 20.2272L13.6188 20.4383L12.4455 21.3978L12.6763 20.5918ZM21.3709 25.6966C21.2407 25.7293 21.1213 25.7955 21.0247 25.8885L13.8497 20.4191L18.6009 16.5809C18.6448 16.7103 18.7382 16.8172 18.8606 16.8783C18.9831 16.9394 19.1249 16.9498 19.255 16.9071C19.3209 16.8874 19.3823 16.8548 19.4355 16.8112C19.4888 16.7676 19.5328 16.7139 19.565 16.6532C19.5972 16.5925 19.617 16.526 19.6232 16.4576C19.6294 16.3891 19.622 16.3202 19.6012 16.2547V16.2547L20.9285 15.9284L21.5825 25.7541C21.514 25.7282 21.4431 25.7089 21.3709 25.6966ZM21.3709 13.9518L23.0829 12.1862L21.4286 13.9901L21.3709 13.9518ZM20.1975 14.8921L19.7166 15.3527L18.4663 16.0628L14.8884 14.9497L20.1398 14.8345L20.1975 14.8921ZM12.9456 19.1909H12.7917L13.5996 16.9647L12.9456 19.1909ZM11.9261 20.1312C11.916 20.1883 11.916 20.2468 11.9261 20.3039L11.0412 21.6473L6.88629 21.82L11.8107 19.9009C11.842 19.9571 11.8808 20.0087 11.9261 20.0545V20.1312ZM6.15533 27.9227L5.4436 28.652C5.38077 28.6338 5.31408 28.6338 5.25124 28.652L6.42463 22.8947L6.15533 27.9227ZM4.98194 29.5539V30.3408L1.67337 33.0467L4.82805 29.4196L4.98194 29.5539ZM1.21171 34.5436L3.69314 41.4331L1.21171 46.4995C1.13882 46.4535 1.06149 46.4149 0.980879 46.3843L1.03859 34.5436H1.21171ZM5.77061 52.1608L6.38616 55.7687L6.25151 55.8646L1.26942 47.7085L5.77061 52.1608ZM6.42463 57.1312V57.5918V57.1312ZM6.65546 60.7775L11.8299 63.8864C11.8014 63.9998 11.8014 64.1184 11.8299 64.2318C11.8738 64.3613 11.9671 64.4681 12.0896 64.5292C12.2121 64.5903 12.3538 64.6007 12.4839 64.5581V64.5581L15.5232 68.5114L6.65546 60.7775ZM16.8505 69.2598L23.8908 69.0871L32.7008 72.9253L16.8505 69.2598ZM58.65 58.2827L51.3404 66.5155H51.1673L51.6289 64.5965C51.7177 64.6151 51.8094 64.6151 51.8982 64.5965C51.9962 64.566 52.0871 64.5163 52.1655 64.4504C52.2439 64.3844 52.3083 64.3034 52.3549 64.2122C52.4015 64.121 52.4294 64.0214 52.4369 63.9193C52.4443 63.8172 52.4312 63.7147 52.3984 63.6177C52.3984 63.6177 52.3984 63.6177 52.3984 63.6177L58.65 58.2827ZM56.8419 53.0052C56.9169 53.1029 57.008 53.1872 57.1112 53.2547L52.0329 63.0804C51.8728 63.0143 51.6929 63.0143 51.5328 63.0804L51.9367 60.3745H52.0521C52.1178 60.3543 52.1789 60.3214 52.2318 60.2777C52.2847 60.234 52.3285 60.1804 52.3607 60.1198C52.3929 60.0592 52.4127 59.9929 52.4192 59.9246C52.4257 59.8564 52.4186 59.7875 52.3984 59.722C52.3782 59.6565 52.3452 59.5955 52.3014 59.5427C52.2576 59.4899 52.2038 59.4462 52.1431 59.4141C52.0823 59.382 52.0159 59.3622 51.9475 59.3558C51.879 59.3493 51.81 59.3564 51.7443 59.3765V59.3765L50.9749 57.7069L56.8419 53.0052ZM48.3781 54.2718C48.4674 54.4125 48.6001 54.5204 48.7562 54.5792C48.9124 54.6381 49.0835 54.6447 49.2437 54.598V54.598L50.8018 57.5726L48.8782 59.1079C48.7679 58.9265 48.6005 58.7866 48.4021 58.7103C48.2038 58.6339 47.9856 58.6252 47.7818 58.6857C47.6462 58.7323 47.5226 58.8081 47.4196 58.9075C47.3166 59.007 47.2366 59.1278 47.1854 59.2614L44.6463 58.1483L48.3781 54.2718ZM44.3001 58.2827L40.1066 62.6006C40.0169 62.4609 39.8831 62.355 39.7265 62.2994C39.5698 62.2439 39.399 62.2418 39.241 62.2936C39.1224 62.334 39.0151 62.4022 38.9281 62.4923C38.8412 62.5824 38.777 62.6919 38.7409 62.8117L36.8173 62.4471L34.8937 56.2484L34.4321 54.8475C34.6939 54.6766 34.8957 54.4284 35.0091 54.1374L44.3001 58.2827ZM32.3931 54.2334C32.4879 54.4391 32.6256 54.6223 32.797 54.7707L27.5264 60.528L26.026 60.2401C26.0545 60.1267 26.0545 60.0081 26.026 59.8947C25.9861 59.7812 25.9201 59.6787 25.8332 59.5954C25.7463 59.512 25.6411 59.4502 25.5259 59.4149L26.1029 56.3828L32.3931 54.2334ZM26.6223 53.2163L26.026 56.3636L22.4096 57.5726L14.2729 50.6639L14.0613 49.8963L26.6223 53.2163ZM13.8497 49.7619L13.3303 49.6276C13.3397 49.5768 13.3397 49.5248 13.3303 49.4741C13.313 49.4067 13.2818 49.3437 13.2387 49.2892C13.1955 49.2346 13.1414 49.1896 13.0799 49.157C13.0183 49.1245 12.9506 49.1052 12.8811 49.1003C12.8116 49.0954 12.7418 49.1051 12.6763 49.1286L11.3875 47.6893L12.0607 46.3843C12.3412 46.4808 12.6459 46.4808 12.9264 46.3843V46.3843L13.8497 49.7619ZM11.9261 43.8319C11.7251 43.9019 11.5436 44.0183 11.3965 44.1718C11.2494 44.3252 11.1408 44.5113 11.0797 44.7147L10.1564 44.4844L7.90579 43.9471L4.78958 40.4927C4.81888 40.4296 4.83405 40.3608 4.83405 40.2912C4.83405 40.2216 4.81888 40.1529 4.78958 40.0897L9.40619 37.7292L11.9261 43.8319ZM12.2339 35.6374C12.1952 35.7362 12.1952 35.8458 12.2339 35.9445C12.2239 35.9887 12.2239 36.0346 12.2339 36.0788L9.61779 37.499L6.77088 30.7054L12.2339 35.6374ZM6.96324 29.0934C6.89304 28.9266 6.7803 28.781 6.63623 28.6712L8.94453 25.1592L12.3685 21.6473L13.7343 20.515L20.3129 25.5239L20.9477 26.0036C20.7911 26.1781 20.7024 26.4028 20.6976 26.6369L6.96324 29.0934ZM21.8903 15.3527C21.9778 15.2362 22.0358 15.1003 22.0592 14.9566C22.0827 14.8129 22.0709 14.6657 22.0249 14.5275C21.9586 14.3111 21.8148 14.1267 21.621 14.0093L24.2755 11.1307C24.3784 11.2359 24.5071 11.3125 24.6488 11.3529C24.7905 11.3933 24.9403 11.3961 25.0834 11.361C25.2815 11.2874 25.4457 11.144 25.5451 10.958L30.1232 13.4336L21.8903 15.3527ZM39.8373 10.7469L32.7008 13.7407C32.6189 13.6139 32.5064 13.5097 32.3737 13.4375C32.241 13.3653 32.0922 13.3275 31.941 13.3275C31.7898 13.3275 31.6411 13.3653 31.5083 13.4375C31.3756 13.5097 31.2631 13.6139 31.1812 13.7407L30.5272 13.4336L32.9124 12.8579C32.9633 12.9709 33.0545 13.061 33.1682 13.1107C33.282 13.1604 33.4103 13.166 33.528 13.1265C33.5955 13.1093 33.6586 13.0781 33.7133 13.0351C33.768 12.9921 33.8131 12.9381 33.8457 12.8767C33.8783 12.8153 33.8977 12.7477 33.9026 12.6784C33.9075 12.609 33.8978 12.5394 33.8742 12.4741C33.8548 12.4084 33.822 12.3475 33.778 12.2951C33.734 12.2426 33.6796 12.1998 33.6183 12.1692C33.5569 12.1386 33.4899 12.1209 33.4215 12.1172C33.353 12.1135 33.2845 12.124 33.2202 12.1478C33.1497 12.1679 33.085 12.2046 33.0314 12.2546C32.9779 12.3047 32.9371 12.3667 32.9124 12.4357L25.6028 10.5166L39.8373 10.7469ZM24.1216 10.7469C24.1216 10.7469 24.1216 10.7469 24.1216 10.8812L21.1593 13.9134C21.0457 13.8849 20.9267 13.8849 20.8131 13.9134C20.6592 13.9631 20.5203 14.0506 20.4094 14.168C20.2984 14.2855 20.2189 14.4289 20.1783 14.5851L14.8692 14.7002L24.1024 10.862L24.1216 10.7469ZM13.9074 15.5446L12.6378 19.0757H12.4262C12.2938 19.1187 12.1755 19.1967 12.0841 19.3015C11.9926 19.4063 11.9314 19.5339 11.9069 19.6706L6.96324 21.5897L13.6766 15.3527C13.7287 15.4416 13.8104 15.5095 13.9074 15.5446V15.5446ZM6.21304 22.5109L5.00118 28.4792H4.9627C4.89673 28.499 4.83535 28.5316 4.78213 28.5751C4.7289 28.6187 4.6849 28.6725 4.65268 28.7332C4.62046 28.7939 4.60067 28.8604 4.59445 28.9288C4.58823 28.9973 4.59571 29.0662 4.61646 29.1317C4.64126 29.1973 4.68073 29.2564 4.73187 29.3045L1.38483 33.1426L6.21304 22.5109ZM1.26942 47.9772L6.23227 55.9798C6.15149 56.0733 6.09516 56.1854 6.06831 56.3059C6.04146 56.4264 6.04492 56.5517 6.07839 56.6706C6.13404 56.8139 6.227 56.9398 6.34769 57.0353L6.07839 59.4917H5.86679L1.26942 47.9772Z" fill="#606060"/>
        <path d="M54.976 48.7064C54.7822 48.9037 54.6736 49.169 54.6736 49.4453C54.6736 49.7216 54.7822 49.9868 54.976 50.1841C55.0713 50.2846 55.1861 50.3646 55.3134 50.4193C55.4408 50.474 55.578 50.5022 55.7166 50.5022C55.8552 50.5022 55.9924 50.474 56.1197 50.4193C56.2471 50.3646 56.3619 50.2846 56.4572 50.1841C56.6536 49.9882 56.7639 49.7224 56.7639 49.4453C56.7639 49.1682 56.6536 48.9024 56.4572 48.7064C56.2608 48.5105 55.9944 48.4004 55.7166 48.4004C55.4388 48.4004 55.1724 48.5105 54.976 48.7064V48.7064Z" fill="#606060"/>
        <path d="M33.028 7.38847C33.6017 7.38847 34.0667 6.9245 34.0667 6.35216C34.0667 5.77983 33.6017 5.31586 33.028 5.31586C32.4543 5.31586 31.9893 5.77983 31.9893 6.35216C31.9893 6.9245 32.4543 7.38847 33.028 7.38847Z" fill="#606060"/>
        <path d="M62.5933 46.346C62.5247 46.4138 62.4702 46.4945 62.433 46.5834C62.3958 46.6724 62.3767 46.7678 62.3767 46.8641C62.3767 46.9605 62.3958 47.0559 62.433 47.1448C62.4702 47.2338 62.5247 47.3145 62.5933 47.3823C62.6596 47.4502 62.7389 47.5041 62.8264 47.541C62.914 47.5778 63.008 47.5968 63.1031 47.5968C63.1981 47.5968 63.2921 47.5778 63.3797 47.541C63.4672 47.5041 63.5465 47.4502 63.6128 47.3823C63.6814 47.3145 63.7359 47.2338 63.7731 47.1448C63.8103 47.0559 63.8294 46.9605 63.8294 46.8641C63.8294 46.7678 63.8103 46.6724 63.7731 46.5834C63.7359 46.4945 63.6814 46.4138 63.6128 46.346C63.4741 46.2179 63.2921 46.1467 63.1031 46.1467C62.914 46.1467 62.732 46.2179 62.5933 46.346V46.346Z" fill="#606060"/>
        <path d="M45.6851 1.45851C46.0888 1.45851 46.416 1.13201 46.416 0.729253C46.416 0.326498 46.0888 0 45.6851 0C45.2814 0 44.9541 0.326498 44.9541 0.729253C44.9541 1.13201 45.2814 1.45851 45.6851 1.45851Z" fill="#606060"/>
        <path d="M50.4362 5.37342C50.3805 5.43011 50.3429 5.50192 50.328 5.57987C50.3131 5.65782 50.3215 5.73843 50.3523 5.81159C50.3832 5.88475 50.4349 5.94721 50.5012 5.99113C50.5674 6.03505 50.6452 6.05848 50.7248 6.05848C50.8043 6.05848 50.8821 6.03505 50.9483 5.99113C51.0146 5.94721 51.0664 5.88475 51.0972 5.81159C51.128 5.73843 51.1365 5.65782 51.1215 5.57987C51.1066 5.50192 51.069 5.43011 51.0133 5.37342C50.935 5.30058 50.8318 5.26007 50.7248 5.26007C50.6177 5.26007 50.5146 5.30058 50.4362 5.37342V5.37342Z" fill="#606060"/>
    </g>
    <defs>
        <clipPath id="clip0_925_2507">
            <rect width="145" height="74" fill="white"/>
        </clipPath>
    </defs>
</svg>
